<svg height="257" viewBox="0 0 257 257" width="257" xmlns="http://www.w3.org/2000/svg"><g fill="none" fill-rule="evenodd"><path d="m0 0h257v257h-257z" fill="#10a58e"/><path d="m143.944491 99.5206186c-4.889617-2.3245268-10.243582-3.52776-15.665376-3.5206186-20.040209 0-36.279115 16.120613-36.279115 36.000016s16.245574 35.999984 36.279115 35.999984c13.638013 0 25.525426-7.47132 31.720885-18.516168l-8.746335-4.820954c-4.635297 8.278963-13.430221 13.412717-22.97455 13.410656-14.51498 0-26.275682-11.673524-26.275682-26.073518s11.764036-26.073518 26.275682-26.073518c3.927124-.00615 7.805313.864619 11.347227 2.547793l4.318149-8.9569813zm17.525109-46.9304186v85.52984h-10.3252v-89.13204c-7.05168-1.94884-14.5084-2.988-22.1444-2.988-45.83924 0-83 37.16076-83 83s37.16076 83 83 83 83-37.16076 83-83c0-34.31884-20.82968-63.7772-50.53704-76.41312z" fill="#fff"/></g></svg>