<svg height="360" viewBox="0 0 640 360" width="640" xmlns="http://www.w3.org/2000/svg"><g fill="none" fill-rule="evenodd"><path d="m0 0h640v360h-640z" fill="#10a58e"/><g fill="#fff"><path d="m203.73428 195.919758c5.769448 0 9.242951-2.107657 11.834764-4.958759v4.522743h5.583049v-46.483742h-5.553462v20.392248c-2.603648-2.975256-6.065317-5.020836-11.834764-5.020836-8.373095 0-14.763867 6.880185-14.763867 15.804472 0 8.801612 6.390772 15.740918 14.763867 15.740918zm1.301824-4.896682c-5.955844 0-10.421988-4.774006-10.421988-10.84867 0-6.13674 4.467623-10.90779 10.421988-10.90779 5.954366 0 10.547733 4.774006 10.547733 10.90779 0 6.059884-4.590409 10.84867-10.547733 10.84867zm23.838172 4.460666h5.58305v-16.175456c0-6.259416 3.846298-9.607132 8.065391-9.607132 1.301824 0 2.41873.062077 3.784166.557214v-5.886956c-5.399611-.124153-9.367215 1.241537-11.834763 4.648374v-4.215314h-5.58305v30.67927zm36.208459.7464c8.99442 0 16.253568-7.190569 16.253568-16.114856 0-8.986364-7.259148-16.177072-16.253568-16.177072-4.299664-.017634-8.428362 1.681009-11.46871 4.718634-3.040348 3.037624-4.740513 7.162625-4.722864 11.458438 0 8.927243 7.195674 16.114856 16.191574 16.114856zm0-5.207066c-5.893712 0-10.421988-4.774006-10.421988-10.84867 0-6.13674 4.526796-10.90779 10.421988-10.90779 5.895191 0 10.484121 4.774006 10.484121 10.90779 0 6.059884-4.591888 10.84867-10.484121 10.84867zm22.19314 19.95771h5.58305v-20.005006c2.603648 2.852579 6.065316 4.958758 11.834763 4.958758 8.373095 0 14.763867-6.942262 14.763867-15.740917 0-8.927244-6.390772-15.804473-14.763867-15.804473-5.769447 0-9.245909 2.045581-11.834763 5.020836v-4.586298h-5.58305v46.176314zm16.129303-19.95771c-5.955845 0-10.547733-4.774006-10.547733-10.84867 0-6.13674 4.590409-10.90779 10.547733-10.90779s10.421989 4.774006 10.421989 10.90779c0 6.059884-4.467624 10.84867-10.421989 10.84867zm36.062003 5.207066c5.396653 0 10.237071-2.601316 13.166175-6.695432l-4.467623-3.28564c-1.798885 2.9117-5.025337 4.774006-8.683758 4.774006-6.017977-.062077-10.606907-4.774006-10.606907-10.84867 0-6.13674 4.590409-10.90779 10.606907-10.90779 3.597768.062077 6.760608 1.921426 8.624584 4.774006l4.526797-3.346238c-3.034204-4.242185-7.932684-6.758597-13.151381-6.756034-8.809502 0-16.129303 7.190572-16.129303 16.176936 0 8.927243 7.319801 16.114856 16.129303 16.114856zm32.663947 0c8.994421 0 16.253568-7.190569 16.253568-16.114856 0-8.986364-7.257668-16.177072-16.253568-16.177072-4.299664-.017634-8.428362 1.681009-11.46871 4.718634-3.040347 3.037624-4.740513 7.162625-4.722863 11.458438 0 8.927243 7.197153 16.114856 16.191573 16.114856zm0-5.207066c-5.893712 0-10.421988-4.774006-10.421988-10.84867 0-6.13674 4.526797-10.90779 10.421988-10.90779 5.895192 0 10.484121 4.774006 10.484121 10.90779 0 6.059884-4.590408 10.84867-10.484121 10.84867zm22.190182 4.460666h5.583049v-15.075808c0-7.189092 3.787125-11.156098 9.120165-11.156098 4.652541 0 8.624584 3.162963 8.624584 10.848669v15.371413h5.583049v-15.79117c0-10.287022-5.645182-15.309368-13.524176-15.309368-3.77496-.008421-7.361498 1.646961-9.802142 4.524253v-4.091161h-5.58305v30.67927zm49.291789.125632c1.787899-.003487 3.565151-.275017 5.272387-.805522l-.621325-4.833126c-1.116906.295604-2.295944.557213-3.476462.557213-3.16284 0-5.520917-1.486888-5.520917-5.468675v-15.371412h8.74737v-4.896682h-8.74737v-8.927243h-5.520917v8.927243h-7.192577v4.896682h7.195536v16.499141c0 6.012587 4.094828 9.420902 9.864275 9.420902zm23.166549.295604c5.769448 0 9.242951-2.107658 11.834764-4.958759v4.522743h5.583049v-30.66449h-5.583049v4.586298c-2.603648-2.975256-6.065316-5.020836-11.834764-5.020836-8.373095 0-14.763867 6.880185-14.763867 15.804472 0 8.801612 6.390772 15.740918 14.763867 15.740918zm1.301824-4.896682c-5.954365 0-10.547733-4.774006-10.547733-10.84867 0-6.136741 4.591889-10.90779 10.547733-10.90779 5.955845 0 10.547733 4.774006 10.547733 10.90779 0 6.059884-4.590409 10.84867-10.547733 10.84867zm37.801714 5.207066c5.396652 0 10.23707-2.601316 13.166174-6.695433l-4.467623-3.285639c-1.798884 2.9117-5.023857 4.774006-8.683758 4.774006-6.017977-.062077-10.606906-4.774006-10.606906-10.84867 0-6.136741 4.590409-10.90779 10.606906-10.90779 3.597768.062076 6.760609 1.921426 8.624584 4.774006l4.526797-3.346239c-3.034204-4.242185-7.932683-6.758596-13.151381-6.756033-8.809502 0-16.130782 7.190571-16.130782 16.176935.030039 8.888105 7.234707 16.08566 16.130782 16.114857zm32.844427-.620769c1.787899-.003486 3.565151-.275017 5.272387-.805521l-.621325-4.833127c-1.116906.295605-2.295944.557214-3.476462.557214-3.16284 0-5.520917-1.486888-5.520917-5.468675v-15.371413h8.74737v-4.896681h-8.74737v-8.927243h-5.520917v8.927243h-7.197016v4.896681h7.197016v16.513922c0 6.012587 4.094828 9.420902 9.864275 9.420902z" fill-rule="nonzero"/><path d="m138.7636 167.0056c-2.170245-1.039735-4.54659-1.577929-6.95304-1.574734-8.8948 0-16.1024 7.210574-16.1024 16.102414s7.21056 16.1024 16.1024 16.1024c6.0532 0 11.3294-3.34184 14.07924-8.28208l-3.88204-2.15636c-2.057366 3.70309-5.960972 5.999362-10.1972 5.99844-6.44244 0-11.6624-5.22144-11.6624-11.6624s5.22144-11.6624 11.6624-11.6624c1.743044-.002751 3.46437.386735 5.03644 1.1396l1.9166-4.00636zm7.7108-21.0678v38.12776h-4.6028v-39.73356c-3.14352-.86876-6.4676-1.332-9.8716-1.332-20.43436 0-37 16.56564-37 37s16.56564 37 37 37 37-16.56564 37-37c0-15.29876-9.28552-28.4308-22.52856-34.06368z"/></g></g></svg>