<svg height="257" viewBox="0 0 257 257" width="257" xmlns="http://www.w3.org/2000/svg"><g fill="none" fill-rule="evenodd"><circle cx="128.5" cy="128.5" fill="#c73a63" r="125.5"/><g transform="translate(51 49)"><path d="m72.7365954 61.4066171c-6.4554696 10.8985793-12.6403073 21.4528786-18.9538455 31.9274498-1.6213849 2.6890088-2.4236577 4.8791135-1.1282337 8.2977541 3.5759476 9.442939-1.4686284 18.632198-10.9503623 21.126719-8.9416733 2.353185-17.6536102-3.549105-19.4277518-13.16358-1.5720698-8.510363 5.0036805-16.8528133 14.3458888-18.1828217.7830279-.112344 1.5816923-.125632 2.897564-.2246881 4.5778865-7.7094583 9.2676342-15.6061568 14.2111743-23.9329033-8.9380649-8.9259148-14.2580838-19.360622-13.080535-32.28985.832343-9.1397308 4.4106963-17.0376373 10.9515651-23.5113113 12.5272434-12.39649979 31.6386567-14.40419641 46.3886888-4.88877748 14.1666699 9.13973078 20.6546159 26.94324028 15.1241059 42.18095698-4.170135-1.1355203-8.369137-2.2807047-12.985514-3.538233 1.736855-8.4717067.452256-16.079693-5.2370248-22.596855-3.7587744-4.3028974-8.5820337-6.558234-14.0668373-7.3893383-10.9948662-1.6682485-21.7900663 5.4263377-24.9931435 16.264517-3.636088 12.3010678 1.8667577 22.3492149 16.904261 29.9209613z" fill="#fff"/><path d="m91.7021233 48.8167201c4.5478163 8.0573625 9.1653957 16.236733 13.7420787 24.3412075 23.1324-7.1876022 40.573114 5.6727698 46.83012 19.441558 7.557241 16.6317494 2.391182 36.3306114-12.451467 46.5913664-15.234763 10.533763-34.501339 8.733843-47.9992481-4.796969 3.4400303-2.891953 6.8968999-5.797194 10.5907231-8.900547 13.331921 8.672234 24.99194 8.26393 33.648548-2.005281 7.381632-8.760419 7.221658-21.822527-.374073-30.3993292-8.766063-9.8971471-20.507873-10.1991472-34.701005-.6982242-5.8877447-10.4902753-11.8777276-20.8971985-17.5790366-31.4635777-1.9220869-3.5611851-4.0450426-5.6268658-8.3775564-6.380658-7.2360918-1.2599444-11.9077973-7.5004743-12.1880515-14.4923805-.275443-6.9145941 3.7804249-13.164788 10.1204249-15.6001168 6.2798596-2.4123767 13.649463-.4650801 17.8737241 4.8972335 3.4520584 4.3814174 4.5490191 9.3124749 2.7327793 14.7158606-.5051793 1.5063764-1.1595067 2.9644329-1.8679605 4.7498574z" fill="#4b4b4b"/><path d="m102.262695 115.207668h-27.8474064c-2.6690305 11.02542-8.4340883 19.927174-18.368078 25.587864-7.7220261 4.399538-16.0454562 5.891418-24.9041357 4.455106-16.3100739-2.641897-29.64680689-17.387958-30.82074731-33.993131-1.32910263-18.8097737 11.54454931-35.5297069 28.70380561-39.28538 1.1847656 4.3210173 2.3815594 8.6831066 3.5663251 12.993252-15.7435514 8.0670265-21.1922708 18.231142-16.7863858 30.940514 3.8790552 11.184875 14.8967747 17.315477 26.8599012 14.944172 12.2169189-2.420833 18.3764977-12.617564 17.6247428-28.982345 11.5818364 0 23.1732953-.1208 34.7563345.059192 4.5225574.071272 8.014308-.399848 11.421863-4.4043692 5.609896-6.589642 15.934798-5.9953058 21.976501.2283121 6.174013 6.3601221 5.878122 16.5943011-.65553 22.6862471-6.303916 5.87813-16.263164 5.56405-22.160531-.769496-1.21243-1.305849-2.16746-2.855713-3.366659-4.459938z" fill="#4a4a4a"/></g></g></svg>