<svg height="360" viewBox="0 0 640 360" width="640" xmlns="http://www.w3.org/2000/svg" xmlns:xlink="http://www.w3.org/1999/xlink"><defs><circle id="a" cx="40" cy="40" r="40"/><mask id="b" fill="#fff"><use fill="none" xlink:href="#a"/></mask></defs><g fill="none" fill-rule="evenodd"><path d="m0 0h640v360h-640z" fill="#fff"/><g transform="translate(160 138)"><use fill="#d8e8ff" xlink:href="#a"/><path d="m1 47.9688599 37.9312066-27.5863321c.701301-.5100371 1.6513857-.5100371 2.3526868 0l37.9312065 27.5863321c-3.8750241 18.0373287-19.912309 31.5581455-39.1075499 31.5581455s-35.23252586-13.5208168-39.10755-31.5581455z" fill="#9bc4ff" mask="url(#b)"/><path d="m12 67.9765117 26.9417279-19.5939839c.701301-.5100371 1.6513857-.5100371 2.3526867 0l26.9417279 19.5939839c-7.2250623 7.141413-17.1566688 11.5504937-28.1180713 11.5504937-10.9614024 0-20.8930089-4.4090807-28.1180712-11.5504937z" fill="#3e9cff" mask="url(#b)"/></g><g fill="#3e9cff"><text font-family="NittiGrotesk-Light, Nitti Grotesk" font-size="28" font-weight="300" letter-spacing="3.333333"><tspan x="269" y="165">SCHEDULED</tspan></text><text font-family="NittiGrotesk-Bold, Nitti Grotesk" font-size="52" font-weight="bold"><tspan x="269" y="207">API calls</tspan></text></g></g></svg>