<?xml version="1.0" encoding="UTF-8"?>
<svg width="640px" height="360px" viewBox="0 0 640 360" version="1.1" xmlns="http://www.w3.org/2000/svg" xmlns:xlink="http://www.w3.org/1999/xlink">
    <!-- Generator: Sketch 54.1 (76490) - https://sketchapp.com -->
    <title>marketo/picture</title>
    <desc>Created with Sketch.</desc>
    <g id="marketo/picture" stroke="none" stroke-width="1" fill="none" fill-rule="evenodd">
        <rect id="Rectangle" fill="#5944B0" x="0" y="0" width="640" height="360"></rect>
        <g id="mkto-full-white" transform="translate(149.000000, 132.000000)" fill="#FFFFFF" fill-rule="nonzero">
            <path d="M88.5,82.26 L86.36,88.26 C86.3319762,88.368768 86.2322639,88.4435521 86.12,88.44 L84.12,88.44 C83.96,88.44 83.9,88.36 83.94,88.2 L90.4,70.2 C90.4,70.08 90.4,69.96 90.52,69.8 C90.5427363,69.533818 90.5427363,69.266182 90.52,69 C90.5141589,68.9595471 90.5262876,68.9185616 90.5532023,68.887802 C90.580117,68.8570423 90.6191297,68.8395805 90.66,68.84 L93.58,68.84 C93.58,68.84 93.72,68.84 93.74,69 L100.7,88.2 C100.7,88.34 100.7,88.42 100.58,88.42 L98.42,88.42 C98.3165698,88.4151452 98.2242621,88.3536068 98.18,88.26 L96.02,82.26 L88.5,82.26 Z M95.34,80 L94.68,78 C94.38,77.18 94.08,76.32 93.76,75.42 L92.88,72.86 C92.6,72.02 92.4,71.34 92.26,70.86 C92.26,71.34 91.98,71.92 91.76,72.62 L90.98,74.9 L90,77.44 C89.68,78.32 89.4,79.16 89.12,79.98 L95.34,80 Z M103.3,77.38 L103.3,74.2 C103.293307,74.1505098 103.310106,74.1007329 103.345419,74.0654195 C103.380733,74.0301061 103.43051,74.0133069 103.48,74.02 L105.32,74.02 C105.435496,74.0206334 105.538752,74.0921185 105.58,74.2 C105.633049,74.3962105 105.666546,74.5971903 105.68,74.8 L105.68,75.68 C106.851901,74.4145553 108.4953,73.6905911 110.22,73.68 C110.775137,73.6837443 111.327069,73.7645148 111.86,73.92 C112.439833,74.0916449 112.973202,74.3925202 113.42,74.8 C113.931384,75.2864075 114.327695,75.8808734 114.58,76.54 C114.91289,77.4556461 115.068985,78.42615 115.04,79.4 L115.04,88.2 C115.04,88.34 115.04,88.42 114.84,88.42 L112.84,88.42 C112.7,88.42 112.64,88.42 112.64,88.18 L112.64,79.68 C112.680048,78.7186806 112.421552,77.7685312 111.9,76.96 C111.314294,76.2301668 110.385994,75.864934 109.46,76 C108.765041,76.0019938 108.080165,76.1663643 107.46,76.48 C106.828116,76.802137 106.269739,77.2515622 105.82,77.8 L105.82,88.2 C105.82,88.34 105.82,88.42 105.64,88.42 L103.64,88.42 C103.52,88.42 103.46,88.42 103.46,88.2 L103.3,77.38 Z M128.72,82.26 L126.58,88.26 C126.551976,88.368768 126.452264,88.4435521 126.34,88.44 L124.34,88.44 C124.2,88.44 124.14,88.44 124.18,88.2 L130.62,70.2 C130.62,70.08 130.62,69.96 130.74,69.8 C130.765701,69.5339526 130.765701,69.2660474 130.74,69 C130.74,69 130.74,68.84 130.88,68.84 L133.78,68.84 C133.872097,68.8394299 133.949769,68.9084711 133.96,69 L140.92,88.2 C140.92,88.34 140.92,88.42 140.8,88.42 L138.64,88.42 C138.53657,88.4151452 138.444262,88.3536068 138.4,88.26 L136.24,82.26 L128.72,82.26 Z M135.56,80 C135.4,79.52 135.18,78.88 134.88,78 L134,75.44 C133.68,74.56 133.4,73.7 133.12,72.88 C132.84,72.06 132.64,71.36 132.5,70.88 C132.38,71.36 132.22,71.94 131.98,72.64 C131.74,73.34 131.5,74.1 131.22,74.92 C130.94,75.74 130.64,76.58 130.32,77.46 C130,78.34 129.72,79.18 129.46,80 L135.56,80 Z M149.7,88.72 C148.727858,88.72497 147.761554,88.5695505 146.84,88.26 C145.976903,87.9614967 145.186395,87.4844662 144.52,86.86 C143.834237,86.2199029 143.301101,85.433868 142.96,84.56 C142.564811,83.5335454 142.374561,82.4396072 142.4,81.34 C142.383241,80.3041282 142.580703,79.275967 142.98,78.32 C143.360321,77.4415607 143.918756,76.65158 144.62,76 C145.355703,75.3080381 146.218177,74.7647473 147.16,74.4 C148.20797,74.0051716 149.320179,73.8085004 150.44,73.82 C150.786247,73.795871 151.133753,73.795871 151.48,73.82 L152.32,73.94 L152.32,67.36 C152.313307,67.3105098 152.330106,67.2607329 152.365419,67.2254195 C152.400733,67.1901061 152.45051,67.1733069 152.5,67.18 L154.62,67.18 C154.74,67.18 154.8,67.18 154.8,67.34 L154.8,86.66 C154.780214,86.9062699 154.780214,87.1537301 154.8,87.4 C154.806506,87.4960688 154.749783,87.5852059 154.66,87.62 C153.857163,88.0011339 153.01095,88.2832051 152.14,88.46 C151.336451,88.6218973 150.519621,88.7089366 149.7,88.72 L149.7,88.72 Z M152.32,76.16 C152.045113,76.0465668 151.75559,75.9725029 151.46,75.94 C151.100677,75.9087876 150.739323,75.9087876 150.38,75.94 C149.601893,75.9322846 148.829013,76.0678776 148.1,76.34 C147.459195,76.5863696 146.879267,76.9684398 146.4,77.46 C145.92297,77.9471097 145.548873,78.5252592 145.3,79.16 C145.039615,79.8430148 144.910685,80.5690944 144.92,81.3 C144.892899,82.1381577 145.028745,82.9736075 145.32,83.76 C145.81814,84.9358509 146.792407,85.8446827 148,86.26 C148.606707,86.4594162 149.241361,86.5606908 149.88,86.56 L151.12,86.56 C151.513771,86.5104783 151.897979,86.4026303 152.26,86.24 L152.32,76.16 Z M164.72,73.72 C165.690742,73.7085992 166.652552,73.9064183 167.54,74.3 C168.35342,74.6566778 169.077508,75.189497 169.66,75.86 C170.248333,76.5573342 170.702638,77.3574538 171,78.22 C171.652507,80.1667794 171.652507,82.2732206 171,84.22 C170.706048,85.0926783 170.236388,85.8958648 169.62,86.58 C169.027597,87.2384036 168.296777,87.7574905 167.48,88.1 C166.622036,88.4734526 165.69571,88.6641668 164.76,88.66 C163.68854,88.6934622 162.624907,88.4670114 161.66,88 C160.833952,87.5918697 160.109614,87.0041995 159.54,86.28 C158.981439,85.5667521 158.567066,84.7515913 158.32,83.88 C158.05029,82.9986868 157.915431,82.0816484 157.92,81.16 C157.906869,80.1611019 158.062386,79.1671489 158.38,78.22 C158.701182,77.4067408 159.161374,76.6555453 159.74,76 C160.343004,75.3245628 161.078157,74.7800052 161.9,74.4 C162.779719,73.9719429 163.741869,73.7399353 164.72,73.72 L164.72,73.72 Z M164.6,75.86 C164.004817,75.8502008 163.415656,75.9803642 162.88,76.24 C162.37139,76.5068765 161.922307,76.8743086 161.56,77.32 C161.179353,77.8266888 160.888466,78.3949329 160.7,79 C160.494165,79.7012953 160.393073,80.4291543 160.4,81.16 C160.394377,81.8776295 160.495482,82.5921074 160.7,83.28 C160.881794,83.9024832 161.165652,84.4904739 161.54,85.02 C161.902258,85.4970358 162.367028,85.8866223 162.9,86.16 C163.483095,86.4510596 164.128476,86.5952404 164.78,86.58 C165.310213,86.5837035 165.835154,86.4746249 166.32,86.26 C166.83455,86.0473078 167.293104,85.7187916 167.66,85.3 C168.066962,84.8051824 168.385009,84.2435239 168.6,83.64 C168.856132,82.8733103 168.977922,82.0681431 168.96,81.26 C168.966029,80.5845302 168.878532,79.9114767 168.7,79.26 C168.550002,78.6463611 168.29271,78.0640687 167.94,77.54 C167.18767,76.4451597 165.927518,75.8113112 164.6,75.86 L164.6,75.86 Z M176.84,67.18 L177,67.18 L177,74.3 C178.016596,73.890704 179.104183,73.6867815 180.2,73.7 C181.15184,73.6888926 182.096528,73.8655968 182.98,74.22 C183.784599,74.557176 184.512567,75.0538275 185.12,75.68 C185.70775,76.3136377 186.169322,77.0535101 186.48,77.86 C186.800832,78.7510563 186.956708,79.6930917 186.94,80.64 C186.972133,81.8423663 186.740006,83.0371351 186.26,84.14 C185.827559,85.0982193 185.201023,85.9563011 184.42,86.66 C183.662193,87.3437927 182.769757,87.8615424 181.8,88.18 C180.816426,88.5238928 179.78196,88.6996844 178.74,88.7 C178.071191,88.6919455 177.403409,88.6452007 176.74,88.56 C176.057766,88.4846541 175.386598,88.3302855 174.74,88.1 C174.62,88.1 174.56,88 174.56,87.84 L174.56,67.36 C174.56,67.24 174.56,67.18 174.76,67.18 L176.84,67.18 Z M184.48,80.86 C184.548812,79.5350966 184.096585,78.2358427 183.22,77.24 C182.353554,76.3159844 181.125223,75.8188029 179.86,75.88 C179.323477,75.8768865 178.78783,75.9237556 178.26,76.02 C177.842955,76.1105628 177.434707,76.2377219 177.04,76.4 L177.04,86.4 C177.325547,86.4972063 177.620489,86.5642386 177.92,86.6 L179,86.6 C179.682286,86.5945909 180.358652,86.4728451 181,86.24 C181.648381,86.0135774 182.241411,85.6523063 182.74,85.18 C183.26037,84.6654764 183.674849,84.0539497 183.96,83.38 C184.302146,82.5838653 184.479054,81.7265412 184.48,80.86 L184.48,80.86 Z M191.78,81.52 C191.773709,82.1983294 191.874965,82.8733696 192.08,83.52 C192.26546,84.1144178 192.579567,84.6606915 193,85.12 C193.435581,85.5839187 193.968275,85.9458773 194.56,86.18 C195.25261,86.457761 195.993897,86.593777 196.74,86.58 C197.378265,86.5741238 198.014501,86.5071516 198.64,86.38 C199.261009,86.249633 199.864973,86.0483116 200.44,85.78 L200.58,85.78 L200.58,87.48 C200.592706,87.5982459 200.538788,87.7137845 200.44,87.78 C199.878636,88.0524827 199.288202,88.2604763 198.68,88.4 C197.885157,88.5722257 197.073188,88.6527515 196.26,88.64 C195.139377,88.6703581 194.025971,88.4517753 193,88 C192.162646,87.6099257 191.429371,87.0274175 190.86,86.3 C190.315971,85.5952757 189.908935,84.7947721 189.66,83.94 C189.42136,83.0666497 189.300292,82.1653672 189.3,81.26 C189.293123,80.2630985 189.441569,79.2712091 189.74,78.32 C190.026367,77.4730316 190.467135,76.6864309 191.04,76 C191.579512,75.3144351 192.262034,74.7547668 193.04,74.36 C193.891401,73.9394159 194.830472,73.7269253 195.78,73.74 C198.311169,73.6334187 200.578508,75.2944729 201.24,77.74 C201.448625,78.3863056 201.556554,79.0608657 201.56,79.74 L201.56,80.68 C201.577893,80.8795998 201.577893,81.0804002 201.56,81.28 C201.56,81.4 201.56,81.46 201.36,81.46 C200.960331,81.4830075 200.559669,81.4830075 200.16,81.46 L198.3,81.46 L191.78,81.52 Z M197.32,79.68 L198.8,79.68 C198.93913,79.7020767 199.08087,79.7020767 199.22,79.68 C199.231355,79.6272711 199.231355,79.5727289 199.22,79.52 L199.22,79.36 C199.213525,79.0222648 199.166522,78.6865287 199.08,78.36 C198.975035,77.9426428 198.791791,77.5490069 198.54,77.2 C198.248994,76.809918 197.88151,76.4832652 197.46,76.24 C196.934015,75.951935 196.33912,75.8135873 195.74,75.84 C195.182846,75.8239535 194.629207,75.9333142 194.12,76.16 C193.667779,76.3647562 193.265231,76.6649616 192.94,77.04 C192.615981,77.4094237 192.3527,77.8279722 192.16,78.28 C191.981585,78.7503756 191.860708,79.2406008 191.8,79.74 L197.32,79.68 Z M224.72,87.86 C224.72,88.04 224.72,88.14 224.56,88.16 C224.003137,88.3864206 223.417556,88.5344986 222.82,88.6 C222.076314,88.6836666 221.328368,88.7237351 220.58,88.72 C219.338942,88.7163545 218.105369,88.5276111 216.92,88.16 C215.744403,87.7880894 214.655992,87.1826611 213.72,86.38 C212.741668,85.5107128 211.963748,84.439367 211.44,83.24 C210.819176,81.7667523 210.51919,80.1781915 210.56,78.58 C210.54712,77.2114836 210.798378,75.8533334 211.3,74.58 C211.746891,73.396715 212.427022,72.3153058 213.3,71.4 C214.248077,70.520025 215.363557,69.8398545 216.58,69.4 C217.957221,68.8969462 219.413845,68.6462714 220.88,68.66 C221.682986,68.6492593 222.485545,68.7027633 223.28,68.82 C223.754451,68.8866792 224.218294,69.014404 224.66,69.2 C224.760821,69.2354527 224.826052,69.3332991 224.82,69.44 L224.82,71.44 C224.82,71.58 224.82,71.62 224.6,71.58 C223.409634,71.0637581 222.115652,70.8309783 220.82,70.9 C219.734073,70.883244 218.654877,71.0732911 217.64,71.46 C216.713343,71.8008617 215.868487,72.3323036 215.16,73.02 C214.452352,73.7046428 213.905825,74.5380964 213.56,75.46 C213.171733,76.4814036 212.981677,77.5674432 213,78.66 C212.960177,79.9874194 213.219942,81.306754 213.76,82.52 C214.23349,83.4741646 214.917326,84.3084452 215.76,84.96 C216.518571,85.5427086 217.380326,85.976979 218.3,86.24 C219.120823,86.4688272 219.967938,86.5898437 220.82,86.6 C221.486233,86.634001 222.153767,86.634001 222.82,86.6 C223.402232,86.5218905 223.972983,86.374167 224.52,86.16 C224.64,86.16 224.7,86.2 224.7,86.28 L224.72,87.86 Z M233.42,73.72 C234.390742,73.7085992 235.352552,73.9064183 236.24,74.3 C237.056169,74.6519015 237.78125,75.1854515 238.36,75.86 C238.948333,76.5573342 239.402638,77.3574538 239.7,78.22 C240.027368,79.179042 240.18967,80.18667 240.18,81.2 C240.1846,82.2472365 240.015645,83.2879981 239.68,84.28 C239.371235,85.1502191 238.895689,85.9518544 238.28,86.64 C237.687597,87.2984036 236.956777,87.8174905 236.14,88.16 C235.282036,88.5334526 234.35571,88.7241668 233.42,88.72 C232.361977,88.7470149 231.312824,88.5207269 230.36,88.06 C229.533952,87.6518697 228.809614,87.0641995 228.24,86.34 C227.681439,85.6267521 227.267066,84.8115913 227.02,83.94 C226.75029,83.0586868 226.615431,82.1416484 226.62,81.22 C226.606869,80.2211019 226.762386,79.2271489 227.08,78.28 C227.384106,77.4102337 227.845055,76.6035725 228.44,75.9 C229.043004,75.2245628 229.778157,74.6800052 230.6,74.3 C231.487448,73.9064183 232.449258,73.7085992 233.42,73.72 L233.42,73.72 Z M233.3,75.86 C232.704817,75.8502008 232.115656,75.9803642 231.58,76.24 C231.07139,76.5068765 230.622307,76.8743086 230.26,77.32 C229.878403,77.8231646 229.593574,78.3928239 229.42,79 C229.197674,79.6980612 229.089614,80.427463 229.1,81.16 C229.094377,81.8776295 229.195482,82.5921074 229.4,83.28 C229.581794,83.9024832 229.865652,84.4904739 230.24,85.02 C230.602258,85.4970358 231.067028,85.8866223 231.6,86.16 C232.183095,86.4510596 232.828476,86.5952404 233.48,86.58 C234.010213,86.5837035 234.535154,86.4746249 235.02,86.26 C235.53455,86.0473078 235.993104,85.7187916 236.36,85.3 C236.766962,84.8051824 237.085009,84.2435239 237.3,83.64 C237.556132,82.8733103 237.677922,82.0681431 237.66,81.26 C237.666029,80.5845302 237.578532,79.9114767 237.4,79.26 C237.250002,78.6463611 236.99271,78.0640687 236.64,77.54 C235.88767,76.4451597 234.627518,75.8113112 233.3,75.86 L233.3,75.86 Z M243.44,88.42 C243.32,88.42 243.26,88.42 243.26,88.2 L243.26,74.2 C243.253307,74.1505098 243.270106,74.1007329 243.305419,74.0654195 C243.340733,74.0301061 243.39051,74.0133069 243.44,74.02 L245.3,74.02 C245.40343,74.0248548 245.495738,74.0863932 245.54,74.18 C245.592498,74.3898949 245.625966,74.6040951 245.64,74.82 L245.64,75.6 C246.809616,74.40564 248.408348,73.7286993 250.08,73.72 C251.722526,73.5886587 253.288953,74.4345294 254.08,75.88 C254.712959,75.2721843 255.426269,74.7540255 256.2,74.34 C257.078601,73.9157079 258.044456,73.7033569 259.02,73.72 C259.589369,73.7280881 260.154823,73.8155988 260.7,73.98 C261.27272,74.1543908 261.79899,74.4551166 262.24,74.86 C262.736406,75.3547876 263.124608,75.9473065 263.38,76.6 C263.69274,77.4926445 263.841796,78.4344075 263.82,79.38 L263.82,88.24 C263.82,88.36 263.82,88.42 263.6,88.42 L261.6,88.42 C261.46,88.42 261.4,88.42 261.4,88.2 L261.4,79.56 C261.424934,78.6471607 261.17401,77.7480179 260.68,76.98 C260.143905,76.258002 259.277163,75.858547 258.38,75.92 C257.687041,75.9193769 257.003055,76.0766938 256.38,76.38 C255.767083,76.6876918 255.222814,77.1163035 254.78,77.64 L254.78,78.46 C254.799974,78.8197229 254.799974,79.1802771 254.78,79.54 L254.78,88.2 C254.78,88.34 254.78,88.42 254.58,88.42 L252.58,88.42 C252.44,88.42 252.38,88.42 252.38,88.2 L252.38,79.48 C252.441501,78.544592 252.172514,77.6172967 251.62,76.86 C251.074971,76.2185716 250.260258,75.8704669 249.42,75.92 C248.771513,75.9131559 248.129531,76.0497478 247.54,76.32 C246.901101,76.6325917 246.324913,77.0596488 245.84,77.58 L245.84,88.24 C245.846693,88.2894902 245.829894,88.3392671 245.794581,88.3745805 C245.759267,88.4098939 245.70949,88.4266931 245.66,88.42 L243.44,88.42 Z M273.4,73.72 C274.399551,73.7041246 275.392235,73.8877031 276.32,74.26 C277.139425,74.5914065 277.881588,75.0884514 278.5,75.72 C279.096665,76.3620358 279.559047,77.116807 279.86,77.94 C280.179116,78.8315023 280.334941,79.7732221 280.32,80.72 C280.34999,81.9327472 280.103782,83.1364334 279.6,84.24 C279.127102,85.211417 278.443917,86.0653986 277.6,86.74 C276.798375,87.4057726 275.874403,87.9085223 274.88,88.22 C273.880426,88.5528898 272.833547,88.7217413 271.78,88.72 L270.26,88.72 L270.26,94.72 C270.26,94.84 270.26,94.9 270.12,94.92 L268,94.92 C267.9,94.92 267.86,94.92 267.86,94.74 L267.86,75.04 C267.838564,75.0028719 267.838564,74.9571281 267.86,74.92 C268.36,74.72 269.1,74.46 270.04,74.18 C271.129826,73.8554671 272.26305,73.7003234 273.4,73.72 L273.4,73.72 Z M273.1,75.88 C272.617363,75.8764796 272.135397,75.9166434 271.66,76 C271.20949,76.0774684 270.767461,76.1980217 270.34,76.36 L270.34,86.36 C270.612831,86.4457937 270.894734,86.4994895 271.18,86.52 L272,86.52 C272.679667,86.5046697 273.353448,86.3901268 274,86.18 C274.681872,85.9579085 275.31373,85.6046116 275.86,85.14 C276.421353,84.6516799 276.865656,84.0433268 277.16,83.36 C277.519246,82.555214 277.696787,81.6811677 277.68,80.8 C277.74589,79.4790075 277.302005,78.18315 276.44,77.18 C275.556055,76.3008007 274.345721,75.829713 273.1,75.88 L273.1,75.88 Z M293.6,86 L293.6,86.72 C293.580238,86.9529149 293.580238,87.1870851 293.6,87.42 C293.621436,87.4571281 293.621436,87.5028719 293.6,87.54 C292.676468,88.0086012 291.694438,88.3516393 290.68,88.56 C289.816186,88.7247532 288.939346,88.8117678 288.06,88.82 C287.316024,88.8268119 286.574988,88.7257615 285.86,88.52 C285.232058,88.3330416 284.642731,88.0349911 284.12,87.64 C283.626171,87.2571884 283.22889,86.764012 282.96,86.2 C282.67998,85.5712522 282.543346,84.8880826 282.56,84.2 C282.541252,83.5002209 282.714149,82.8086294 283.06,82.2 C283.422456,81.6274466 283.907447,81.1424563 284.48,80.78 C285.09821,80.4008478 285.773559,80.1239544 286.48,79.96 C287.334394,79.7775112 288.206388,79.6903119 289.08,79.7 L291.12,79.7 L291.12,78.98 C291.112817,78.6897041 291.072557,78.4011739 291,78.12 C290.913874,77.7681053 290.74984,77.4400373 290.52,77.16 C290.2495,76.8230932 289.908068,76.5499474 289.52,76.36 C288.972734,76.1179395 288.378131,76.0017526 287.78,76.02 C287.106108,76.0192923 286.434592,76.0998743 285.78,76.26 C285.184014,76.4066476 284.606885,76.6213935 284.06,76.9 C283.92,76.9 283.84,76.9 283.84,76.76 L283.84,74.96 C283.844855,74.8565698 283.906393,74.7642621 284,74.72 C284.636018,74.4161691 285.308068,74.1943927 286,74.06 C286.749113,73.8979614 287.513566,73.8174926 288.28,73.82 C289.11651,73.8015241 289.947638,73.958212 290.72,74.28 C291.368106,74.5291437 291.940197,74.9427032 292.38,75.48 C292.813155,75.9943471 293.133406,76.5939667 293.32,77.24 C293.542326,77.9380612 293.650386,78.667463 293.64,79.4 L293.6,86 Z M291.2,81.64 L289.24,81.64 C288.128561,81.5655122 287.018828,81.8082664 286.04,82.34 C285.341126,82.7566205 284.932422,83.5277602 284.98,84.34 C284.979601,84.6749223 285.040609,85.0070799 285.16,85.32 C285.28305,85.6476792 285.489941,85.9373272 285.76,86.16 C286.083545,86.4305335 286.457377,86.6344418 286.86,86.76 C287.392508,86.9153173 287.945385,86.9894838 288.5,86.98 C289.424229,86.993752 290.341984,86.8237972 291.2,86.48 L291.2,81.64 Z M297.74,77.38 L297.74,74.76 C297.755399,74.5736509 297.755399,74.3863491 297.74,74.2 C297.733307,74.1505098 297.750106,74.1007329 297.785419,74.0654195 C297.820733,74.0301061 297.87051,74.0133069 297.92,74.02 L299.76,74.02 C299.875496,74.0206334 299.978752,74.0921185 300.02,74.2 C300.073049,74.3962105 300.106546,74.5971903 300.12,74.8 L300.12,75.68 C301.291901,74.4145553 302.9353,73.6905911 304.66,73.68 C305.215137,73.6837443 305.767069,73.7645148 306.3,73.92 C306.874682,74.0898176 307.401934,74.3911043 307.84,74.8 C308.364058,75.2796841 308.768227,75.8756625 309.02,76.54 C309.35289,77.4556461 309.508985,78.42615 309.48,79.4 L309.48,88.2 C309.485671,88.256414 309.46713,88.3125838 309.428991,88.3545371 C309.390851,88.3964904 309.336698,88.4202843 309.28,88.42 L307.28,88.42 C307.14,88.42 307.08,88.42 307.08,88.18 L307.08,79.68 C307.120048,78.7186806 306.861552,77.7685312 306.34,76.96 C305.771764,76.2659157 304.891973,75.9049761 304,76 C303.305041,76.0019938 302.620165,76.1663643 302,76.48 C301.368116,76.802137 300.809739,77.2515622 300.36,77.8 L300.36,88.2 C300.36,88.34 300.36,88.42 300.18,88.42 L298.18,88.42 C298.06,88.42 298,88.42 298,88.2 L297.74,77.38 Z M314,74 C314.094041,74.0050293 314.17445,74.0693572 314.2,74.16 C314.8,75.8 315.34,77.24 315.82,78.48 L317.02,81.7 C317.34,82.62 317.62,83.36 317.82,83.96 C318.02,84.56 318.18,85.04 318.28,85.38 L319.96,80.66 L322.28,74.16 C322.324262,74.0663932 322.41657,74.0048548 322.52,74 L324.62,74 C324.76,74 324.8,74 324.74,74.22 C324.18,75.82 323.58,77.48 322.94,79.2 C322.3,80.92 321.64,82.66 320.94,84.42 C320.24,86.18 319.56,87.9 318.84,89.62 C318.12,91.34 317.4,92.98 316.68,94.56 C316.619619,94.6817095 316.495861,94.7590585 316.36,94.76 L314.14,94.94 C314.02,94.94 314,94.94 314.04,94.7 C314.48,93.7933333 314.96,92.7733333 315.48,91.64 L316.98,88.16 C317.040578,88.0405762 317.040578,87.8994238 316.98,87.78 L316.44,86.48 C316.22,85.9 315.94,85.24 315.64,84.48 C315.34,83.72 315,82.92 314.64,82.04 C314.28,81.16 313.92,80.28 313.56,79.36 L312.48,76.66 C312.12,75.78 311.8,74.96 311.5,74.18 C311.5,74.06 311.5,74 311.66,74 L314,74 Z M44.1,0 L44.1,73.38 L62.84,58.42 L62.84,10.18 L44.1,0 Z M35.38,57.36 L20.24,63.96 L20.24,6.36 L35.38,10.86 L35.38,57.36 Z M0,55.66 L11.54,52.64 L11.54,15.82 L0,14 L0,55.66 Z M124.64,10.18 L108.66,36.42 L92.46,10.18 L83.92,10.18 L83.92,58.42 L91.98,58.42 L91.98,23.2 L108.46,49.68 L125,23 L125,58.42 L132.98,58.42 L132.98,10.18 L124.64,10.18 L124.64,10.18 Z M160,58.42 L160,54 C157.572039,57.3760287 153.615619,59.3129475 149.46,59.16 C143.32,59.16 139.06,55.16 139.06,49.44 C139.06,43.18 143.06,39.44 151.06,38.22 L159.8,36.84 L159.8,36.28 C159.8,32.7 157.12,30.7 152.5,30.7 C148.210284,30.7831329 144.115807,32.5082537 141.06,35.52 L141.06,27.82 C144.477916,25.1406469 148.718055,23.7272671 153.06,23.82 C162.5,23.82 167.58,28.66 167.58,36.72 L167.58,58.42 L160,58.42 Z M151.32,52.76 C153.500818,52.933973 155.654451,52.1840821 157.255583,50.6932413 C158.856716,49.2024004 159.758147,47.1076706 159.74,44.92 L159.74,43.06 L152.22,44.3 C148.58,44.92 146.72,46.5 146.72,48.9 C146.747174,50.0489907 147.267265,51.1307777 148.147676,51.8695571 C149.028087,52.6083366 150.18374,52.9327181 151.32,52.76 L151.32,52.76 Z M194,32.3 C193.361498,32.06285 192.67908,31.9673115 192,32.02 C186.14,32.02 182.56,36.58 182.56,43.54 L182.56,58.42 L174.56,58.42 L174.56,24.66 L182.42,24.66 L182.42,30.44 C184.160751,26.4773057 188.091923,23.9299064 192.42,23.96 C193.3,23.96 193.78,23.96 193.92,24.18 L194,32.3 Z M199.06,10.18 L199.06,58.42 L206.98,58.42 L206.98,45.04 L208.7,43.46 L220.76,58.42 L230.54,58.42 L214.76,39.32 L229.44,24.66 L219.66,24.66 L206.98,37.4 L206.98,10.18 L199.06,10.18 Z" id="Shape"></path>
            <path d="M260.56,55.66 C256.64017,58.0473969 252.129385,59.2876895 247.54,59.24 C236.38,59.24 229.34,51.66 229.34,41.46 C229.34,31.26 236.38,23.82 246.3,23.82 C256.22,23.82 262.48,31.26 262.48,41.26 C262.515194,42.1845583 262.44812,43.1101747 262.28,44.02 L237.28,44.02 C237.9,48.7 241.74,52.42 248.08,52.42 C252.625994,52.3198664 257.012257,50.7242227 260.56,47.88 L260.56,55.66 Z M254.7,38 C254.441848,33.5162041 250.648382,30.0603299 246.16,30.22 C241.687907,30.2724802 237.920014,33.5736299 237.28,38 L254.7,38 Z M282.58,52 C283.898466,52.0527559 285.200053,51.6888714 286.3,50.96 L286.3,58 C284.438037,58.9169762 282.372917,59.3437677 280.3,59.24 C273.48,59.24 269.48,55.1 269.48,48.02 L269.48,31.4 L263.48,31.4 L277.48,13.68 L277.48,24.66 L286.42,24.66 L286.42,31.4 L277.48,31.4 L277.48,46.56 C277.48,50.36 279.12,51.94 282.7,51.94 L282.58,52 Z M324.68,41.54 C324.68,51.4811255 316.621125,59.54 306.68,59.54 C296.738875,59.54 288.68,51.4811255 288.68,41.54 C288.68,31.5988745 296.738875,23.54 306.68,23.54 C316.621125,23.54 324.68,31.5988745 324.68,41.54 L324.68,41.54 Z M296.68,41.54 C296.68,47.0959846 301.184015,51.6 306.74,51.6 C312.295985,51.6 316.8,47.0959846 316.8,41.54 C316.8,35.9840154 312.295985,31.48 306.74,31.48 C301.184015,31.48 296.68,35.9840154 296.68,41.54 L296.68,41.54 Z" id="Shape"></path>
            <path d="M324.92,18 L330.92,18 L330.92,19.34 L328.6,19.34 L328.6,26.4 L327.14,26.4 L327.14,19.24 L324.82,19.24 L324.92,18 Z M334.24,20.18 L334.24,26.3 L332.84,26.3 L332.84,18 L334.32,18 L337.14,22.28 L340,18 L341.46,18 L341.46,26.4 L340,26.4 L340,20.14 L337.46,24 L336.76,24 L334.24,20.18 Z" id="Layer_2-2"></path>
        </g>
    </g>
</svg>