<?xml version="1.0" encoding="UTF-8"?>
<svg width="257px" height="257px" viewBox="0 0 257 257" version="1.1" xmlns="http://www.w3.org/2000/svg" xmlns:xlink="http://www.w3.org/1999/xlink">
    <title>bigquery/logo</title>
    <defs>
        <linearGradient x1="50%" y1="-3.89783073e-15%" x2="50%" y2="99.8449958%" id="linearGradient-1">
            <stop stop-color="#4387FD" offset="0%"></stop>
            <stop stop-color="#4683EA" offset="100%"></stop>
        </linearGradient>
    </defs>
    <g id="bigquery/logo" stroke="none" stroke-width="1" fill="none" fill-rule="evenodd">
        <rect fill="#3569C5" x="0" y="0" width="257" height="257"></rect>
        <path d="M74.6859,205.3249 L35.31,137.12395 C32.22885,131.78725 32.22885,125.21215 35.31,119.87545 L74.6859,51.67465 C77.76705,46.33795 83.46135,43.0504 89.62365,43.0504 L168.37545,43.0504 C174.53775,43.0504 180.23205,46.33795 183.3132,51.67465 L222.6891,119.87545 C225.77025,125.21215 225.77025,131.78725 222.6891,137.12395 L183.3132,205.32475 C180.23205,210.66145 174.53775,213.949 168.37545,213.949 L89.62365,213.949 C83.46135,213.949 77.7672,210.6616 74.6859,205.3249 Z" id="Path" fill="url(#linearGradient-1)" fill-rule="nonzero"></path>
        <polygon id="Path" fill="#000000" fill-rule="nonzero" opacity="0.07" points="211.84335 162.21865 153.93705 104.31235 128.99955 97.6384 106.6002 105.96175 97.9506 128.49985 104.9058 153.5935 166.31205 214.99975 179.3433 214.42165"></polygon>
        <path d="M128.99955,93.706 C148.21425,93.706 163.7916,109.28335 163.7916,128.49985 C163.7916,136.601145 161.022452,144.055896 156.379095,149.969165 L170.0142,163.60435 C170.609118,164.200397 170.644113,165.154401 170.119185,165.793186 L170.0142,165.9091 L166.4097,169.51105 C165.812947,170.109356 164.858769,170.14455 164.219965,169.616633 L164.10405,169.51105 L150.468021,155.880057 C144.554887,160.523015 137.100459,163.2919 128.99955,163.2919 C109.785,163.2919 94.2075,147.7144 94.2075,128.49985 C94.2075,109.28335 109.785,93.706 128.99955,93.706 Z M128.99955,102.09865 C114.41955,102.09865 102.60105,113.9197 102.60105,128.4997 C102.60105,143.0797 114.41955,154.8982 128.99955,154.8982 C143.57955,154.8982 155.3997,143.0797 155.3997,128.4997 C155.3997,113.9197 143.57955,102.09865 128.99955,102.09865 Z M132.0864,118.03945 L132.0864,147.20215 C131.0616,147.37285 130.01865,147.48565 128.9469,147.48565 C127.968775,147.48565 127.012108,147.398567 126.073862,147.251223 L125.5131,147.1558 L125.5131,118.03945 L132.0864,118.03945 Z M119.0562,127.15615 L119.0562,144.6829 C116.482793,143.10799 114.311043,140.947719 112.729487,138.37879 L112.4847,137.9698 L112.4847,127.15615 L119.0562,127.15615 Z M145.7217,131.6512 L145.7217,137.443 C144.243986,140.183 142.111986,142.507626 139.537815,144.238193 L139.1484,144.4933 L139.1484,131.6512 L145.7217,131.6512 Z" id="Combined-Shape" fill="#FFFFFF" fill-rule="nonzero"></path>
    </g>
</svg>