<?xml version="1.0" encoding="UTF-8"?>
<svg width="257px" height="257px" viewBox="0 0 257 257" version="1.1" xmlns="http://www.w3.org/2000/svg" xmlns:xlink="http://www.w3.org/1999/xlink">
    <!-- Generator: Sketch 57.1 (83088) - https://sketch.com -->
    <title>pipedrive/logo</title>
    <desc>Created with Sketch.</desc>
    <g id="pipedrive/logo" stroke="none" stroke-width="1" fill="none" fill-rule="evenodd">
        <rect fill="#25292C" x="0" y="0" width="257" height="257"></rect>
        <path d="M114.557822,113.55283 C114.557822,95.9609038 124.120826,89.6967279 133.066894,89.6967279 C144.045627,89.6967279 151.421489,99.2138315 151.421489,113.389112 C151.421489,129.556299 142.038383,136.778422 132.757937,136.778422 C120.244197,136.778422 114.557822,124.725633 114.557822,113.55283 Z M137.475399,69 C124.421962,69 116.865223,74.9006822 113.220311,78.9731761 C112.782296,75.4620022 110.483694,70.9061493 101.504384,70.9061493 L82,70.9061493 L82,91.4401335 L89.9937763,91.4401335 C91.3488856,91.4401335 91.785923,91.8718432 91.785923,93.2351882 L91.785923,187 L115.030057,187 L115.030057,151.808351 C115.030057,150.859174 115.012458,149.970418 114.987037,149.177163 C118.61435,152.523644 125.553175,157.148688 136.386228,157.148688 C159.106308,157.148688 175,139.030524 175,113.078242 C175,86.7127661 159.912921,69 137.475399,69 L137.475399,69 Z" id="Shape" fill="#FFFFFF" fill-rule="nonzero"></path>
    </g>
</svg>