<?xml version="1.0" encoding="UTF-8"?>
<svg width="640px" height="360px" viewBox="0 0 640 360" version="1.1" xmlns="http://www.w3.org/2000/svg" xmlns:xlink="http://www.w3.org/1999/xlink">
    <!-- Generator: Sketch 57.1 (83088) - https://sketch.com -->
    <title>pipedrive/picture</title>
    <desc>Created with Sketch.</desc>
    <g id="pipedrive/picture" stroke="none" stroke-width="1" fill="none" fill-rule="evenodd">
        <rect id="Rectangle" fill="#25292C" x="0" y="0" width="640" height="360"></rect>
        <g id="pipedrive-full" transform="translate(120.000000, 106.000000)" fill="#FFFFFF" fill-rule="nonzero">
            <polygon id="Path" fill-opacity="0" points="0 0 400 0 400 148.904878 0 148.904878"></polygon>
            <g id="Group" transform="translate(37.073171, 37.073171)">
                <path d="M16.2439024,37.2497561 C16.2439024,28.4439024 21.015122,25.3082927 25.4785366,25.3082927 C30.9560976,25.3082927 34.6360976,30.0721951 34.6360976,37.1678049 C34.6360976,45.2604878 29.9546341,48.8756098 25.3243902,48.8756098 C19.0809756,48.8756098 16.2439024,42.842439 16.2439024,37.2497561 Z M27.6780488,14.9482927 C21.1653659,14.9482927 17.395122,17.9019512 15.5765854,19.9404878 C15.3580488,18.1829268 14.2112195,15.902439 9.73121951,15.902439 L0,15.902439 L0,26.1809756 L3.98829268,26.1809756 C4.66439024,26.1809756 4.88243902,26.3970732 4.88243902,27.0795122 L4.88243902,74.0146341 L16.4795122,74.0146341 L16.4795122,56.3990244 C16.4795122,55.9239024 16.4707317,55.4790244 16.4580488,55.0819512 C18.2678049,56.7570732 21.7297561,59.0721951 27.1346341,59.0721951 C38.4702439,59.0721951 46.4,50.0029268 46.4,37.0121951 C46.4,23.8146341 38.8726829,14.9482927 27.6780488,14.9482927 L27.6780488,14.9482927 Z" id="Shape"></path>
                <path d="M61.9736585,47.022439 L61.9736585,22.1512195 C61.9736585,17.9492683 59.9668293,15.902439 55.8546341,15.902439 L45.4902439,15.902439 L45.4902439,26.1804878 L49.482439,26.1804878 C50.1546341,26.1804878 50.3726829,26.4009756 50.3726829,27.0790244 L50.3726829,51.8639024 C50.3726829,56.1307317 52.3156098,58.1126829 56.4790244,58.1126829 L66.8560976,58.1126829 L66.8560976,47.9253659 L62.8639024,47.9253659 C62.2219512,47.9253659 61.9736585,47.6658537 61.9736585,47.0229268" id="Path"></path>
                <path d="M89.9053659,48.8756098 C83.6790244,48.8756098 80.8287805,42.842439 80.8287805,37.2497561 C80.8287805,28.4439024 85.6004878,25.3082927 90.0678049,25.3082927 C95.5453659,25.3082927 99.2253659,30.0721951 99.2253659,37.1678049 C99.2253659,45.2604878 94.5482927,48.8756098 89.9053659,48.8756098 L89.9053659,48.8756098 Z M92.2712195,14.9482927 C85.7502439,14.9482927 81.9882927,17.9019512 80.1614634,19.9404878 C79.9473171,18.1829268 78.804878,15.902439 74.3243902,15.902439 L64.5892683,15.902439 L64.5892683,26.1809756 L68.577561,26.1809756 C69.2492683,26.1809756 69.4673171,26.3970732 69.4673171,27.0795122 L69.4673171,74.0146341 L81.0731707,74.0146341 L81.0731707,56.3990244 C81.0731707,55.9239024 81.0604878,55.4790244 81.0478049,55.0819512 C82.8492683,56.7570732 86.3239024,59.0721951 91.7243902,59.0721951 C103.06439,59.0721951 110.985366,50.0029268 110.985366,37.0121951 C110.985366,23.8146341 103.462439,14.9482927 92.2721951,14.9482927 L92.2712195,14.9482927 Z M124.061463,30.92 C125.319512,26.7785366 128.46439,24.4287805 132.812683,24.4287805 C136.30439,24.4287805 138.991707,27.1107317 139.466341,30.92 L124.061463,30.92 Z M132.812683,14.9492683 C120.317073,14.9492683 111.578537,24.0229268 111.578537,37.0136585 C111.578537,49.7926829 121.005854,59.0731707 133.998049,59.0731707 C144.216585,59.0731707 150.46,52.9668293 150.724878,52.7073171 L151.191707,52.2414634 L146.138049,43.7809756 L145.38878,44.4980488 C145.337561,44.5370732 140.754634,48.7990244 134.699512,48.7990244 C128.888293,48.7990244 124.634634,45.2190244 123.629268,39.604878 L151.131707,39.604878 L151.196098,38.8360976 C151.217561,38.7321951 151.443902,36.2409756 151.443902,35.022439 C151.443902,23.0165854 143.95561,14.9492683 132.812195,14.9492683 L132.812683,14.9492683 Z M172.943902,48.8756098 C167.427805,48.8756098 163.859024,44.2156098 163.859024,37.0121951 C163.859024,30.0073171 167.573659,25.3087805 173.102439,25.3087805 C179.37122,25.3087805 182.182927,31.1429268 182.182927,36.9346341 C182.182927,45.7443902 177.407317,48.8760976 172.943902,48.8760976 L172.943902,48.8756098 Z M193.625366,47.0229268 L193.625366,6.25902439 C193.625366,2.05707317 191.592683,0.0102439024 187.424878,0.0102439024 L177.060488,0.0102439024 L177.060488,10.2926829 L181.053171,10.2926829 C181.724878,10.2926829 181.942927,10.5087805 181.942927,11.1907317 L181.942927,18.5585366 C180.231707,16.9995122 176.889268,14.9482927 171.133659,14.9482927 C159.879512,14.9482927 152.026829,24.0214634 152.026829,37.0121951 C152.026829,50.2102439 159.549756,59.0721951 170.74439,59.0721951 C177.141951,59.0721951 180.830732,56.075122 182.632195,53.9843902 C182.867317,55.8073171 184.03561,58.1131707 188.374634,58.1131707 L198.422439,58.1131707 L198.422439,47.9253659 L194.515122,47.9253659 C193.873659,47.9253659 193.625366,47.6668293 193.625366,47.0229268 L193.625366,47.0229268 Z M224.230244,15.344878 C219.403415,15.344878 214.961463,18.1565854 212.325366,22.635122 L212.325366,21.6717073 C212.325366,17.8453659 210.232683,15.9019512 206.124878,15.9019512 L196.154146,15.9019512 L196.154146,26.1804878 L200.142439,26.1804878 C200.814146,26.1804878 201.036585,26.3965854 201.036585,27.0790244 L201.036585,58.1131707 L212.634146,58.1131707 L212.634146,41.222439 C212.634146,38.9980488 212.916585,36.8565854 213.463902,34.8741463 C215.210244,29.0482927 219.84878,26.975122 223.601463,26.975122 C224.932683,26.975122 225.899512,27.117561 225.916585,27.1219512 L226.883902,27.2687805 L226.883902,15.6346341 L226.177561,15.5136585 C226.143415,15.504878 225.159512,15.344878 224.230732,15.344878 L224.230244,15.344878 Z M243.390732,47.022439 L243.390732,22.1512195 C243.390732,17.9492683 241.392683,15.902439 237.28,15.902439 L227.90439,15.902439 L227.90439,26.1804878 L230.899512,26.1804878 C231.576098,26.1804878 231.789756,26.4009756 231.789756,27.0790244 L231.789756,51.8639024 C231.789756,56.1307317 233.737073,58.1126829 237.909268,58.1126829 L248.278049,58.1126829 L248.278049,47.9253659 L244.280976,47.9253659 C243.639024,47.9253659 243.390732,47.6658537 243.390732,47.0229268 L243.390732,47.022439 Z" id="Shape"></path>
                <path d="M287.174634,15.9029268 L280.986829,15.9029268 C277.370732,15.9029268 275.432195,17.1682927 274.285366,20.2736585 L266.72439,41.5858537 C266.462927,42.3760976 266.219024,43.2619512 266.009268,44.1126829 C265.79122,43.2619512 265.530244,42.3634146 265.243415,41.5731707 L257.681951,20.2692683 C256.522439,17.1297561 254.647805,15.9034146 250.984878,15.9034146 L244.403415,15.9034146 L244.403415,26.1814634 L246.110732,26.1814634 C247.018049,26.1814634 247.309268,26.4921951 247.522927,27.062439 L259.226829,58.1136585 L272.269756,58.1136585 L283.973659,27.062439 C284.187317,26.4921951 284.487317,26.1814634 285.394146,26.1814634 L287.174634,26.1814634 L287.174634,15.9034146 L287.174634,15.9029268 Z M298.395122,30.92 C299.666341,26.7785366 302.799024,24.4287805 307.142439,24.4287805 C310.642927,24.4287805 313.325854,27.1107317 313.800976,30.92 L298.395122,30.92 L298.395122,30.92 Z M307.142439,14.9492683 C294.65122,14.9492683 285.917073,24.0229268 285.917073,37.0136585 C285.917073,49.7926829 295.33561,59.0731707 308.327805,59.0731707 C318.550732,59.0731707 324.798537,52.9668293 325.059512,52.7073171 L325.530244,52.2414634 L320.489268,43.7809756 L319.718537,44.4980488 C319.680488,44.5370732 315.071707,48.7990244 309.038049,48.7990244 C303.222439,48.7990244 298.96878,45.2190244 297.963415,39.604878 L325.474634,39.604878 L325.538537,38.8360976 C325.551707,38.7321951 325.787317,36.2409756 325.787317,35.022439 C325.787317,23.0165854 318.294146,14.9492683 307.142439,14.9492683 Z M61.1804878,0.0126829268 L50.8414634,0.0126829268 L50.8414634,11.0039024 L61.1804878,11.0039024 L61.1804878,0.0126829268 Z M242.602927,0.0126829268 L232.26,0.0126829268 L232.26,11.0039024 L242.602927,11.0039024 L242.602927,0.0126829268 Z" id="Shape"></path>
            </g>
        </g>
    </g>
</svg>