<?xml version="1.0" encoding="UTF-8"?>
<svg width="257px" height="257px" viewBox="0 0 257 257" version="1.1" xmlns="http://www.w3.org/2000/svg" xmlns:xlink="http://www.w3.org/1999/xlink">
    <!-- Generator: Sketch 52.6 (67491) - http://www.bohemiancoding.com/sketch -->
    <title>mailchimp/logo</title>
    <desc>Created with Sketch.</desc>
    <g id="mailchimp/logo" stroke="none" stroke-width="1" fill="none" fill-rule="evenodd">
        <rect fill="#FFE01B" x="0" y="0" width="257" height="257"></rect>
        <path d="M163.228321,123.512289 C164.362313,123.376898 165.448806,123.371288 166.447033,123.512289 C167.024876,122.187179 167.123988,119.902738 166.604491,117.415211 C165.832164,113.717768 164.786438,111.480452 162.625794,111.828653 C160.46515,112.176855 160.385486,114.8555 161.157812,118.552943 C161.59241,120.633176 162.366606,122.410836 163.228321,123.512289" id="Fill-1" fill="#241C15"></path>
        <path d="M144.679768,126.438528 C146.225543,127.116604 147.175523,127.566162 147.547661,127.173454 C147.786652,126.928104 147.714843,126.460594 147.345697,125.857694 C146.583095,124.612247 145.013757,123.349222 143.348299,122.639729 C139.943331,121.173991 135.882352,121.661698 132.749661,123.912852 C131.715155,124.670592 130.734506,125.720059 130.875133,126.357742 C130.920762,126.563821 131.075227,126.719034 131.438389,126.769899 C132.291127,126.867515 135.270849,125.361011 138.70312,125.150818 C141.126692,125.002337 143.133619,125.760077 144.679768,126.438528" id="Fill-2" fill="#241C15"></path>
        <path d="M141.569891,128.212448 C139.556606,128.530355 138.445803,129.194219 137.733317,129.811332 C137.124806,130.343545 136.748554,130.931112 136.75192,131.344391 C136.753416,131.541119 136.838316,131.654443 136.906012,131.711293 C136.997644,131.792452 137.10648,131.837333 137.237009,131.837333 C137.691803,131.837333 138.710226,131.428543 138.710226,131.428543 C141.512294,130.425827 143.360642,130.547006 145.192533,130.756076 C146.204599,130.869401 146.682955,130.932608 146.904742,130.585529 C146.970567,130.486043 147.050231,130.27024 146.847518,129.941487 C146.37552,129.176266 144.342787,127.883321 141.569891,128.212448" id="Fill-3" fill="#241C15"></path>
        <path d="M156.964809,134.726171 C158.331808,135.39789 159.837564,135.134214 160.327515,134.137483 C160.817091,133.140377 160.105728,131.78759 158.739103,131.115872 C157.371355,130.444154 155.866347,130.707829 155.376397,131.704935 C154.886446,132.701666 155.597809,134.054453 156.964809,134.726171" id="Fill-4" fill="#241C15"></path>
        <path d="M165.753997,127.046291 C164.643567,127.027591 163.722011,128.247231 163.696205,129.769817 C163.670398,131.292778 164.550065,132.542712 165.660495,132.561787 C166.771298,132.580487 167.692106,131.360847 167.718287,129.838261 C167.744093,128.314926 166.8648,127.064991 165.753997,127.046291" id="Fill-5" fill="#241C15"></path>
        <path d="M91.1558573,154.508202 C90.8794654,154.162245 90.4254196,154.267715 89.9859602,154.369819 C89.6792737,154.441629 89.3314462,154.522789 88.9503321,154.515682 C88.1331246,154.500348 87.4415838,154.150651 87.0529895,153.554482 C86.5469567,152.777293 86.5765033,151.61899 87.1348973,150.292384 C87.2100729,150.113982 87.2990868,149.915384 87.3955808,149.698833 C88.2860939,147.700509 89.7772638,144.355755 88.103204,141.168459 C86.843545,138.769572 84.7891191,137.275784 82.3184223,136.961617 C79.9468375,136.661289 77.5053133,137.540955 75.948318,139.258774 C73.4910855,141.969584 73.1073533,145.657677 73.5823434,146.961095 C73.7566312,147.438329 74.028909,147.570354 74.2267592,147.597282 C74.6445261,147.653758 75.2627614,147.349315 75.6498596,146.308077 C75.6779102,146.232901 75.714937,146.116585 75.76094,145.969226 C75.9333577,145.418312 76.2546306,144.393156 76.7808598,143.571086 C77.4155514,142.579591 78.4036805,141.897027 79.5638534,141.648685 C80.7453446,141.395482 81.9533905,141.620635 82.9647081,142.282629 C84.6855189,143.409515 85.3486351,145.518172 84.6137094,147.530709 C84.2337172,148.571199 83.616978,150.561296 83.7527429,152.196085 C84.0280128,155.505682 86.0637384,156.834532 87.8922635,156.975907 C89.6706715,157.042854 90.9131261,156.045001 91.2276668,155.314938 C91.4131748,154.883706 91.2568394,154.620779 91.1558573,154.508202" id="Fill-6" fill="#241C15"></path>
        <path d="M108.059897,93.7262923 C113.858891,87.024443 120.998704,81.1981464 127.393866,77.9266984 C127.614905,77.813374 127.849782,78.0534872 127.729725,78.2711598 C127.222197,79.1908455 126.244166,81.1596236 125.934487,82.6534115 C125.885866,82.8860445 126.139443,83.0614543 126.335798,82.9275594 C130.314869,80.2152534 137.235887,77.3095852 143.306411,76.9359513 C143.567468,76.9198689 143.693509,77.2542321 143.485934,77.4135595 C142.562883,78.1215566 141.553061,79.1014576 140.815517,80.0929528 C140.690225,80.2616304 140.808037,80.5043616 141.01823,80.5058576 C145.281547,80.5361523 151.290733,82.0280702 155.207345,84.2246191 C155.472891,84.3734743 155.284017,84.8869873 154.987428,84.8189178 C149.061272,83.4605208 139.360252,82.4301288 129.283729,84.8877353 C120.287714,87.0820402 113.421301,90.4698047 108.412212,94.1130166 C108.159009,94.2974026 107.85494,93.9630394 108.059897,93.7262923 Z M136.943413,158.655951 C136.943787,158.657073 136.944909,158.658195 136.945283,158.659691 C136.946405,158.661935 136.947153,158.664927 136.948275,158.667171 C136.946405,158.663431 136.945283,158.659691 136.943413,158.655951 Z M160.859354,161.478963 C161.031024,161.40678 161.149584,161.210052 161.129762,161.015567 C161.105451,160.775828 160.891519,160.601541 160.652154,160.626225 C160.652154,160.626225 148.275855,162.458116 136.583991,158.177969 C137.857114,154.038822 141.243756,155.533732 146.362056,155.946637 C155.587337,156.496429 163.855906,155.148878 169.966449,153.395154 C175.26128,151.875186 182.216333,148.879382 187.617756,144.616065 C189.439923,148.61795 190.083217,153.022642 190.083217,153.022642 C190.083217,153.022642 191.493601,152.770187 192.672474,153.495763 C193.785896,154.180945 194.60273,155.605916 194.045084,159.289521 C192.909221,166.171268 189.983731,171.757077 185.067396,176.895199 C182.075332,180.11653 178.441844,182.917102 174.284745,184.953949 C172.07735,186.113374 169.726336,187.116838 167.243671,187.927687 C148.710078,193.980632 129.73927,187.325908 123.623866,173.035062 C123.135785,171.960912 122.723254,170.836269 122.397493,169.65964 C119.791406,160.242119 122.004037,148.943711 128.920193,141.831949 C128.920567,141.831575 128.919071,141.829331 128.919445,141.828583 C129.345814,141.375659 129.780785,140.842324 129.780785,140.17098 C129.780785,139.609968 129.424356,139.017539 129.114677,138.597902 C126.695593,135.088585 118.314448,129.108197 119.996736,117.534894 C121.204782,109.22107 128.475871,103.3656 135.25514,103.71268 C135.827747,103.742227 136.401475,103.777383 136.972959,103.811418 C139.911166,103.984958 142.473869,104.361958 144.892579,104.463314 C148.940093,104.637976 152.580313,104.049661 156.891129,100.457688 C158.345646,99.2455284 159.511055,98.1949399 161.484321,97.8605768 C161.691148,97.82542 162.207279,97.6406601 163.238419,97.6889071 C164.290877,97.7450083 165.292471,98.0341165 166.193082,98.6332773 C169.648916,100.933426 170.13924,106.503528 170.31839,110.578345 C170.420494,112.9043 170.701748,118.531625 170.797869,120.146965 C171.017785,123.841042 171.98871,124.362036 173.953374,125.008695 C175.05782,125.372231 176.083724,125.643387 177.59509,126.067512 C182.169956,127.352229 184.882262,128.655273 186.592226,130.329333 C187.611772,131.375434 188.086014,132.486985 188.232251,133.546924 C188.771945,137.482236 185.17698,142.343966 175.660721,146.761001 C165.257688,151.589444 152.63791,152.811702 143.918288,151.840777 C143.249187,151.76635 140.871619,151.49669 140.86339,151.495568 C133.888515,150.55606 129.909818,159.570401 134.095716,165.745647 C136.793435,169.725466 144.141944,172.316219 151.494194,172.317341 C168.351482,172.319585 181.308615,165.120679 186.128082,158.903544 C186.272449,158.717662 186.286662,158.697466 186.514059,158.354127 C186.750806,157.996575 186.555574,157.799847 186.260107,158.001811 C182.322177,160.696165 164.831693,171.393167 146.123065,168.175203 C146.123065,168.175203 143.84947,167.801195 141.774474,166.993711 C140.125099,166.352288 136.674127,164.764998 136.25449,161.223516 C151.352819,165.893006 160.859354,161.478963 160.859354,161.478963 Z M77.9309344,125.597758 C72.6802361,126.6188 68.0522612,129.594407 65.2221426,133.705503 C63.5308785,132.294745 60.3794871,129.563739 59.8229632,128.499686 C55.3049465,119.920317 64.7538846,103.240682 71.3543778,93.8212904 C87.6674847,70.5419105 113.217093,52.9216457 125.044722,56.118292 C126.967123,56.6624737 133.335357,64.0461396 133.335357,64.0461396 C133.335357,64.0461396 121.51259,70.6058659 110.548546,79.7496134 C95.7756041,91.1246927 84.6163274,107.657716 77.9309344,125.597758 Z M86.7541571,164.965092 C85.9597641,165.100857 85.1485408,165.154714 84.3313333,165.135266 C76.4307883,164.923203 67.8966738,157.810693 67.0487977,149.37569 C66.1111596,140.052045 70.8752735,132.876702 79.3099019,131.175713 C80.3182275,130.972253 81.5371196,130.855188 82.8510097,130.923258 C87.5769747,131.182071 94.5410037,134.811071 96.1320337,145.106015 C97.5412958,154.223956 95.303232,163.507583 86.7541571,164.965092 Z M193.777668,148.456005 C193.709599,148.21664 193.269391,146.605039 192.663498,144.662816 C192.057231,142.720592 191.430394,141.353593 191.430394,141.353593 C193.85995,137.715617 193.903335,134.462122 193.580566,132.619758 C193.235356,130.335691 192.284628,128.389354 190.368211,126.377191 C188.45142,124.365028 184.531816,122.304618 179.023052,120.758094 C178.392849,120.581189 176.315235,120.0112 176.132345,119.955473 C176.118506,119.835791 175.980871,113.141048 175.855205,110.26717 C175.763947,108.18993 175.585545,104.946532 174.579463,101.751382 C173.38002,97.4274755 171.290437,93.6436366 168.681731,91.2226828 C175.880263,83.7608492 180.373595,75.5416494 180.362749,68.4897286 C180.342179,54.9293206 163.687976,50.8260789 143.164662,59.3242886 C143.142969,59.3336388 138.847113,61.1550578 138.816071,61.1703921 C138.796996,61.1516917 130.954796,53.4572251 130.836984,53.3543729 C107.437547,32.9447564 34.2767208,114.264942 57.6675551,134.015182 L62.7794964,138.345447 C61.453264,141.780336 60.9326449,145.715648 61.357892,149.947923 C61.9043177,155.383007 64.7082556,160.59406 69.2528268,164.620257 C73.5666351,168.44187 79.2388404,170.861328 84.7431161,170.856466 C93.8457228,191.832704 114.643186,204.701198 139.028881,205.425277 C165.187001,206.202092 187.145384,193.928271 196.345981,171.879752 C196.94776,170.331733 199.50186,163.359476 199.50186,157.2048 C199.50186,151.019456 196.004886,148.456005 193.777668,148.456005 Z" id="Fill-8" fill="#241C15"></path>
    </g>
</svg>