<svg height="257" viewBox="0 0 257 257" width="257" xmlns="http://www.w3.org/2000/svg"><g fill="none" fill-rule="evenodd"><path d="m0 0h257v257h-257z" fill="#ffe01b"/><g fill="#241c15"><path d="m163.228321 123.512289c1.133992-.135391 2.220485-.141001 3.218712 0 .577843-1.32511.676955-3.609551.157458-6.097078-.772327-3.697443-1.818053-5.934759-3.978697-5.586558-2.160644.348202-2.240308 3.026847-1.467982 6.72429.434598 2.080233 1.208794 3.857893 2.070509 4.959346"/><path d="m144.679768 126.438528c1.545775.678076 2.495755 1.127634 2.867893.734926.238991-.24535.167182-.71286-.201964-1.31576-.762602-1.245447-2.33194-2.508472-3.997398-3.217965-3.404968-1.465738-7.465947-.978031-10.598638 1.273123-1.034506.75774-2.015155 1.807207-1.874528 2.44489.045629.206079.200094.361292.563256.412157.852738.097616 3.83246-1.408888 7.264731-1.619081 2.423572-.148481 4.430499.609259 5.976648 1.28771"/><path d="m141.569891 128.212448c-2.013285.317907-3.124088.981771-3.836574 1.598884-.608511.532213-.984763 1.11978-.981397 1.533059.001496.196728.086396.310052.154092.366902.091632.081159.200468.12604.330997.12604.454794 0 1.473217-.40879 1.473217-.40879 2.802068-1.002716 4.650416-.881537 6.482307-.672467 1.012066.113325 1.490422.176532 1.712209-.170547.065825-.099486.145489-.315289-.057224-.644042-.471998-.765221-2.504731-2.058166-5.277627-1.729039"/><path d="m156.964809 134.726171c1.366999.671719 2.872755.408043 3.362706-.588688.489576-.997106-.221787-2.349893-1.588412-3.021611-1.367748-.671718-2.872756-.408043-3.362706.589063-.489951.996731.221412 2.349518 1.588412 3.021236"/><path d="m165.753997 127.046291c-1.11043-.0187-2.031986 1.20094-2.057792 2.723526-.025807 1.522961.85386 2.772895 1.96429 2.79197 1.110803.0187 2.031611-1.20094 2.057792-2.723526.025806-1.523335-.853487-2.77327-1.96429-2.79197"/><path d="m91.1558573 154.508202c-.2763919-.345957-.7304377-.240487-1.1698971-.138383-.3066865.07181-.654514.15297-1.0356281.145863-.8172075-.015334-1.5087483-.365031-1.8973426-.9612-.5060328-.777189-.4764862-1.935492.0819078-3.262098.0751756-.178402.1641895-.377.2606835-.593551.8905131-1.998324 2.381683-5.343078.7076232-8.530374-1.259659-2.398887-3.3140849-3.892675-5.7847817-4.206842-2.3715848-.300328-4.813109.579338-6.3701043 2.297157-2.4572325 2.71081-2.8409647 6.398903-2.3659746 7.702321.1742878.477234.4465656.609259.6444158.636187.4177669.056476 1.0360022-.247967 1.4231004-1.289205.0280506-.075176.0650774-.191492.1110804-.338851.1724177-.550914.4936906-1.57607 1.0199198-2.39814.6346916-.991495 1.6228207-1.674059 2.7829936-1.922401 1.1814912-.253203 2.3895371-.02805 3.4008547.633944 1.7208108 1.126886 2.383927 3.235543 1.6490013 5.24808-.3799922 1.04049-.9967314 3.030587-.8609665 4.665376.2752699 3.309597 2.3109955 4.638447 4.1395206 4.779822 1.778408.066947 3.0208626-.930906 3.3354033-1.660969.185508-.431232.0291726-.694159-.0718095-.806736"/><path d="m108.059897 93.7262923c5.798994-6.7018493 12.938807-12.5281459 19.333969-15.7995939.221039-.1133244.455916.1267888.335859.3444614-.507528.9196857-1.485559 2.8884638-1.795238 4.3822517-.048621.232633.204956.4080428.401311.2741479 3.979071-2.712306 10.900089-5.6179742 16.970613-5.9916081.261057-.0160824.387098.3182808.179523.4776082-.923051.7079971-1.932873 1.6878981-2.670417 2.6793933-.125292.1686776-.00748.4114088.202713.4129048 4.263317.0302947 10.272503 1.5222126 14.189115 3.7187615.265546.1488552.076672.6623682-.219917.5942987-5.926156-1.358397-15.627176-2.388789-25.703699.0688175-8.996015 2.1943049-15.862428 5.5820694-20.871517 9.2252813-.253203.184386-.557272-.1499772-.352315-.3867243zm28.883516 64.9296587c.000374.001122.001496.002244.00187.00374.001122.002244.00187.005236.002992.00748-.00187-.00374-.002992-.00748-.004862-.01122zm23.915941 2.823012c.17167-.072183.29023-.268911.270408-.463396-.024311-.239739-.238243-.414026-.477608-.389342 0 0-12.376299 1.831891-24.068163-2.448256 1.273123-4.139147 4.659765-2.644237 9.778065-2.231332 9.225281.549792 17.49385-.797759 23.604393-2.551483 5.294831-1.519968 12.249884-4.515772 17.651307-8.779089 1.822167 4.001885 2.465461 8.406577 2.465461 8.406577s1.410384-.252455 2.589257.473121c1.113422.685182 1.930256 2.110153 1.37261 5.793758-1.135863 6.881747-4.061353 12.467556-8.977688 17.605678-2.992064 3.221331-6.625552 6.021903-10.782651 8.05875-2.207395 1.159425-4.558409 2.162889-7.041074 2.973738-18.533593 6.052945-37.504401-.601779-43.619805-14.892625-.488081-1.07415-.900612-2.198793-1.226373-3.375422-2.606087-9.417521-.393456-20.715929 6.5227-27.827691.000374-.000374-.001122-.002618-.000748-.003366.426369-.452924.86134-.986259.86134-1.657603 0-.561012-.356429-1.153441-.666108-1.573078-2.419084-3.509317-10.800229-9.489705-9.117941-21.063008 1.208046-8.313824 8.479135-14.169294 15.258404-13.822214.572607.029547 1.146335.064703 1.717819.098738 2.938207.17354 5.50091.55054 7.91962.651896 4.047514.174662 7.687734-.413653 11.99855-4.005626 1.454517-1.2121596 2.619926-2.2627481 4.593192-2.5971112.206827-.0351568.722958-.2199167 1.754098-.1716697 1.052458.0561012 2.054052.3452094 2.954663.9443702 3.455834 2.3001487 3.946158 7.8702507 4.125308 11.9450677.102104 2.325955.383358 7.95328.479479 9.56862.219916 3.694077 1.190841 4.215071 3.155505 4.86173 1.104446.363536 2.13035.634692 3.641716 1.058817 4.574866 1.284717 7.287172 2.587761 8.997136 4.261821 1.019546 1.046101 1.493788 2.157652 1.640025 3.217591.539694 3.935312-3.055271 8.797042-12.57153 13.214077-10.403033 4.828443-23.022811 6.050701-31.742433 5.079776-.669101-.074427-3.046669-.344087-3.054898-.345209-6.974875-.939508-10.953572 8.074833-6.767674 14.250079 2.697719 3.979819 10.046228 6.570572 17.398478 6.571694 16.857288.002244 29.814421-7.196662 34.633888-13.413797.144367-.185882.15858-.206078.385977-.549417.236747-.357552.041515-.55428-.253952-.352316-3.93793 2.694354-21.428414 13.391356-40.137042 10.173392 0 0-2.273595-.374008-4.348591-1.181492-1.649375-.641423-5.100347-2.228713-5.519984-5.770195 15.098329 4.66949 24.604864.255447 24.604864.255447zm-82.9284196-35.881205c-5.2506983 1.021042-9.8786732 3.996649-12.7087918 8.107745-1.6912641-1.410758-4.8426555-4.141764-5.3991794-5.205817-4.5180167-8.579369 4.9309214-25.259004 11.5314146-34.6783956 16.3131069-23.2793799 41.8627152-40.8996447 53.6903442-37.7029984 1.922401.5441817 8.290635 7.9278476 8.290635 7.9278476s-11.822767 6.5597263-22.786811 15.7034738c-14.7729419 11.3750793-25.9322186 27.9081026-32.6176116 45.8481446zm8.8232227 39.367334c-.794393.135765-1.6056163.189622-2.4228238.170174-7.900545-.212063-16.4346595-7.324573-17.2825356-15.759576-.9376381-9.323645 3.8264758-16.498988 12.2611042-18.199977 1.0083256-.20346 2.2272177-.320525 3.5411078-.252455 4.725965.258813 11.689994 3.887813 13.281024 14.182757 1.4092621 9.117941-.8288017 18.401568-9.3778766 19.859077zm107.0235109-16.509087c-.068069-.239365-.508277-1.850966-1.11417-3.793189-.606267-1.942224-1.233104-3.309223-1.233104-3.309223 2.429556-3.637976 2.472941-6.891471 2.150172-8.733835-.34521-2.284067-1.295938-4.230404-3.212355-6.242567-1.916791-2.012163-5.836395-4.072573-11.345159-5.619097-.630203-.176905-2.707817-.746894-2.890707-.802621-.013839-.119682-.151474-6.814425-.27714-9.688303-.091258-2.07724-.26966-5.320638-1.275742-8.515788-1.199443-4.3239065-3.289026-8.1077454-5.897732-10.5286992 7.198532-7.4618336 11.691864-15.6810334 11.681018-22.7329542-.02057-13.560408-16.674773-17.6636497-37.198087-9.16544-.021693.0093502-4.317549 1.8307692-4.348591 1.8461035-.019075-.0187004-7.861275-7.713167-7.979087-7.8160192-23.399437-20.4096165-96.5602632 60.9105691-73.1694289 80.6608091l5.1119413 4.330265c-1.3262324 3.434889-1.8468515 7.370201-1.4216044 11.602476.5464257 5.435084 3.3503636 10.646137 7.8949348 14.672334 4.3138083 3.821613 9.9860136 6.241071 15.4902893 6.236209 9.1026067 20.976238 29.9000699 33.844732 54.2857649 34.568811 26.15812.776815 48.116503-11.497006 57.3171-33.545525.601779-1.548019 3.155879-8.520276 3.155879-14.674952 0-6.185344-3.496974-8.748795-5.724192-8.748795z"/></g></g></svg>