<?xml version="1.0" encoding="UTF-8"?>
<svg width="257px" height="257px" viewBox="0 0 257 257" version="1.1" xmlns="http://www.w3.org/2000/svg" xmlns:xlink="http://www.w3.org/1999/xlink">
    <!-- Generator: Sketch 51.3 (57544) - http://www.bohemiancoding.com/sketch -->
    <title>mailchimp/logo</title>
    <desc>Created with Sketch.</desc>
    <defs>
        <polygon id="path-1" points="0 0.0352766415 146.388601 0.0352766415 146.388601 155.40068 0 155.40068"></polygon>
    </defs>
    <g id="mailchimp/logo" stroke="none" stroke-width="1" fill="none" fill-rule="evenodd">
        <circle id="Mask" fill="#FFE01B" cx="128.5" cy="128.5" r="125.5"></circle>
        <g id="Mailchimp_Logo-Veritcal_Black" transform="translate(53.113260, 50.059362)">
            <path d="M110.115061,73.4529269 C111.249053,73.317536 112.335546,73.3119259 113.333774,73.4529269 C113.911616,72.1278166 114.010728,69.8433757 113.491231,67.3558485 C112.718905,63.6584054 111.673178,61.4210896 109.512534,61.769291 C107.35189,62.1174925 107.272226,64.7961378 108.044553,68.4935808 C108.47915,70.5738133 109.253347,72.3514733 110.115061,73.4529269" id="Fill-1" fill="#241C15"></path>
            <path d="M91.5665083,76.3791655 C93.1122833,77.057242 94.0622637,77.5067996 94.4344016,77.1140912 C94.6733927,76.868742 94.6015832,76.401232 94.2324373,75.7983311 C93.469835,74.5528844 91.9004974,73.2898594 90.2350398,72.5803662 C86.830071,71.1146289 82.7690921,71.6023353 79.6364011,73.8534895 C78.601895,74.6112297 77.621246,75.6606961 77.7618731,76.2983798 C77.807502,76.5044582 77.9619673,76.6596715 78.3251291,76.7105366 C79.1778673,76.8081527 82.1575891,75.3016484 85.5898605,75.0914559 C88.0134323,74.9429748 90.0203592,75.700715 91.5665083,76.3791655" id="Fill-2" fill="#241C15"></path>
            <path d="M88.4566318,78.1530854 C86.4433467,78.4709922 85.332543,79.1348564 84.6200577,79.7519696 C84.0115467,80.284183 83.6352947,80.8717496 83.6386607,81.2850284 C83.6401568,81.4817566 83.7250566,81.595081 83.792752,81.6519303 C83.884384,81.73309 83.9932203,81.7779709 84.1237491,81.7779709 C84.5785428,81.7779709 85.5969666,81.3691802 85.5969666,81.3691802 C88.3990345,80.3664648 90.2473821,80.4876434 92.0792733,80.6967138 C93.0913389,80.8100382 93.5696951,80.8732456 93.7914819,80.5261662 C93.8573073,80.42668 93.936971,80.2108774 93.7342586,79.8821244 C93.2622606,79.116904 91.2295271,77.8239584 88.4566318,78.1530854" id="Fill-3" fill="#241C15"></path>
            <path d="M103.851549,84.6668087 C105.218548,85.3385271 106.724304,85.0748515 107.214255,84.0781201 C107.703831,83.0810148 106.992468,81.7282279 105.625843,81.0565095 C104.258096,80.3847912 102.753088,80.6484668 102.263137,81.6455721 C101.773187,82.6423034 102.48455,83.9950904 103.851549,84.6668087" id="Fill-4" fill="#241C15"></path>
            <path d="M112.640737,76.9869285 C111.530307,76.9682281 110.608752,78.1878682 110.582945,79.7104547 C110.557138,81.2334153 111.436805,82.48335 112.547235,82.5024244 C113.658039,82.5211248 114.578846,81.3014848 114.605027,79.7788982 C114.630834,78.2555636 113.751541,77.0056289 112.640737,76.9869285" id="Fill-5" fill="#241C15"></path>
            <g id="Group-9">
                <mask id="mask-2" fill="white">
                    <use xlink:href="#path-1"></use>
                </mask>
                <g id="Clip-7"></g>
                <path d="M38.0425976,104.44884 C37.7662057,104.102882 37.31216,104.208353 36.8727006,104.310457 C36.566014,104.382266 36.2181866,104.463426 35.8370724,104.45632 C35.019865,104.440986 34.3283242,104.091288 33.9397299,103.495119 C33.433697,102.717931 33.4632437,101.559628 34.0216376,100.233022 C34.0968132,100.05462 34.1858271,99.8560216 34.2823212,99.6394709 C35.1728342,97.6411462 36.6640041,94.2963927 34.9899443,91.1090965 C33.7302854,88.7102092 31.6758594,87.2164213 29.2051626,86.9022545 C26.8335779,86.6019261 24.3920537,87.4815929 22.8350584,89.1994117 C20.3778258,91.9102216 19.9940936,95.5983145 20.4690838,96.9017324 C20.6433715,97.3789666 20.9156493,97.5109914 21.1134995,97.53792 C21.5312665,97.5943952 22.1495017,97.2899527 22.5366,96.2487144 C22.5646506,96.1735388 22.6016774,96.0572223 22.6476804,95.9098632 C22.820098,95.3589494 23.1413709,94.3337935 23.6676002,93.5117239 C24.3022917,92.5202287 25.2904209,91.8376641 26.4505937,91.5893228 C27.632085,91.3361194 28.8401308,91.5612722 29.8514484,92.2232663 C31.5722592,93.3501524 32.2353754,95.4588095 31.5004497,97.4713466 C31.1204576,98.5118368 30.5037184,100.501933 30.6394833,102.136722 C30.9147532,105.446319 32.9504787,106.77517 34.7790038,106.916545 C36.5574118,106.983492 37.7998664,105.985639 38.1144071,105.255575 C38.2999151,104.824344 38.1435798,104.561416 38.0425976,104.44884" id="Fill-6" fill="#241C15" mask="url(#mask-2)"></path>
                <path d="M54.9466371,43.6669299 C60.7456311,36.9650806 67.8854438,31.138784 74.2806066,27.867336 C74.5016453,27.7540116 74.7365224,27.9941247 74.6164658,28.2117974 C74.1089369,29.131483 73.130906,31.1002611 72.8212274,32.5940491 C72.7726064,32.826682 73.0261838,33.0020918 73.222538,32.8681969 C77.2016091,30.1558909 84.1226271,27.2502228 90.1931509,26.8765888 C90.4542085,26.8605065 90.5802492,27.1948696 90.3726748,27.354197 C89.449623,28.0621942 88.4398014,29.0420951 87.7022576,30.0335903 C87.576965,30.2022679 87.6947775,30.4449991 87.90497,30.4464951 C92.1682872,30.4767898 98.1774737,31.9687077 102.094085,34.1652567 C102.359631,34.3141119 102.170757,34.8276248 101.874169,34.7595554 C95.948012,33.4011583 86.2469925,32.3707663 76.170469,34.8283729 C67.1744546,37.0226778 60.3080418,40.4104422 55.2989527,44.0536542 C55.0457492,44.2380401 54.7416807,43.9036769 54.9466371,43.6669299 Z M83.8301528,108.596589 C83.8305268,108.597711 83.8316489,108.598833 83.8320229,108.600329 C83.8331449,108.602573 83.8338929,108.605565 83.8350149,108.607809 C83.8331449,108.604069 83.8320229,108.600329 83.8301528,108.596589 Z M107.746094,111.419601 C107.917764,111.347417 108.036325,111.150689 108.016502,110.956205 C107.992192,110.716466 107.778259,110.542178 107.538894,110.566863 C107.538894,110.566863 95.1625952,112.398754 83.4707311,108.118606 C84.7438544,103.97946 88.1304968,105.47437 93.2487963,105.887275 C102.474078,106.437066 110.742646,105.089515 116.853189,103.335792 C122.14802,101.815823 129.103073,98.8200194 134.504497,94.5567022 C136.326664,98.5585878 136.969957,102.96328 136.969957,102.96328 C136.969957,102.96328 138.380341,102.710825 139.559215,103.4364 C140.672636,104.121583 141.48947,105.546553 140.931824,109.230158 C139.795962,116.111905 136.870471,121.697715 131.954136,126.835837 C128.962072,130.057167 125.328584,132.857739 121.171485,134.894587 C118.96409,136.054012 116.613076,137.057475 114.130411,137.868325 C95.5968185,143.92127 76.6260108,137.266546 70.510606,122.9757 C70.0225255,121.901549 69.6099947,120.776907 69.2842337,119.600278 C66.678146,110.182756 68.8907773,98.8843488 75.8069332,91.7725867 C75.8073073,91.7722127 75.8058112,91.7699686 75.8061852,91.7692206 C76.2325543,91.3162969 76.6675257,90.7829615 76.6675257,90.1116172 C76.6675257,89.5506052 76.311096,88.9581765 76.0014174,88.5385395 C73.5823337,85.0292225 65.2011884,79.0488346 66.8834764,67.4755311 C68.0915222,59.1617073 75.3626117,53.306238 82.1418807,53.6533175 C82.714487,53.6828641 83.2882152,53.7180208 83.8596995,53.7520556 C86.7979063,53.9255953 89.3606091,54.3025953 91.7793188,54.4039515 C95.8268334,54.5786132 99.4670533,53.9902987 103.777869,50.3983258 C105.232387,49.1861659 106.397795,48.1355775 108.371062,47.8012143 C108.577888,47.7660575 109.094019,47.5812976 110.125159,47.6295446 C111.177618,47.6856458 112.179211,47.974754 113.079822,48.5739148 C116.535656,50.874064 117.025981,56.4441651 117.205131,60.5189823 C117.307235,62.844938 117.588489,68.4722624 117.684609,70.0876029 C117.904526,73.7816799 118.87545,74.3026731 120.840114,74.9493329 C121.94456,75.3128687 122.970464,75.5840245 124.48183,76.0081495 C129.056696,77.292867 131.769002,78.5959109 133.478967,80.2699707 C134.498512,81.3160711 134.972755,82.4276228 135.118992,83.4875615 C135.658685,87.4228737 132.06372,92.2846036 122.547461,96.7016381 C112.144428,101.530081 99.5246505,102.75234 90.805028,101.781415 C90.1359277,101.706987 87.7583588,101.437327 87.7501307,101.436205 C80.7752555,100.496697 76.7965584,109.511038 80.9824559,115.686284 C83.6801756,119.666103 91.0286848,122.256857 98.380934,122.257979 C115.238223,122.260223 128.195356,115.061317 133.014823,108.844182 C133.15919,108.6583 133.173402,108.638103 133.400799,108.294764 C133.637546,107.937212 133.442314,107.740484 133.146848,107.942449 C129.208917,110.636802 111.718433,121.333805 93.0098052,118.11584 C93.0098052,118.11584 90.7362105,117.741832 88.6612142,116.934349 C87.0118389,116.292925 83.5608671,114.705635 83.1412301,111.164153 C98.239559,115.833643 107.746094,111.419601 107.746094,111.419601 Z M24.8176748,75.5383955 C19.5669765,76.5594373 14.9390015,79.535045 12.108883,83.6461409 C10.4176188,82.2353827 7.2662274,79.5043763 6.7097035,78.4403236 C2.19168687,69.8609541 11.640625,53.1813194 18.2411181,43.7619279 C34.554225,20.4825481 60.1038334,2.86228321 71.9314624,6.05892958 C73.8538635,6.60311122 80.2220977,13.9867771 80.2220977,13.9867771 C80.2220977,13.9867771 68.3993308,20.5465034 57.4352863,29.690251 C42.6623444,41.0653302 31.5030677,57.5983538 24.8176748,75.5383955 Z M33.6408975,114.905729 C32.8465045,115.041494 32.0352811,115.095351 31.2180736,115.075903 C23.3175287,114.863841 14.7834142,107.75133 13.935538,99.316328 C12.9979,89.9926826 17.7620139,82.8173392 26.1966423,81.1163508 C27.2049678,80.9128904 28.4238599,80.7958259 29.73775,80.8638954 C34.4637151,81.1227089 41.427744,84.7517085 43.018774,95.0466527 C44.4280362,104.164594 42.1899723,113.44822 33.6408975,114.905729 Z M140.664408,98.3966424 C140.596339,98.1572772 140.156131,96.5456768 139.550238,94.6034532 C138.943972,92.6612297 138.317134,91.2942305 138.317134,91.2942305 C140.74669,87.6562547 140.790075,84.4027591 140.467306,82.5603957 C140.122097,80.2763288 139.171368,78.3299912 137.254951,76.3178282 C135.33816,74.3056651 131.418557,72.2452551 125.909793,70.698732 C125.279589,70.5218262 123.201975,69.951838 123.019085,69.8961108 C123.005247,69.7764283 122.867612,63.0816851 122.741945,60.2078076 C122.650687,58.1305672 122.472285,54.8871698 121.466204,51.6920195 C120.26676,47.368113 118.177177,43.5842741 115.568472,41.1633203 C122.767004,33.7014868 127.260336,25.482287 127.249489,18.4303662 C127.228919,4.86995815 110.574717,0.766716397 90.0514019,9.26492614 C90.0297094,9.27427634 85.7338535,11.0956953 85.7028109,11.1110296 C85.6837365,11.0923292 77.8415368,3.39786267 77.7237242,3.29501047 C54.3242878,-17.114606 -18.8365388,64.2055791 4.5542954,83.9558195 L9.66623673,88.2860841 C8.34000436,91.7209736 7.81938523,95.6562858 8.24463232,99.8885603 C8.79105801,105.323645 11.594996,110.534698 16.1395672,114.560894 C20.4533754,118.382508 26.1255807,120.801966 31.6298565,120.797103 C40.7324631,141.773342 61.5299259,154.641835 85.9156214,155.365915 C112.073741,156.142729 134.032124,143.868909 143.232721,121.820389 C143.8345,120.27237 146.388601,113.300113 146.388601,107.145437 C146.388601,100.960093 142.891626,98.3966424 140.664408,98.3966424 Z" id="Fill-8" fill="#241C15" mask="url(#mask-2)"></path>
            </g>
        </g>
    </g>
</svg>