<svg height="360" viewBox="0 0 640 360" width="640" xmlns="http://www.w3.org/2000/svg" xmlns:xlink="http://www.w3.org/1999/xlink"><mask id="a" fill="#fff"><path d="m.31744847.19970724h203.92237253v52.70731356h-203.92237253z" fill="#fff" fill-rule="evenodd"/></mask><mask id="b" fill="#fff"><path d="m.00011272.01688191h104.52194528v110.90441209h-104.52194528z" fill="#fff" fill-rule="evenodd"/></mask><g fill="none" fill-rule="evenodd"><path d="m0 0h640v360h-640z" fill="#ffe01b"/><g fill="#241c15" transform="translate(106 121.98136)"><path d="m159.982705 42.4185417c-5.296544 0-7.916739 4.1680394-9.119058 6.8566151-.671578 1.5012007-.859511 2.6881228-1.404291 2.6881228-.767582 0-.217821-1.0315943-.845925-3.3193969-.826453-3.0100998-3.317586-6.225341-8.610507-6.225341-5.564631 0-7.94708 4.7014978-9.076943 7.285012-.772563 1.7661184-.773469 2.2597259-1.367609 2.2597259-.86087 0-.14763-1.402932.239558-3.0522149.763054-3.2473936.182952-5.7290165.182952-5.7290165h-8.821083v33.1695154h12.040399s0-13.8622182 0-16.5032445c0-3.2550921 1.361723-7.385545 3.695716-7.385545 2.696727 0 3.236526 2.0708871 3.236526 5.9060812v17.9899539h12.088854s0-13.9464485 0-16.5104901c0-2.8973399 1.182393-7.385545 3.713377-7.385545 2.734314 0 3.218411 2.9095669 3.218411 5.9060812v17.9827083h11.871486s0-13.1426382 0-19.5056458c0-8.6562446-3.051309-14.4273761-11.041863-14.4273761"/><path d="m364.351136 42.4185417c-5.296544 0-7.917192 4.1680394-9.119511 6.8566151-.671578 1.5012007-.859058 2.6881228-1.404291 2.6881228-.767582 0-.253596-1.3105504-.845472-3.3193969-.882154-2.99425-3.077122-6.225341-8.610507-6.225341-5.564631 0-7.947533 4.7014978-9.076943 7.285012-.772563 1.7661184-.773469 2.2597259-1.367609 2.2597259-.86087 0-.148083-1.402932.239558-3.0522149.763053-3.2473936.182951-5.7290165.182951-5.7290165h-8.821535v33.1695154h12.040852s0-13.8622182 0-16.5032445c0-3.2550921 1.361723-7.385545 3.695716-7.385545 2.696275 0 3.236073 2.0708871 3.236073 5.9060812v17.9899539h12.088854s0-13.9464485 0-16.5104901c0-2.8973399 1.182846-7.385545 3.71383-7.385545 2.734314 0 3.218411 2.9095669 3.218411 5.9060812v17.9827083h11.871486s0-13.1426382 0-19.5056458c0-8.6562446-3.051309-14.4273761-11.041863-14.4273761"/><path d="m188.652241 68.5992094c-2.879226.6647851-4.371822-.2218969-4.371822-2.1302105 0-2.6143081 2.703972-3.6612993 6.56362-3.6612993 1.701361 0 3.301283.1471765 3.301283.1471765 0 1.1189945-2.429092 4.9374331-5.493081 5.6443333zm2.931304-26.1734221c-9.223214 0-15.841177 3.3909473-15.841177 3.3909473v9.9672479s7.308561-4.2020033 13.237284-4.2020033c4.732292 0 5.313753 2.5522675 5.098196 4.6707039 0 0-1.36444-.361375-5.529762-.361375-9.813279 0-14.767468 4.4601283-14.767468 11.6120022 0 6.7837061 5.567802 9.6194583 10.258431 9.6194583 6.844841 0 9.853583-4.5996063 10.778304-6.7818947.64169-1.5138805.758525-2.5341535 1.335004-2.5341535.656634 0 .435643.731807.403943 2.2384419-.0557 2.638762.068381 4.6335702.486815 6.3136469h9.075132v-16.3239156c0-10.1918618-3.606052-17.6091063-14.534702-17.6091063z"/><path d="m225.951304 76.3588092h12.040852v-43.2178235h-12.040852z"/><path d="m251.245289 59.7740515c0-2.9824758 2.770542-5.6959583 7.857416-5.6959583 5.542442 0 10.000306 2.6686502 11.000201 3.2745647v-11.5359233s-3.521822-3.3909473-12.178066-3.3909473c-9.124945 0-16.723783 5.3395647-16.723783 16.8320142 0 11.4924496 6.896013 17.8649671 16.699329 17.8649671 7.657255 0 12.221992-4.2074375 12.221992-4.2074375v-10.9571798c-1.444141.8083388-5.468174 3.6006173-10.964425 3.6006173-5.82004 0-7.912664-2.6772543-7.912664-5.7847171"/><path d="m294.493454 42.4257873c-6.970281 0-9.62127 6.6052829-10.15654 7.7523541-.535722 1.1466185-.800187 1.8064222-1.238547 1.7923838-.760789-.0249068-.230501-1.4079134.066117-2.3036524.560629-1.6918509 1.748457-6.131148 1.748457-11.5870954 0-3.7006974-.5004-4.9387917-.5004-4.9387917h-10.394287v43.2178235h12.040852s0-13.8151217 0-16.5027917c0-2.6885756 1.072804-7.3859978 4.105999-7.3859978 2.512417 0 3.299019 1.86167 3.299019 5.6103696v18.2784199h12.040852s0-10.1089901 0-17.5570285c0-8.5145022-1.411536-16.3759934-11.011522-16.3759934"/><path d="m309.41806 43.2273333v33.1314759h12.040852v-33.1314759s-2.02379 1.1837522-6.007972 1.1837522c-3.983729 0-6.03288-1.1837522-6.03288-1.1837522"/><path d="m315.402937 32.8049704c-4.070676 0-7.3706 2.1537588-7.3706 4.8106349 0 2.6564232 3.299924 4.810182 7.3706 4.810182 4.070224 0 7.370601-2.1537588 7.370601-4.810182 0-2.6568761-3.300377-4.8106349-7.370601-4.8106349"/><path d="m210.014576 43.2273333v33.1314759h12.040399v-33.1314759s-2.023791 1.1837522-6.007973 1.1837522c-3.983729 0-6.032426-1.1837522-6.032426-1.1837522"/><g transform="translate(208.311404 32.605263)"><path d="m7.68759649.19970724c-4.07022368 0-7.37014802 2.15375877-7.37014802 4.81063487 0 2.65642324 3.29992434 4.81018201 7.37014802 4.81018201 4.07067651 0 7.37060091-2.15375877 7.37060091-4.81018201 0-2.6568761-3.2999244-4.81063487-7.37060091-4.81063487" mask="url(#a)"/><path d="m187.69899 36.6256732c-2.761937 0-4.793426-3.5018958-4.793426-8.381364 0-4.7386316 2.086736-8.3795526 4.697875-8.3795526 3.351096 0 4.778935 3.0725932 4.778935 8.3795526 0 5.5207051-1.316438 8.381364-4.683384 8.381364zm3.304906-26.81239469c-6.189566 0-9.026224 4.64126859-10.259337 7.28501209-.815131 1.7470987-.773469 2.2597258-1.368062 2.2597258-.86087 0-.147177-1.402932.240464-3.0522149.7626-3.2473936.182498-5.7290164.182498-5.7290164h-8.821535v42.3302357h12.040852s0-6.926807 0-13.4206886c1.424669 2.4168652 4.063884 4.9994737 8.132749 4.9994737 8.706511 0 13.088749-7.3665252 13.088749-17.3197346 0-11.2809682-5.245824-17.35279279-13.236378-17.35279279z" mask="url(#a)"/></g><path d="m78.6226107 52.4374145c.8096974-.0964573 1.585431-.1009858 2.2982182 0 .4125472-.9460055.4836448-2.5771744.1123071-4.3532555-.5515724-2.6401206-1.2978706-4.2377785-2.8407336-3.9891634-1.5424101.2486151-1.5994693 2.1614573-1.0478969 4.8015779.3102028 1.484898.8626809 2.754239 1.4781052 3.540841"/><path d="m65.3789868 54.5264156c1.1035976.4845504 1.7819682.8056217 2.0473389.5248541.1707247-.1748004.1200054-.5085515-.1435538-.9392127-.5447796-.8893991-1.6655855-1.7910252-2.854319-2.2977653-2.4313564-1.0465384-5.3309606-.6982961-7.5680439.9088717-.7381469.5411568-1.4382544 1.290625-1.3381744 1.7457401.0326053.1471765.1431009.258125.4021316.2943531.6090845.069739 2.7365779-1.0062347 5.1874068-1.1561283 1.7298904-.1059671 3.1631634.4351897 4.2672138.9192873"/><path d="m63.158659 55.7934923c-1.4378015.2268783-2.2307434.7010132-2.7397478 1.1416371-.434284.379489-.7028246.7992818-.7005603 1.0945406.0009057.1403837.0620405.221444.1100427.2622006.0656634.0575121.1431009.0896645.2363882.0896645.3246941 0 1.0519726-.2920888 1.0519726-.2920888 2.0006952-.7159573 3.3203026-.6290099 4.628136-.480022.72275.0810603 1.0641995.1258926 1.2226973-.1218168.0470965-.0710976.1037029-.2250669-.0407566-.4596437-.336921-.5461381-1.7883081-1.4695011-3.7681721-1.2344715"/><path d="m74.1507083 60.4442708c.9758937.4795691 2.0505088.2911831 2.4005625-.4206984.3496009-.7114288-.1580449-1.6773597-1.1343914-2.1573816-.9758937-.4791162-2.0505088-.2911831-2.4005625.4206985-.3496009.7118815.1580449 1.6773596 1.1343914 2.1573815"/><path d="m80.4258629 54.9606996c-.7929418-.0135856-1.4504813.8572467-1.4690482 1.9445416-.0185669 1.0877478.6095373 1.9798641 1.4024792 1.9934496.7929418.0135855 1.4509342-.8572467 1.4690482-1.9445417.0185669-1.0877478-.6095373-1.9803169-1.4024792-1.9934495"/><path d="m27.1624485 74.5686897c-.1969902-.2472566-.5212314-.1720833-.8350571-.0987215-.2191798.0511722-.4673421.1086842-.7395054.1041557-.583272-.0113213-1.0773323-.2603893-1.354477-.6865219-.361375-.5547424-.3405439-1.3821009.0584178-2.3285592.0534364-.1281568.1168355-.2698992.1861217-.4243213.6358026-1.4269331 1.7000022-3.8152686.5049287-6.0908443-.8993618-1.712682-2.3661458-2.7795987-4.13-3.003307-1.6936623-.2146513-3.4366853.413-4.5484342 1.639773-1.7543443 1.9354847-2.0287719 4.5692654-1.6895866 5.4998739.124534.3405439.318807.4347368.4600965.4542094.2988815.0398509.7399583-.1770647 1.0166502-.9210986.0199254-.0534365.0461908-.1363082.078796-.2418224.1231755-.3930746.3527709-1.1253344.7286371-1.7122292.4528509-.7078059 1.1583925-1.1950734 1.9866568-1.372591.844114-.1806875 1.7063421-.0194726 2.4281864.4533037 1.2290373.8038103 1.7022664 2.3095395 1.1774123 3.7464353-.2708049.7431283-.7114288 2.1637215-.6145187 3.3316239.1965373 2.3625231 1.6501886 3.3116985 2.9557577 3.4126843 1.269341.0475493 2.1569287-.6647851 2.3815428-1.1860165.1322324-.3079386.0203783-.4954189-.051625-.5760263" mask="url(#b)"/><path d="m39.2322829 31.1701787c4.1404156-4.7852752 9.2381579-8.9451633 13.8042533-11.281421.1580449-.0806075.3255998.091023.2400109.245898-.3627335.6570866-1.0605767 2.0627357-1.2820208 3.1291996-.0344167.1661962.1462708.2911831.2866546.1956315 2.8407336-1.9363903 7.7826952-4.011353 12.1173838-4.2780822.1861217-.0113213.276239.2273311.1281568.3409967-.6593509.5058344-1.3802895 1.2054891-1.9069551 1.913295-.0896644.1204583-.0054342.2939002.1449123.2948059 3.0436108.0217368 7.3343728 1.0868421 10.1311799 2.6555175.1892916.1059671.0543421.4723235-.1571393.4238685-4.2314386-.9695538-11.1577928-1.7054364-18.3526875.0493607-6.4232368 1.5664112-11.3258004 3.9855406-14.9024167 6.586716-.1806875.1317796-.397603-.1068728-.2513322-.2757862zm20.6228289 46.3597029c.0004529.0009057.0009057.0018114.0013586.0027171.0009057.0018114.0013585.0036228.0022642.0054342-.0013585-.0027171-.0022642-.0054342-.0036228-.0081513zm17.0761009 2.0156392c.1227226-.051625.2074057-.1915559.1929145-.3305811-.0172083-.1711776-.1698191-.2957116-.3409967-.2780504 0 0-8.836932 1.3078333-17.1847851-1.7480044.9093246-2.9553049 3.3270954-1.8883882 6.981602-1.5931294 6.5871688.3926217 12.4905329-.5696864 16.8537511-1.8222719 3.7808519-1.0845779 8.7463618-3.2238454 12.6032927-6.2683619 1.3010406 2.8579419 1.7602314 6.0025384 1.7602314 6.0025384s1.0071403-.1797818 1.8485373.3378267c.7952061.4895318 1.3784781 1.5066349.9799691 4.1367928-.8110558 4.9138849-2.899604 8.9016897-6.4096511 12.5706875-2.1370033 2.3000296-4.7309332 4.2998191-7.6989178 5.7539233-1.5763739.8278114-3.2546393 1.5442214-5.0275505 2.1229649-13.2332083 4.3220087-26.7784309-.4293027-31.144819-10.6329386-.3482424-.7671294-.6430483-1.570034-.8753608-2.4100724-1.8607642-6.7239298-.2812204-14.7910154 4.6566656-19.8688322.0004528-.0004529-.0004529-.0022643 0-.0027171.3043158-.3233356.6149715-.7041832.6149715-1.1832994 0-.400773-.2545022-.8237357-.4754934-1.123523-1.7276261-2.5056239-7.7115976-6.7755548-6.5106371-15.0387248.8626809-5.9364221 6.0541634-10.1171414 10.8946864-9.869432.4089243.0208311.8187544.0461908 1.226773.0701919 2.0976053.124534 3.9275757.3935274 5.6542961.4655307 2.8900943.1249868 5.4890055-.2952588 8.5670329-2.8597533 1.038387-.865398 1.870727-1.6157719 3.279546-1.8539715.1480823-.0253597.51625-.1575921 1.2525856-.1227226.7512796.0398509 1.466784.2463509 2.1093793.674295 2.4680373 1.6420372 2.8176382 5.6189736 2.945795 8.5285405.072909 1.6606042.2739748 5.67875.3423553 6.8321612.1571392 2.6374035.8504539 3.0091941 2.2529331 3.471102.7888662.2599364 1.5211261.4533037 2.6002697.756261 3.2664134.917023 5.2032566 1.8476315 6.4236897 3.042705.7281842.7467511 1.0669167 1.5405987 1.1715252 2.2973125.3849233 2.8099397-2.1818355 6.2810417-8.9764101 9.435148-7.42766 3.4471009-16.4384868 4.3201974-22.6642807 3.6268827-.4773048-.0529835-2.1754956-.2454452-2.1813826-.2463509-4.9800011-.6706721-7.8207347 5.7652445-4.8319189 10.1746535 1.9264276 2.8416393 7.1731579 4.6910823 12.4226053 4.691988 12.0363234.0018114 21.287614-5.1384989 24.7288278-9.5773432.10325-.1326853.1132127-.1471766.2753334-.3926217.1693662-.2549551.0298881-.3957917-.1811404-.2513323-2.8117511 1.9237106-15.3000197 9.5614934-28.6582149 7.2637281 0 0-1.6230176-.2667292-3.1047456-.8432083-1.1774123-.4578323-3.6418268-1.5917709-3.9411612-4.1200373 10.7801151 3.3338881 17.5678969.182046 17.5678969.182046zm-59.2111579-25.6191326c-3.7491524.7290899-7.0536052 2.8538662-9.07422585 5.7887927-1.20775329-1.0071403-3.45751645-2.9571162-3.85511952-3.717-3.2256568-6.1252609 3.52091557-18.035239 8.23373467-24.7605274 11.6473245-16.6214386 29.8899693-29.20254166 38.3347324-26.91972039 1.3730439.38854606 5.9196667 5.66018312 5.9196667 5.66018312s-8.4411403 4.68383667-16.2695735 11.21258767c-10.5482554 8.1218805-18.5161666 19.9263443-23.2892149 32.7356843zm6.2996086 28.1084539c-.5674222.0969101-1.1461656.1354024-1.7298904.121364-5.6407105-.1512522-11.7342719-5.2299747-12.33973353-11.2524386-.66931359-6.6569079 2.73204933-11.7800098 8.75451313-12.9950087.7200329-.1449123 1.5899595-.2286897 2.5282665-.1797818 3.3741919.1847631 8.3469473 2.775523 9.4826973 10.1266513 1.0062347 6.5101842-.591876 13.1381096-6.695853 14.1792138zm76.4154156-11.7877083c-.048455-.1707248-.363186-1.3214189-.795659-2.7080483-.4324726-1.3870822-.8803421-2.3629759-.8803421-2.3629759 1.7348721-2.5975526 1.7656651-4.9202247 1.5351641-6.2362094-.246351-1.630716-.925174-3.0205153-2.2936894-4.4569583-1.3685153-1.436443-4.1671337-2.9077555-8.1005965-4.0122588-.4496809-.1263454-1.9332204-.5334583-2.0636414-.5728563-.0099627-.085136-.1086842-4.8654299-.1978958-6.9172972-.0652106-1.4835395-.1924617-3.7994189-.911136-6.0808816-.856341-3.0870844-2.3484847-5.7887927-4.2106075-7.5173245 5.1394046-5.3273378 8.3478531-11.1962851 8.3401546-16.231534-.014944-9.68195178-11.9059024-12.61189696-26.5597039-6.5436952-.0153969.00633991-3.0825559 1.30692763-3.1047456 1.3182489-.0140384-.01358552-5.6130866-5.50757237-5.6973169-5.58093421-16.7074803-14.57274119-68.9442818 43.48998681-52.24314145 57.59176311l3.64997807 3.0920658c-.94691118 2.4526404-1.31870176 5.2625801-1.01483882 8.284454.38990461 3.880932 2.39195834 7.601102 5.6366349 10.4753465 3.0802916 2.7293322 7.130137 4.4565055 11.0599769 4.4533355 6.4993158 14.9771371 21.3492018 24.1650281 38.7604123 24.6821841 18.6769288.554742 34.355079-8.209281 40.9245865-23.9517356.429756-1.1049562 2.253386-6.0831459 2.253386-10.4776108 0-4.4166546-2.49702-6.2470778-4.086979-6.2470778z" mask="url(#b)"/></g></g></svg>