<?xml version="1.0" encoding="UTF-8"?>
<svg width="640px" height="360px" viewBox="0 0 640 360" version="1.1" xmlns="http://www.w3.org/2000/svg" xmlns:xlink="http://www.w3.org/1999/xlink">
    <!-- Generator: Sketch 51.3 (57544) - http://www.bohemiancoding.com/sketch -->
    <title>mailchimp/picture</title>
    <desc>Created with Sketch.</desc>
    <defs>
        <polygon id="path-1" points="0.317448465 0.199707237 204.239821 0.199707237 204.239821 52.9070208 0.317448465 52.9070208"></polygon>
        <polygon id="path-3" points="0.000112720084 0.0168819083 104.522058 0.0168819083 104.522058 110.921294 0.000112720084 110.921294"></polygon>
    </defs>
    <g id="mailchimp/picture" stroke="none" stroke-width="1" fill="none" fill-rule="evenodd">
        <rect id="Rectangle" fill="#FFE01B" x="0" y="0" width="640" height="360"></rect>
        <g id="Mailchimp_Logo-Horizontal_Black" transform="translate(106.000000, 121.981360)">
            <path d="M159.982705,42.4185417 C154.686161,42.4185417 152.065966,46.5865811 150.863647,49.2751568 C150.192069,50.7763575 150.004136,51.9632796 149.459356,51.9632796 C148.691774,51.9632796 149.241535,50.9316853 148.613431,48.6438827 C147.786978,45.6337829 145.295845,42.4185417 140.002924,42.4185417 C134.438293,42.4185417 132.055844,47.1200395 130.925981,49.7035537 C130.153418,51.4696721 130.152512,51.9632796 129.558372,51.9632796 C128.697502,51.9632796 129.410742,50.5603476 129.79793,48.9110647 C130.560984,45.6636711 129.980882,43.1820482 129.980882,43.1820482 L121.159799,43.1820482 L121.159799,76.3515636 L133.200198,76.3515636 C133.200198,76.3515636 133.200198,62.4893454 133.200198,59.8483191 C133.200198,56.593227 134.561921,52.4627741 136.895914,52.4627741 C139.592641,52.4627741 140.13244,54.5336612 140.13244,58.3688553 C140.13244,61.8458443 140.13244,76.3588092 140.13244,76.3588092 L152.221294,76.3588092 C152.221294,76.3588092 152.221294,62.4123607 152.221294,59.8483191 C152.221294,56.9509792 153.403687,52.4627741 155.934671,52.4627741 C158.668985,52.4627741 159.153082,55.372341 159.153082,58.3688553 C159.153082,61.3653695 159.153082,76.3515636 159.153082,76.3515636 L171.024568,76.3515636 C171.024568,76.3515636 171.024568,63.2089254 171.024568,56.8459178 C171.024568,48.1896732 167.973259,42.4185417 159.982705,42.4185417" id="Fill-1" fill="#241C15"></path>
            <path d="M364.351136,42.4185417 C359.054592,42.4185417 356.433944,46.5865811 355.231625,49.2751568 C354.560047,50.7763575 354.372567,51.9632796 353.827334,51.9632796 C353.059752,51.9632796 353.573738,50.6527292 352.981862,48.6438827 C352.099708,45.6496327 349.90474,42.4185417 344.371355,42.4185417 C338.806724,42.4185417 336.423822,47.1200395 335.294412,49.7035537 C334.521849,51.4696721 334.520943,51.9632796 333.926803,51.9632796 C333.065933,51.9632796 333.77872,50.5603476 334.166361,48.9110647 C334.929414,45.6636711 334.349312,43.1820482 334.349312,43.1820482 L325.527777,43.1820482 L325.527777,76.3515636 L337.568629,76.3515636 C337.568629,76.3515636 337.568629,62.4893454 337.568629,59.8483191 C337.568629,56.593227 338.930352,52.4627741 341.264345,52.4627741 C343.96062,52.4627741 344.500418,54.5336612 344.500418,58.3688553 C344.500418,61.8458443 344.500418,76.3588092 344.500418,76.3588092 L356.589272,76.3588092 C356.589272,76.3588092 356.589272,62.4123607 356.589272,59.8483191 C356.589272,56.9509792 357.772118,52.4627741 360.303102,52.4627741 C363.037416,52.4627741 363.521513,55.372341 363.521513,58.3688553 C363.521513,61.3653695 363.521513,76.3515636 363.521513,76.3515636 L375.392999,76.3515636 C375.392999,76.3515636 375.392999,63.2089254 375.392999,56.8459178 C375.392999,48.1896732 372.34169,42.4185417 364.351136,42.4185417" id="Fill-2" fill="#241C15"></path>
            <path d="M188.652241,68.5992094 C185.773015,69.2639945 184.280419,68.3773125 184.280419,66.4689989 C184.280419,63.8546908 186.984391,62.8076996 190.844039,62.8076996 C192.5454,62.8076996 194.145322,62.9548761 194.145322,62.9548761 C194.145322,64.0738706 191.71623,67.8923092 188.652241,68.5992094 Z M191.583545,42.4257873 C182.360331,42.4257873 175.742368,45.8167346 175.742368,45.8167346 L175.742368,55.7839825 C175.742368,55.7839825 183.050929,51.5819792 188.979652,51.5819792 C193.711944,51.5819792 194.293405,54.1342467 194.077848,56.2526831 C194.077848,56.2526831 192.713408,55.8913081 188.548086,55.8913081 C178.734807,55.8913081 173.780618,60.3514364 173.780618,67.5033103 C173.780618,74.2870164 179.34842,77.1227686 184.039049,77.1227686 C190.88389,77.1227686 193.892632,72.5231623 194.817353,70.3408739 C195.459043,68.8269934 195.575878,67.8067204 196.152357,67.8067204 C196.808991,67.8067204 196.588,68.5385274 196.5563,70.0451623 C196.5006,72.6839243 196.624681,74.6787325 197.043115,76.3588092 L206.118247,76.3588092 L206.118247,60.0348936 C206.118247,49.8430318 202.512195,42.4257873 191.583545,42.4257873 Z" id="Fill-3" fill="#241C15"></path>
            <polygon id="Fill-4" fill="#241C15" points="225.951304 76.3588092 237.992156 76.3588092 237.992156 33.1409857 225.951304 33.1409857"></polygon>
            <path d="M251.245289,59.7740515 C251.245289,56.7915757 254.015831,54.0780932 259.102705,54.0780932 C264.645147,54.0780932 269.103011,56.7467434 270.102906,57.3526579 L270.102906,45.8167346 C270.102906,45.8167346 266.581084,42.4257873 257.92484,42.4257873 C248.799895,42.4257873 241.201057,47.765352 241.201057,59.2578015 C241.201057,70.7502511 248.09707,77.1227686 257.900386,77.1227686 C265.557641,77.1227686 270.122378,72.9153311 270.122378,72.9153311 L270.122378,61.9581513 C268.678237,62.7664901 264.654204,65.5587686 259.157953,65.5587686 C253.337913,65.5587686 251.245289,62.8815143 251.245289,59.7740515" id="Fill-5" fill="#241C15"></path>
            <path d="M294.493454,42.4257873 C287.523173,42.4257873 284.872184,49.0310702 284.336914,50.1781414 C283.801192,51.3247599 283.536727,51.9845636 283.098367,51.9705252 C282.337578,51.9456184 282.867866,50.5626118 283.164484,49.6668728 C283.725113,47.9750219 284.912941,43.5357248 284.912941,38.0797774 C284.912941,34.37908 284.412541,33.1409857 284.412541,33.1409857 L274.018254,33.1409857 L274.018254,76.3588092 L286.059106,76.3588092 C286.059106,76.3588092 286.059106,62.5436875 286.059106,59.8560175 C286.059106,57.1674419 287.13191,52.4700197 290.165105,52.4700197 C292.677522,52.4700197 293.464124,54.3316897 293.464124,58.0803893 C293.464124,61.828636 293.464124,76.3588092 293.464124,76.3588092 L305.504976,76.3588092 C305.504976,76.3588092 305.504976,66.2498191 305.504976,58.8017807 C305.504976,50.2872785 304.09344,42.4257873 294.493454,42.4257873" id="Fill-6" fill="#241C15"></path>
            <path d="M309.41806,43.2273333 L309.41806,76.3588092 L321.458912,76.3588092 L321.458912,43.2273333 C321.458912,43.2273333 319.435122,44.4110855 315.45094,44.4110855 C311.467211,44.4110855 309.41806,43.2273333 309.41806,43.2273333" id="Fill-7" fill="#241C15"></path>
            <path d="M315.402937,32.8049704 C311.332261,32.8049704 308.032337,34.9587292 308.032337,37.6156053 C308.032337,40.2720285 311.332261,42.4257873 315.402937,42.4257873 C319.473161,42.4257873 322.773538,40.2720285 322.773538,37.6156053 C322.773538,34.9587292 319.473161,32.8049704 315.402937,32.8049704" id="Fill-8" fill="#241C15"></path>
            <path d="M210.014576,43.2273333 L210.014576,76.3588092 L222.054975,76.3588092 L222.054975,43.2273333 C222.054975,43.2273333 220.031184,44.4110855 216.047002,44.4110855 C212.063273,44.4110855 210.014576,43.2273333 210.014576,43.2273333" id="Fill-9" fill="#241C15"></path>
            <g id="Group-13" transform="translate(208.311404, 32.605263)">
                <mask id="mask-2" fill="white">
                    <use xlink:href="#path-1"></use>
                </mask>
                <g id="Clip-11"></g>
                <path d="M7.68759649,0.199707237 C3.61737281,0.199707237 0.317448465,2.35346601 0.317448465,5.01034211 C0.317448465,7.66676535 3.61737281,9.82052412 7.68759649,9.82052412 C11.758273,9.82052412 15.0581974,7.66676535 15.0581974,5.01034211 C15.0581974,2.35346601 11.758273,0.199707237 7.68759649,0.199707237" id="Fill-10" fill="#241C15" mask="url(#mask-2)"></path>
                <path d="M187.69899,36.6256732 C184.937053,36.6256732 182.905564,33.1237774 182.905564,28.2443092 C182.905564,23.5056776 184.9923,19.8647566 187.603439,19.8647566 C190.954535,19.8647566 192.382374,22.9373498 192.382374,28.2443092 C192.382374,33.7650143 191.065936,36.6256732 187.69899,36.6256732 Z M191.003896,9.81327851 C184.81433,9.81327851 181.977672,14.4545471 180.744559,17.0982906 C179.929428,18.8453893 179.97109,19.3580164 179.376497,19.3580164 C178.515627,19.3580164 179.22932,17.9550844 179.616961,16.3058015 C180.379561,13.0584079 179.799459,10.5767851 179.799459,10.5767851 L170.977924,10.5767851 L170.977924,52.9070208 L183.018776,52.9070208 C183.018776,52.9070208 183.018776,45.9802138 183.018776,39.4863322 C184.443445,41.9031974 187.08266,44.4858059 191.151525,44.4858059 C199.858036,44.4858059 204.240274,37.1192807 204.240274,27.1660713 C204.240274,15.8851031 198.99445,9.81327851 191.003896,9.81327851 Z" id="Fill-12" fill="#241C15" mask="url(#mask-2)"></path>
            </g>
            <path d="M78.6226107,52.4374145 C79.4323081,52.3409572 80.2080417,52.3364287 80.9208289,52.4374145 C81.3333761,51.491409 81.4044737,49.8602401 81.033136,48.084159 C80.4815636,45.4440384 79.7352654,43.8463805 78.1924024,44.0949956 C76.6499923,44.3436107 76.5929331,46.2564529 77.1445055,48.8965735 C77.4547083,50.3814715 78.0071864,51.6508125 78.6226107,52.4374145" id="Fill-14" fill="#241C15"></path>
            <path d="M65.3789868,54.5264156 C66.4825844,55.010966 67.160955,55.3320373 67.4263257,55.0512697 C67.5970504,54.8764693 67.5463311,54.5427182 67.2827719,54.112057 C66.7379923,53.2226579 65.6171864,52.3210318 64.4284529,51.8142917 C61.9970965,50.7677533 59.0974923,51.1159956 56.860409,52.7231634 C56.1222621,53.2643202 55.4221546,54.0137884 55.5222346,54.4689035 C55.5548399,54.61608 55.6653355,54.7270285 55.9243662,54.7632566 C56.5334507,54.8329956 58.6609441,53.7570219 61.111773,53.6071283 C62.8416634,53.5011612 64.2749364,54.042318 65.3789868,54.5264156" id="Fill-15" fill="#241C15"></path>
            <path d="M63.158659,55.7934923 C61.7208575,56.0203706 60.9279156,56.4945055 60.4189112,56.9351294 C59.9846272,57.3146184 59.7160866,57.7344112 59.7183509,58.02967 C59.7192566,58.1700537 59.7803914,58.251114 59.8283936,58.2918706 C59.894057,58.3493827 59.9714945,58.3815351 60.0647818,58.3815351 C60.3894759,58.3815351 61.1167544,58.0894463 61.1167544,58.0894463 C63.1174496,57.373489 64.437057,57.4604364 65.7448904,57.6094243 C66.4676404,57.6904846 66.8090899,57.7353169 66.9675877,57.4876075 C67.0146842,57.4165099 67.0712906,57.2625406 66.9268311,57.0279638 C66.5899101,56.4818257 65.138523,55.5584627 63.158659,55.7934923" id="Fill-16" fill="#241C15"></path>
            <path d="M74.1507083,60.4442708 C75.126602,60.9238399 76.2012171,60.7354539 76.5512708,60.0235724 C76.9008717,59.3121436 76.3932259,58.3462127 75.4168794,57.8661908 C74.4409857,57.3870746 73.3663706,57.5750077 73.0163169,58.2868893 C72.666716,58.9987708 73.1743618,59.9642489 74.1507083,60.4442708" id="Fill-17" fill="#241C15"></path>
            <path d="M80.4258629,54.9606996 C79.6329211,54.947114 78.9753816,55.8179463 78.9568147,56.9052412 C78.9382478,57.992989 79.566352,58.8851053 80.3592939,58.8986908 C81.1522357,58.9122763 81.8102281,58.0414441 81.8283421,56.9541491 C81.846909,55.8664013 81.2188048,54.9738322 80.4258629,54.9606996" id="Fill-18" fill="#241C15"></path>
            <g id="Group-22">
                <mask id="mask-4" fill="white">
                    <use xlink:href="#path-3"></use>
                </mask>
                <g id="Clip-20"></g>
                <path d="M27.1624485,74.5686897 C26.9654583,74.3214331 26.6412171,74.3966064 26.3273914,74.4699682 C26.1082116,74.5211404 25.8600493,74.5786524 25.587886,74.5741239 C25.004614,74.5628026 24.5105537,74.3137346 24.233409,73.887602 C23.872034,73.3328596 23.8928651,72.5055011 24.2918268,71.5590428 C24.3452632,71.430886 24.4086623,71.2891436 24.4779485,71.1347215 C25.1137511,69.7077884 26.1779507,67.3194529 24.9828772,65.0438772 C24.0835154,63.3311952 22.6167314,62.2642785 20.8528772,62.0405702 C19.1592149,61.8259189 17.4161919,62.4535702 16.304443,63.6803432 C14.5500987,65.6158279 14.2756711,68.2496086 14.6148564,69.1802171 C14.7393904,69.520761 14.9336634,69.6149539 15.0749529,69.6344265 C15.3738344,69.6742774 15.8149112,69.4573618 16.0916031,68.7133279 C16.1115285,68.6598914 16.1377939,68.5770197 16.1703991,68.4715055 C16.2935746,68.0784309 16.52317,67.3461711 16.8990362,66.7592763 C17.3518871,66.0514704 18.0574287,65.5642029 18.885693,65.3866853 C19.729807,65.2059978 20.5920351,65.3672127 21.3138794,65.839989 C22.5429167,66.6437993 23.0161458,68.1495285 22.4912917,69.5864243 C22.2204868,70.3295526 21.7798629,71.7501458 21.876773,72.9180482 C22.0733103,75.2805713 23.5269616,76.2297467 24.8325307,76.3307325 C26.1018717,76.3782818 26.9894594,75.6659474 27.2140735,75.144716 C27.3463059,74.8367774 27.2344518,74.6492971 27.1624485,74.5686897" id="Fill-19" fill="#241C15" mask="url(#mask-4)"></path>
                <path d="M39.2322829,31.1701787 C43.3726985,26.3849035 48.4704408,22.2250154 53.0365362,19.8887577 C53.1945811,19.8081502 53.362136,19.9797807 53.2765471,20.1346557 C52.9138136,20.7917423 52.2159704,22.1973914 51.9945263,23.2638553 C51.9601096,23.4300515 52.1407971,23.5550384 52.2811809,23.4594868 C55.1219145,21.5230965 60.0638761,19.4481338 64.3985647,19.1814046 C64.5846864,19.1700833 64.6748037,19.4087357 64.5267215,19.5224013 C63.8673706,20.0282357 63.146432,20.7278904 62.6197664,21.4356963 C62.530102,21.5561546 62.6143322,21.7295965 62.7646787,21.7305022 C65.8082895,21.752239 70.0990515,22.8173443 72.8958586,24.3860197 C73.0851502,24.4919868 72.9502007,24.8583432 72.7387193,24.8098882 C68.5072807,23.8403344 61.5809265,23.1044518 54.3860318,24.8592489 C47.962795,26.4256601 43.0602314,28.8447895 39.4836151,31.4459649 C39.3029276,31.5777445 39.0860121,31.3390921 39.2322829,31.1701787 Z M59.8551118,77.5298816 C59.8555647,77.5307873 59.8560175,77.531693 59.8564704,77.5325987 C59.8573761,77.5344101 59.8578289,77.5362215 59.8587346,77.5380329 C59.8573761,77.5353158 59.8564704,77.5325987 59.8551118,77.5298816 Z M76.9312127,79.5455208 C77.0539353,79.4938958 77.1386184,79.3539649 77.1241272,79.2149397 C77.1069189,79.0437621 76.9543081,78.9192281 76.7831305,78.9368893 C76.7831305,78.9368893 67.9461985,80.2447226 59.5983454,77.1888849 C60.50767,74.23358 62.9254408,75.3004967 66.5799474,75.5957555 C73.1671162,75.9883772 79.0704803,75.0260691 83.4336985,73.7734836 C87.2145504,72.6889057 92.1800603,70.5496382 96.0369912,67.5051217 C97.3380318,70.3630636 97.7972226,73.5076601 97.7972226,73.5076601 C97.7972226,73.5076601 98.8043629,73.3278783 99.6457599,73.8454868 C100.440966,74.3350186 101.024238,75.3521217 100.625729,77.9822796 C99.8146732,82.8961645 97.726125,86.8839693 94.2160779,90.5529671 C92.0790746,92.8529967 89.4851447,94.8527862 86.5171601,96.3068904 C84.9407862,97.1347018 83.2625208,97.8511118 81.4896096,98.4298553 C68.2564013,102.751864 54.7111787,98.0005526 50.3447906,87.7969167 C49.9965482,87.0297873 49.7017423,86.2268827 49.4694298,85.3868443 C47.6086656,78.6629145 49.1882094,70.5958289 54.1260954,65.5180121 C54.1265482,65.5175592 54.1256425,65.5157478 54.1260954,65.515295 C54.4304112,65.1919594 54.7410669,64.8111118 54.7410669,64.3319956 C54.7410669,63.9312226 54.4865647,63.5082599 54.2655735,63.2084726 C52.5379474,60.7028487 46.5539759,56.4329178 47.7549364,48.1697478 C48.6176173,42.2333257 53.8090998,38.0526064 58.6496228,38.3003158 C59.0585471,38.3211469 59.4683772,38.3465066 59.8763958,38.3705077 C61.9740011,38.4950417 63.8039715,38.7640351 65.5306919,38.8360384 C68.4207862,38.9610252 71.0196974,38.5407796 74.0977248,35.9762851 C75.1361118,35.1108871 75.9684518,34.3605132 77.3772708,34.1223136 C77.5253531,34.0969539 77.8935208,33.9647215 78.6298564,33.999591 C79.381136,34.0394419 80.0966404,34.2459419 80.7392357,34.673886 C83.207273,36.3159232 83.5568739,40.2928596 83.6850307,43.2024265 C83.7579397,44.8630307 83.9590055,48.8811765 84.027386,50.0345877 C84.1845252,52.6719912 84.8778399,53.0437818 86.2803191,53.5056897 C87.0691853,53.7656261 87.8014452,53.9589934 88.8805888,54.2619507 C92.1470022,55.1789737 94.0838454,56.1095822 95.3042785,57.3046557 C96.0324627,58.0514068 96.3711952,58.8452544 96.4758037,59.6019682 C96.860727,62.4119079 94.2939682,65.8830099 87.4993936,69.0371162 C80.0717336,72.4842171 71.0609068,73.3573136 64.8351129,72.6639989 C64.3578081,72.6110154 62.6596173,72.4185537 62.6537303,72.417648 C57.6737292,71.7469759 54.8329956,78.1828925 57.8218114,82.5923015 C59.748239,85.4339408 64.9949693,87.2833838 70.2444167,87.2842895 C82.2807401,87.2861009 91.5320307,82.1457906 94.9732445,77.7069463 C95.0764945,77.574261 95.0864572,77.5597697 95.2485779,77.3143246 C95.4179441,77.0593695 95.278466,76.9185329 95.0674375,77.0629923 C92.2556864,78.9867029 79.7674178,86.6244857 66.4092226,84.3267204 C66.4092226,84.3267204 64.786205,84.0599912 63.304477,83.4835121 C62.1270647,83.0256798 59.6626502,81.8917412 59.3633158,79.3634748 C70.1434309,82.6973629 76.9312127,79.5455208 76.9312127,79.5455208 Z M17.7200548,53.9263882 C13.9709024,54.6554781 10.6664496,56.7802544 8.64582895,59.7151809 C7.43807566,58.7080406 5.1883125,56.7580647 4.79070943,55.9981809 C1.56505263,49.87292 8.311625,37.9629419 13.0244441,31.2376535 C24.6717686,14.6162149 42.9144134,2.03511184 51.3591765,4.31793311 C52.7322204,4.70647917 57.2788432,9.97811623 57.2788432,9.97811623 C57.2788432,9.97811623 48.8377029,14.6619529 41.0092697,21.1907039 C30.4610143,29.3125844 22.4931031,41.1170482 17.7200548,53.9263882 Z M24.0196634,82.0348421 C23.4522412,82.1317522 22.8734978,82.1702445 22.289773,82.1562061 C16.6490625,82.0049539 10.5555011,76.9262314 9.95003947,70.9037675 C9.28072588,64.2468596 12.6820888,59.1237577 18.7045526,57.9087588 C19.4245855,57.7638465 20.2945121,57.6800691 21.2328191,57.728977 C24.607011,57.9137401 29.5797664,60.5045 30.7155164,67.8556283 C31.7217511,74.3658125 30.1236404,80.9937379 24.0196634,82.0348421 Z M100.435079,70.2471338 C100.386624,70.076409 100.071893,68.9257149 99.63942,67.5390855 C99.2069474,66.1520033 98.7590779,65.1761096 98.7590779,65.1761096 C100.49395,62.578557 100.524743,60.2558849 100.294242,58.9399002 C100.047891,57.3091842 99.369068,55.9193849 98.0005526,54.4829419 C96.6320373,53.0464989 93.8334189,51.5751864 89.8999561,50.4706831 C89.4502752,50.3443377 87.9667357,49.9372248 87.8363147,49.8978268 C87.826352,49.8126908 87.7276305,45.0323969 87.6384189,42.9805296 C87.5732083,41.4969901 87.4459572,39.1811107 86.7272829,36.899648 C85.8709419,33.8125636 84.3787982,31.1108553 82.5166754,29.3823235 C87.65608,24.0549857 90.8645285,18.1860384 90.85683,13.1507895 C90.841886,3.46883772 78.9509276,0.538892544 64.2971261,6.6070943 C64.2817292,6.61343421 61.2145702,7.91402193 61.1923805,7.9253432 C61.1783421,7.91175768 55.5792939,2.41777083 55.4950636,2.34440899 C38.7875833,-12.2283322 -13.4492182,45.8343958 3.25192215,59.9361721 L6.90190022,63.0282379 C5.95498904,65.4808783 5.58319846,68.290818 5.8870614,71.3126919 C6.27696601,75.1936239 8.27901974,78.9137939 11.5236963,81.7880384 C14.6039879,84.5173706 18.6538333,86.2445439 22.5836732,86.2413739 C29.082989,101.218511 43.932875,110.406402 61.3440855,110.923558 C80.0210143,111.4783 95.6991645,102.714277 102.268672,86.9718224 C102.698428,85.8668662 104.522058,80.8886765 104.522058,76.4942116 C104.522058,72.077557 102.025038,70.2471338 100.435079,70.2471338 Z" id="Fill-21" fill="#241C15" mask="url(#mask-4)"></path>
            </g>
        </g>
    </g>
</svg>