<?xml version="1.0" encoding="UTF-8"?>
<svg width="640px" height="360px" viewBox="0 0 640 360" version="1.1" xmlns="http://www.w3.org/2000/svg" xmlns:xlink="http://www.w3.org/1999/xlink">
    <title>postgresql/picture</title>
    <g id="postgresql/picture" stroke="none" stroke-width="1" fill="none" fill-rule="evenodd">
        <rect fill="#FFFFFF" x="0" y="0" width="640" height="360"></rect>
        <g id="Group" transform="translate(137.000000, 113.000000)">
            <g id="PostgreSQL_logo.3colors">
                <path d="M100.96428,100.830841 C101.90146,93.0597805 101.620604,91.9201829 107.435879,93.1789756 L108.912275,93.3080488 C113.383808,93.5105488 119.233157,92.5922195 122.669591,91.0031707 C130.067121,87.5866829 134.453636,81.882439 127.159318,83.3812683 C110.520664,86.7977561 109.37673,81.1899878 109.37673,81.1899878 C126.946278,55.2426585 134.290879,22.3049634 127.951273,14.2425 C110.659934,-7.749 80.7290808,2.65028049 80.2282374,2.92028049 L80.0687879,2.94958537 C76.7812172,2.27063415 73.1019697,1.86497561 68.9688535,1.79846341 C61.4393308,1.67531707 55.7259444,3.76320732 51.3920278,7.03514634 C51.3920278,7.03514634 -2.00304293,-14.8605366 0.480994949,34.5711951 C1.00929545,45.0867073 15.6243965,114.140524 33.0556667,93.2830244 C39.4266995,85.6561829 45.5836995,79.2074634 45.5836995,79.2074634 C48.6410278,81.2291707 52.3014192,82.260439 56.140447,81.8900122 L56.4371818,81.638122 C56.3442247,82.5850976 56.3852449,83.5113293 56.5559419,84.6077927 C52.0662146,89.6018049 53.3854773,90.4786463 44.4076768,92.317939 C35.3246793,94.1812683 40.6609444,97.4986463 44.1440227,98.3656098 C48.3677803,99.4169634 58.1388586,100.906244 64.7427803,91.7064878 L64.4797879,92.7561951 C66.2413409,94.158878 66.12225,102.838061 66.3720101,109.039171 C66.622101,115.24061 67.03925,121.0275 68.3092222,124.439378 C69.5791944,127.850598 71.0777551,136.638768 82.8766869,134.121841 C92.7377449,132.018476 100.277192,128.991183 100.96428,100.830512" id="Path" stroke="#000000" stroke-width="14.0232375" fill="#000000" fill-rule="nonzero"></path>
                <path d="M127.160972,83.3806098 C110.520664,86.7970976 109.37673,81.1893293 109.37673,81.1893293 C126.946278,55.2403537 134.290879,22.302 127.952596,14.2405244 C110.661258,-7.74965854 80.7290808,2.65028049 80.2295606,2.92028049 L80.0687879,2.94892683 C76.7812172,2.26964634 73.1019697,1.86497561 68.9668687,1.79780488 C61.437346,1.6749878 55.7259444,3.76254878 51.3920278,7.03382927 C51.3920278,7.03382927 -2.00403535,-14.8608659 0.479340909,34.5705366 C1.00764141,45.0867073 15.6224116,114.140524 33.0543434,93.2830244 C39.4257071,85.6561829 45.5817146,79.2074634 45.5817146,79.2074634 C48.6393737,81.2291707 52.2997652,82.260439 56.1371389,81.8900122 L56.435197,81.638122 C56.3425707,82.5850976 56.3849141,83.5113293 56.5546187,84.6077927 C52.063899,89.6018049 53.3834924,90.4786463 44.4063535,92.317939 C35.3226944,94.1812683 40.6589596,97.4986463 44.1430303,98.3656098 C48.3667879,99.4169634 58.1385278,100.906244 64.7411263,91.7064878 L64.477803,92.7561951 C66.2373712,94.158878 67.4729394,101.880549 67.2658535,108.880134 C67.0587677,115.880049 66.9204899,120.68572 68.3069066,124.439378 C69.6933232,128.193037 71.0751086,136.638768 82.8763561,134.121841 C92.7374141,132.018476 97.8474066,126.567768 98.5583131,117.475683 C99.0627955,111.011817 100.204414,111.967354 100.27653,106.188366 L101.192207,103.452476 C102.248146,94.6903171 101.359927,91.8635488 107.435217,93.1783171 L108.911614,93.3073902 C113.383146,93.5098902 119.235472,92.591561 122.670253,91.0025122 C130.06646,87.5860244 134.452975,81.8817805 127.160311,83.3806098 L127.160972,83.3806098 Z" id="Path" fill="#336791" fill-rule="nonzero"></path>
                <path d="M65.4556717,88.4032683 C64.9975025,104.707317 65.5707929,121.124963 67.1735581,125.115037 C68.7773157,129.10511 72.2094495,136.865963 84.0116894,134.349366 C93.8717551,132.245341 97.4593687,128.17361 99.0161515,119.186232 C100.162732,112.573866 102.373192,94.2099146 102.656694,90.4473659" id="Path" stroke="#FFFFFF" stroke-width="4.6744125" stroke-linecap="round" stroke-linejoin="round"></path>
                <path d="M51.3096566,6.66965854 C51.3096566,6.66965854 -2.12279545,-15.0673171 0.361242424,34.3640854 C0.889542929,44.8802561 15.5053056,113.936378 32.9369066,93.0778902 C39.306947,85.450061 45.0679697,79.4675854 45.0679697,79.4675854" id="Path" stroke="#FFFFFF" stroke-width="4.6744125" stroke-linecap="round" stroke-linejoin="round"></path>
                <path d="M80.1710076,2.70230488 C78.3214596,3.2795122 109.893452,-8.78553659 127.836152,14.0347317 C134.174104,22.0965366 126.829503,55.0348902 109.260285,80.9845244" id="Path" stroke="#FFFFFF" stroke-width="4.6744125" stroke-linecap="round" stroke-linejoin="round"></path>
                <path d="M109.259955,80.9845244 C109.259955,80.9845244 110.404881,86.593939 127.04552,83.1751463 C134.33653,81.6763171 129.948692,87.3812195 122.554139,90.7993537 C116.485465,93.6027439 102.879659,94.3212073 102.657356,90.4473659 C102.085389,80.4524268 109.818359,83.488939 109.260285,80.9845244 C108.755803,78.7290366 105.297535,76.5153659 103.009997,70.9951829 C101.012909,66.177 75.6204116,29.2278293 110.051909,34.7154146 C111.31328,34.455622 101.071793,2.11719512 68.8487702,1.59135366 C36.6330253,1.0655122 37.6899571,41.0251829 37.6899571,41.0251829" id="Path" stroke="#FFFFFF" stroke-width="4.6744125" stroke-linecap="round" stroke-linejoin="bevel"></path>
                <path d="M56.4371818,84.4026585 C51.9458005,89.3963415 53.2667172,90.2731829 44.2889167,92.1131341 C35.2052576,93.9767927 40.5421843,97.2935122 44.0252626,98.1601463 C48.2490202,99.2121585 58.0207601,100.701439 64.6233586,91.499378 C66.6340101,88.6976341 64.6114495,84.2271585 61.8495328,83.087561 C60.515053,82.5373537 58.7306742,81.8478659 56.4371818,84.4026585 L56.4371818,84.4026585 Z" id="Path" stroke="#FFFFFF" stroke-width="4.6744125" stroke-linecap="round" stroke-linejoin="round"></path>
                <path d="M56.1430934,84.3154024 C55.690548,81.3793171 57.1123611,77.8854512 58.6360631,73.7979146 C60.9259167,67.6649634 66.2092525,61.5310244 61.9828485,42.0765366 C58.8325631,27.5791829 37.7028586,39.0594512 37.6896263,41.0251829 C37.6767247,42.9902561 38.6453308,50.9888415 37.336654,60.3031829 C35.6290227,72.4574634 45.1066742,82.7368902 56.0203636,81.6852073" id="Path" stroke="#FFFFFF" stroke-width="4.6744125" stroke-linecap="round" stroke-linejoin="round"></path>
                <path d="M51.1154722,40.7304878 C51.0201995,41.4018659 52.3503788,43.1934146 54.0848056,43.4327927 C55.8162551,43.6731585 57.2982753,42.2731098 57.3922247,41.6023902 C57.4861742,40.9310122 56.157649,40.1914756 54.4225606,39.9511098 C52.6901187,39.7104146 51.2074369,40.0607561 51.115803,40.7304878 L51.1154722,40.7304878 Z" id="Path" stroke="#FFFFFF" stroke-width="1.558125" fill="#FFFFFF" fill-rule="nonzero"></path>
                <path d="M103.85422,39.3617195 C103.948169,40.0330976 102.619644,41.8246463 100.884886,42.0640244 C99.1521136,42.3043902 97.6700934,40.9043415 97.5751515,40.233622 C97.4835177,39.5622439 98.8123737,38.8227073 100.545477,38.5823415 C102.278581,38.3419756 103.76027,38.6919878 103.85422,39.3620488 L103.85422,39.3617195 Z" id="Path" stroke="#FFFFFF" stroke-width="0.7790625" fill="#FFFFFF" fill-rule="nonzero"></path>
                <path d="M110.051909,34.7154146 C110.337396,39.9817317 108.912275,43.5687805 108.732646,49.1749024 C108.466677,57.3236341 112.635851,66.6504878 106.353806,75.9888659" id="Path" stroke="#FFFFFF" stroke-width="4.6744125" stroke-linecap="round" stroke-linejoin="round"></path>
            </g>
            <text id="PostgreSQL" font-family="NittiGrotesk-Light, Nitti Grotesk" font-size="28" font-weight="300" letter-spacing="3.333333" fill="#336791">
                <tspan x="174" y="46">POSTGRESQL</tspan>
            </text>
            <text id="Importer-Copy" font-family="NittiGrotesk-Bold, Nitti Grotesk" font-size="52" font-weight="bold" fill="#336791">
                <tspan x="174" y="88">Importer</tspan>
            </text>
        </g>
    </g>
</svg>