<svg height="257" viewBox="0 0 257 257" width="257" xmlns="http://www.w3.org/2000/svg" xmlns:xlink="http://www.w3.org/1999/xlink"><defs><circle id="a" cx="128.5" cy="128.5" r="125.5"/><mask id="b" fill="#fff"><use fill="none" xlink:href="#a"/></mask></defs><g fill="none" fill-rule="evenodd"><use fill="#395d7f" xlink:href="#a"/><path d="m108.908295 184.374263c-2.149648-7.505779-7.792929-13.801573-13.9600719-18.364147-8.2674193-5.961504-19.0361348-4.700649-28.1718438-8.170725-7.4412768-5.560599-.3239517-11.695304 4.6798537-15.503303 11.1793778-9.752546 9.8052877-27.941069.9032126-38.723132-5.9467588-7.7286384-18.5231101-12.9161889-24.7239724-15.11572-9.3452539-9.4000886 24.9094332-17.6253175 13.5999919-11.2338387-3.8248117 1.6472261-7.7435534 4.7248739-.6804224 6.5804255 8.2541715 2.5725792 27.8021278 18.6342432 30.0613651 34.5723652 1.7341705 8.457778-.6093685 18.023801-3.7260566 25.88446 20.3512128 6.472629 29.0919158 21.044522 38.8056778 39.89678-.03974-.032702-4.605185.279787-16.787734.176835zm38.183065.604386c-12.182549.104163-16.747994-.208325-16.786531-.176834 9.712561-18.851047 18.453262-33.424152 38.804477-39.89557-3.11669-7.86187-5.460229-17.427892-3.726059-25.884459 2.25924-15.938122 21.808399-32.0009973 30.061365-34.5735768 7.064337-1.8555514 3.14439-4.9319881-.679216-6.579214-11.310647-6.3914788 22.945245 1.8337501 13.598788 11.2326273-6.200865 2.199531-18.777213 7.3870815-24.723975 15.1157205-8.902075 10.783273-10.274959 28.970586.904419 38.724343 5.003805 3.806788 12.12113 9.941493 4.678648 15.502092-9.135707 3.470075-19.904425 2.210432-28.171842 8.170725-6.167145 4.562573-11.80922 10.858368-13.960074 18.364146z" fill="#fff" mask="url(#b)"/></g></svg>