<svg width="640" height="360" viewBox="0 0 640 360" version="1.1" xmlns="http://www.w3.org/2000/svg" xmlns:xlink="http://www.w3.org/1999/xlink"><title>madkudu/picture</title><desc>Created with Sketch.</desc><g id="madkudu/picture" stroke="none" stroke-width="1" fill="none" fill-rule="evenodd"><rect id="Rectangle" fill="#395D7F" x="0" y="0" width="640" height="360"/><path d="M187.38672,225.295068 C185.596606,219.029969 180.897178,213.774848 175.761506,209.966452 C168.876834,204.990364 159.909214,206.042804 152.301476,203.14632 C146.104772,198.50487 152.031706,193.384211 156.198612,190.205661 C165.50821,182.065178 164.36394,166.883156 156.95076,157.883331 C151.998612,151.432211 141.525688,147.102145 136.361936,145.266189 C128.5797,137.419903 157.105202,130.554276 147.687294,135.889265 C144.502192,137.264211 141.23887,139.833134 147.120674,141.381969 C153.994314,143.529309 170.272824,156.936035 172.154198,170.239639 C173.598324,177.299375 171.646748,185.284167 169.051334,191.845485 C185.998754,197.248211 193.277552,209.411419 201.366662,225.147463 C201.333568,225.120167 197.531706,225.381002 187.38672,225.295068 Z M219.183568,225.799551 C220.974686,219.534452 225.67311,214.279331 230.808784,210.470936 C237.693454,205.495859 246.661076,206.547287 254.268812,203.650804 C260.46652,199.009353 254.539586,193.888694 250.37268,190.711156 C241.063082,182.569661 242.206348,167.38865 249.619528,158.387815 C254.571678,151.936694 265.0446,147.606628 270.208354,145.770672 C277.991592,137.925397 249.465086,131.059771 258.883998,136.39476 C262.068096,137.769705 265.332422,140.337617 259.449614,141.886452 C252.576978,144.033793 236.297466,157.441529 234.41609,170.745134 C232.971964,177.803859 234.92354,185.78865 237.518956,192.35098 C220.571534,197.752694 213.292738,209.916914 205.204628,225.651947 C205.23672,225.625661 209.038582,225.886496 219.183568,225.799551 Z M305.097896,163.466013 C305.675546,164.533617 306.341448,165.851947 307.095602,167.421002 C307.849758,168.990057 308.636004,170.688518 309.454342,172.516386 C310.27268,174.344254 311.082996,176.212562 311.885288,178.121309 C312.68758,180.030057 313.441734,181.825573 314.147752,183.507859 C314.853768,181.825573 315.607924,180.030057 316.410216,178.121309 C317.212508,176.212562 318.022824,174.344254 318.841162,172.516386 C319.6595,170.688518 320.445746,168.990057 321.1999,167.421002 C321.954056,165.851947 322.619958,164.533617 323.197608,163.466013 L330.033138,163.466013 C330.354056,165.698276 330.650904,168.197441 330.923682,170.963507 C331.196462,173.729573 331.43715,176.60887 331.645746,179.601397 C331.854342,182.593925 332.046892,185.59454 332.223396,188.603243 C332.3999,191.611947 332.552336,194.442716 332.680704,197.095551 L325.363798,197.095551 C325.267522,193.828035 325.139156,190.269353 324.978698,186.419507 C324.818238,182.569661 324.577552,178.687463 324.256634,174.772914 C323.678984,176.131683 323.03715,177.636035 322.331132,179.285969 C321.625116,180.935903 320.927122,182.585837 320.23715,184.235771 C319.547178,185.885705 318.881276,187.462848 318.239442,188.9672 C317.597608,190.471551 317.05205,191.757529 316.602766,192.825134 L311.355774,192.825134 C310.90649,191.757529 310.360932,190.471551 309.719098,188.9672 C309.077264,187.462848 308.411362,185.885705 307.72139,184.235771 C307.03142,182.585837 306.333426,180.935903 305.627408,179.285969 C304.92139,177.636035 304.279556,176.131683 303.701906,174.772914 C303.38099,178.687463 303.140302,182.569661 302.979844,186.419507 C302.819384,190.269353 302.691018,193.828035 302.594744,197.095551 L295.277838,197.095551 C295.406204,194.442716 295.55864,191.611947 295.735144,188.603243 C295.911648,185.59454 296.104198,182.593925 296.312794,179.601397 C296.52139,176.60887 296.762078,173.729573 297.034858,170.963507 C297.307638,168.197441 297.604486,165.698276 297.925402,163.466013 L305.097896,163.466013 Z M348.614228,192.048694 C349.320244,192.048694 349.99417,192.032518 350.636004,192.000167 C351.277838,191.967815 351.791304,191.919287 352.176406,191.854584 L352.176406,186.37098 C351.88758,186.306276 351.454342,186.241573 350.876692,186.17687 C350.299042,186.112167 349.769528,186.079815 349.288152,186.079815 C348.614228,186.079815 347.980416,186.120254 347.38672,186.201134 C346.793024,186.282013 346.271534,186.435683 345.82225,186.662145 C345.372966,186.888606 345.019958,187.195947 344.763224,187.584167 C344.50649,187.972386 344.378124,188.457661 344.378124,189.039991 C344.378124,190.172298 344.755202,190.956826 345.509356,191.393573 C346.263512,191.83032 347.298468,192.048694 348.614228,192.048694 Z M348.036576,170.890716 C350.154628,170.890716 351.919672,171.133353 353.331706,171.618628 C354.74374,172.103903 355.874972,172.799463 356.725402,173.705309 C357.575832,174.611156 358.177552,175.711112 358.53056,177.005178 C358.883568,178.299243 359.060072,179.738892 359.060072,181.324123 L359.060072,196.367639 C358.033138,196.594101 356.605058,196.861002 354.775832,197.168342 C352.946606,197.475683 350.732278,197.629353 348.132852,197.629353 C346.496176,197.629353 345.011936,197.483771 343.68013,197.192606 C342.348324,196.901441 341.201046,196.424254 340.238296,195.761046 C339.275546,195.097837 338.537436,194.23243 338.02397,193.164826 C337.510502,192.097222 337.253768,190.78698 337.253768,189.234101 C337.253768,187.745925 337.550618,186.484211 338.144314,185.448958 C338.73801,184.413705 339.532278,183.588738 340.527122,182.974057 C341.521964,182.359375 342.661218,181.91454 343.944886,181.639551 C345.228554,181.364562 346.56036,181.227068 347.940302,181.227068 C348.87096,181.227068 349.697322,181.267507 350.419384,181.348386 C351.141448,181.429265 351.727122,181.534408 352.176406,181.663815 L352.176406,180.98443 C352.176406,179.755068 351.80735,178.768342 351.069242,178.024254 C350.331132,177.280167 349.047466,176.908123 347.218238,176.908123 C345.998754,176.908123 344.795316,176.99709 343.607924,177.175024 C342.420532,177.352958 341.393598,177.603683 340.527122,177.9272 L339.612508,172.103903 C340.0297,171.974496 340.55119,171.837002 341.176978,171.691419 C341.802766,171.545837 342.484714,171.41643 343.222824,171.3032 C343.960932,171.189969 344.739156,171.092914 345.557494,171.012035 C346.375832,170.931156 347.202192,170.890716 348.036576,170.890716 Z M371.672108,184.138716 C371.672108,186.37098 372.169528,188.166496 373.16437,189.525265 C374.159214,190.884035 375.63543,191.563419 377.593024,191.563419 C378.234858,191.563419 378.828554,191.539156 379.374112,191.490628 C379.919672,191.442101 380.368956,191.385485 380.721964,191.320782 L380.721964,178.169837 C380.27268,177.878672 379.687006,177.636035 378.964944,177.441925 C378.24288,177.247815 377.512794,177.15076 376.774686,177.15076 C373.372966,177.15076 371.672108,179.480079 371.672108,184.138716 Z M387.894456,196.270584 C387.252622,196.464694 386.514514,196.650716 385.68013,196.82865 C384.845746,197.006584 383.971248,197.160254 383.056634,197.289661 C382.142022,197.419068 381.211362,197.524211 380.264658,197.60509 C379.317952,197.685969 378.411362,197.726408 377.544886,197.726408 C375.458926,197.726408 373.597608,197.419068 371.960932,196.804386 C370.324256,196.189705 368.944314,195.308123 367.821104,194.159639 C366.697896,193.011156 365.839442,191.620035 365.245746,189.986276 C364.65205,188.352518 364.355202,186.516562 364.355202,184.478408 C364.355202,182.407903 364.611936,180.539595 365.125402,178.873485 C365.63887,177.207375 366.376978,175.791991 367.339728,174.627331 C368.30248,173.462672 369.48185,172.573002 370.877838,171.95832 C372.273826,171.343639 373.870388,171.036298 375.667522,171.036298 C376.662364,171.036298 377.55291,171.133353 378.339156,171.327463 C379.125402,171.521573 379.919672,171.796562 380.721964,172.15243 L380.721964,160.602892 L387.894456,159.438232 L387.894456,196.270584 Z M414.80334,197.095551 C414.129414,195.995595 413.335144,194.806672 412.420532,193.528782 C411.505918,192.250892 410.511076,190.973002 409.436004,189.695112 C408.360932,188.417222 407.245746,187.187859 406.090446,186.007024 C404.935144,184.826189 403.779844,183.782848 402.624542,182.877002 L402.624542,197.095551 L395.115086,197.095551 L395.115086,163.466013 L402.624542,163.466013 L402.624542,176.180211 C404.582136,174.109705 406.547752,171.950232 408.52139,169.701793 C410.49503,167.453353 412.332278,165.37476 414.033138,163.466013 L422.938582,163.466013 C420.660072,166.183551 418.37354,168.804035 416.078984,171.327463 C413.784428,173.850892 411.369528,176.390496 408.834284,178.946276 C411.497896,181.17854 414.073254,183.831375 416.56036,186.904782 C419.047466,189.978189 421.430274,193.375112 423.708784,197.095551 L414.80334,197.095551 Z M447.536864,196.222057 C446.31738,196.577925 444.744886,196.909529 442.819384,197.21687 C440.893884,197.524211 438.872108,197.677881 436.754056,197.677881 C434.603912,197.677881 432.8148,197.386716 431.38672,196.804386 C429.95864,196.222057 428.827408,195.405178 427.993024,194.353749 C427.15864,193.30232 426.564944,192.048694 426.211936,190.59287 C425.858926,189.137046 425.682422,187.535639 425.682422,185.78865 L425.682422,171.570101 L432.854916,171.570101 L432.854916,184.915156 C432.854916,187.244474 433.159786,188.92676 433.769528,189.962013 C434.37927,190.997265 435.518526,191.514892 437.187294,191.514892 C437.70076,191.514892 438.24632,191.490628 438.82397,191.442101 C439.40162,191.393573 439.915086,191.336958 440.36437,191.272254 L440.36437,171.570101 L447.536864,171.570101 L447.536864,196.222057 Z M460.389586,184.138716 C460.389586,186.37098 460.887006,188.166496 461.88185,189.525265 C462.876692,190.884035 464.35291,191.563419 466.310502,191.563419 C466.952336,191.563419 467.546032,191.539156 468.091592,191.490628 C468.63715,191.442101 469.086434,191.385485 469.439442,191.320782 L469.439442,178.169837 C468.990158,177.878672 468.404486,177.636035 467.682422,177.441925 C466.96036,177.247815 466.230274,177.15076 465.492164,177.15076 C462.090446,177.15076 460.389586,179.480079 460.389586,184.138716 Z M476.611936,196.270584 C475.970102,196.464694 475.231992,196.650716 474.397608,196.82865 C473.563224,197.006584 472.688726,197.160254 471.774112,197.289661 C470.8595,197.419068 469.92884,197.524211 468.982136,197.60509 C468.03543,197.685969 467.12884,197.726408 466.262364,197.726408 C464.176406,197.726408 462.315086,197.419068 460.67841,196.804386 C459.041734,196.189705 457.661792,195.308123 456.538582,194.159639 C455.415374,193.011156 454.55692,191.620035 453.963224,189.986276 C453.369528,188.352518 453.07268,186.516562 453.07268,184.478408 C453.07268,182.407903 453.329414,180.539595 453.84288,178.873485 C454.356348,177.207375 455.094456,175.791991 456.057208,174.627331 C457.019958,173.462672 458.199328,172.573002 459.595316,171.95832 C460.991304,171.343639 462.587866,171.036298 464.385002,171.036298 C465.379844,171.036298 466.270388,171.133353 467.056634,171.327463 C467.84288,171.521573 468.63715,171.796562 469.439442,172.15243 L469.439442,160.602892 L476.611936,159.438232 L476.611936,196.270584 Z M504.964944,196.222057 C503.74546,196.577925 502.172966,196.909529 500.247466,197.21687 C498.321964,197.524211 496.300188,197.677881 494.182136,197.677881 C492.031992,197.677881 490.24288,197.386716 488.8148,196.804386 C487.38672,196.222057 486.255488,195.405178 485.421104,194.353749 C484.58672,193.30232 483.993024,192.048694 483.640016,190.59287 C483.287006,189.137046 483.110502,187.535639 483.110502,185.78865 L483.110502,171.570101 L490.282996,171.570101 L490.282996,184.915156 C490.282996,187.244474 490.587866,188.92676 491.197608,189.962013 C491.80735,190.997265 492.946606,191.514892 494.615374,191.514892 C495.12884,191.514892 495.6744,191.490628 496.25205,191.442101 C496.8297,191.393573 497.343168,191.336958 497.79245,191.272254 L497.79245,171.570101 L504.964944,171.570101 L504.964944,196.222057 Z" id="main-logo-madkudu" fill="#FFF" fill-rule="nonzero"/></g></svg>