<?xml version="1.0" encoding="UTF-8"?>
<svg width="257px" height="257px" viewBox="0 0 257 257" version="1.1" xmlns="http://www.w3.org/2000/svg" xmlns:xlink="http://www.w3.org/1999/xlink">
    <!-- Generator: Sketch 55.1 (78136) - https://sketchapp.com -->
    <title>aircall/logo</title>
    <desc>Created with Sketch.</desc>
    <defs>
        <circle id="path-1" cx="128.5" cy="128.5" r="125"></circle>
        <path d="M192.245246,5.50601421 C177.8641,2.17398528 154.224673,0 127.5,0 C100.775327,0 77.1358993,2.17398528 62.754754,5.50601421 C34.0814526,11.5465225 11.5014189,34.2151053 5.48450633,63.0008511 C2.16549311,77.4383936 0,101.170524 0,128 C0,154.829476 2.16549311,178.561606 5.48450633,192.999149 C11.5014189,221.784895 34.0814526,244.453478 62.754754,250.493986 C77.1358993,253.826015 100.775327,256 127.5,256 C154.224673,256 177.8641,253.826015 192.245246,250.493986 C220.918548,244.453478 243.498581,221.784895 249.515494,192.999149 C252.834507,178.561606 255,154.829476 255,128 C255,101.170524 252.834507,77.4383936 249.515494,63.0008511 C243.498581,34.2151053 220.918548,11.5465225 192.245246,5.50601421 Z" id="path-3"></path>
    </defs>
    <g id="aircall/logo" stroke="none" stroke-width="1" fill="none" fill-rule="evenodd">
        <g id="outline" transform="translate(0.500000, 0.500000)" fill="#FFFFFF">
            <circle id="Outline" cx="128" cy="128" r="125"></circle>
        </g>
        <mask id="mask-2" fill="white">
            <use xlink:href="#path-1"></use>
        </mask>
        <g id="Mask"></g>
        <g id="a-link" mask="url(#mask-2)" fill="#00B388" fill-rule="nonzero">
            <g transform="translate(1.000000, 0.000000)" id="a">
                <path d="M192.245246,5.50601421 C177.8641,2.17398528 154.224673,0 127.5,0 C100.775327,0 77.1358993,2.17398528 62.754754,5.50601421 C34.0814526,11.5465225 11.5014189,34.2151053 5.48450633,63.0008511 C2.16549311,77.4383936 0,101.170524 0,128 C0,154.829476 2.16549311,178.561606 5.48450633,192.999149 C11.5014189,221.784895 34.0814526,244.453478 62.754754,250.493986 C77.1358993,253.826015 100.775327,256 127.5,256 C154.224673,256 177.8641,253.826015 192.245246,250.493986 C220.918548,244.453478 243.498581,221.784895 249.515494,192.999149 C252.834507,178.561606 255,154.829476 255,128 C255,101.170524 252.834507,77.4383936 249.515494,63.0008511 C243.498581,34.2151053 220.918548,11.5465225 192.245246,5.50601421 Z"></path>
            </g>
        </g>
        <g id="Clipped" mask="url(#mask-2)">
            <g transform="translate(1.000000, 0.000000)">
                <mask id="mask-4" fill="white">
                    <use xlink:href="#path-3"></use>
                </mask>
                <g id="a" stroke="none" fill="none"></g>
                <path d="M158.054104,197.095014 C155.641056,191.319292 150.519387,186.970128 144.287732,185.655121 C140.558859,184.789711 134.429414,184.225074 127.5,184.225074 C120.570586,184.225074 114.441141,184.789711 110.712268,185.655121 C104.525134,186.960733 99.432183,191.257303 96.9980298,196.97144 C96.1538669,198.9531 94.1311398,200.162341 91.991219,199.964648 C91.4619893,199.915807 91.004848,199.872084 90.6197907,199.833529 C80.6483198,198.835113 72.8107802,197.442269 68.2571692,195.816791 C68.2497835,195.812902 68.2407516,195.80894 68.2300723,195.804904 C65.1743554,194.65013 63,191.684415 63,188.208004 C63,188.121591 63.0013435,188.035494 63.0040105,187.949732 C63.0110155,187.809816 63.0191843,187.666928 63.0285095,187.5211 C63.0312202,187.488587 63.0341216,187.456127 63.0372125,187.423724 C63.0458919,187.332733 63.0513305,187.244761 63.0535284,187.15981 C63.8297324,176.723569 70.13233,152.290683 79.5459869,124.403429 C90.3077324,92.5225631 101.562201,66.7123976 106.637245,61.678181 C107.447237,60.8299705 108.381942,60.1196014 109.415103,59.5717736 C109.818376,59.3401709 110.32935,59.1186891 110.936002,58.9097378 C110.951854,58.9042479 110.967724,58.8987938 110.983609,58.8933758 C114.318036,57.7594854 120.463343,57 127.493873,57 C134.536657,57 140.681964,57.7594854 144.010298,58.8913593 C144.032276,58.8987938 144.048145,58.9042479 144.063998,58.9097378 C144.67065,59.1186891 145.181624,59.3401709 145.584897,59.5717736 C146.618058,60.1196014 147.552763,60.8299705 148.355367,61.6690461 C148.357986,61.6717846 148.360449,61.6748296 148.362754,61.678181 C153.437799,66.7123976 164.692267,92.5225631 175.454013,124.403429 C184.86767,152.290683 191.170267,176.723569 191.946471,187.15981 C191.94867,187.244761 191.954108,187.332733 191.962787,187.423724 C191.965878,187.456127 191.96878,187.488587 191.97149,187.5211 C191.980815,187.666928 191.988984,187.809816 191.995989,187.949732 C191.998657,188.035494 192,188.121591 192,188.208004 C192,191.684415 189.825645,194.65013 186.769928,195.804904 C186.759248,195.80894 186.750216,195.812902 186.742831,195.816791 C182.193217,197.440842 174.365438,198.832667 164.406464,199.830899 C163.97438,199.874209 163.451908,199.923995 162.839049,199.980259 L162.83904,199.980163 C160.787075,200.168543 158.850298,199.000734 158.054104,197.095014 L158.054104,197.095014 Z" id="Path" stroke="none" fill="#FFFFFF" fill-rule="nonzero" mask="url(#mask-4)"></path>
            </g>
        </g>
    </g>
</svg>