<?xml version="1.0" encoding="UTF-8"?>
<svg width="257px" height="257px" viewBox="0 0 257 257" version="1.1" xmlns="http://www.w3.org/2000/svg" xmlns:xlink="http://www.w3.org/1999/xlink">
    <title>calendly/logo</title>
    <g id="calendly/logo" stroke="none" stroke-width="1" fill="none" fill-rule="evenodd">
        <rect fill="#00A2FF" x="0" y="0" width="257" height="257"></rect>
        <path d="M163.5,51 C166.813708,51 169.5,53.6862915 169.5,57 L192,57 C198.627417,57 204,62.372583 204,69 L204,195 C204,201.627417 198.627417,207 192,207 L66,207 C59.372583,207 54,201.627417 54,195 L54,69 C54,62.372583 59.372583,57 66,57 L90,57 C90,53.6862915 92.6862915,51 96,51 C99.3137085,51 102,53.6862915 102,57 L157.5,57 C157.5,53.6862915 160.186292,51 163.5,51 Z M90,69 L72,69 C68.7616031,69 66.1224282,71.5655749 66.0041385,74.7750617 L66,75 L66,189 C66,192.238397 68.5655749,194.877572 71.7750617,194.995862 L72,195 L186,195 C189.238397,195 191.877572,192.434425 191.995862,189.224938 L192,189 L192,75 C192,71.6862915 189.313708,69 186,69 L169.5,69 L169.5,76.5 C169.5,79.8137085 166.813708,82.5 163.5,82.5 C160.186292,82.5 157.5,79.8137085 157.5,76.5 L157.5,69 L102,69 L102,76.5 C102,79.8137085 99.3137085,82.5 96,82.5 C92.6862915,82.5 90,79.8137085 90,76.5 L90,69 Z M134.25,108 C140.806018,108 147.018731,110.284667 151.96122,114.386215 C153.23623,115.444287 153.412092,117.335623 152.35402,118.610633 C151.295948,119.885642 149.404611,120.061504 148.129602,119.003432 C144.254272,115.787473 139.393584,114 134.25,114 C122.237807,114 112.5,123.737807 112.5,135.75 C112.5,147.762193 122.237807,157.5 134.25,157.5 C139.384323,157.5 144.236848,155.718996 148.10905,152.513602 C149.385349,151.457086 151.27647,151.635256 152.332986,152.911555 C153.389501,154.187854 153.211332,156.078975 151.935032,157.135491 C146.996495,161.223594 140.794197,163.5 134.25,163.5 C118.924098,163.5 106.5,151.075902 106.5,135.75 C106.5,120.424098 118.924098,108 134.25,108 Z" id="Combined-Shape" fill="#FFFFFF" fill-rule="nonzero"></path>
    </g>
</svg>