<?xml version="1.0" encoding="UTF-8"?>
<svg width="640px" height="360px" viewBox="0 0 640 360" version="1.1" xmlns="http://www.w3.org/2000/svg" xmlns:xlink="http://www.w3.org/1999/xlink">
    <title>calendly/picture</title>
    <g id="calendly/picture" stroke="none" stroke-width="1" fill="none" fill-rule="evenodd">
        <rect id="Rectangle" fill="#00A2FF" x="0" y="0" width="640" height="360"></rect>
        <path d="M488.5,166 C489.328427,166 490,166.671573 490,167.5 L490,189.5 C490,189.586402 489.992695,189.671099 489.978668,189.753505 C489.601212,196.041813 484.382509,201.024658 478,201.024658 C476.211258,201.024658 474.47522,200.632017 472.89009,199.885061 C472.140699,199.531927 471.819468,198.638153 472.172602,197.888762 C472.525735,197.13937 473.419509,196.818139 474.168901,197.171273 C475.35612,197.730723 476.655735,198.024658 478,198.024658 C482.970563,198.024658 487,193.995221 487,189.024658 L487.000464,187.772758 C485.085783,189.756673 482.42025,191 479.5,191 C473.75752,191 469,186.192224 469,180.399471 L469.000387,180.534426 C469.00013,180.522982 469,180.511506 469,180.5 L469,167.5 C469,166.671573 469.671573,166 470.5,166 C471.328427,166 472,166.671573 472,167.5 L472,180.399471 L472.003925,180.642361 C472.134428,184.676649 475.501443,188 479.5,188 C483.578528,188 487,184.542385 487,180.399471 L487,180.399471 L487,167.5 C487,166.671573 487.671573,166 488.5,166 Z M301.5,165 C304.616104,165 307.566229,166.101998 309.896184,168.074759 C310.528425,168.610074 310.606999,169.556566 310.071684,170.188807 C309.536369,170.821048 308.589877,170.899622 307.957636,170.364307 C306.164506,168.846074 303.899509,168 301.5,168 C295.977153,168 291.5,172.477153 291.5,178 C291.5,183.522847 295.977153,188 301.5,188 C303.919317,188 306.201717,187.139812 308.001081,185.598697 C308.630276,185.059805 309.577198,185.13301 310.11609,185.762206 C310.654982,186.391401 310.581776,187.338323 309.952581,187.877215 C307.614609,189.879636 304.641867,191 301.5,191 C294.320298,191 288.5,185.179702 288.5,178 C288.5,170.820298 294.320298,165 301.5,165 Z M339.5,165 C340.328427,165 341,165.671573 341,166.5 L341,189.5 C341,190.328427 340.328427,191 339.5,191 C338.671573,191 338,190.328427 338,189.5 L338.000478,186.564233 C335.740702,189.2935 332.374833,191 328.5,191 C321.394186,191 316,185.261109 316,178 C316,170.738891 321.394186,165 328.5,165 C332.374833,165 335.740702,166.7065 338.000478,169.435767 L338,166.5 C338,165.671573 338.671573,165 339.5,165 Z M445.5,155 C446.328427,155 447,155.671573 447,156.5 L447,189.5 C447,190.328427 446.328427,191 445.5,191 C444.671573,191 444,190.328427 444,189.5 L444.000478,186.550362 C441.740629,189.287716 438.369925,191 434.488532,191 C427.382718,191 421.988532,185.261109 421.988532,178 C421.988532,170.738891 427.382718,165 434.488532,165 C438.369925,165 441.740629,166.712284 444.000478,169.449638 L444,156.5 C444,155.671573 444.671573,155 445.5,155 Z M372.539627,165 C379.645441,165 385.039627,170.738891 385.039627,178 C385.039627,178.125052 385.024325,178.246531 384.99549,178.362664 C384.997895,178.407735 385,178.453622 385,178.5 C385,179.328427 384.328427,180 383.5,180 L363.217006,180.000657 C364.056982,184.641318 367.792461,188 372.539627,188 C376.012679,188 379.001207,186.215845 380.678758,183.272329 C381.088951,182.552584 382.004947,182.301642 382.724693,182.711835 C383.444438,183.122028 383.69538,184.038024 383.285187,184.757769 C381.080527,188.626177 377.104281,191 372.539627,191 C365.433814,191 360.039627,185.261109 360.039627,178 C360.039627,170.738891 365.433814,165 372.539627,165 Z M352.5,155 C353.328427,155 354,155.671573 354,156.5 L354,189.5 C354,190.328427 353.328427,191 352.5,191 C351.671573,191 351,190.328427 351,189.5 L351,156.5 C351,155.671573 351.671573,155 352.5,155 Z M459.5,155 C460.328427,155 461,155.671573 461,156.5 L461,189.5 C461,190.328427 460.328427,191 459.5,191 C458.671573,191 458,190.328427 458,189.5 L458,156.5 C458,155.671573 458.671573,155 459.5,155 Z M394.5,166 C395.328427,166 396,166.671573 396,167.5 L396.00049,169.23936 C397.915103,167.256021 400.580235,166.013107 403.5,166.013107 C409.148341,166.013107 413.843751,170.664543 413.996181,176.329558 L413.999271,176.452788 C413.999756,176.468466 414,176.484204 414,176.5 L414,189.5 C414,190.328427 413.328427,191 412.5,191 C411.671573,191 411,190.328427 411,189.5 L411,176.613636 C411,172.470722 407.578528,169.013107 403.5,169.013107 C399.501443,169.013107 396.134428,172.336459 396.003925,176.370747 L396,176.613636 L396,189.5 C396,190.328427 395.328427,191 394.5,191 C393.671573,191 393,190.328427 393,189.5 L393,167.5 C393,166.671573 393.671573,166 394.5,166 Z M328.5,168 C323.094008,168 319,172.355627 319,178 C319,183.644373 323.094008,188 328.5,188 C333.905992,188 338,183.644373 338,178 C338,172.355627 333.905992,168 328.5,168 Z M434.488532,168 C429.082539,168 424.988532,172.355627 424.988532,178 C424.988532,183.644373 429.082539,188 434.488532,188 C439.894524,188 443.988532,183.644373 443.988532,178 C443.988532,172.355627 439.894524,168 434.488532,168 Z M372.539627,168 C367.45745,168 363.53479,171.849458 363.083096,177.000251 L381.996158,177.000251 C381.544465,171.849458 377.621805,168 372.539627,168 Z" id="Combined-Shape" fill="#FFFFFF" fill-rule="nonzero"></path>
        <path d="M220,122 C222.209139,122 224,123.790861 224,126 L239,126 C243.418278,126 247,129.581722 247,134 L247,218 C247,222.418278 243.418278,226 239,226 L155,226 C150.581722,226 147,222.418278 147,218 L147,134 C147,129.581722 150.581722,126 155,126 L171,126 C171,123.790861 172.790861,122 175,122 C177.209139,122 179,123.790861 179,126 L216,126 C216,123.790861 217.790861,122 220,122 Z M171,134 L159,134 C156.857805,134 155.108921,135.683968 155.004895,137.80036 L155,138 L155,214 C155,216.142195 156.683968,217.891079 158.80036,217.995105 L159,218 L235,218 C237.142195,218 238.891079,216.316032 238.995105,214.19964 L239,214 L239,138 C239,135.790861 237.209139,134 235,134 L224,134 L224,139 C224,141.209139 222.209139,143 220,143 C217.790861,143 216,141.209139 216,139 L216,134 L179,134 L179,139 C179,141.209139 177.209139,143 175,143 C172.790861,143 171,141.209139 171,139 L171,134 Z M200.5,160 C204.870678,160 209.012487,161.523111 212.30748,164.257476 C213.157487,164.962858 213.274728,166.223749 212.569347,167.073755 C211.863965,167.923761 210.603074,168.041003 209.753068,167.335621 C207.169515,165.191648 203.929056,164 200.5,164 C192.491871,164 186,170.491871 186,178.5 C186,186.508129 192.491871,193 200.5,193 C203.922882,193 207.157899,191.812664 209.739367,189.675735 C210.590233,188.971391 211.85098,189.09017 212.555324,189.941037 C213.259668,190.791903 213.140888,192.05265 212.290022,192.756994 C208.997663,195.482396 204.862798,197 200.5,197 C190.282732,197 182,188.717268 182,178.5 C182,168.282732 190.282732,160 200.5,160 Z" id="Combined-Shape" fill="#FFFFFF" fill-rule="nonzero"></path>
    </g>
</svg>