<?xml version="1.0" encoding="UTF-8"?>
<svg width="257px" height="257px" viewBox="0 0 257 257" version="1.1" xmlns="http://www.w3.org/2000/svg" xmlns:xlink="http://www.w3.org/1999/xlink">
    <!-- Generator: Sketch 57.1 (83088) - https://sketch.com -->
    <title>google-analytics/logo</title>
    <desc>Created with Sketch.</desc>
    <defs>
        <circle id="path-1" cx="128.5" cy="128.5" r="125"></circle>
    </defs>
    <g id="google-analytics/logo" stroke="none" stroke-width="1" fill="none" fill-rule="evenodd">
        <mask id="mask-2" fill="white">
            <use xlink:href="#path-1"></use>
        </mask>
        <g id="Mask"></g>
        <g id="google_analytics-icon" mask="url(#mask-2)">
            <g transform="translate(43.000000, 29.000000)">
                <path d="M124,23.7443182 L124,172.994318 C124,189.694489 135.657143,199 148,199 C159.428571,199 172,191.085227 172,172.994318 L172,24.875 C172,9.56556818 160.571429,0 148,0 C135.428571,0 124,10.5492614 124,23.7443182 Z" id="Path" fill="#F9AB00" fill-rule="nonzero"></path>
                <g id="Group" stroke-width="1" fill="none" fill-rule="evenodd" transform="translate(0.000000, 76.000000)">
                    <path d="M61.8041237,23.6972477 L61.8041237,97.0458716 C61.8041237,113.712936 73.2659794,123 85.4020619,123 C96.6391753,123 109,115.100917 109,97.0458716 L109,24.8256881 C109,9.5466055 97.7628866,0 85.4020619,0 C73.0412371,0 61.8041237,10.5283486 61.8041237,23.6972477 Z" id="Path" fill="#E37400" fill-rule="nonzero"></path>
                    <ellipse id="Oval" fill="#E37400" fill-rule="nonzero" cx="23.5979381" cy="99.3027523" rx="23.5979381" ry="23.6972477"></ellipse>
                </g>
            </g>
        </g>
    </g>
</svg>