<?xml version="1.0" encoding="UTF-8"?>
<svg width="640px" height="360px" viewBox="0 0 640 360" version="1.1" xmlns="http://www.w3.org/2000/svg" xmlns:xlink="http://www.w3.org/1999/xlink">
    <!-- Generator: Sketch 57.1 (83088) - https://sketch.com -->
    <title>google-analytics/picture</title>
    <desc>Created with Sketch.</desc>
    <g id="google-analytics/picture" stroke="none" stroke-width="1" fill="none" fill-rule="evenodd">
        <rect fill="#FFFFFF" x="0" y="0" width="640" height="360"></rect>
        <rect id="Rectangle" x="0" y="0" width="640" height="360"></rect>
        <g id="google_analytics-ar21" transform="translate(95.000000, 98.000000)" fill-rule="nonzero">
            <g id="Group" transform="translate(139.000000, 0.000000)" fill="#757575">
                <path d="M24.781766,98.7516 L34.3407378,123.742029 L15.8192292,123.742029 L24.7857689,98.7516 L24.781766,98.7516 Z M21.1951501,90.3816 L0.283898456,145.105457 L8.04956235,145.105457 L13.4254833,130.238743 L36.722475,130.238743 L42.0983959,145.105457 L49.8640598,145.105457 L28.9528082,90.3816 L21.1871443,90.3816 L21.1951501,90.3816 Z M134.077481,145.153286 L141.282736,145.153286 L141.282736,90.4214571 L134.077481,90.4214571 L134.077481,145.145314 L134.077481,145.153286 Z M60.6239075,112.988571 C63.0136505,109.417371 67.8291627,106.444029 72.5726223,106.444029 C82.1315941,106.444029 86.9110801,112.988571 86.9110801,122.506457 L86.9110801,145.703314 L79.7058249,145.703314 L79.7058249,123.6942 C79.7058249,115.961914 75.522774,112.984586 70.1468531,112.984586 C64.1704942,112.984586 59.9914462,118.935257 59.9914462,124.288071 L59.9914462,145.109443 L52.786191,145.109443 L52.786191,107.089714 L59.9914462,107.089714 L60.5918841,113.040386 L60.6239075,112.988571 Z M92.8874389,133.8498 C92.8874389,125.4798 100.653103,120.760714 109.619643,120.760714 C114.995564,120.760714 118.586182,121.956429 119.775049,123.140186 L119.775049,121.944471 C119.775049,115.9938 114.995564,113.016471 110.216078,113.016471 C106.033027,113.016471 102.450414,114.802071 101.249538,118.369286 L94.676744,115.395943 C95.8776198,111.824743 100.653103,106.467943 110.208072,106.467943 C119.174612,106.467943 126.940275,111.820757 126.940275,122.530371 L126.940275,145.137343 L120.367482,145.137343 L120.367482,139.784529 L119.767044,139.784529 C117.973736,142.757871 113.790685,146.329071 107.221894,146.329071 C99.4562299,146.329071 92.883436,141.570129 92.883436,133.837843 L92.8874389,133.8498 Z M119.767044,129.0789 C119.767044,129.0789 116.780866,126.699429 110.800504,126.699429 C103.595249,126.699429 100.645097,130.8645 100.645097,133.873714 C100.645097,138.038786 104.828148,139.824386 108.410761,139.824386 C113.786682,139.824386 119.763041,135.065443 119.763041,129.114771 L119.767044,129.0789 Z" id="Shape"></path>
                <path d="M151.442146,161.813571 L159.848277,142.183929 L144.917387,107.6796 L152.122642,107.6796 L163.474922,133.853786 L174.827202,107.6796 L182.032457,107.6796 L158.735465,161.813571 L151.53021,161.813571 L151.442146,161.813571 Z M256.598842,120.162857 C254.805534,115.403914 250.622483,112.430571 246.443435,112.430571 C240.467076,112.430571 235.091155,117.783386 235.091155,125.519657 C235.091155,133.255929 240.467076,138.608743 246.443435,138.608743 C250.626486,138.608743 254.849566,135.6354 256.598842,131.434457 L262.575201,135.005657 C259.589023,141.5502 253.608661,145.715271 246.443435,145.715271 C236.288028,145.715271 227.921926,136.787271 227.921926,125.487771 C227.921926,113.590414 236.328057,105.260271 246.443435,105.260271 C253.64869,105.260271 259.589023,109.425343 262.575201,115.969886 L256.598842,120.134957 L256.598842,120.162857 Z" id="Shape"></path>
                <path d="M282.285577,146.341029 C291.844548,146.341029 296.624034,140.988214 296.624034,134.443671 C296.624034,120.166843 275.712783,125.515671 275.712783,117.1935 C275.712783,114.220157 278.102526,112.434557 282.285577,112.434557 C286.468628,112.434557 290.691708,114.220157 292.440983,117.1935 L296.624034,113.028429 C294.234291,110.055086 287.657495,105.854143 281.693145,105.854143 C272.726605,105.854143 267.951122,111.206957 267.951122,117.7515 C267.951122,131.434457 289.458808,126.6795 289.458808,133.813929 C289.458808,137.385129 287.069065,139.7646 282.253553,139.7646 C277.438041,139.7646 275.048298,136.791257 272.694581,133.813929 L267.38671,138.018857 C270.973326,141.590057 276.35325,146.388857 282.3176,146.388857 L282.285577,146.341029 Z M214.175901,145.153286 L221.381156,145.153286 L221.381156,107.081743 L214.175901,107.081743 L214.175901,145.153286 Z" id="Shape"></path>
                <path d="M217.162079,88.6757143 C220.148257,88.6757143 221.941565,91.0551857 221.941565,93.4346571 C221.941565,96.408 219.551822,98.1936 217.162079,98.1936 C214.772336,98.1936 212.382593,95.8141286 212.382593,93.4346571 C212.382593,91.0551857 214.772336,88.6757143 217.162079,88.6757143 Z M207.006672,139.242471 L208.207548,144.595286 L201.002293,144.595286 C194.429499,144.595286 191.443321,139.836343 191.443321,132.697929 L191.443321,114.184286 L184.238066,114.184286 L184.238066,107.01 L191.443321,107.01 L191.443321,95.7782571 L198.648576,95.7782571 L198.648576,107.081743 L207.054707,107.081743 L207.054707,114.256029 L198.648576,114.256029 L198.648576,133.885671 C198.648576,139.238486 202.831627,139.238486 207.054707,139.238486 L207.006672,139.242471 Z" id="Shape"></path>
                <path d="M36.6103932,29.9183143 L36.6103932,38.8463143 L57.5216449,38.8463143 C56.9212069,43.6052571 55.1319019,47.2163143 52.7421589,49.5559286 C49.755981,52.5292714 44.976495,56.1004714 36.6103932,56.1004714 C24.0652434,56.1004714 13.9058336,45.9887143 13.9058336,32.9036143 C13.9058336,20.4123857 24.0612405,9.70675714 36.6103932,9.70675714 C43.8156484,9.70675714 48.559108,12.6801 52.141721,15.6574286 L58.1180799,9.70675714 C52.7421589,4.94781429 46.1693651,0.778757143 36.6103932,0.778757143 C19.2857575,0.778757143 4.34686178,15.0555857 4.34686178,32.2659 C4.34686178,49.4762143 19.2777516,63.7530429 36.6103932,63.7530429 C46.1693651,63.7530429 53.3425969,60.7797 58.7145149,54.8250429 C64.6908737,48.8743714 66.4801788,41.1420857 66.4801788,34.5975429 C66.4801788,32.8119429 66.4801788,30.4324714 65.8797408,29.2447286 L36.6063903,29.2447286 L36.6103932,29.9183143 Z M89.7771705,22.7440286 C78.4248907,22.7440286 69.4623538,31.1140286 69.4623538,42.9715286 C69.4623538,54.8290286 78.4288936,63.1990286 89.7771705,63.1990286 C95.179733,63.2473731 100.375144,61.1317955 104.195487,57.327873 C108.01583,53.5239506 110.14054,48.35087 110.091987,42.9715286 C110.091987,31.0741714 101.125447,22.7440286 89.7771705,22.7440286 L89.7771705,22.7440286 Z M89.7771705,55.4268857 C83.8008116,55.4268857 78.4248907,50.0740714 78.4248907,42.9356571 C78.4248907,35.7972429 83.8008116,30.4842857 89.7771705,30.4842857 C95.7535293,30.4842857 101.133453,35.2671429 101.133453,42.9595714 C101.133453,50.652 95.7575322,55.4508 89.7811734,55.4508 L89.7771705,55.4268857 Z M187.728611,26.9051143 C185.338868,24.5256429 181.752253,22.1461714 176.376332,22.1461714 C166.220925,22.1461714 157.258388,31.0741714 157.258388,42.3736714 C157.258388,53.6731714 166.224928,62.6011714 176.376332,62.6011714 C181.155818,62.6011714 185.342871,60.2217 187.132176,57.8422286 L187.732614,57.8422286 L187.732614,60.8155714 C187.732614,68.5478571 183.549563,72.7129286 176.97677,72.7129286 C171.600849,72.7129286 168.01023,68.5478571 166.821363,65.5386429 L159.055699,68.5119857 C161.445442,73.8648 167.46183,80.4093429 176.980772,80.4093429 C187.736617,80.4093429 196.695151,74.4586714 196.695151,58.9941 L196.695151,22.1142857 L188.28902,22.1142857 L188.28902,26.8732286 L187.728611,26.9051143 Z M177.573205,55.4587714 C171.596846,55.4587714 166.81736,50.1059571 166.81736,42.9675429 C166.81736,35.8291286 171.596846,30.4763143 177.573205,30.4763143 C183.549563,30.4763143 188.329049,35.8291286 188.329049,42.9675429 C188.329049,50.1059571 183.549563,55.4587714 177.573205,55.4587714 Z M133.95339,22.7759143 C122.601111,22.7759143 113.638574,31.1459143 113.638574,43.0034143 C113.638574,54.8609143 122.605114,63.2309143 133.95339,63.2309143 C139.355953,63.2792588 144.551364,61.1636812 148.371707,57.3597588 C152.19205,53.5558363 154.31676,48.3827557 154.268207,43.0034143 C154.868645,31.1060571 145.301667,22.7759143 133.95339,22.7759143 Z M133.95339,55.4587714 C127.977032,55.4587714 122.601111,50.1059571 122.601111,42.9675429 C122.601111,35.8291286 127.977032,30.4763143 133.95339,30.4763143 C139.929749,30.4763143 145.30567,35.2352571 145.30567,42.9675429 C145.30567,50.6998286 139.929749,55.4587714 133.95339,55.4587714 Z M203.339998,1.36465714 L212.306537,1.36465714 L212.306537,63.2309143 L203.339998,63.2309143 L203.339998,1.36465714 Z M236.796399,55.4986286 C232.016913,55.4986286 229.030735,53.1191571 226.640992,49.5479571 L254.125038,38.2444714 L252.924162,35.865 C251.130854,31.1060571 245.718907,22.7759143 235.599526,22.7759143 C224.843681,22.7759143 216.481582,31.1459143 216.481582,43.0034143 C216.433029,48.3827557 218.557739,53.5558363 222.378082,57.3597588 C226.198425,61.1636812 231.393836,63.2792588 236.796399,63.2309143 C246.355371,63.2309143 251.727289,57.2802429 254.121035,54.3029143 L246.91578,49.5439714 C244.526037,53.1151714 241.539859,55.4946429 236.760373,55.4946429 L236.796399,55.4986286 Z M236.195961,30.5082 C239.782577,30.5082 242.768755,32.2938 243.961625,35.2671429 L225.440116,42.9994286 C225.440116,34.0714286 231.416475,30.5082 236.195961,30.5082 L236.195961,30.5082 Z" id="Shape"></path>
            </g>
            <g id="Group" transform="translate(0.000000, 5.000000)">
                <path d="M87.5657895,16.597465 L87.5657895,120.924388 C87.5657895,132.597939 95.6855263,139.102564 104.282895,139.102564 C112.243421,139.102564 121,133.570076 121,120.924388 L121,17.3878205 C121,6.68640734 113.039474,0 104.282895,0 C95.5263158,0 87.5657895,7.37401661 87.5657895,16.597465 Z" id="Path" fill="#F9AB00"></path>
                <g transform="translate(0.000000, 52.953817)" fill="#E37400">
                    <path d="M43.7828947,16.597465 L43.7828947,67.9705711 C43.7828947,79.6441215 51.9026316,86.1487471 60.5,86.1487471 C68.4605263,86.1487471 77.2171053,80.6162587 77.2171053,67.9705711 L77.2171053,17.3878205 C77.2171053,6.68640734 69.2565789,0 60.5,0 C51.7434211,0 43.7828947,7.37401661 43.7828947,16.597465 Z" id="Path"></path>
                    <ellipse id="Oval" cx="16.7171053" cy="69.5512821" rx="16.7171053" ry="16.597465"></ellipse>
                </g>
            </g>
        </g>
    </g>
</svg>