<?xml version="1.0" encoding="UTF-8"?>
<svg width="257px" height="257px" viewBox="0 0 257 257" version="1.1" xmlns="http://www.w3.org/2000/svg" xmlns:xlink="http://www.w3.org/1999/xlink">
    <title>phantombuster/logo</title>
    <defs>
        <circle id="path-1" cx="128.5" cy="128.5" r="125"></circle>
    </defs>
    <g id="phantombuster/logo" stroke="none" stroke-width="1" fill="none" fill-rule="evenodd">
        <mask id="mask-2" fill="white">
            <use xlink:href="#path-1"></use>
        </mask>
        <g id="Mask"></g>
        <g id="phantom" mask="url(#mask-2)" fill-rule="nonzero">
            <g transform="translate(4.000000, 5.000000)">
                <ellipse id="Oval" fill="#14CAE2" cx="124.5" cy="123.5" rx="124.5" ry="123.5"></ellipse>
                <path d="M197.359738,179.6098 C197.185429,178.366567 197.047591,177.1185 196.946403,175.867203 C196.946403,175.3786 197.062339,174.910146 197.062339,174.396357 L197.062339,94.2554187 C197.062339,54.9002239 164.953295,23 125.353821,23 C85.749306,23 53.640262,54.9002239 53.640262,94.2503816 L53.640262,174.42658 C53.640262,174.910146 53.730994,175.383637 53.761238,175.892388 C53.659736,177.150561 53.5202139,178.405382 53.3428627,179.655134 C52.6623728,184.490791 51.8659475,189.940979 55.3087225,194.348479 C57.778649,197.552101 61.962402,198.755978 66.0150976,199.82889 C68.1876248,200.367864 70.299664,201.118398 72.3310525,202.060344 C73.1425997,202.574132 73.9289437,203.103032 74.7707349,203.53119 C76.0309015,204.719955 77.2104174,205.994352 78.28912,207.349344 C80.8296157,210.422001 83.7431208,213.887555 87.9722398,215.282843 C91.5662348,216.456497 95.3668972,215.635443 99.1978035,214.844612 C101.281222,214.324004 103.409655,214.003529 105.554084,213.887555 C106.647908,214.063855 107.771977,214.225043 108.880923,214.37112 C110.735889,215.081357 112.525325,215.962857 114.218989,217.000509 C117.500463,218.864252 121.225515,221 125.338699,221 C129.446842,221 133.171894,218.869289 136.458408,217.000509 C138.150225,215.966303 139.931721,215.086293 141.781352,214.37112 C142.920543,214.225043 144.054692,214.063855 145.163639,213.872443 C147.295841,214.003409 149.40788,214.325786 151.479594,214.844612 C155.219768,215.635443 159.091,216.471609 162.700117,215.282843 C166.944358,213.887555 169.842741,210.422001 172.403399,207.349344 C173.482837,205.998436 174.653313,204.722751 175.906662,203.53119 C176.763576,203.027475 177.544879,202.498575 178.361467,201.984787 C180.394282,201.054334 182.506344,200.307538 184.672381,199.753333 C188.709955,198.635087 192.90883,197.476544 195.378756,194.272922 C198.806409,189.895645 198.040228,184.430345 197.359738,179.614837 L197.359738,179.6098 Z M229,110.575761 C228.966651,119.406109 221.782038,126.540616 212.945478,126.518369 C204.073905,126.518369 203.721059,119.375649 203.721059,110.575761 C203.721059,101.775873 204.089027,94.618041 212.945478,94.618041 C221.787923,94.595807 228.974979,101.739504 229,110.575761 L229,110.575761 Z M22,110.575761 C22.0250213,119.403671 29.2053067,126.540603 38.0394,126.518369 C46.9109726,126.518369 47.2839819,119.375649 47.2839819,110.575761 C47.2839819,101.775873 46.9109726,94.6180727 38.0394,94.6180727 C29.2028545,94.6041603 22.0250217,101.745417 22,110.575761 Z" id="Shape" fill="#FFFFFF"></path>
                <path d="M95.5347431,118.999928 C88.4636124,119.015517 82.0758792,114.881449 79.3389419,108.518146 C76.6213247,102.16391 78.1181356,94.836279 83.1247105,89.9849331 C88.1493631,85.1169182 95.6744162,83.66287 102.220572,86.295085 C108.754436,88.9078641 113.026034,95.1115301 113.036331,102.002872 C113.031269,111.378149 105.201612,118.985065 95.5347431,118.999928 Z M95.5347431,90.7653369 C90.8598843,90.752409 86.6355398,93.4840719 84.8252696,97.69064 C83.0285479,101.889262 84.0154795,106.730027 87.3254964,109.940738 C90.6456783,113.160259 95.6197475,114.123769 99.9480989,112.385818 C104.268044,110.659618 107.092641,106.558686 107.099557,102.002872 C107.074463,95.7874661 101.903247,90.7626134 95.5347431,90.7653369 Z M152.437678,118.999942 C142.770809,118.980125 134.946213,111.353451 134.966418,101.973235 C134.985212,97.4535451 136.842869,93.1262454 140.130756,89.9433112 C143.418644,86.760377 147.86743,84.9825434 152.498412,85.0007803 C162.165281,85.0108005 170,92.6177163 170,102.002872 C170,106.517626 168.142544,110.844677 164.852772,114.03563 C161.549401,117.226887 157.085684,119.011732 152.437678,118.999942 Z M152.437678,90.765343 C146.060955,90.7489904 140.877219,95.7794041 140.85768,102.002872 C140.877219,108.22634 146.060955,113.256754 152.437678,113.240401 C158.814401,113.256754 163.998138,108.22634 164.017676,102.002872 C163.992568,95.7816761 158.812105,90.7544393 152.437678,90.765343 L152.437678,90.765343 Z" id="Shape" fill="#14CAE2"></path>
                <path d="M122.628293,133 C117.035555,133.008125 111.543994,131.560134 106.731766,128.808439 C105.70436,128.358716 105.032568,127.38257 105.00115,126.293771 C104.969732,125.204972 105.584191,124.194222 106.58407,123.689958 C107.583949,123.185695 108.794119,123.276238 109.701614,123.92321 C117.39185,128.319916 126.938873,128.471358 134.780889,124.323799 L136.501074,123.410261 C137.433724,122.870332 138.59667,122.862846 139.536693,123.39072 C140.472157,123.917667 141.033316,124.897242 140.998466,125.942437 C140.963616,126.987632 140.338364,127.930326 139.369734,128.39808 L137.64955,129.326273 C133.037053,131.743169 127.871122,133.006156 122.623234,133 L122.628293,133 Z" id="Path" fill="#14CAE2"></path>
            </g>
        </g>
    </g>
</svg>