<?xml version="1.0" encoding="UTF-8"?>
<svg width="640px" height="360px" viewBox="0 0 640 360" version="1.1" xmlns="http://www.w3.org/2000/svg" xmlns:xlink="http://www.w3.org/1999/xlink">
    <title>phantombuster/picture</title>
    <g id="phantombuster/picture" stroke="none" stroke-width="1" fill="none" fill-rule="evenodd">
        <rect fill="#FFFFFF" x="0" y="0" width="640" height="360"></rect>
        <rect id="Rectangle" x="0" y="0" width="640" height="360"></rect>
        <g id="phantom" transform="translate(89.000000, 107.000000)" fill-rule="nonzero">
            <path d="M195,44.2375 L195,44.8431818 C194.642023,50.2661476 190.156379,54.4817551 184.741771,54.4838636 L179.372759,54.4838636 L179.372759,60 L173,60 L173,34 L185.666042,34 C191.037998,34 194.723307,38.5588636 195,43.6436364 L195,44.2375 Z M188.553653,44.2375 C188.552242,42.1167605 186.854412,40.3902092 184.741771,40.3611364 L179.372759,40.3611364 L179.372759,48.1168463 L184.665239,48.1168463 C185.693355,48.1207432 186.680787,47.7139525 187.40971,46.9861836 C188.138633,46.2584148 188.549153,45.2694666 188.550709,44.2375 L188.553653,44.2375 Z" id="Shape" fill="#14CAE2"></path>
            <polygon id="Path" fill="#14CAE2" points="237 34 237 60 230.684366 60 230.684366 50.5218182 219.280153 50.5218182 219.280153 60 213 60 213 34 219.280153 34 219.280153 44.8845455 230.684366 44.8845455 230.684366 34"></polygon>
            <path d="M276.054485,56.4427273 L263.045583,56.4427273 L261.26861,60 L254,60 L267.342463,34 L272.218527,34 L285,60 L277.883009,60 L276.051453,56.4427273 L276.054485,56.4427273 Z M273.534579,51.3668182 L269.53184,43.0054545 L265.723173,51.3668182 L273.534579,51.3668182 Z" id="Shape" fill="#14CAE2"></path>
            <path d="M327.887007,34 L327.887007,60 L321.531263,60 L308.358737,44.4886364 L308.358737,60 L302,60 L302,34 L308.358737,34 L321.531263,50.2027273 L321.531263,34 L327.887007,34 Z M371.997006,39.6018182 L361.926011,39.6018182 L361.926011,60 L355.567274,60 L355.567274,39.6018182 L345.50526,39.6018182 L345.50526,34 L372,34 L371.997006,39.6018182 Z" id="Shape" fill="#14CAE2"></path>
            <path d="M414.99995,47.0166037 C414.990895,54.7509325 408.714335,61.009037 400.98195,60.9999902 C393.249564,60.9909238 386.991014,54.7147062 387.00001,46.9833962 C387.009024,39.2520863 393.285584,32.990963 401.01797,33.0000098 C404.734078,33.0000098 408.297099,34.476244 410.920587,37.1056742 C413.541076,39.7293702 415.009839,43.2978154 414.99995,47.0166037 L414.99995,47.0166037 Z M408.837405,47.0166037 C408.840194,43.8217955 406.922339,40.9422844 403.983652,39.7290668 C401.040174,38.5065333 397.654684,39.1801238 395.395781,41.4377436 C393.144306,43.6861253 392.47244,47.0825704 393.696818,50.0264109 C394.931527,52.9752834 397.809518,54.8870461 400.990955,54.8717789 C405.317056,54.8784159 408.834985,51.3673622 408.861419,47.0166037 L408.837405,47.0166037 L408.837405,47.0166037 Z" id="Shape" fill="#14CAE2"></path>
            <polygon id="Path" fill="#14CAE2" points="462 34 462 60 455.622306 60 455.622306 46.7193182 449.370724 60 446.587239 60 440.419732 46.8404545 440.419732 60 434 60 434 34 440.419732 34 440.419732 34.1211364 447.941448 48.7195455 455.589276 34"></polygon>
            <path d="M194.996887,104.686433 C195.057626,106.864757 194.227357,108.974769 192.695114,110.536064 C191.157795,112.100739 189.052196,112.988307 186.849861,113 L172,113 L172,87.0016369 L186.054811,87.0016369 C188.149563,86.9587113 190.172088,87.7615892 191.658869,89.2262696 C193.144749,90.6916319 193.957665,92.6887788 193.915977,94.7597848 C193.926032,96.2954996 193.547193,97.8091282 192.814223,99.1617804 C194.201837,100.677367 194.979021,102.642016 194.996887,104.686433 Z M178.297866,97.161679 L185.712374,97.161679 C186.95145,96.9391994 187.853456,95.8702537 187.856328,94.6209299 C187.853456,93.3716062 186.95145,92.3026604 185.712374,92.0801808 L178.297866,92.0801808 L178.297866,97.161679 L178.297866,97.161679 Z M189.208211,105.002549 C189.242882,104.289492 188.983835,103.593098 188.490581,103.073352 C187.995018,102.551012 187.307756,102.249496 186.584844,102.237269 L178.271066,102.237269 L178.271066,107.735331 L186.587822,107.735331 C187.301704,107.717963 187.979525,107.420488 188.472715,106.908111 C188.964982,106.396145 189.229897,105.709787 189.208211,105.002549 L189.208211,105.002549 Z" id="Shape" fill="#14CAE2"></path>
            <path d="M239.061205,86.7513741 L239.061205,99.7872616 C239.061205,108.32094 233.082007,114 225.551645,114 C218.021283,114 212,108.32094 212,99.7872616 L212,86.7513741 L218.505271,86.7513741 L218.505271,99.7872616 C218.505271,103.948486 221.460299,107.421705 225.560664,107.421705 C229.661028,107.421705 232.564953,103.903222 232.564953,99.7872616 L232.564953,86.7513741 L239.058199,86.7513741 L239.061205,86.7513741 Z M256.301375,105.092144 L263.21548,105.092144 C263.21548,105.092144 263.504068,108.725294 268.214678,108.725294 C270.742835,108.725294 273.036514,107.213493 273.036514,105.587024 C273.036514,102.19528 266.864924,101.950857 265.100325,101.579696 C261.988978,100.964113 256.707203,99.5730143 256.707203,94.5397133 C256.707203,89.8473973 261.739469,86 267.887009,86 C275.372279,86 279.060804,89.8021339 279.060804,93.3598448 L272.471362,93.3598448 C272.471362,92.7080504 271.371117,91.3169523 267.896028,91.3169523 C265.560263,91.3169523 263.636338,92.7442612 263.636338,94.5397133 C263.636338,96.7033085 267.772776,96.7033085 269.245781,96.950749 C272.967373,97.6447893 279.968656,98.5440241 279.968656,105.574954 C279.968656,110.152603 274.56363,113.990959 268.22069,113.990959 C260.065053,114 256.301375,108.6921 256.301375,105.089126 L256.301375,105.092144 Z M324.339172,92.4696627 L314.226542,92.4696627 L314.226542,113.302942 L307.841517,113.302942 L307.841517,92.4696627 L297.725881,92.4696627 L297.725881,86.7513741 L324.339172,86.7513741 L324.339172,92.4696627 Z M348.367189,92.4696627 L348.367189,97.2072422 L359.135156,97.2072422 L359.135156,102.880267 L348.370195,102.880267 L348.370195,107.626899 L362,107.626899 L362,113.302942 L341.98517,113.302942 L341.98517,86.7483565 L362,86.7483565 L362,92.4696627 L348.367189,92.4696627 Z" id="Shape" fill="#14CAE2"></path>
            <path d="M395.82152,113 L391.336053,106.520682 L386.624171,106.520682 L386.624171,113 L380,113 L380,87 L393.165732,87 C398.712902,87 402.877104,91.5588636 402.877104,97.2375 C402.981053,100.556886 401.098719,103.638063 398.039776,105.155682 L404,113 L395.82152,113 L395.82152,113 Z M386.624171,100.842045 L392.125446,100.842045 C393.159612,100.912955 394.17848,100.570227 394.943396,99.8965909 C395.708312,99.2229545 396.148904,98.2775 396.164202,97.2818182 C396.164202,95.1634091 394.374299,93.4468182 392.168281,93.4468182 L386.624171,93.4468182 L386.624171,100.842045 L386.624171,100.842045 Z" id="Shape" fill="#14CAE2"></path>
            <path d="M442.738875,110.957561 L457.252131,87.9243534 C457.621937,87.3477116 458.26086,86.9992049 458.946757,87.0000029 L459.001227,87.0000029 C459.727495,87.0000029 460.396267,87.3927016 460.747296,88.0210173 C461.100827,88.6500282 461.08226,89.4214971 460.698879,90.0328358 L446.122074,113.063023 C445.747146,113.661792 445.082904,114.017928 444.375781,113.999304 C443.668658,113.980679 443.024153,113.590073 442.681379,112.9724 C442.330307,112.340423 442.353527,111.567405 442.741901,110.957561 L442.738875,110.957561 Z M425.305416,110.957561 L439.818672,87.9243534 C440.18572,87.3478132 440.822918,86.9990023 441.507245,87.0000021 L441.567768,87.0000021 C442.294036,87.0000021 442.959782,87.3927016 443.313837,88.0210173 C443.666451,88.6505765 443.646723,89.4220542 443.262393,90.0328358 L428.688615,113.063023 C428.313687,113.661792 427.649444,114.017928 426.942322,113.999304 C426.235199,113.980679 425.590694,113.590073 425.24792,112.9724 C424.896848,112.340423 424.920068,111.567405 425.308442,110.957561 L425.305416,110.957561 Z" id="Shape" fill="#14CAE2"></path>
            <ellipse id="Oval" fill="#14CAE2" cx="74" cy="73.5" rx="74" ry="73.5"></ellipse>
            <path d="M117.199265,107.333113 C117.095689,106.592196 117.013786,105.848399 116.95366,105.102676 C116.95366,104.811489 117.022549,104.532309 117.022549,104.226112 L117.022549,56.4653506 C117.022549,33.0112445 97.9432621,14 74.4131398,14 C50.8800224,14 31.8007354,33.0112445 31.8007354,56.4623486 L31.8007354,104.244123 C31.8007354,104.532309 31.8546486,104.814491 31.8726197,105.117686 C31.8123069,105.867506 31.7294025,106.615329 31.6240199,107.36013 C31.2196708,110.241986 30.7464326,113.490078 32.7921395,116.11677 C34.2597769,118.026 36.7457751,118.743462 39.1538986,119.382874 C40.4448205,119.704081 41.6998003,120.151369 42.9068573,120.71273 C43.389081,121.018927 43.8563288,121.33413 44.3565236,121.589295 C45.1053183,122.297751 45.80619,123.05724 46.4471582,123.86476 C47.9567282,125.69594 49.6879414,127.76127 52.2008961,128.592806 C54.3364584,129.292256 56.594823,128.802941 58.8711586,128.331637 C60.1091318,128.021376 61.3738529,127.830386 62.6480787,127.76127 C63.2980324,127.866338 63.9659572,127.9624 64.6248965,128.049456 C65.7271222,128.472728 66.7904106,128.998067 67.7967905,129.616465 C69.7466517,130.72718 71.9600886,132 74.4041543,132 C76.8452248,132 79.0586617,130.730182 81.011518,129.616465 C82.0168006,129.00012 83.0753702,128.47567 84.1744265,128.049456 C84.8513369,127.9624 85.525252,127.866338 86.1841913,127.752264 C87.4511518,127.830314 88.7061316,128.022438 89.93715,128.331637 C92.1595724,128.802941 94.4598695,129.301262 96.6044173,128.592806 C99.1263576,127.76127 100.848585,125.69594 102.370136,123.86476 C103.011541,123.059674 103.707041,122.299418 104.451785,121.589295 C104.960965,121.289101 105.425218,120.973898 105.910437,120.667701 C107.118341,120.113189 108.373335,119.668128 109.6604,119.337845 C112.059538,118.671415 114.554522,117.980971 116.022159,116.071741 C118.058881,113.463061 117.603614,110.205963 117.199265,107.336115 L117.199265,107.333113 Z M136,66.1916149 C135.980184,71.4541455 131.711066,75.7060234 126.460356,75.6927654 C121.188842,75.6927654 120.97918,71.4359927 120.97918,66.1916149 C120.97918,60.9472372 121.197828,56.6814588 126.460356,56.6814588 C131.714563,56.6682082 135.985132,60.9255632 136,66.1916149 L136,66.1916149 Z M13,66.1916149 C13.0148678,71.452693 17.2814141,75.7060159 22.530658,75.6927653 C27.8021721,75.6927653 28.0238153,71.4359927 28.0238153,66.1916149 C28.0238153,60.9472372 27.8021721,56.6814776 22.530658,56.6814776 C17.2799571,56.6731864 13.014868,60.9290868 13,66.1916149 Z" id="Shape" fill="#FFFFFF"></path>
            <path d="M56.4827268,70.9999552 C52.2554204,71.0095842 48.4366669,68.4561893 46.8004544,64.5259138 C45.1757919,60.6012385 46.0706245,56.0753488 49.0636856,53.0789293 C52.067554,50.0722142 56.566227,49.1741256 60.4796899,50.7999054 C64.3858039,52.4136808 66.9394767,56.2453568 66.9456325,60.501774 C66.9426068,66.2923861 62.2618332,70.9907752 56.4827268,70.9999552 Z M56.4827268,53.5609434 C53.6879743,53.5529585 51.162551,55.2401621 50.0803242,57.8383365 C49.0061971,60.4316032 49.5962106,63.4214872 51.575025,65.4045736 C53.5599164,67.3931014 56.5335447,67.9882102 59.1211461,66.9147701 C61.7037217,65.8485878 63.3923399,63.3156591 63.3964745,60.501774 C63.3814725,56.6628467 60.2899845,53.5592612 56.4827268,53.5609434 Z M90.5007858,70.9999641 C84.7216795,70.9877243 80.0439316,66.2771316 80.056011,60.4834686 C80.0672463,57.6918955 81.1778019,55.0191516 83.1433868,53.0532216 C85.1089718,51.0872917 87.7685721,49.989218 90.5370944,50.000482 C96.3162007,50.0066709 101,54.7050601 101,60.501774 C101,63.2902985 99.8895644,65.9628887 97.9228528,67.9337714 C95.9480113,69.9048421 93.2794853,71.0072464 90.5007858,70.9999641 Z M90.5007858,53.5609471 C86.6886144,53.550847 83.5896417,56.6578673 83.5779611,60.501774 C83.5896417,64.3456807 86.6886144,67.4527009 90.5007858,67.4426008 C94.3129573,67.4527009 97.41193,64.3456807 97.4236106,60.501774 C97.4086002,56.6592705 94.3115846,53.5542125 90.5007858,53.5609471 L90.5007858,53.5609471 Z" id="Shape" fill="#14CAE2"></path>
            <path d="M73.2831709,80 C70.0207405,80.004875 66.81733,79.1360805 64.010197,77.4850634 C63.4108766,77.2152295 63.0189979,76.6295421 63.0006708,75.9762628 C62.9823438,75.3229834 63.3407783,74.7165333 63.9240409,74.413975 C64.5073034,74.1114167 65.2132363,74.1657429 65.7426081,74.5539258 C70.228579,77.1919496 75.7976757,77.2828149 80.3721854,74.7942791 L81.3756263,74.2461564 C81.9196722,73.9221991 82.5980577,73.9177074 83.1464042,74.2344318 C83.6920918,74.5505999 84.0194342,75.1383454 83.9991052,75.7654622 C83.9787763,76.392579 83.6140459,76.9581953 83.0490114,77.2388478 L82.0455706,77.795764 C79.3549473,79.2459012 76.3414878,80.0036934 73.2802197,80 L73.2831709,80 Z" id="Path" fill="#14CAE2"></path>
        </g>
    </g>
</svg>