<?xml version="1.0" encoding="UTF-8"?>
<svg width="257px" height="257px" viewBox="0 0 257 257" version="1.1" xmlns="http://www.w3.org/2000/svg" xmlns:xlink="http://www.w3.org/1999/xlink">
    <title>mssql-importer/logo</title>
    <defs>
        <linearGradient x1="25.8951071%" y1="75.843486%" x2="38.3411716%" y2="69.2480588%" id="linearGradient-1">
            <stop stop-color="#909CA9" offset="0%"></stop>
            <stop stop-color="#EDEDEE" offset="100%"></stop>
        </linearGradient>
        <linearGradient x1="0.167947727%" y1="49.8457052%" x2="18.5944843%" y2="49.8457052%" id="linearGradient-2">
            <stop stop-color="#939FAB" offset="0%"></stop>
            <stop stop-color="#DCDEE1" offset="100%"></stop>
        </linearGradient>
        <radialGradient cx="44.3461988%" cy="43.8808738%" fx="44.3461988%" fy="43.8808738%" r="12.758715%" gradientTransform="translate(0.443462,0.438809),scale(0.701299,1.000000),rotate(-171.422475),translate(-0.443462,-0.438809)" id="radialGradient-3">
            <stop stop-color="#EE352C" offset="0%"></stop>
            <stop stop-color="#A91D22" offset="100%"></stop>
        </radialGradient>
    </defs>
    <g id="mssql-importer/logo" stroke="none" stroke-width="1" fill="none" fill-rule="evenodd">
        <rect fill="#FFFFFF" x="0" y="0" width="257" height="257"></rect>
        <path d="M120.15617,161.699333 C120.16117,175.132333 120.16017,188.564333 120.15617,201.995333 C120.15417,208.298333 115.70617,213.007333 109.69317,213.090333 C103.66817,213.174333 99.0171695,208.324333 99.0131695,201.943333 C99.0119195,200.105333 99.011232,198.267333 99.0109039,196.420708 L99.0107945,190.846333 C99.010857,190.222167 99.0109369,189.596083 99.0110266,188.967764 L99.0118964,183.243889 C99.0120584,181.954667 99.0121695,180.652667 99.0121695,179.335333 C92.8701695,182.879333 87.1461695,186.176333 81.4281695,189.481333 C78.5781695,191.128333 75.7601695,192.702333 72.2231695,192.196333 C67.7951695,191.563333 64.2621695,188.490333 63.2091695,184.068333 C62.2501695,180.041333 63.9091695,175.434333 67.5731695,173.195333 C73.9791695,169.280333 80.5181695,165.584333 87.0211695,161.827333 C92.6921695,158.551333 98.3431695,155.237333 104.08517,152.088333 C111.82317,147.843333 120.15217,152.867333 120.15617,161.699333 Z M153.56017,152.125133 C165.46317,158.828133 177.28817,165.671133 189.09417,172.544133 C194.50817,175.697133 196.12717,181.712133 193.20617,187.011133 C190.47117,191.972133 184.16217,193.797133 178.85717,190.910133 C172.82617,187.627133 166.92517,184.105133 160.96117,180.697133 C160.29217,180.314133 159.70617,179.707133 158.80717,179.762133 C158.35917,180.515133 158.58417,181.323133 158.58217,182.084133 C158.56117,188.720133 158.57417,195.356133 158.56917,201.991133 C158.56517,208.318133 154.16417,212.985133 148.11517,213.088133 C142.09817,213.192133 137.43217,208.334133 137.43017,201.948133 C137.42517,188.516133 137.41917,175.084133 137.43217,161.653133 C137.43917,152.851133 145.86417,147.792133 153.56017,152.125133 Z M58.2603695,97.4987332 C62.8493695,99.3707332 66.9283695,102.259733 71.2233695,104.715733 C79.3373695,109.354733 87.4313695,114.028733 95.5063695,118.733733 C102.90137,123.042733 103.23537,132.599733 95.8963695,136.992733 C83.9023695,144.171733 71.7473695,151.087733 59.5773695,157.967733 C54.7393695,160.703733 48.2563695,158.899733 45.6233695,154.444733 C42.5363695,149.219733 43.9383695,142.916733 49.0943695,139.803733 C55.1793695,136.129733 61.3823695,132.649733 67.5313695,129.081733 C68.0073695,128.804733 68.4673695,128.498733 69.2573695,128.004733 C62.4093695,124.015733 55.8013695,120.284733 49.3173695,116.350733 C44.6293695,113.506733 42.9443695,108.611733 44.6633695,103.783733 C46.6633695,98.1667332 52.7133695,95.2367332 58.2603695,97.4987332 Z M213.51807,105.879133 C214.23907,110.023133 212.05707,114.214133 207.70107,116.778133 C202.39907,119.899133 197.04507,122.932133 191.71807,126.013133 C190.69707,126.603133 189.70007,127.235133 188.35307,128.053133 C193.07007,130.785133 197.48107,133.336133 201.88907,135.895133 C204.10107,137.178133 206.33607,138.425133 208.50607,139.776133 C213.61307,142.953133 215.08407,149.157133 212.03307,154.422133 C209.46207,158.859133 202.84707,160.693133 198.06607,157.987133 C185.96607,151.139133 173.88107,144.257133 161.93107,137.154133 C154.35607,132.651133 154.64507,123.072133 162.30107,118.617133 C173.90607,111.866133 185.52007,105.127133 197.17607,98.4651332 C204.28507,94.4021332 212.15107,98.0291332 213.51807,105.879133 Z M133.72947,109.919533 C138.22547,114.354533 142.63147,118.882533 147.18147,123.260533 C148.563803,124.591533 148.528588,126.116637 148.521592,127.979113 L148.52147,128.495533 C148.98647,130.451533 147.91447,132.056533 146.30247,133.608533 C144.17147,135.661033 142.07247,137.746533 139.98097,139.839783 L135.80071,144.029135 C135.103247,144.726589 134.404803,145.423033 133.70447,146.117533 C131.21947,148.580533 126.42347,148.628533 123.96947,146.197533 C119.53647,141.808533 115.12147,137.402533 110.72247,132.978533 C108.26647,130.509533 108.28747,125.460533 110.72547,123.022533 C115.07947,118.670533 119.41847,114.305533 123.80347,109.983533 C126.41947,107.404533 131.15247,107.377533 133.72947,109.919533 Z M126.49667,122.081933 C125.28667,123.238933 124.09067,124.411933 122.93867,125.625933 C121.42267,127.223933 121.44467,128.812933 122.99467,130.437933 C124.14967,131.648933 125.36267,132.804933 126.53867,133.995933 C127.19067,134.654933 127.95867,135.005933 129.20067,134.975933 C129.43767,134.881933 130.06267,134.802933 130.43367,134.454933 C132.05667,132.926933 133.67267,131.380933 135.16067,129.724933 C136.32667,128.426933 135.94867,127.021933 134.85667,125.855933 C133.54967,124.460933 132.19967,123.094933 130.76467,121.832933 C129.32867,120.570933 127.83367,120.803933 126.49667,122.081933 Z M109.71027,43.0740834 C115.73427,43.1123332 120.14427,47.6333332 120.15427,53.8083332 C120.16627,60.6023332 120.15727,67.3973332 120.15727,74.1913332 C120.15727,81.0663332 120.18427,87.9403332 120.15027,94.8153332 C120.10927,102.983333 111.63927,108.164333 104.51827,104.170333 C92.3262695,97.3343332 80.2342695,90.3163332 68.1712695,83.2543332 C62.9842695,80.2173332 61.4872695,73.9233332 64.4632695,68.8693332 C67.3512695,63.9643332 73.8222695,62.2313332 78.9262695,65.1153332 C84.9762695,68.5333332 90.9842695,72.0263332 96.9652695,75.5643332 C98.4972695,76.4703332 99.0742695,76.5553332 99.0462695,74.4513332 C98.9532695,67.5783332 99.0012695,60.7033332 99.0132695,53.8293332 C99.0252695,47.5663332 103.54327,43.0353332 109.71027,43.0740834 Z M148.02427,43 C154.11427,43.0291332 158.56127,47.6321332 158.56927,53.9351332 C158.57827,60.8101332 158.62327,67.6861332 158.53827,74.5601332 C158.51327,76.5231332 159.05927,76.5061332 160.51627,75.6471332 C166.50427,72.1181332 172.52127,68.6411332 178.54927,65.1821332 C183.03027,62.6101332 188.67627,63.5521332 192.09127,67.3801332 C195.19327,70.8571332 195.44627,76.3361332 192.69727,80.2821332 C191.32112,82.2558332 189.33229,83.4311707 187.327095,84.5696607 L186.619671,84.9711907 C186.501977,85.0382707 186.38447,85.1055332 186.26727,85.1731332 C175.61327,91.3211332 164.92327,97.4051332 154.28227,103.576133 C150.55327,105.739133 146.79927,106.327133 142.93727,104.148133 C139.01527,101.933133 137.36627,98.4351332 137.40927,93.9791332 C137.47227,87.3451332 137.42527,80.7091332 137.42527,74.0741332 C137.42527,67.3591332 137.41627,60.6441332 137.42727,53.9291332 C137.43927,47.6801332 142.01527,42.9711332 148.02427,43 Z" id="Combined-Shape" fill="#FFFFFF"></path>
        <g id="Group" transform="translate(44.500000, 36.000000)" fill-rule="nonzero">
            <path d="M106.582294,86 L69.7534055,97.8970561 L37.7127856,111.886698 L28.7489499,114.227808 C26.4660466,116.376016 24.0723613,118.551782 21.4834278,120.754851 C18.6440475,123.178126 15.9995305,125.381576 13.9670739,126.978509 C11.7124116,128.741167 8.37188121,132.045771 6.67395262,134.138357 C4.14060259,137.277743 2.13638704,140.609904 1.2733664,143.171347 C-0.257811663,147.798071 0.494170321,152.47953 3.44484596,156.803504 C7.23068629,162.31105 14.7747678,167.928825 23.5710828,171.756766 C28.0531932,173.712453 35.597018,176.218273 41.2756501,177.622558 C50.7122666,179.991099 68.9738243,182.552287 79.0228864,182.938091 C81.0547012,183.020636 83.7830428,183.020636 83.8940814,182.938091 C84.1170573,182.799923 85.6759629,179.853566 87.4857004,176.191097 C93.6656111,163.715589 98.1194805,152.011435 100.54115,142.014951 C101.988632,135.956638 103.129827,127.887522 103.881167,118.331831 C104.076415,115.660412 104.159598,106.710222 103.992591,103.680684 C103.741887,98.7237785 103.296449,94.7033169 102.601077,90.7651467 C102.489654,90.186695 102.461413,89.6633581 102.517381,89.6359277 C102.62842,89.5533824 102.962434,89.4432798 107.5,88.1485893 L106.581781,86 L106.581781,86 L106.582294,86 L106.582294,86 Z M98.1754491,90.8747414 C98.5094636,90.8747414 99.3999551,99.3290256 99.6225458,104.671989 C99.6785145,105.800954 99.6502734,106.544496 99.5948183,106.544496 C99.3723559,106.544496 94.8902454,103.928574 91.6895082,101.945837 C88.9055831,100.210736 83.6166773,96.7406606 82.781641,96.0797907 C82.5026965,95.8871428 82.5304241,95.8597124 84.8134558,95.0883588 C88.6824788,93.7937953 97.8692905,90.8747414 98.1754491,90.8747414 L98.1754491,90.8747414 Z M79.4129979,96.9885504 C79.6637014,96.9885504 80.3034894,97.3461618 81.8346675,98.2827329 C87.5690115,101.835226 95.3637964,106.131516 98.7041984,107.56374 C99.7339696,108.004277 99.8450083,107.838806 97.4793073,109.436374 C92.412864,112.85108 86.0934169,116.210672 78.3546006,119.598075 C76.9908149,120.203957 75.84962,120.671925 75.8218924,120.671925 C75.7664373,120.671925 75.9329311,119.983878 76.1553935,119.157537 C78.0205861,112.299805 79.0785983,105.360162 79.1345669,99.7972477 C79.1622945,97.0431572 79.1622945,97.0431572 79.4129979,96.960993 C79.3570293,96.9885504 79.3847569,96.9885504 79.4129979,96.9885504 L79.4129979,96.9885504 Z M75.5437181,98.4479503 C75.7102119,98.6129138 75.5991733,104.781965 75.3763258,106.461697 C74.875304,110.482539 74.0958512,114.227681 72.8157617,118.441552 C72.5094747,119.45978 72.2306586,120.314059 72.1755885,120.36892 C72.0636513,120.506453 68.249955,116.8163 66.9973364,115.38433 C64.8258568,112.905687 63.1281849,110.427171 61.8754379,108.003896 C61.2351364,106.764575 60.2332212,104.341427 60.3165323,104.258628 C60.7618422,103.95575 75.4322944,98.3379747 75.5437181,98.4479503 Z M57.3377439,105.52538 C57.3654715,105.52538 57.3931991,105.52538 57.4214401,105.55281 C57.4768953,105.607925 57.6721436,106.048717 57.8391508,106.544242 C58.7296423,108.940213 60.7336011,112.465149 62.4600275,114.72346 C64.3529477,117.202104 66.8307142,119.845583 68.8901282,121.580558 C69.5585423,122.131325 70.1706028,122.654408 70.2539138,122.737207 C70.4213062,122.902551 70.4768897,122.87474 65.9391958,124.582411 C60.6785311,126.565148 54.9436736,128.547884 48.3739082,130.640724 C46.8045363,131.141267 45.2365958,131.646192 43.6701055,132.155493 C43.4191453,132.238292 43.5028415,132.100378 44.2265825,130.97154 C47.4834167,125.931708 52.4383079,116.045327 55.222233,109.050316 C55.6955272,107.838552 56.1686931,106.627041 56.2523893,106.351594 C56.363813,105.965791 56.5027076,105.828257 56.8644497,105.635356 C57.0593129,105.580749 57.2544329,105.52538 57.3377439,105.52538 Z M51.7707923,107.811121 C51.8541034,107.86649 50.4343491,110.812847 49.0424507,113.511696 C46.3420934,118.716491 43.3914178,123.839123 39.4385702,130.06278 C38.7705411,131.13663 38.1304964,132.128316 38.0468002,132.238419 C37.9077772,132.431321 37.8518086,132.375952 37.4064987,131.522434 C36.4600386,129.67723 35.680329,127.30869 35.2628751,125.133051 C34.8451643,122.984843 34.9288605,119.239828 35.4022831,116.926656 C35.7637685,115.219367 35.7362977,115.246924 36.571334,114.83369 C40.1344552,113.043728 51.6593685,107.701019 51.7707923,107.811121 L51.7707923,107.811121 Z M99.7899382,109.739124 L99.7899382,110.895647 C99.7899382,117.036886 99.1219092,125.46374 98.147208,131.605233 C97.9802008,132.679084 97.840536,133.560032 97.8131935,133.58797 C97.8131935,133.58797 97.0060131,133.367892 96.059553,133.092064 C91.8841146,131.797627 87.3465491,129.897436 83.2542934,127.66719 C80.5536794,126.207536 76.6289445,123.811311 76.7404966,123.701081 C76.767839,123.673778 77.937275,123.067896 79.3010607,122.351784 C84.7578723,119.54296 89.9908094,116.513676 94.528375,113.51195 C96.2265603,112.382731 98.7871244,110.565466 99.3444999,110.069559 L99.7899382,109.739124 Z M30.7531654,117.89015 C30.8644608,117.89015 30.8366049,118.110482 30.6695976,119.101914 C30.5581738,119.818153 30.4191509,121.14002 30.3638241,122.048399 C30.1405915,126.069241 30.809134,129.043664 32.8133496,133.11924 C33.3700833,134.248459 33.8157783,135.184776 33.7875372,135.21208 C33.5925457,135.377551 15.1646225,140.720388 9.37405317,142.28989 C7.64826864,142.757858 6.14533162,143.171093 6.03339439,143.198269 C5.83891629,143.253638 5.81093198,143.226207 5.89437143,142.757604 C6.53454455,138.709712 9.6524842,133.422118 13.9949298,128.960611 C16.8901503,125.986569 19.2007812,124.251722 23.1536288,122.020714 C25.9930091,120.423781 30.363439,118.028191 30.6974535,117.917707 C30.6977103,117.89015 30.7254379,117.89015 30.7531654,117.89015 L30.7531654,117.89015 Z M74.1795473,125.573589 C74.2072749,125.546158 74.875304,125.904405 75.6824844,126.372373 C81.6398043,129.787333 89.9352259,132.954404 97.0054996,134.579021 L97.6461862,134.716935 L96.7551813,135.21208 C93.0530371,137.250185 80.888079,142.262079 68.445075,146.861373 C66.6353375,147.521989 64.8539695,148.18324 64.5194415,148.320773 C64.1854269,148.458306 63.87914,148.541105 63.87914,148.513675 C63.87914,148.485737 64.3805469,147.521989 65.0203349,146.338036 C68.5000166,139.893919 72.0078111,132.04539 73.7893075,126.592578 C74.0125401,126.069368 74.1513063,125.6014 74.1795473,125.573589 L74.1795473,125.573589 Z M69.7534055,127.005812 C69.7816466,127.033878 69.5586707,127.611694 69.2801113,128.272564 C66.8584418,134.083242 63.6845335,140.417637 59.6205189,147.522497 C58.5907477,149.34027 57.7275987,150.799924 57.6993577,150.799924 C57.6720152,150.799924 56.8365938,150.303891 55.8345502,149.698136 C49.9326854,146.117958 44.6994916,141.71182 41.2757785,137.443214 L40.7744999,136.837332 L43.3074649,136.148778 C52.382596,133.698073 60.0931713,131.054339 67.7488049,127.80485 C68.834673,127.364059 69.725678,127.005812 69.7534055,127.005812 L69.7534055,127.005812 Z M97.2567166,136.50677 C97.2567166,136.50677 97.2845725,136.534328 97.2567166,136.50677 C97.2844441,137.14021 95.8646898,142.813354 94.6953822,146.916234 C93.7211946,150.358625 92.8856448,153.057727 91.3549802,157.821604 C90.6869511,159.915079 90.1027466,161.649545 90.0745056,161.649545 C90.046778,161.649545 89.8797707,161.622114 89.7127635,161.56738 C81.4451978,160.079788 74.040396,158.014506 67.0810325,155.260797 C65.1321438,154.489443 62.3486038,153.250121 62.1815965,153.112588 C62.1261413,153.056965 63.7964707,152.286374 65.9119817,151.377487 C78.5779616,145.897245 91.7171074,139.673333 96.2265603,137.002423 C96.7553097,136.671861 97.1730204,136.50677 97.2567166,136.50677 L97.2567166,136.50677 Z M33.7598097,138.654979 C33.8155216,138.709839 30.2801279,143.749671 25.3248516,150.606768 C23.5990671,153.00274 21.5948515,155.811564 20.843383,156.857984 C20.0916578,157.90453 18.9504629,159.556959 18.3101614,160.548391 L17.1404687,162.33848 L15.8877216,161.29206 C14.4122554,160.080042 11.851563,157.49155 10.7102397,156.059454 C8.31604097,153.113096 6.70180856,150.00114 6.06150707,147.164886 C5.75522011,145.842765 5.75522011,145.181514 6.03326602,145.09935 C6.45072,144.989247 13.8833777,143.254146 20.8431263,141.656578 C24.7125345,140.775629 29.194003,139.72921 30.8086206,139.34366 C32.4233664,138.957475 33.7320821,138.654979 33.7598097,138.654979 L33.7598097,138.654979 Z M37.3228025,140.004403 L38.213294,140.995708 C42.2223669,145.429531 46.3143658,148.707212 51.2693854,151.570643 C52.1603903,152.066676 52.828291,152.50696 52.7723224,152.535025 C52.5779727,152.672559 35.5689053,158.647946 27.691066,161.346921 C23.2651809,162.888993 19.6182352,164.128188 19.5907644,164.128188 C19.5630368,164.128188 19.3123333,163.963224 19.0335172,163.770323 L18.5327522,163.412203 L19.3399325,162.255808 C21.9564653,158.510412 25.2417973,154.407279 32.3958956,145.870195 L37.3228025,140.004403 Z M59.5373362,155.728892 C59.5646786,155.701588 60.7895697,156.141872 62.2926351,156.693274 C65.9119817,158.042444 68.7787044,158.895962 72.6206417,159.859964 C77.3530705,161.044298 84.2008819,162.200947 88.237554,162.531255 C88.8499996,162.586116 89.1840141,162.641485 89.0725903,162.724157 C88.877342,162.834386 84.7857282,164.183811 81.7792123,165.120128 C76.9908149,166.606958 62.3764597,170.875437 50.462205,174.262967 C48.2629979,174.896279 46.3699494,175.419616 46.258654,175.446919 C45.980608,175.502288 45.0616188,175.254017 45.0616188,175.143915 C45.0616188,175.089181 45.7296479,174.235536 46.537085,173.299092 C50.5453877,168.562265 54.5264764,163.274924 57.8391508,158.262777 C58.7574983,156.885414 59.5373362,155.756449 59.5373362,155.728892 Z M54.6378029,155.866933 C54.6652426,155.894363 52.6890113,159.033622 49.2375706,164.431193 C47.7618477,166.716934 46.1193743,169.305553 45.5346563,170.21444 C44.9779226,171.095642 44.1428863,172.472878 43.6698488,173.243723 L42.8624117,174.648389 L42.4449577,174.53816 C41.442529,174.262713 34.3998544,171.8115 32.5346618,171.068084 C30.2240309,170.159198 27.830089,169.057917 26.0483358,168.1216 C23.8216579,166.937266 21.0381179,165.174608 21.2605803,165.119874 C21.3161638,165.092443 25.1299884,164.073073 29.7228808,162.834132 C41.9158232,159.556578 48.6800668,157.656641 53.1065937,156.279786 C53.9140308,156.031896 54.6097874,155.838994 54.6378029,155.866933 Z M89.2950527,163.907856 L89.3227803,163.907856 C89.4342041,164.183557 84.9248795,176.576011 83.2817642,180.48637 C82.9204072,181.367572 82.781641,181.588286 82.5863927,181.56022 C82.1130985,181.533171 75.5715741,180.624284 71.5903571,180.045833 C64.6592346,178.999413 53.0230259,176.988738 50.1003345,176.328122 L49.4323055,176.190589 L53.5795028,175.253636 C62.4877551,173.2709 66.7746172,172.197049 71.1170628,170.875183 C76.6012169,169.222881 82.0297874,167.157345 87.513428,164.623967 C88.3763202,164.238291 89.1001895,163.935413 89.2950527,163.907856 Z" id="Shape" fill="url(#linearGradient-1)"></path>
            <path d="M69.2832079,0.00139196449 C68.6618331,-0.0796919736 58.6351802,3.3988967 52.1677248,5.92603365 C43.4403457,9.35073346 36.6623982,12.6121375 32.4822167,15.437919 C30.9291053,16.4982763 28.9799342,18.3732328 28.6697027,19.1068732 C28.5567846,19.3786986 28.5,19.7047889 28.5,20.0308792 L32.284773,23.4823981 L41.2941215,26.2544161 L62.730836,29.9505654 L87.2456414,34 L87.5,31.9617478 C87.4154743,31.9617478 87.3586897,31.9346781 87.2746849,31.9346781 L84.0541114,31.445292 L83.4049955,30.3311711 C80.0721551,24.6782295 76.4005607,17.6665367 74.2542063,12.9377265 C72.5880466,9.26877227 71.0062824,5.02959871 70.130549,1.98562997 C69.6503543,0.137617993 69.5940906,0.0289630099 69.2838591,0.00189325622 L69.2838591,0.00126664156 L69.2832079,0.00126664156 L69.2832079,0.00139196449 Z M68.8307543,1.38783958 L68.8597978,1.38783958 C68.8875389,1.41465869 69.0005872,2.17612083 69.1137657,3.07243045 C69.5934394,6.87773601 70.4696938,10.5460636 71.8533631,14.5140383 C72.8981479,17.5036169 72.8981479,17.3406971 71.6839209,16.9871611 C68.8031434,16.2264509 55.8961038,14.0794184 46.5476104,12.8293221 C45.0506324,12.6389566 43.7796208,12.4488417 43.7796208,12.421772 C43.6667027,12.313117 50.5295667,8.86134741 53.5516545,7.50284681 C57.4209532,5.79030892 68.040328,1.52356432 68.8307543,1.38783958 L68.8307543,1.38783958 Z M41.6044833,13.5629626 L42.7064436,13.915872 C48.6935741,15.8729149 63.7468378,18.6450582 72.0508068,19.2972387 C72.9825434,19.378824 73.7737511,19.4605345 73.8014922,19.4605345 C73.8296241,19.4876043 73.0393281,19.8952798 72.0222843,20.3570948 C68.0121962,22.286692 63.6060484,24.6511598 60.5556985,26.472102 C59.652224,27.0153769 58.8327542,27.4504982 58.7200967,27.4504982 C58.6070484,27.4504982 58.0141962,27.3417179 57.3928214,27.2601326 L56.26312,27.0968368 L53.4391272,24.4333485 C48.468259,19.7863742 44.570568,16.1991305 43.07359,14.8400033 L41.6044833,13.5629626 L41.6044833,13.5629626 Z M40.4751727,14.405258 L44.4573895,19.1885838 C46.6318757,21.8247517 48.8348844,24.4064041 49.3154699,24.9768741 C49.7951436,25.5479707 50.1908126,26.0101617 50.1626807,26.0372314 C50.0496325,26.1186913 44.4013863,25.0585846 41.4071698,24.4066547 C38.3286881,23.7270285 37.0578067,23.4009382 35.1655504,22.8304682 L33.6120483,22.3410822 L33.6120483,21.9603511 C33.6401801,20.1394089 36.0411536,17.4219064 40.1080263,14.650139 L40.4751727,14.405258 Z M74.3103397,20.9278154 C74.4235182,20.9278154 74.5643076,21.1723205 74.903192,21.9060863 C75.8634511,23.9442131 78.8577978,29.4342349 79.5914395,30.4939656 C79.818057,30.8476269 80.2128143,30.8746967 76.2309883,30.2495859 C66.656789,28.7544833 63.5779166,28.2658492 63.5779166,28.211459 C63.5779166,28.1843893 63.8604071,27.9940237 64.2275535,27.8036582 C67.1932474,26.2277223 70.1868127,24.2164145 72.8418843,22.069382 C73.4915212,21.5529262 74.0846339,21.0637908 74.1972915,20.9820803 C74.2254233,20.9278154 74.2822079,20.9007457 74.3103397,20.9278154 Z" id="Shape" fill="url(#linearGradient-2)"></path>
            <path d="M29.131021,18 C29.131021,18 28.5206003,18.9761255 29.1034957,20.4258512 C29.4647808,21.3176439 30.5195744,22.4047132 31.7131466,23.5200648 C31.7131466,23.5200648 44.0675084,35.6189815 45.566803,37.3476737 C52.3961406,45.2647932 55.3669485,53.0707117 55.6446336,63.8317464 C55.8111934,70.7454866 54.5059839,76.8228415 51.258003,83.8760649 C45.483331,96.5327859 33.2952731,110.499749 14.5,126 L17.2489415,125.079925 C19.0256652,123.741529 21.4411029,122.320214 27.1045216,119.197718 C40.1805573,112.004754 54.8949223,105.397749 72.9408681,98.5955951 C98.9261236,88.782275 141.653524,77.2963132 165.973181,73.5611194 L168.5,73.1705664 L168.111062,72.5572259 C165.890477,69.1002272 164.363017,66.9538567 162.530475,64.6678745 C157.200432,58.0328437 150.732123,52.6526477 142.819315,48.1920126 C131.936338,42.0870181 117.860175,37.3199056 100.036992,33.7793456 C96.6777578,33.1099546 89.2927941,31.8277374 83.2961277,30.9077908 C70.5806089,28.9289288 62.3628459,27.5626359 53.3124117,26.0014522 C50.0644308,25.4436478 45.2055179,24.6075198 41.9850623,23.9107464 C40.3193359,23.5479615 37.1269176,22.7953948 34.6282639,21.9312416 C32.6294178,21.1502641 29.7418258,20.3696722 29.131021,18 L29.131021,18 Z M36.2942464,24.9697905 C36.3216436,24.9422796 36.7657605,25.1090167 37.349168,25.3042932 C38.4040897,25.6663068 39.7643498,26.0846279 41.3750257,26.5309743 C42.5935256,26.867526 43.8151021,27.1927437 45.0395982,27.5065855 C46.7053247,27.924521 48.093238,28.3149455 48.1208913,28.3149455 C48.3156165,28.510222 51.1197366,37.5141537 52.063661,40.9711523 C52.4240499,42.2817804 52.7022471,43.3966178 52.6744658,43.3966178 C52.6459163,43.4249001 52.340962,42.9506571 51.980189,42.3095485 C48.7318241,36.5665676 43.5957382,30.7401539 37.6543784,26.0564742 C36.8773979,25.4994411 36.2942464,24.9975586 36.2942464,24.9697905 L36.2942464,24.9697905 Z M49.9534336,28.7611632 C50.0923401,28.7611632 50.7031449,28.8448532 51.4523441,29.0119759 C56.1720944,30.0712771 64.6398892,31.6882542 70.0534041,32.6083292 C70.9696752,32.7475554 71.6917333,32.9151923 71.6917333,32.9706 C71.6917333,33.0266504 71.3582295,33.2214127 70.9416379,33.4447144 C70.0258788,33.9184431 66.3331409,36.1206069 65.1119154,36.9571206 C62.0299823,39.0200583 59.2540276,41.2502473 57.2549254,43.2573917 C56.4499075,44.0660087 55.7555028,44.735014 55.7555028,44.735014 C55.7555028,44.735014 55.589455,44.2612853 55.4500364,43.6754557 C54.4511894,39.800393 52.3686153,34.0574121 50.4807664,30.0153553 C50.1753,29.3743752 49.9252682,28.7888028 49.9252682,28.7332666 C49.9252682,28.7889313 49.9252682,28.7611632 49.9534336,28.7611632 L49.9534336,28.7611632 Z M73.9957897,33.3610244 C74.1623496,33.4165606 74.4400347,34.3645324 74.9951488,36.4552381 C76.0225452,40.4978092 76.4945714,45.0139805 76.3280116,49.2235457 C76.2721929,50.3944335 76.2168863,51.4815028 76.1610677,51.6212432 L76.0779798,51.8996954 L74.6343758,51.4259666 C71.6636959,50.4781235 66.8332045,49.0560373 62.6967337,47.8854066 C60.3364745,47.2441695 58.4213564,46.6587256 58.4213564,46.6030608 C58.4213564,46.4355524 61.8640625,42.9788109 63.3353198,41.668697 C66.1387997,39.1871811 73.7457579,33.277206 73.9957897,33.3610244 L73.9957897,33.3610244 Z M75.9114199,33.6394767 C75.9948919,33.556301 87.4053292,35.535163 92.5969777,36.5389281 C96.4562755,37.2914947 102.064132,38.4625111 102.397123,38.6021228 C102.563683,38.657659 101.980532,38.9921617 100.120336,39.8284182 C92.7911908,43.1461908 87.3493825,46.1286893 81.9362517,49.7531963 C80.520301,50.7010395 79.3263448,51.4815028 79.2986915,51.4815028 C79.2710382,51.4815028 79.2432569,50.6732714 79.2432569,49.6974031 C79.2432569,44.4007685 78.1882072,39.0480835 76.2444116,34.5319122 C76.0501985,34.085823 75.8836386,33.667759 75.9114199,33.6394767 L75.9114199,33.6394767 Z M105.42311,39.4941727 C105.506582,39.5777341 105.145425,41.8360769 104.812305,43.1739588 C103.812946,47.3278594 101.120079,53.48929 97.8166635,59.2875499 C97.233128,60.3190831 96.7057952,61.1554682 96.6498485,61.1832363 C96.594926,61.2110044 95.8452147,60.7926833 94.9843781,60.2909293 C91.7640505,58.395243 88.0994779,56.6111432 84.1014016,54.9382443 C82.9913014,54.4645156 82.0193396,54.0739625 81.9915583,54.0186835 C81.7968331,53.851175 90.7366541,47.9131747 95.4564043,45.0696452 C99.2044489,42.7837915 105.311984,39.3824576 105.42311,39.4941727 L105.42311,39.4941727 Z M107.532953,39.8285468 C107.782985,39.8285468 112.835855,41.2226078 115.472903,42.0031996 C121.997414,43.9548078 129.493119,46.7145188 134.379429,48.9447078 L136.405801,49.86504 L134.990362,50.1992856 C123.05272,52.9589966 112.835855,56.137543 102.979891,60.1518317 C102.174745,60.4863344 101.452815,60.7651723 101.397892,60.7651723 C101.342073,60.7651723 101.619759,60.1240637 101.98066,59.3432147 C104.951339,53.015047 106.86697,46.4079129 107.338484,40.7762614 C107.366777,40.2464823 107.449481,39.8285468 107.532953,39.8285468 L107.532953,39.8285468 Z M57.2272721,51.4259666 C57.31036,51.3421481 61.1695298,52.2623518 63.2517198,52.8472815 C66.4166128,53.739717 73.1349532,55.9975455 73.1349532,56.165054 C73.1349532,56.1928221 72.3856259,56.8340592 71.4975201,57.6149082 C67.8606009,60.6535857 64.3622041,63.8591288 60.1697866,67.929468 C58.9203958,69.1286381 57.8657302,70.1042494 57.8104236,70.1042494 C57.7546049,70.1042494 57.7273357,69.9366124 57.7546049,69.7136963 C58.393063,65.0300166 58.2546685,59.0085835 57.3661787,52.9033319 C57.2825787,52.1224829 57.1994908,51.4537347 57.2272721,51.4259666 L57.2272721,51.4259666 Z M138.322199,51.5097851 C138.377121,51.5651928 136.545091,54.4645156 135.379172,56.1091321 C133.713702,58.5065724 131.269843,61.6852474 125.745075,68.6546522 C122.830597,72.3341812 119.554067,76.4883389 118.471748,77.8821427 C117.360752,79.2759466 116.444993,80.4465773 116.416827,80.4465773 C116.389174,80.4465773 116.028785,79.9450804 115.639847,79.3318684 C112.53026,74.6481887 108.809869,70.5500815 104.395585,66.8702954 C103.562786,66.1731363 102.647027,65.4204411 102.341561,65.1973965 C102.036094,64.9744804 101.786062,64.7514358 101.786062,64.7236677 C101.786062,64.6402349 106.505301,62.6046797 110.087297,61.1553397 C116.361777,58.5903909 124.911763,55.5239453 131.325533,53.5444405 C134.684896,52.4852678 138.26638,51.4537347 138.322199,51.5097851 L138.322199,51.5097851 Z M140.459696,52.0669467 C140.570437,52.0393072 141.23706,52.3738098 142.042206,52.8472815 C148.788712,56.7223441 155.395799,61.7127583 160.615613,66.8423987 C162.08687,68.292253 165.723789,72.0836257 165.667971,72.1113937 C165.667971,72.1113937 164.390926,72.2228518 162.892016,72.3341812 C151.203894,73.2266168 136.240137,75.7073614 121.858764,79.1919995 C120.887186,79.414787 120.026733,79.6100636 119.970915,79.6100636 C119.915992,79.6100636 120.998311,78.5229943 122.358955,77.2128804 C130.798585,69.0446911 134.657882,63.8872826 139.210561,54.6873031 C139.848891,53.321653 140.404389,52.1507652 140.459696,52.0669467 C140.432042,52.0669467 140.432042,52.0669467 140.459696,52.0669467 L140.459696,52.0669467 Z M78.6320681,58.4235253 C79.0210064,58.506701 82.6301444,60.2078821 85.3507925,61.5735322 C87.8494461,62.8275957 91.5976187,64.8352543 91.7918318,65.0022485 C91.8194851,65.0300166 90.4866223,65.7270471 88.8493173,66.5356642 C83.6295034,69.1561491 79.159913,71.6370222 74.4954693,74.4806803 C73.1629905,75.2892974 72.0525062,75.9586883 72.024853,75.9586883 C71.9137277,75.9586883 71.941381,75.8465875 72.6910923,74.4806803 C75.189874,69.9091014 77.1884641,64.4449584 78.3271138,59.1200415 C78.4377269,58.7019775 78.5489802,58.4235253 78.6320681,58.4235253 L78.6320681,58.4235253 Z M75.0228021,59.0922734 C75.106274,59.1760919 74.1623496,62.6048082 73.5795822,64.4727265 C72.4409325,68.0132865 70.5254303,72.4457678 68.6656188,75.7911799 C68.2208618,76.5713861 67.5547504,77.7145058 67.1938494,78.3556144 L66.4999568,79.4707089 L64.9452276,77.9657041 C63.1408506,76.2092439 61.6690813,75.122046 59.7816164,74.1460491 C59.031521,73.7561388 58.4487536,73.4212505 58.4487536,73.3658429 C58.4487536,73.1427983 63.1961572,68.821775 66.8330765,65.6994076 C69.4425993,63.4411934 74.9397142,59.008712 75.0228021,59.0922734 L75.0228021,59.0922734 Z M97.0947335,68.208563 L98.4552496,69.1003558 C101.56394,71.1357825 105.228512,73.8397002 108.033145,76.2092439 C109.615143,77.5192292 112.668911,80.2795831 113.280228,80.9485883 L113.612835,81.3113733 L111.364597,81.9523533 C98.6490787,85.4925277 88.8211519,88.6427918 77.3550239,92.8805108 C76.0779798,93.3542395 74.9951488,93.7445355 74.9116768,93.7445355 C74.7456291,93.7445355 74.6063385,93.8837616 77.4662772,91.2352515 C84.7958064,84.4615088 91.2918962,76.9897072 96.1227717,69.7135678 L97.0947335,68.208563 L97.0947335,68.208563 Z M91.2921523,69.6581601 C91.3474588,69.7136963 87.5441078,75.0940208 85.2673205,78.1328269 C82.5466724,81.7570768 77.7157969,87.8343033 74.384344,91.7926702 C72.9965587,93.4378009 71.8029865,94.8037081 71.7471679,94.8317333 C71.6636959,94.8595014 71.6360426,94.4414374 71.6360426,93.8002002 C71.6360426,90.4266344 70.7755901,86.8304097 69.2761675,83.7640927 C68.6375814,82.4817468 68.5264562,82.1750123 68.6657468,82.0357862 C69.1930796,81.5616718 77.271936,76.9339139 82.3801126,74.1742029 C85.8226907,72.3343098 91.2081682,69.6023669 91.2921523,69.6581601 L91.2921523,69.6581601 Z M56.1997477,78.3003353 C56.2832196,78.3003353 56.9218057,78.6345808 57.6437357,79.0251339 C59.4204594,80.0007451 61.0029699,81.087943 62.4187926,82.2590879 C62.4740992,82.3146241 61.7525532,82.9003251 60.8086288,83.5968413 C58.1710685,85.4925277 54.1733763,88.5314623 51.8416666,90.3993806 C49.3979354,92.3508602 49.3152316,92.4065249 49.5925326,91.9884609 C51.4250749,89.1726995 52.340834,87.5836191 53.3129238,85.5487066 C54.1733763,83.7368388 55.0338288,81.5900826 55.6446336,79.7221644 C55.866628,78.9136759 56.1444411,78.3003353 56.1997477,78.3003353 Z M65.5561603,85.6599076 C65.6945548,85.6323966 65.8616267,85.8829522 66.610826,86.9983038 C68.1933365,89.3674618 69.414946,92.5460082 69.7207965,95.1106998 L69.775719,95.6685041 L65.972752,97.1461265 C59.1704276,99.7942509 52.8964602,102.414993 48.6482241,104.366087 C47.4547799,104.923891 45.3724619,105.927271 44.0123298,106.59679 C42.6518137,107.293306 41.5413295,107.823086 41.5413295,107.795317 C41.5413295,107.767549 42.401782,107.126312 43.4567036,106.345463 C51.7583226,100.296262 58.9485612,93.6609741 64.3344228,87.0262004 C64.9175743,86.3290414 65.4452912,85.6878042 65.5003417,85.6600361 L65.5561603,85.6599076 Z M61.2530017,86.7194659 C61.364127,86.8309239 58.1992339,90.4270201 56.0336999,92.6293124 C50.6754916,98.1216092 45.3727179,102.414993 38.792772,106.59679 C37.9599728,107.126312 37.2105175,107.600041 37.1270456,107.656091 C36.9325764,107.767549 37.1823522,107.488583 40.0698162,104.338319 C41.9023585,102.358943 43.2902718,100.686301 44.8727823,98.6236203 C45.927704,97.2578416 46.1221732,97.0625651 47.6493771,95.974853 C51.7305413,93.0197369 61.1418765,86.6077507 61.2530017,86.7194659 Z" id="Shape" fill="url(#radialGradient-3)"></path>
        </g>
    </g>
</svg>