<?xml version="1.0" encoding="UTF-8"?>
<svg width="640px" height="360px" viewBox="0 0 640 360" version="1.1" xmlns="http://www.w3.org/2000/svg" xmlns:xlink="http://www.w3.org/1999/xlink">
    <title>mssql-importer/picture</title>
    <defs>
        <linearGradient x1="25.8951071%" y1="75.4718331%" x2="38.3411716%" y2="68.9712542%" id="linearGradient-1">
            <stop stop-color="#909CA9" offset="0%"></stop>
            <stop stop-color="#EDEDEE" offset="100%"></stop>
        </linearGradient>
        <linearGradient x1="0.167947727%" y1="49.8457052%" x2="18.5944843%" y2="49.8457052%" id="linearGradient-2">
            <stop stop-color="#939FAB" offset="0%"></stop>
            <stop stop-color="#DCDEE1" offset="100%"></stop>
        </linearGradient>
        <radialGradient cx="44.3461988%" cy="43.8808738%" fx="44.3461988%" fy="43.8808738%" r="12.8235233%" gradientTransform="translate(0.443462,0.438809),scale(0.697674,1.000000),rotate(-171.466149),translate(-0.443462,-0.438809)" id="radialGradient-3">
            <stop stop-color="#EE352C" offset="0%"></stop>
            <stop stop-color="#A91D22" offset="100%"></stop>
        </radialGradient>
    </defs>
    <g id="mssql-importer/picture" stroke="none" stroke-width="1" fill="none" fill-rule="evenodd">
        <rect id="Rectangle" fill="#FFFFFF" x="0" y="0" width="640" height="360"></rect>
        <text id="SQL-Server" font-family="NittiGrotesk-Light, Nitti Grotesk" font-size="28" font-weight="300" letter-spacing="3.333333" fill="#A91D22">
            <tspan x="283" y="174">SQL SERVER</tspan>
        </text>
        <text id="Importer" font-family="NittiGrotesk-Bold, Nitti Grotesk" font-size="52" font-weight="bold" fill="#A91D22">
            <tspan x="283" y="216">Importer</tspan>
        </text>
        <g id="Group" transform="translate(166.000000, 129.000000)" fill-rule="nonzero">
            <path d="M60.2038966,48.0975207 L39.5521832,54.7206241 L21.5854805,62.508672 L16.5590305,63.8119705 C15.2788978,65.0078802 13.9366444,66.2191313 12.484906,67.4455822 C10.8927301,68.7946216 9.40982339,70.0212845 8.2701281,70.9102988 C7.0058315,71.8915726 5.13263687,73.7312489 4.18052738,74.8961934 C2.75995727,76.643893 1.63609808,78.4989106 1.15216128,79.9248683 C0.293556754,82.5005706 0.715228895,85.1067434 2.36981337,87.5139042 C4.49271449,90.5799607 8.72304054,93.7073822 13.6555536,95.8384006 C16.1688866,96.9271338 20.3990687,98.3221263 23.5833484,99.1038933 C28.8749091,100.422462 39.1150349,101.848279 44.750023,102.063056 C45.8893583,102.109009 47.4192695,102.109009 47.4815342,102.063056 C47.6065674,101.986138 48.4807201,100.345897 49.4955261,98.3069971 C52.9608966,91.3618691 55.4583935,84.8461544 56.816339,79.2811017 C57.6280111,75.9084325 58.2679335,71.4163476 58.6892457,66.0966841 C58.7987307,64.6095029 58.8453752,59.6269225 58.7517263,57.9403758 C58.6111449,55.1808613 58.3613664,52.9426662 57.9714385,50.7502828 C57.9089579,50.4282581 57.8931218,50.1369159 57.924506,50.1216454 C57.9867707,50.0756924 58.1740686,50.0143981 60.7184979,49.2936426 L60.2036087,48.0975207 L60.2036087,48.0975207 L60.2038966,48.0975207 L60.2038966,48.0975207 Z M55.4897777,50.8112943 C55.6770756,50.8112943 56.1764166,55.517803 56.3012339,58.4922363 C56.3326181,59.1207322 56.316782,59.5346629 56.2856857,59.5346629 C56.1609404,59.5346629 53.6476075,58.0783762 51.8528015,56.9745846 C50.291722,56.008652 47.3259805,54.0768576 46.8577358,53.7089506 C46.7013184,53.6017033 46.7168665,53.5864328 47.9970712,53.1570194 C50.1666168,52.4363346 55.3181,50.8112943 55.4897777,50.8112943 L55.4897777,50.8112943 Z M44.9687771,54.214858 C45.1093585,54.214858 45.4681181,54.4139407 46.3267226,54.9353308 C49.5422426,56.9130075 53.9131501,59.3047564 55.7862727,60.1020767 C56.3637145,60.3473245 56.4259791,60.2552064 55.0994179,61.1445741 C52.2584216,63.0455447 48.7148064,64.9158328 44.3752833,66.8016035 C43.6105436,67.1388987 42.9706212,67.399417 42.9550731,67.399417 C42.9239767,67.399417 43.0173377,67.0163809 43.142083,66.5563558 C44.1879854,62.7386492 44.7812633,58.8753431 44.8126475,55.7784627 C44.8281957,54.2452577 44.8281957,54.2452577 44.9687771,54.1995168 C44.9373928,54.214858 44.952941,54.214858 44.9687771,54.214858 L44.9687771,54.214858 Z M42.7990875,55.0273075 C42.8924485,55.1191429 42.8301838,58.5534598 42.7052226,59.4885685 C42.4242758,61.7269757 41.9871995,63.8118998 41.2693923,66.1577663 C41.0976426,66.7246145 40.9412971,67.200193 40.9104167,67.2307341 C40.8476481,67.3072989 38.7091269,65.2529866 38.0067239,64.4558077 C36.7890718,63.0759444 35.8371063,61.6961518 35.1346313,60.3471124 C34.7755837,59.6571808 34.2137621,58.3082121 34.2604786,58.2621176 C34.5101851,58.0935054 42.7366069,54.9660839 42.7990875,55.0273075 Z M32.59013,58.9673198 C32.6056782,58.9673198 32.6212263,58.9673198 32.6370624,58.9825904 C32.6681588,59.0132729 32.7776438,59.258662 32.8712927,59.5345215 C33.3706338,60.8683611 34.494349,62.8306966 35.4624385,64.0879007 C36.5238891,65.467764 37.9132909,66.9393919 39.0681024,67.9052538 C39.4429141,68.2118665 39.7861256,68.5030673 39.8328421,68.5491617 C39.926707,68.6412092 39.9578753,68.6257265 37.413374,69.5763885 C34.4634686,70.6801802 31.2476606,71.7839718 27.56368,72.9490578 C26.6836584,73.2277107 25.8044395,73.5088029 24.9260337,73.7923311 C24.7853083,73.8384255 24.8322408,73.7616486 25.2380768,73.1332233 C27.064339,70.3275438 29.8427827,64.8237854 31.4038622,60.9296554 C31.6692608,60.255065 31.9345875,59.580616 31.9815199,59.4272743 C32.0440005,59.2124969 32.1218853,59.1359321 32.3247314,59.0285434 C32.4340004,58.9981437 32.5434135,58.9673198 32.59013,58.9673198 Z M29.4684749,60.2397944 C29.5151914,60.2706183 28.7190674,61.9108585 27.9385637,63.4133103 C26.4243446,66.3108252 24.7697602,69.1625992 22.5532101,72.6273159 C22.1786144,73.2251294 21.8197108,73.777202 21.7727783,73.8384962 C21.6948215,73.9458849 21.6634373,73.915061 21.4137308,73.4399068 C20.8830055,72.4126799 20.4457852,71.0941109 20.2116988,69.8829306 C19.9774685,68.6870208 20.024401,66.6021674 20.2898716,65.3144223 C20.4925737,64.3639723 20.4771695,64.3793136 20.9454141,64.1492657 C22.943426,63.152792 29.4059943,60.1785002 29.4684749,60.2397944 L29.4684749,60.2397944 Z M56.3950987,61.3131157 L56.3950987,61.9569529 C56.3950987,65.3757872 56.020503,70.0670255 55.4739416,73.4860012 C55.3802927,74.0838147 55.301976,74.5742395 55.2866438,74.5897928 C55.2866438,74.5897928 54.8340192,74.467275 54.303294,74.3137212 C51.9619266,73.5931071 49.4174974,72.5352684 47.1227745,71.2936884 C45.6084115,70.4810976 43.4076256,69.1471166 43.4701782,69.0857516 C43.4855104,69.0705518 44.1412689,68.7332566 44.9060085,68.3345964 C47.9659029,66.7709211 50.9002601,65.0845158 53.4446894,63.4134517 C54.3969429,62.7848143 55.8327732,61.7731408 56.1453203,61.4970692 L56.3950987,61.3131157 Z M17.6828897,65.8508001 C17.7452983,65.8508001 17.7296782,65.9734593 17.6360292,66.5253905 C17.5735486,66.9241214 17.4955918,67.660006 17.4645675,68.1657014 C17.3393903,70.4041086 17.714274,72.0599728 18.8381332,74.3288503 C19.1503203,74.9574877 19.4002427,75.4787364 19.3844066,75.4939363 C19.2750655,75.5860544 8.9416507,78.5604169 5.69460246,79.4341607 C4.72687281,79.694679 3.88410439,79.9247269 3.82133585,79.939856 C3.71228271,79.9706799 3.69659058,79.9554094 3.74337905,79.6945376 C4.10235463,77.4410719 5.850732,74.4974626 8.28574825,72.013737 C9.90923638,70.3580848 11.2049172,69.3922937 13.4214673,68.1502895 C15.0136431,67.2612752 17.4643515,65.9276477 17.6516494,65.8661414 C17.6517934,65.8508001 17.6673415,65.8508001 17.6828897,65.8508001 L17.6828897,65.8508001 Z M42.0341319,70.1281783 C42.0496801,70.1129078 42.4242758,70.3123439 42.8769003,70.5728622 C46.2174535,72.4739742 50.8690918,74.2370857 54.8337313,75.1415119 L55.1929948,75.2182888 L54.6933659,75.4939363 C52.6173972,76.6285518 45.7959254,79.418678 38.8185399,81.9791099 C37.8037339,82.3468754 36.8048359,82.7149945 36.6172501,82.7915593 C36.4299522,82.8681241 36.2582025,82.9142186 36.2582025,82.898948 C36.2582025,82.8833947 36.5393653,82.3468754 36.8981249,81.6877677 C38.8493483,78.1003211 40.8163358,73.7310368 41.8153058,70.6954507 C41.940483,70.4041793 42.0182958,70.143661 42.0341319,70.1281783 L42.0341319,70.1281783 Z M39.5521832,70.9254986 C39.5680193,70.9411227 39.4429861,71.2627938 39.2867846,71.6307008 C37.928839,74.865511 36.1490774,78.3918754 33.8701907,82.3471582 C33.2927489,83.3591145 32.8087401,84.1717054 32.792904,84.1717054 C32.7775718,84.1717054 32.3091112,83.8955631 31.7472176,83.5583386 C28.4377607,81.5652498 25.5032595,79.1123481 23.5834204,76.7360112 L23.3023296,76.398716 L24.7226838,76.015397 C29.8115424,74.6510871 34.1352294,73.1793178 38.4281081,71.3703239 C39.0370061,71.1249348 39.536635,70.9254986 39.5521832,70.9254986 L39.5521832,70.9254986 Z M54.9746006,76.2146918 C54.9746006,76.2146918 54.9902208,76.230033 54.9746006,76.2146918 C54.9901488,76.5673282 54.1940249,79.7255735 53.5383384,82.0096509 C52.9920649,83.9260335 52.5235323,85.4286267 51.6652157,88.0806818 C51.29062,89.2461211 50.9630287,90.2117002 50.9471926,90.2117002 C50.9316444,90.2117002 50.8379955,90.1964297 50.7443465,90.1659593 C46.1083284,89.3378151 41.9561031,88.1880704 38.0536563,86.6550775 C36.9608215,86.2256642 35.3999579,85.5357326 35.306309,85.4591677 C35.2752126,85.4282025 36.211846,84.9992133 37.3981138,84.4932352 C44.5005324,81.4423785 51.8682777,77.9775205 54.3969429,76.490622 C54.6934379,76.3065978 54.9276682,76.2146918 54.9746006,76.2146918 L54.9746006,76.2146918 Z M19.3688584,77.4106016 C19.4000987,77.4411426 17.417635,80.2468222 14.6389754,84.0641753 C13.6712458,85.3980149 12.5473866,86.9616903 12.1260024,87.5442332 C11.7044742,88.1268469 11.0645518,89.0467557 10.7055043,89.5986869 L10.0496018,90.5952313 L9.34712683,90.0126883 C8.51976261,89.3379565 7.08386028,87.8969404 6.44386591,87.0996907 C5.10132458,85.4594505 4.19614753,83.7270215 3.83709997,82.1480756 C3.66535027,81.4120495 3.66535027,81.0439305 3.82126387,80.9981895 C4.05535021,80.9368953 8.22319566,79.9709627 12.1258584,79.0815949 C14.29562,78.5911701 16.808593,78.0086271 17.713986,77.7939912 C18.619451,77.5790017 19.3533103,77.4106016 19.3688584,77.4106016 L19.3688584,77.4106016 Z M21.3667983,78.1618275 L21.8661393,78.7136879 C24.1142176,81.1820016 26.4087965,83.0066902 29.1873121,84.6007653 C29.6869411,84.8769076 30.0614648,85.1220139 30.0300805,85.137638 C29.9210994,85.2142028 20.3833046,88.5407069 15.9658246,90.0432294 C13.4840199,90.9017026 11.4390036,91.5915635 11.4235994,91.5915635 C11.4080512,91.5915635 11.2674698,91.4997282 11.1111243,91.3923395 L10.8303215,91.1929741 L11.282946,90.5492075 C12.7501606,88.4641421 14.5924029,86.1799233 18.6040468,81.4273201 L21.3667983,78.1618275 Z M33.8235462,86.9156665 C33.8388784,86.9004667 34.5257332,87.1455731 35.3685737,87.4525393 C37.3981138,88.2036238 39.0056218,88.678778 41.1599792,89.2154387 C43.8136776,89.8747585 47.6535718,90.5186664 49.9171263,90.7025492 C50.2605537,90.7330903 50.4478516,90.7639142 50.385371,90.8099379 C50.2758859,90.8713029 47.981523,91.6225288 46.2956263,92.1437775 C43.6105436,92.9714975 35.4155781,95.3477637 28.7346876,97.2336052 C27.5014873,97.5861709 26.4399648,97.8775131 26.3775562,97.8927129 C26.2216426,97.9235368 25.7063215,97.7853243 25.7063215,97.72403 C25.7063215,97.6935596 26.0809172,97.2183346 26.5336857,96.6970152 C28.7813321,94.0600186 31.0137183,91.1165506 32.8712927,88.326283 C33.3862539,87.5595038 33.8235462,86.9310078 33.8235462,86.9156665 Z M31.0761444,86.9925141 C31.0915311,87.0077847 29.983364,88.7554135 28.0479767,91.7602465 C27.2204686,93.0327211 26.2994554,94.4738079 25.9715762,94.9797861 C25.6593891,95.4703523 25.1911444,96.2370608 24.9258897,96.6661914 L24.4731212,97.4481704 L24.2390349,97.3868055 C23.6769253,97.2334638 19.727762,95.868871 18.6818596,95.455011 C17.3861788,94.9490329 16.0437814,94.3359488 15.0446675,93.8147001 C13.796063,93.1553803 12.2351995,92.1741065 12.3599448,92.1436361 C12.3911131,92.1283655 14.5297063,91.560881 17.10516,90.8711615 C23.942324,89.0465436 27.7353577,87.9888464 30.2175224,87.22235 C30.6702909,87.0843495 31.0604348,86.9769608 31.0761444,86.9925141 Z M50.5101162,91.4689043 L50.5256644,91.4689043 C50.588145,91.6223874 48.0595518,98.5212796 47.1381788,100.69818 C46.9355487,101.188747 46.8577358,101.311618 46.7482508,101.295994 C46.4828522,101.280935 42.8147076,100.774957 40.5822495,100.452933 C36.6956388,99.8703897 30.1706619,98.7510447 28.5317696,98.3832791 L28.1571738,98.3067143 L30.4827051,97.7851122 C35.4779867,96.6813205 37.8818346,96.083507 40.3168509,95.3476223 C43.3920774,94.4277842 46.4361357,93.2778981 49.5110743,91.8675645 C49.9949391,91.6528578 50.4008471,91.4842455 50.5101162,91.4689043 Z" id="Shape" fill="url(#linearGradient-1)"></path>
            <path d="M39.5294447,0.0982985823 C39.181896,0.0529869698 33.5737682,1.99690417 29.9563778,3.40912776 C25.0749624,5.3229306 21.283907,7.14547991 18.9458394,8.7245931 C18.07715,9.31714573 16.9869357,10.3649155 16.8134163,10.774891 C16.7502588,10.9267935 16.7184979,11.1090204 16.7184979,11.2912473 L18.8354048,13.2200373 L23.874532,14.7691062 L35.8645587,16.8346014 L49.5762295,19.0975207 L49.7184979,17.9584974 C49.6712208,17.9584974 49.6394599,17.9433702 49.5924742,17.9433702 L47.7911364,17.6698898 L47.4280716,17.0472928 C45.5639406,13.8882961 43.5103369,9.96999713 42.3098336,7.32742669 C41.3779138,5.27712875 40.4931982,2.90817882 40.0033812,1.20713747 C39.7347977,0.174424893 39.7033282,0.113705931 39.5298089,0.0985787159 L39.5298089,0.0982285489 L39.5294447,0.0982285489 L39.5294447,0.0982985823 Z M39.2763774,0.873078132 L39.2926221,0.873078132 C39.3081383,0.888065281 39.3713687,1.31358824 39.4346719,1.81446715 C39.702964,3.94096143 40.1930724,5.99090921 40.9669891,8.20830685 C41.5513603,9.8789537 41.5513603,9.78791028 40.8722163,9.59034604 C39.260934,9.16524328 32.0417424,7.965431 26.812924,7.26684779 C25.9756313,7.16046705 25.2647264,7.05422638 25.2647264,7.03909916 C25.2015689,6.9783802 29.0401199,5.04945015 30.7304402,4.29028805 C32.8946242,3.33328159 38.8342746,0.948924309 39.2763774,0.873078132 L39.2763774,0.873078132 Z M24.0481242,7.67682334 L24.6644748,7.87403741 C28.0132088,8.96767905 36.4328309,10.5168179 41.0774237,10.8812718 C41.5985645,10.9268635 42.0411044,10.9725253 42.0566207,10.9725253 C42.0723554,10.9876525 41.6303254,11.2154712 41.0614704,11.4735443 C38.8185398,12.5518486 36.3540843,13.8731688 34.6479564,14.8907542 C34.1426232,15.194349 33.6842757,15.437505 33.6212638,15.437505 C33.5580334,15.437505 33.2264381,15.376716 32.8788895,15.3311242 L32.2470226,15.2398707 L30.6675012,13.7514508 C27.8871851,11.1546122 25.7071206,9.149976 24.8698279,8.39046373 L24.0481242,7.67682334 L24.0481242,7.67682334 Z M23.4164758,8.14751785 L25.6438174,10.8205528 C26.8600555,12.2937055 28.0922468,13.7363936 28.3610488,14.0551857 C28.6293409,14.3743279 28.8506473,14.6326111 28.8349125,14.6477383 C28.7716821,14.69326 25.6124936,14.1008474 23.9377623,13.7365337 C22.2158997,13.3567425 21.5050677,13.1745156 20.4466871,12.8557235 L19.5777791,12.5822431 L19.5777791,12.3694816 C19.5935139,11.3518963 20.9364313,9.83329192 23.2111228,8.28436312 L23.4164758,8.14751785 Z M42.3412303,11.7924764 C42.4045335,11.7924764 42.4832801,11.9291116 42.6728256,12.3391572 C43.2099197,13.4781104 44.8847238,16.5460637 45.2950657,17.1382662 C45.4218179,17.3359005 45.6426143,17.3510277 43.4154913,17.0017011 C38.0604307,16.1662026 36.3383495,15.8931423 36.3383495,15.8627478 C36.3383495,15.8476206 36.4963527,15.7412399 36.7017058,15.6348591 C38.3604837,14.7541891 40.0348507,13.630223 41.5198908,12.4304107 C41.883247,12.141803 42.214988,11.8684626 42.2779999,11.8228009 C42.2937346,11.7924764 42.3254955,11.7773492 42.3412303,11.7924764 Z" id="Shape" fill="url(#linearGradient-2)"></path>
            <path d="M16.889068,10.0975207 C16.889068,10.0975207 16.5481838,10.6398127 16.8736968,11.4452158 C17.0754534,11.9406562 17.664494,12.5445836 18.3310343,13.1642234 C18.3310343,13.1642234 25.2302233,19.8858438 26.0674918,20.8462283 C29.8812777,25.244628 31.5403003,29.5812495 31.6953712,35.5596021 C31.7883851,39.4005688 31.0595019,42.7768771 29.2456943,46.6953346 C26.0208775,53.7268462 19.2145595,61.4862704 8.71849787,70.0975207 L10.2536211,69.5863679 C11.2458174,68.8428144 12.5946982,68.0531951 15.7573866,66.3184751 C23.0595883,62.3223842 31.2767012,58.6518255 41.3543073,54.8728513 C55.8655539,49.4210068 79.7263099,43.0399169 93.3074171,40.9648093 L94.7184979,40.7478354 L94.5012985,40.4070906 C93.2612319,38.4865359 92.4082347,37.2941078 91.3848669,36.0241176 C88.4083494,32.3379894 84.7961771,29.3489917 80.3773359,26.8708611 C74.2998296,23.4791974 66.4391152,20.8308016 56.485909,18.8638238 C54.609973,18.49194 50.4859023,17.779597 47.1371146,17.2685156 C40.0362405,16.1691478 35.4471001,15.4100962 30.3929616,14.5427719 C28.579154,14.2328806 25.8657352,13.7683651 24.0672989,13.3812687 C23.137088,13.1797216 21.354309,12.761629 19.9589569,12.2815438 C18.8427182,11.8476674 17.2301668,11.4140053 16.889068,10.0975207 L16.889068,10.0975207 Z M20.8893108,13.9696266 C20.9046105,13.9543427 21.1526239,14.0469744 21.4784229,14.1554614 C22.067535,14.35658 22.8271607,14.5889807 23.7266291,14.8369509 C24.4070901,15.0239241 25.0892692,15.2046006 25.7730787,15.3789571 C26.7032896,15.6111435 27.478358,15.828046 27.4938008,15.828046 C27.6025434,15.9365329 29.1684806,20.9387172 29.6956073,22.859272 C29.8968634,23.5873987 30.0522203,24.2067528 30.036706,24.2067528 C30.0207628,24.2224652 29.8504637,23.9589969 29.6489931,23.6028254 C27.834971,20.4122805 24.9667673,17.175384 21.648865,14.5733397 C21.2149668,14.2638769 20.8893108,13.9850533 20.8893108,13.9696266 L20.8893108,13.9696266 Z M28.5171686,16.0759447 C28.5947398,16.0759447 28.9358385,16.1224392 29.3542225,16.2152851 C31.9899272,16.8037858 36.7186957,17.7021064 39.7418274,18.2132592 C40.2535113,18.290607 40.6567385,18.3837387 40.6567385,18.4145207 C40.6567385,18.4456598 40.4704962,18.5538611 40.2378541,18.6779176 C39.7264562,18.9411002 37.6642778,20.1645246 36.9822948,20.6292544 C35.2612152,21.7753309 33.7110068,23.0143248 32.5946251,24.129405 C32.1450696,24.5786367 31.7572851,24.9503063 31.7572851,24.9503063 C31.7572851,24.9503063 31.6645572,24.6871236 31.5867,24.3616628 C31.0289024,22.2088502 29.8659064,19.0183052 28.8116531,16.7727181 C28.641068,16.4166181 28.5014399,16.0913 28.5014399,16.0604466 C28.5014399,16.0913715 28.5014399,16.0759447 28.5171686,16.0759447 L28.5171686,16.0759447 Z M41.9434194,18.6314232 C42.0364334,18.6622766 42.1915042,19.1889276 42.501503,20.3504308 C43.0752439,22.5963036 43.338843,25.1052876 43.245829,27.443935 C43.2146576,28.0944282 43.1837721,28.6983556 43.1526006,28.7759891 L43.1062009,28.9306848 L42.3000324,28.6675022 C40.6410813,28.1409226 37.9435341,27.3508748 35.633557,26.7005244 C34.3154901,26.3442815 33.2460086,26.0190349 33.2460086,25.9881101 C33.2460086,25.8950498 35.1685588,23.9746379 35.99017,23.2467968 C37.5557497,21.8681769 41.8037913,18.5848574 41.9434194,18.6314232 L41.9434194,18.6314232 Z M43.0131869,18.7861189 C43.0598011,18.7399101 49.4318635,19.839278 52.3310958,20.3969252 C54.4862881,20.8150178 57.617948,21.4655824 57.8039043,21.5431445 C57.8969183,21.573998 57.5712622,21.7598328 56.5324517,22.2244197 C52.4395525,24.0676267 49.4006206,25.7245703 46.3777034,27.7381854 C45.5869777,28.2647649 44.9202229,28.6983556 44.9047801,28.6983556 C44.8893374,28.6983556 44.8738232,28.2493382 44.8738232,27.7071891 C44.8738232,24.7646143 44.2846396,21.7909004 43.1991433,19.2819164 C43.0906866,19.0340891 42.9976727,18.8018313 43.0131869,18.7861189 L43.0131869,18.7861189 Z M59.4937409,22.0387278 C59.5403551,22.0851508 59.33867,23.3397856 59.1526422,24.0830534 C58.5945585,26.3907759 57.0907498,29.8137929 55.2459853,33.0350485 C54.9201148,33.6081224 54.6256303,34.0727808 54.5943873,34.0882076 C54.5637163,34.1036343 54.1450463,33.8712336 53.6643194,33.5924814 C51.8659546,32.5393224 49.819505,31.5481558 47.5868131,30.6187676 C46.966887,30.3555849 46.4241031,30.138611 46.4085889,30.1079004 C46.2998462,30.0148402 51.2922138,26.7159511 53.9279185,25.1362125 C56.0209823,23.8662938 59.431684,21.9766638 59.4937409,22.0387278 L59.4937409,22.0387278 Z M60.6719651,22.2244912 C60.8115933,22.2244912 63.6333259,22.9989695 65.1059631,23.4326316 C68.7495214,24.5168584 72.9354345,26.0500312 75.6641531,27.2890251 L76.7957631,27.8003207 L76.0053234,27.9860127 C69.3388479,29.5191855 63.6333259,31.2850446 58.1293459,33.515205 C57.6797189,33.7010398 57.2765632,33.8559498 57.2458922,33.8559498 C57.2147207,33.8559498 57.3697916,33.4997783 57.5713337,33.0659733 C59.2302849,29.5503246 60.3000524,25.8796945 60.5633655,22.7509993 C60.5791657,22.4566775 60.6253509,22.2244912 60.6719651,22.2244912 L60.6719651,22.2244912 Z M32.5791823,28.6675022 C32.625582,28.6209364 34.7807028,29.1321606 35.9434843,29.4571215 C37.7108921,29.9529191 41.4626925,31.2072682 41.4626925,31.3003285 C41.4626925,31.3157552 41.044237,31.6719981 40.5482819,32.1058031 C38.517275,33.7939572 36.5636248,35.5748145 34.2224047,37.8361141 C33.5246929,38.5023197 32.9357238,39.0443259 32.9048383,39.0443259 C32.8736669,39.0443259 32.8584386,38.9511943 32.8736669,38.827352 C33.2302084,36.2253077 33.1529232,32.8800671 32.6567535,29.4882606 C32.6100678,29.0544557 32.5636681,28.6829289 32.5791823,28.6675022 L32.5791823,28.6675022 Z M77.8659596,28.714068 C77.8966306,28.74485 76.8735488,30.3555849 76.2224513,31.2692608 C75.2923834,32.6011721 73.9276308,34.3671026 70.8423707,38.2389942 C69.2148055,40.283177 67.3850548,42.5910423 66.7806429,43.3653778 C66.1602164,44.1397133 65.6488185,44.7900636 65.6330898,44.7900636 C65.617647,44.7900636 65.4163909,44.5114543 65.1991915,44.170781 C63.4626626,41.5687367 61.3850482,39.2920104 58.9199286,37.2476848 C58.4548589,36.8603742 57.943461,36.4422102 57.7728759,36.3182966 C57.6022907,36.1944543 57.4626626,36.0705406 57.4626626,36.0551139 C57.4626626,36.0087623 60.0980813,34.8778983 62.0984172,34.0727094 C65.6023473,32.6477379 70.377015,30.944157 73.9587308,29.8444321 C75.8347383,29.2560029 77.8347882,28.6829289 77.8659596,28.714068 L77.8659596,28.714068 Z M79.0596266,29.0236022 C79.121469,29.0082469 79.4937393,29.1940817 79.9433662,29.4571215 C83.7108954,31.6099341 87.4005674,34.3823865 90.3155284,37.2321867 C91.1371396,38.0376613 93.1681464,40.1439794 93.136975,40.1594061 C93.136975,40.1594061 92.4238205,40.2213273 91.5867665,40.283177 C85.0596332,40.7789745 76.7032497,42.1571659 68.6720932,44.093076 C68.1295238,44.2168468 67.6490113,44.3253338 67.6178399,44.3253338 C67.5871689,44.3253338 68.1915807,43.7214064 68.9514209,42.9935654 C73.6644607,38.4556824 75.819653,35.5904555 78.3620578,30.4793558 C78.7185278,29.7206613 79.0287411,29.0701681 79.0596266,29.0236022 C79.0441838,29.0236022 79.0441838,29.0236022 79.0596266,29.0236022 L79.0596266,29.0236022 Z M44.5325099,32.5550348 C44.7497092,32.6012435 46.7652019,33.5463441 48.2845248,34.3050386 C49.6798769,35.0017406 51.7730122,36.1171065 51.8814689,36.209881 C51.8969116,36.2253077 51.1525856,36.6125469 50.2382465,37.0617786 C47.3232855,38.5176035 44.8272804,39.8958664 42.2224612,41.4756764 C41.4783497,41.9249081 40.8582092,42.296792 40.8427664,42.296792 C40.7807095,42.296792 40.7961522,42.2345138 41.2148222,41.4756764 C42.6102457,38.9359104 43.7263415,35.9002754 44.3622108,32.9419882 C44.4239817,32.7097304 44.4861102,32.5550348 44.5325099,32.5550348 L44.5325099,32.5550348 Z M42.5169458,32.9265615 C42.56356,32.9731273 42.0364334,34.8779697 41.7109918,35.9157021 C41.0751225,37.8826799 40.0054265,40.3451695 38.9668304,42.2037318 C38.7184596,42.6371796 38.3464754,43.2722461 38.1449333,43.6284176 L37.7574348,44.2479145 L36.8892094,43.4118008 C35.8815703,42.4359895 35.0596731,41.8319907 34.0056343,41.2897702 C33.5867499,41.0731534 33.2613083,40.8871044 33.2613083,40.8563223 C33.2613083,40.7324087 35.9124558,38.3318402 37.9434626,36.5971916 C39.4007287,35.3426282 42.4705461,32.8801385 42.5169458,32.9265615 L42.5169458,32.9265615 Z M54.8428296,37.9911668 L55.6025983,38.4866073 C57.3386202,39.6173999 59.3850698,41.1195764 60.9512929,42.4359895 C61.8347466,43.1637592 63.5400974,44.6972891 63.8814822,45.0689587 L64.0672241,45.2705059 L62.8117147,45.6266059 C55.7108405,47.5933694 50.2225178,49.3435161 43.8193554,51.6978045 C43.1062009,51.9609871 42.501503,52.1778182 42.4548888,52.1778182 C42.3621609,52.1778182 42.2843752,52.2551661 43.8814838,50.7837715 C47.9745975,47.0205812 51.6022841,42.8695803 54.3000457,38.8272806 L54.8428296,37.9911668 L54.8428296,37.9911668 Z M51.6024271,38.7964986 C51.6333126,38.827352 49.5093632,41.8164212 48.2379106,43.5046468 C46.7185877,45.518119 44.020826,48.8943559 42.1604043,51.0934486 C41.3854073,52.0074101 40.718867,52.7662475 40.6876955,52.781817 C40.6410813,52.7972437 40.6256386,52.5649859 40.6256386,52.2087431 C40.6256386,50.3345398 40.1451261,48.3366372 39.3077862,46.6331277 C38.9511732,45.9207134 38.8891163,45.7503053 38.9669019,45.6729575 C39.2613865,45.4095606 43.7729557,42.838584 46.6255737,41.3054112 C48.5480524,40.2832484 51.5555269,38.7655023 51.6024271,38.7964986 L51.6024271,38.7964986 Z M32.00537,43.597707 C32.0519842,43.597707 32.4085972,43.783399 32.8117529,44.0003729 C33.8039492,44.5423791 34.6876889,45.1463779 35.4783431,45.797014 C35.5092286,45.8278674 35.1062873,46.1532569 34.5791607,46.5402103 C33.1062375,47.5933694 30.87376,49.2816664 29.5716363,50.3193988 C28.2069553,51.4035542 28.1607701,51.434479 28.3156265,51.2022212 C29.3389943,49.6379093 29.8503922,48.7550869 30.3932475,47.62458 C30.87376,46.6179867 31.3542724,45.4253444 31.6953712,44.387612 C31.8193421,43.9384518 31.9744845,43.597707 32.00537,43.597707 Z M37.2303796,47.6863583 C37.3076648,47.6710744 37.4009648,47.8102719 37.8193487,48.4299117 C38.7030884,49.7461106 39.3852859,51.5119697 39.5560855,52.9367984 L39.5867565,53.2466897 L37.4630217,54.067591 C33.6643211,55.5387712 30.160677,56.994739 27.7882853,58.0786801 C27.1218165,58.3885714 25.9589636,58.9460044 25.1994093,59.3179597 C24.4396406,59.7049132 23.8195,59.9992349 23.8195,59.9838082 C23.8195,59.9683815 24.3000125,59.6121386 24.8891246,59.1783336 C29.5250936,55.8176663 33.5404216,52.1313952 36.5481106,48.4454098 C36.8737666,48.0580993 37.1684657,47.7018564 37.1992082,47.6864297 L37.2303796,47.6863583 Z M34.827317,48.2750018 C34.889374,48.3369229 33.1219662,50.3347541 31.912642,51.5582498 C28.9203958,54.6095258 25.9591066,56.994739 22.2845913,59.3179597 C21.8195217,59.6121386 21.4009947,59.8753212 21.3543805,59.9064604 C21.2457808,59.9683815 21.385266,59.8134001 22.9977459,58.0632534 C24.0211136,56.9635999 24.7961821,56.0343545 25.6799218,54.8884209 C26.2690339,54.129655 26.3776335,54.021168 27.2304877,53.4168835 C29.5095794,51.7751523 34.7652601,48.2129378 34.827317,48.2750018 Z" id="Shape" fill="url(#radialGradient-3)"></path>
        </g>
    </g>
</svg>