<?xml version="1.0" encoding="UTF-8"?>
<svg width="257px" height="257px" viewBox="0 0 257 257" version="1.1" xmlns="http://www.w3.org/2000/svg" xmlns:xlink="http://www.w3.org/1999/xlink">
    <!-- Generator: Sketch 54.1 (76490) - https://sketchapp.com -->
    <title>postgresql/logo</title>
    <desc>Created with Sketch.</desc>
    <g id="postgresql/logo" stroke="none" stroke-width="1" fill="none" fill-rule="evenodd">
        <rect fill="#326791" x="0" y="0" width="257" height="257"></rect>
        <g id="PostgreSQL_logo.3colors" transform="translate(56.000000, 62.000000)">
            <path d="M111.968106,110.831458 C113.002209,102.270144 112.692307,101.014659 119.109003,102.401461 L120.738089,102.54366 C125.672072,102.766752 132.126365,101.755036 135.918198,100.004394 C144.080788,96.2404779 148.92096,89.9561594 140.872257,91.6074073 C122.512819,95.3713238 121.250578,89.1932916 121.250578,89.1932916 C140.637184,60.6073326 148.74137,24.3201451 141.746116,15.4377955 C122.666493,-8.79005892 89.6401648,2.66674276 89.0875237,2.96419954 L88.9115838,2.99648448 C85.2840097,2.24848952 81.2242513,1.80157885 76.6636847,1.72830291 C68.3554523,1.5926336 62.0511826,3.89284509 57.2690485,7.49751337 C57.2690485,7.49751337 -1.64818621,-16.6247802 1.092753,37.8337516 C1.6756908,49.4186048 17.8022981,125.494626 37.0363252,102.51609 C44.0662557,94.113662 50.860018,87.0091608 50.860018,87.0091608 C54.2335378,89.2364591 58.27249,90.3725989 62.5085533,89.9645027 L62.8359767,89.6869973 C62.733406,90.7302725 62.7786685,91.7506944 62.9670191,92.9586591 C58.0129604,98.4605212 59.4686623,99.4265302 49.56237,101.452864 C39.5400011,103.505678 45.4281474,107.160406 49.2714486,108.115533 C53.9320308,109.273801 64.7136424,110.914529 72.0005474,100.779233 L71.710356,101.935687 C73.6540904,103.481011 73.522683,113.042796 73.7982735,119.874507 C74.074229,126.706581 74.5345199,133.081951 75.9358338,136.840789 C77.3371476,140.598901 78.9906906,150.280756 92.0098781,147.507879 C102.890775,145.190618 111.209958,141.855475 111.968106,110.831096" id="Path" stroke="#000000" stroke-width="14.0232375" fill="#000000" fill-rule="nonzero"></path>
            <path d="M140.874312,91.5974103 C122.513252,95.3609245 121.251025,89.1835527 121.251025,89.1835527 C140.637416,60.598836 148.741513,24.3148022 141.747797,15.4344903 C122.668384,-8.78932337 89.6409605,2.66697901 89.0897855,2.96440399 L88.9123875,2.99596006 C85.2848535,2.24768234 81.2251399,1.80190758 76.6624336,1.72791405 C68.354293,1.59262196 62.052283,3.89222484 57.2702018,7.49578236 C57.2702018,7.49578236 -1.64747725,-16.6228444 1.09270165,37.829503 C1.67563301,49.4138433 17.8016972,125.481732 37.0362419,102.505653 C44.0664598,94.1041226 50.8590519,87.0003809 50.8590519,87.0003809 C54.2328994,89.2274411 58.2718071,90.3634594 62.5059985,89.9554068 L62.8348784,89.6779311 C62.7326738,90.7210948 62.7793959,91.7414076 62.9666494,92.9492431 C58.0115503,98.4505171 59.4676011,99.4164229 49.5621483,101.44254 C39.5391601,103.495135 45.4272413,107.149472 49.2715951,108.104497 C53.9321258,109.262641 64.7143484,110.903193 71.9997128,100.768981 L71.7091597,101.925311 C73.6506824,103.47047 75.0140191,111.976462 74.7855188,119.687023 C74.5570184,127.397947 74.4044415,132.691749 75.9342257,136.826682 C77.4640099,140.961614 78.9886838,150.265213 92.0102826,147.492632 C102.89106,145.175619 108.52947,139.171261 109.31389,129.155656 C109.87054,122.03523 111.130212,123.087824 111.209786,116.721841 L112.220151,113.708056 C113.385284,104.05589 112.405215,100.941995 119.108743,102.39031 L120.737812,102.532494 C125.67174,102.755562 132.129247,101.743955 135.919213,99.9934999 C144.080252,96.2299857 148.920371,89.946339 140.873582,91.5974103 L140.874312,91.5974103 Z" id="Path" fill="#336791" fill-rule="nonzero"></path>
            <path d="M72.1675611,98 C71.6646672,115.905748 72.29392,133.936253 74.0531407,138.318309 C75.8134507,142.700364 79.5806158,151.223639 92.5349436,148.459813 C103.35751,146.14909 107.295332,141.677354 109.004082,131.807062 C110.262587,124.545101 112.688823,104.377088 113,100.244908" id="Path" stroke="#FFFFFF" stroke-width="4.6744125" stroke-linecap="round" stroke-linejoin="round"></path>
            <path d="M57,7.2567923 C57,7.2567923 -2.68068862,-16.7505493 0.0938254686,37.8438241 C0.683903909,49.4583793 17.0087916,125.727219 36.4787937,102.690121 C43.5937282,94.2655863 50.0284283,87.6582579 50.0284283,87.6582579" id="Path" stroke="#FFFFFF" stroke-width="4.6744125" stroke-linecap="round" stroke-linejoin="round"></path>
            <path d="M89.0855893,2.94305827 C87.0506704,3.57759184 121.786967,-9.68571631 141.527974,15.400983 C148.501147,24.2634587 140.420433,60.473137 121.090341,89" id="Path" stroke="#FFFFFF" stroke-width="4.6744125" stroke-linecap="round" stroke-linejoin="round"></path>
            <path d="M121.186915,89.6006966 C121.186915,89.6006966 122.453621,95.7896015 140.864228,92.0176245 C148.930741,90.3639561 144.076193,96.6582134 135.895125,100.429464 C129.180961,103.522463 114.127985,104.315149 113.882037,100.041113 C113.249233,89.0136297 121.804714,92.3638341 121.187281,89.6006966 C120.62914,87.1122017 116.803037,84.6698438 114.272187,78.5793888 C112.06268,73.2634551 83.96933,32.4971859 122.063105,38.5516759 C123.458641,38.2650448 112.127827,2.58584053 76.4774284,2.0056761 C40.8350821,1.42551167 42.0044336,45.5132858 42.0044336,45.5132858" id="Path" stroke="#FFFFFF" stroke-width="4.6744125" stroke-linecap="round" stroke-linejoin="bevel"></path>
            <path d="M62.0277853,93.0156345 C57.0505889,98.5032394 58.5143839,99.4668086 48.5654898,101.488748 C38.4992869,103.53674 44.4134881,107.181514 48.2733174,108.133867 C52.9539423,109.289933 63.7826531,110.926517 71.0994288,100.814286 C73.3275646,97.7354233 71.0862316,92.8227759 68.0255692,91.5704614 C66.5467439,90.9658335 64.5693559,90.2081489 62.0277853,93.0156345 L62.0277853,93.0156345 Z" id="Path" stroke="#FFFFFF" stroke-width="4.6744125" stroke-linecap="round" stroke-linejoin="round"></path>
            <path d="M61.8499591,93 C61.3535217,89.7944552 62.9132352,85.9799396 64.5847196,81.5172691 C67.096664,74.821466 72.8924258,68.1245843 68.2561067,46.8846597 C64.800278,31.0568106 41.6212227,43.5906812 41.606707,45.736818 C41.5925542,47.8822359 42.6551044,56.6148919 41.2195003,66.7840576 C39.3462474,80.0537979 49.7431277,91.2766198 61.7153258,90.1284186" id="Path" stroke="#FFFFFF" stroke-width="4.6744125" stroke-linecap="round" stroke-linejoin="round"></path>
            <path d="M57.0053613,44.9543558 C56.8992713,45.7034317 58.3804791,47.7023146 60.3118327,47.9693956 C62.239871,48.2375787 63.8901598,46.6755038 63.9947764,45.9271626 C64.0993929,45.1780866 62.6200268,44.3529643 60.6879365,44.0847811 C58.7587931,43.8162306 57.1077676,44.2071167 57.0057296,44.9543558 L57.0053613,44.9543558 Z" id="Path" stroke="#FFFFFF" stroke-width="1.558125" fill="#FFFFFF" fill-rule="nonzero"></path>
            <path d="M114.994778,42.9542421 C115.099362,43.703346 113.620459,45.7023034 111.689342,45.9693944 C109.760434,46.2375876 108.110662,44.6754543 108.004974,43.9270852 C107.902968,43.1779813 109.382239,42.3528281 111.311515,42.0846349 C113.24079,41.8164418 114.890194,42.2069751 114.994778,42.9546094 L114.994778,42.9542421 Z" id="Path" stroke="#FFFFFF" stroke-width="0.7790625" fill="#FFFFFF" fill-rule="nonzero"></path>
            <path d="M122.949582,39 C123.331681,44.7418089 121.424284,48.6527296 121.183867,54.7650241 C120.82789,63.6494986 126.407958,73.8184668 118,84" id="Path" stroke="#FFFFFF" stroke-width="4.6744125" stroke-linecap="round" stroke-linejoin="round"></path>
        </g>
    </g>
</svg>