<svg height="257" viewBox="0 0 257 257" width="257" xmlns="http://www.w3.org/2000/svg"><g fill="none" fill-rule="evenodd"><path d="m0 0h257v257h-257z" fill="#f8761f"/><path d="m180.964408 125.376786c-2.782696-4.763476-6.69693-8.58225-11.590577-11.457172-3.656988-2.118139-7.449009-3.46249-11.72219-4.039856v-15.1356422c4.273181-1.805223 6.925117-5.8008626 6.925117-10.4623003 0-6.3535686-5.12098-11.5022381-11.501694-11.5022381-6.385841 0-11.596558 5.1486695-11.596558 11.5022381 0 4.6614377 2.498956 8.6570773 6.772137 10.4623003v15.1424452c-3.418545.491483-6.963576 1.551828-10.200938 3.181036-6.61232-4.996463-28.294441-21.3880237-40.9780971-30.9617427.300832-1.0790523.5324384-2.1912669.5324384-3.3647044 0-7.0372235-5.7277719-12.7411499-12.8033051-12.7411499s-12.8007412 5.7039264-12.8007412 12.7411499c0 7.0363732 5.7311904 12.7420002 12.8067236 12.7420002 2.4134927 0 4.6458025-.7023618 6.5721525-1.8570923l2.6767206 2.0203532 36.7801243 26.366629c-1.944298 1.776313-3.755272 3.796666-5.20388 6.063611-2.935676 4.621473-4.729557 9.706369-4.729557 15.252986v1.157282c0 3.893601.743534 7.569522 2.010104 11.022659 1.115301 3.015224 2.745947 5.756646 4.765452 8.23532l-12.206769 12.174839c-1.082824-.397098-2.220345-.614779-3.407435-.614779-2.642535 0-5.12098 1.027183-6.990069 2.883425-1.870799 1.861344-2.895508 4.333215-2.895508 6.964096.000855 2.63003 1.030692 5.101902 2.900636 6.961545 1.869089 1.860494 4.353516 2.885976 6.997761 2.885976 2.644244 0 5.129526-1.025482 7.000325-2.885976 1.866526-1.859643 2.897217-4.332365 2.897217-6.961545 0-1.01783-.158108-2.011-.455521-2.954852l12.616994-12.55493c1.729784 1.188743 3.598019 2.189566 5.606414 3.052638 3.961239 1.704035 8.333557 2.742272 13.118666 2.742272h.876856c5.290199 0 10.280419-1.236361 14.971518-3.765204 4.943215-2.672546 8.812154-6.327208 11.735009-10.992898 2.93824-4.678444 4.556066-9.847521 4.556066-15.534441v-.284006c0-5.594235-1.301611-10.75566-4.035592-15.484272zm-15.415928 26.336868c-3.424527 3.786462-7.360982 6.118881-11.811073 6.118881h-.733278c-2.541688 0-5.027824-.69896-7.461828-1.970184-2.743383-1.399622-4.828695-3.396166-6.535403-5.924159-1.76397-2.481225-2.721162-5.190335-2.721162-8.062706v-.872425c0-2.823903.544403-5.501551 1.916949-8.030394 1.46741-2.76438 3.449312-4.913982 6.08501-6.623119 2.587838-1.697232 5.351732-2.529693 8.430131-2.529693h.286303c2.791242 0 5.433778.547604 7.927606 1.817128 2.540833 1.353704 4.616745 3.203144 6.226025 5.635901 1.563129 2.433607 2.492974 5.058536 2.792096 7.918152.047005.594371.070935 1.203198.070935 1.784815 0 3.880847-1.490485 7.475137-4.472311 10.737803z" fill="#fff"/></g></svg>