<svg height="360" viewBox="0 0 640 360" width="640" xmlns="http://www.w3.org/2000/svg"><g fill="none" fill-rule="evenodd"><path d="m0 0h640v360h-640z" fill="#f8761f"/><g fill="#fff" transform="translate(137 127)"><path d="m.04269006 19.6911007h12.70171544v28.2159194h26.7887232v-28.2159194h12.7180799v69.2613959h-12.7180799v-28.8085234h-26.7887232v28.8085234h-12.70171544z"/><path d="m92.4901462 66.3929933c0 5.7979866-4.7243665 10.5160537-10.5216764 10.5160537-5.7994445 0-10.5209649-4.7180671-10.5209649-10.5160537v-29.8194363h-12.0457115v29.8194363c0 12.4404161 10.1239473 22.5595033 22.5666764 22.5595033 12.439883 0 22.5631192-10.1190872 22.5631192-22.5595033v-29.8194363h-12.0414428z"/><path d="m138.158548 36.9228591c-5.975185 0-10.146004 1.7337047-14.173811 5.6870067v-22.9187651h-12.084844v42.474698c0 15.8985771 11.496433 26.7866979 24.41231 26.7866979 14.358801 0 26.939561-11.0823355 26.939561-26.0141073 0-14.742537-11.601023-26.0155302-25.093216-26.0155302zm.300253 40.8512617c-8.188665 0-14.450585-6.8380671-14.450585-14.8357315 0-7.9990873 6.26192-14.8392886 14.450585-14.8392886 6.938558 0 13.204035 6.8402013 13.204035 14.8392886 0 7.9976644-6.265477 14.8357315-13.204035 14.8357315z"/><path d="m183.548752 39.9669799c0-6.0740135 4.047729-7.9997987 8.478958-7.9997987 3.567465 0 8.288274 2.6976644 11.369074 5.9744161l7.899795-9.2490335c-3.948119-5.2985772-11.944678-8.9609128-18.497602-8.9609128-13.10656 0-22.550312 7.6120805-22.550312 20.2353289 0 23.4124832 28.813655 15.9910604 28.813655 29.0980671 0 4.0422282-3.949542 7.6106577-8.476111 7.6106577-7.133509 0-9.44731-3.4688322-12.722349-7.1311678l-8.770673 9.0555302c5.592398 6.8416242 12.528109 10.3118792 20.816384 10.3118792 12.429922 0 22.452125-7.7081208 22.452125-19.7537047 0-26.013396-28.812944-17.9189799-28.812944-29.1912617"/><path d="m244.17575 36.2441745c-12.914454 0-24.412309 10.8817181-24.412309 26.7838523v42.5842552h12.084132v-23.0276109c4.028519 3.9504564 8.197203 5.6870068 14.174523 5.6870068 13.491481 0 25.093927-11.2715705 25.093927-26.0141074 0-14.9339061-12.584317-26.013396-26.940273-26.013396zm2.14731 40.8526846c-8.187953 0-14.450584-6.8473155-14.450584-14.8392886 0-7.9990873 6.262631-14.8392886 14.450584-14.8392886 6.937135 0 13.203324 6.8402013 13.203324 14.8392886 0 7.9919731-6.266189 14.8392886-13.203324 14.8392886z"/><path d="m360.068587 77.7741208c-7.127817 0-9.151326-3.0818255-9.151326-7.8048725v-20.9068993h11.079493v-10.5971544h-11.079493v-13.9720805l-12.234259 5.4906577v42.5871007c0 10.8888322 7.51345 16.3816241 17.819542 16.3816241 1.541822 0 3.66423-.0995973 4.821842-.3848724l2.987593-10.9827383c-1.349006.0931946-2.890117.1892349-4.243392.1892349"/><path d="m328.199747 49.6784295c-2.316648-3.9853154-5.575322-7.180255-9.649377-9.5855302-3.044512-1.7721208-6.201442-2.896859-9.758947-3.379906v-12.6630873c3.557505-1.5103221 5.765292-4.8532349 5.765292-8.7531812 0-5.31565097-4.263313-9.62323487-9.57538-9.62323487-5.316335 0-9.654356 4.3075839-9.654356 9.62323487 0 3.8999463 2.080428 7.2428591 5.637933 8.7531812v12.6687786c-2.846004.4111946-5.79731 1.2983221-8.492475 2.6613825-5.504883-4.1802416-23.555663-17.8940805-34.115049-25.9038389.250448-.9027785.443265-1.833302.443265-2.815047 0-5.88762415-4.76848-10.65975838-10.658996-10.65975838-5.890517 0-10.656862 4.77213423-10.656862 10.65975838 0 5.8869128 4.771326 10.6604698 10.661842 10.6604698 2.009279 0 3.86772-.5876242 5.471443-1.5537181l2.228421 1.6903087 30.620156 22.0593826c-1.618665 1.4861342-3.126335 3.1764429-4.33233 5.0730604-2.444005 3.86651-3.937446 8.1207382-3.937446 12.7612617v.9682282c0 3.2575436.619006 6.3329664 1.67345 9.222.928509 2.5226577 2.286053 4.8162416 3.96733 6.89l-10.162369 10.1859597c-.901471-.3322282-1.848479-.514349-2.836754-.514349-2.199961 0-4.263314.8593826-5.819366 2.4123893-1.557476 1.5572752-2.410566 3.6253423-2.410566 5.8264429.000712 2.2003893.85807 4.2684566 2.414835 5.8243086 1.556052 1.556564 3.624386 2.414524 5.82577 2.414524s4.270428-.85796 5.827904-2.414524c1.553918-1.555852 2.411988-3.6246307 2.411988-5.8243086 0-.851557-.131627-1.6824832-.37923-2.4721476l10.503889-10.5039597c1.440078.9945503 2.995419 1.8318792 4.667447 2.5539597 3.297807 1.4256644 6.937846 2.2942953 10.92154 2.2942953h.73c4.404191 0 8.558645-1.0343893 12.464074-3.1501208 4.115321-2.2359597 7.336286-5.2935973 9.769619-9.1971007 2.446141-3.9141745 3.793012-8.2388322 3.793012-12.9967382v-.2376108c0-4.6803624-1.083616-8.9986174-3.359707-12.9547651zm-12.834055 22.0344833c-2.850984 3.167906-6.128158 5.119302-9.832943 5.119302h-.610468c-2.116004 0-4.185761-.5847786-6.212115-1.6483356-2.283918-1.1709799-4.019981-2.8413691-5.440848-4.9563893-1.468538-2.0758926-2.265419-4.3424429-2.265419-6.7455839v-.729906c0-2.3625906.453226-4.6028188 1.595896-6.7185503 1.221647-2.312792 2.871618-4.1112349 5.065887-5.5411678 2.154425-1.4199732 4.455419-2.116443 7.018246-2.116443h.238353c2.323762 0 4.523723.4581477 6.599883 1.5202819 2.115292 1.1325638 3.843528 2.6798792 5.183284 4.7152215 1.301336 2.0360537 2.075449 4.2321745 2.324474 6.6246443.039133.4972751.059055 1.0066443.059055 1.4932483 0 3.2468725-1.240858 6.254-3.723285 8.9836779z"/></g></g></svg>