<?xml version="1.0" encoding="UTF-8"?>
<svg width="257px" height="257px" viewBox="0 0 257 257" version="1.1" xmlns="http://www.w3.org/2000/svg" xmlns:xlink="http://www.w3.org/1999/xlink">
    <!-- Generator: Sketch 60.1 (88133) - https://sketch.com -->
    <title>copper/logo</title>
    <desc>Created with Sketch.</desc>
    <g id="copper/logo" stroke="none" stroke-width="1" fill="none" fill-rule="evenodd">
        <rect fill="#3D3F40" x="0" y="0" width="257" height="257"></rect>
        <g id="download" transform="translate(53.000000, 53.000000)">
            <circle id="Oval" fill="#FF3465" fill-rule="nonzero" cx="76" cy="76" r="76"></circle>
            <path d="M59.1842536,116.911627 C54.0052379,114.931822 49.285578,111.91907 45.3139356,108.057634 C41.4088089,104.222172 38.3292242,99.6324219 36.2635531,94.5691302 C34.0323948,89.0790928 32.9241696,83.1995585 33.0040283,77.2761762 C32.9692198,65.0927476 37.9897058,53.4378569 46.8743464,45.0766959 C51.2151448,40.9582886 56.2977993,37.6959849 61.8542898,35.4618135 C67.762567,33.1051477 74.0777233,31.930001 80.4405159,32.0032227 C85.1468598,31.9685417 89.8287829,32.6806842 94.3108339,34.1129631 C98.3845636,35.373939 102.209006,37.3280074 105.615143,39.8888098 C108.736754,42.2528461 111.324232,45.2460687 113.209142,48.6736304 C115.031048,51.9798141 115.985305,55.6917689 115.983206,59.4644336 C116.09702,63.4004613 114.63751,67.2201882 111.926138,70.0823074 C109.373129,72.8570115 105.749371,74.4060246 101.974185,74.336374 C98.1565517,74.4379488 94.4755114,72.9165402 91.8488525,70.1514792 C88.4614068,66.3174925 87.1665934,61.0741773 88.381273,56.1096006 C88.6586794,55.0028515 89.0747889,53.3773138 89.6296016,51.2675735 C90.1844143,49.1578331 90.5658481,47.8089827 90.7392271,46.9789209 C90.9131158,45.9622822 90.9943576,44.9320277 90.9819576,43.9007751 C91.0872644,41.2316252 90.0541168,38.6428847 88.1385424,36.776078 C86.2146708,34.9311268 83.6284591,33.9342156 80.9606529,34.0092054 C78.4413697,34.0463289 76.004328,34.9092361 74.0254939,36.4648049 C71.7011234,38.2505218 69.7760239,40.5004657 68.3733393,43.0707133 C66.6285163,46.2068015 65.3329138,49.5712925 64.524326,53.0660407 C63.5721474,57.1005175 63.1065055,61.2339875 63.1372942,65.3786239 C62.6631907,74.119871 65.4138436,82.7318254 70.8699965,89.5887594 C76.0886478,95.5650218 83.7349369,98.8698247 91.6754735,98.5810955 C96.3187466,98.6350192 100.919249,97.691353 105.164358,95.8142229 C109.599672,93.7042554 113.598761,90.7831027 116.954128,87.2023318 L119,88.2053231 C109.429481,109.418013 95.316432,120.01283 76.6608543,119.989773 C70.6893529,120.116149 64.7512015,119.070266 59.1842536,116.911627 Z" id="Fill-4" fill="#FFFFFF"></path>
        </g>
    </g>
</svg>