<?xml version="1.0" encoding="UTF-8"?>
<svg width="640px" height="360px" viewBox="0 0 640 360" version="1.1" xmlns="http://www.w3.org/2000/svg" xmlns:xlink="http://www.w3.org/1999/xlink">
    <!-- Generator: Sketch 60.1 (88133) - https://sketch.com -->
    <title>copper/picture</title>
    <desc>Created with Sketch.</desc>
    <g id="copper/picture" stroke="none" stroke-width="1" fill="none" fill-rule="evenodd">
        <rect id="Rectangle" fill="#3D3F40" x="0" y="0" width="640" height="360"></rect>
        <g id="logo" transform="translate(119.000000, 145.000000)" fill-rule="nonzero">
            <path d="M64.8248296,58 C60.7820079,58 57.0692427,57.3131269 53.6842941,55.9416229 C50.3000923,54.5693718 47.3661716,52.6544983 44.8855188,50.1984972 C42.4018793,47.7424963 40.4678362,44.8335627 39.0804029,41.4739389 C37.6937168,38.1143148 37,34.413123 37,30.3666261 C37,26.2491247 37.7751107,22.4014397 39.3275721,18.8258133 C40.879287,15.2494394 43.0261495,12.1439361 45.7696527,9.50631365 C48.5116626,6.87018607 51.7248623,4.7931238 55.4055177,3.27512685 C59.0869199,1.75787734 63.0550684,1 67.31519,1 C70.4903061,1 73.4682843,1.45143779 76.2476309,2.35356595 C79.0247373,3.25793635 81.4441578,4.50462215 83.5006653,6.09287597 C85.5579194,7.68187718 87.1828143,9.57881278 88.3731094,11.7814405 C89.5641512,13.9870579 90.1592989,16.3159986 90.1592989,18.7712521 C90.1592989,21.5179969 89.2938335,23.8103143 87.5621556,25.6526887 C85.8289843,27.4958105 83.6992966,28.4158766 81.17384,28.4158766 C78.5744562,28.4158766 76.4096723,27.5137484 74.6779944,25.7072499 C72.9448231,23.9014987 72.0793577,21.6263719 72.0793577,18.8796271 C72.0793577,18.0866213 72.168219,17.3272491 72.3496754,16.6045002 C72.528892,15.8824987 72.7999566,14.8346249 73.1606295,13.4608788 C73.5220491,12.2343731 73.7572706,11.3128122 73.8655472,10.6984383 C73.9730767,10.0855592 74.0275886,9.41662403 74.0275886,8.69312773 C74.0275886,6.81562487 73.4167594,5.27969002 72.199582,4.0883128 C70.9801641,2.8961882 69.443384,2.29975217 67.5922285,2.29975217 C65.9531457,2.29975217 64.4387679,2.82667873 63.0520814,3.87679476 C61.6631548,4.92616342 60.4519511,6.35746037 59.4199637,8.16694856 C58.3864829,9.97942644 57.5673149,12.1319775 56.9617129,14.6320758 C56.3568577,17.1314267 56.0544304,19.7929664 56.0544304,22.6166948 C56.0544304,29.2088825 57.7144216,34.4422722 61.0351508,38.3168639 C64.3543869,42.1922031 68.8310614,44.1287518 74.4606946,44.1287518 C77.6365575,44.1287518 80.523434,43.5330631 83.1228175,42.3416859 C85.7199608,41.1495615 88.2461645,39.2899963 90.7014283,36.7607489 L92,37.4102512 C85.8640808,51.1379961 76.8054418,58 64.8248296,58" id="Fill-1" fill="#FFFFFF"></path>
            <path d="M133.634563,17.3152905 C133.305449,13.761339 132.847388,10.8965029 132.26038,8.71928718 C131.673372,6.68856456 130.758,5.11152196 129.511264,3.98666456 C128.263779,2.86255457 126.759149,2.30049958 125.000375,2.30049958 C123.165132,2.30049958 121.608024,2.86255457 120.324554,3.98666456 C119.041083,5.11152196 118.142204,6.68856456 117.628666,8.71928718 C117.040908,11.0407537 116.602339,13.9594036 116.30996,17.4774792 C116.016081,20.9963022 115.869891,25.0031863 115.869891,29.5003737 C115.869891,33.9975609 116.016081,38.0231305 116.30996,41.577082 C116.602339,45.1310332 117.040908,48.0324927 117.628666,50.2814602 C118.142204,52.3121827 119.041083,53.8892252 120.324554,55.0140826 C121.608024,56.1374454 123.165132,56.7002476 125.000375,56.7002476 C126.759149,56.7002476 128.281022,56.1374454 129.565992,55.0140826 C130.847213,53.8892252 131.746092,52.3121827 132.26038,50.2814602 C133.507116,45.5667753 134.130858,38.6404941 134.130858,29.5003737 C134.130858,24.932182 133.964427,20.8692419 133.634563,17.3152905 M152.666962,40.7698753 C151.111354,44.237874 148.996476,47.2551825 146.32008,49.818811 C143.642935,52.3831871 140.47924,54.389245 136.825997,55.8332479 C133.172754,57.2772509 129.248872,58 125.055102,58 C120.785613,58 116.824997,57.2772509 113.173254,55.8332479 C109.520011,54.389245 106.354816,52.3831871 103.67917,49.818811 C101.002024,47.2551825 98.8878964,44.237874 97.332288,40.7698753 C95.7759301,37.3026239 95,33.5468706 95,29.5003737 C95,25.4546241 95.7759301,21.6973761 97.332288,18.2301247 C98.8878964,14.7621258 101.002024,11.7463121 103.67917,9.18118877 C106.354816,6.61756028 109.520011,4.61299711 113.173254,3.16675191 C116.824997,1.72274891 120.785613,1 125.055102,1 C129.248872,1 133.172754,1.72274891 136.825997,3.16675191 C140.47924,4.61299711 143.642935,6.61756028 146.32008,9.18118877 C148.996476,11.7463121 151.111354,14.7621258 152.666962,18.2301247 C154.222571,21.6973761 155,25.4546241 155,29.5003737 C155,33.5468706 154.222571,37.3026239 152.666962,40.7698753" id="Fill-3" fill="#FFFFFF"></path>
            <path d="M381,9.5 C381,14.7466688 385.253332,19 390.5,19 C395.746668,19 400,14.7466688 400,9.5 C400,4.25333123 395.746668,0 390.5,0 C385.253332,0 381,4.25333123 381,9.5" id="Fill-5" fill="#FFFFFF"></path>
            <path d="M0,15.5 C0,20.7466688 4.25333124,25 9.5,25 C14.7466688,25 19,20.7466688 19,15.5 C19,10.2533312 14.7466688,6 9.5,6 C4.25333124,6 0,10.2533312 0,15.5" id="Fill-5-Copy" fill="#FF3465"></path>
            <path d="M0,44.5 C0,49.7466688 4.25333124,54 9.5,54 C14.7466688,54 19,49.7466688 19,44.5 C19,39.2533312 14.7466688,35 9.5,35 C4.25333124,35 0,39.2533312 0,44.5" id="Fill-5-Copy-2" fill="#FF3465"></path>
            <path d="M195.956639,48.3921529 C194.069599,52.6594587 191.42133,54.7912419 188.011089,54.7912419 C186.052474,54.7912419 184.275033,53.996872 182.678765,52.4051407 L182.678765,9.67523462 C184.275033,8.66394669 185.508207,7.97803617 186.37978,7.61525909 C187.249861,7.25397798 188.119197,7.07296343 188.991515,7.07296343 C192.037918,7.07296343 194.4312,9.15238679 196.172108,13.3082415 C197.914508,17.4670883 198.785335,23.1967224 198.785335,30.4986401 C198.785335,38.1633346 197.841442,44.1270909 195.956639,48.3921529 M217.536444,16.3458453 C216.559746,13.2012784 215.18715,10.4890521 213.417165,8.2114103 C211.644942,5.93451654 209.529758,4.16326669 207.073101,2.89766083 C204.614208,1.63280294 201.905549,1 198.943396,1 C196.194475,1 193.538006,1.54154767 190.971751,2.62613899 C188.406987,3.71147832 185.641664,5.51937984 182.678765,8.0490956 L182.678765,3.46239629 L182.678765,1 L156,8.97062423 L156,9.46953625 L156,10.5825513 C157.150416,10.752346 158.105492,10.997688 158.843608,11.3283014 C159.887407,11.7950496 160.805205,12.5348157 161.599238,13.5438597 C162.032415,14.121311 162.373886,14.7346661 162.626635,15.383177 C162.877892,16.0324358 163.076214,16.7901537 163.220855,17.6540868 C163.36475,18.5195159 163.472858,19.5457637 163.545178,20.7365701 C163.616007,21.9258806 163.653286,23.3141575 163.653286,24.8991568 L163.653286,59.1797226 L163.653286,63.6123353 C163.653286,64.8382973 163.635392,65.8480894 163.599605,66.6409629 C163.562326,67.4338365 163.508645,68.118251 163.437816,68.6964506 C163.36475,69.2709099 163.256642,69.8491092 163.112747,70.4273085 C162.897277,71.7961378 162.427567,72.8777369 161.707346,73.6706108 C160.914058,74.6804026 159.978367,75.3827691 158.897289,75.7799538 C158.397756,75.9632123 157.744636,76.125527 156.95284,76.2706378 L156.95284,78 L189.368028,78 L189.368028,76.4486604 C188.399531,76.3252416 187.598788,76.1786347 187.003077,76.00136 C185.921253,75.6774788 185.057137,75.125459 184.409236,74.3393174 C184.047634,73.9107167 183.759843,73.4469606 183.544373,72.9465525 C183.327412,72.4446484 183.14773,71.8021216 183.003834,71.0167279 C182.857702,70.2298382 182.768979,69.2828779 182.733192,68.1765947 C182.695913,67.0658234 182.678765,65.6917585 182.678765,64.0484158 L182.678765,54.1397389 C184.556859,55.5878554 186.2754,56.5991431 187.828424,57.1773427 C189.382939,57.7547941 191.206606,58.0442676 193.304643,58.0442676 C196.917679,58.0442676 200.278713,57.2484019 203.386998,55.6589149 C206.494538,54.0686796 209.205434,51.8628452 211.519686,49.0429077 C213.832448,46.2237183 215.65686,42.9153407 216.993668,39.1200192 C218.331968,35.3239496 219,31.2219502 219,26.8117775 C219,22.9790562 218.512396,19.4904121 217.536444,16.3458453" id="Fill-8" fill="#FFFFFF"></path>
            <path d="M262.956638,48.3921529 C261.069598,52.6594587 258.42133,54.7912419 255.011089,54.7912419 C253.052474,54.7912419 251.275033,53.996872 249.678765,52.4051407 L249.678765,9.67523462 C251.275033,8.66394669 252.508207,7.97803617 253.37978,7.61525909 C254.249861,7.25397798 255.119197,7.07296343 255.991515,7.07296343 C259.037918,7.07296343 261.4312,9.15238679 263.172109,13.3082415 C264.914508,17.4670883 265.785335,23.1967224 265.785335,30.4986401 C265.785335,38.1633346 264.841442,44.1270909 262.956638,48.3921529 M284.536444,16.3458453 C283.559746,13.2012784 282.18715,10.4890521 280.417165,8.2114103 C278.644943,5.93451654 276.529758,4.16326669 274.073102,2.89766083 C271.614209,1.63280294 268.905549,1 265.94265,1 C263.194476,1 260.538006,1.54154767 257.971751,2.62613899 C255.406987,3.71147832 252.641664,5.51937984 249.678765,8.0490956 L249.678765,3.46239629 L249.678765,1 L223,8.97062423 L223,9.46953625 L223,10.5825513 C224.150416,10.752346 225.105492,10.997688 225.843608,11.3283014 C226.887407,11.7950496 227.805205,12.5348157 228.599238,13.5438597 C229.032415,14.121311 229.373886,14.7346661 229.626635,15.383177 C229.877892,16.0324358 230.076214,16.7901537 230.220855,17.6540868 C230.36475,18.5195159 230.472858,19.5457637 230.545178,20.7365701 C230.616007,21.9258806 230.653286,23.3141575 230.653286,24.8991568 L230.653286,59.1797226 L230.653286,63.6123353 C230.653286,64.8382973 230.635392,65.8480894 230.599605,66.6409629 C230.562326,67.4338365 230.508645,68.118251 230.437816,68.6964506 C230.36475,69.2709099 230.256642,69.8491092 230.112747,70.4273085 C229.897277,71.7961378 229.427567,72.8777369 228.707346,73.6706108 C227.914058,74.6804026 226.978366,75.3827691 225.897289,75.7799538 C225.397756,75.9632123 224.744636,76.125527 223.95284,76.2706378 L223.95284,78 L256.368028,78 L256.368028,76.4486604 C255.399531,76.3252416 254.598788,76.1786347 254.003077,76.00136 C252.921254,75.6774788 252.057137,75.125459 251.409236,74.3393174 C251.047634,73.9107167 250.759843,73.4469606 250.544373,72.9465525 C250.327412,72.4446484 250.14773,71.8021216 250.003834,71.0167279 C249.857702,70.2298382 249.76898,69.2828779 249.733192,68.1765947 C249.695914,67.0658234 249.678765,65.6917585 249.678765,64.0484158 L249.678765,54.1397389 C251.556859,55.5878554 253.2754,56.5991431 254.829169,57.1773427 C256.382939,57.7547941 258.206606,58.0442676 260.304643,58.0442676 C263.917679,58.0442676 267.278713,57.2484019 270.386999,55.6589149 C273.494538,54.0686796 276.205434,51.8628452 278.519687,49.0429077 C280.831702,46.2237183 282.65686,42.9153407 283.993669,39.1200192 C285.331968,35.3239496 286,31.2219502 286,26.8117775 C286,22.9790562 285.512397,19.4904121 284.536444,16.3458453" id="Fill-10" fill="#FFFFFF"></path>
            <path d="M380.307781,54.99193 C379.287842,54.6668856 378.487105,54.1076286 377.90482,53.3134089 C377.53948,52.8817679 377.267546,52.4140941 377.086007,51.9081355 C376.903714,51.4029275 376.740251,50.772356 376.594869,50.0141689 C376.448733,49.2567326 376.357586,48.3011164 376.321429,47.1488224 C376.283764,45.9950267 376.267191,44.5867505 376.267191,42.927747 L376.267191,35.9261516 L376.267191,29.4057427 L376.267191,1 L349,9.09383504 L349,10.7250633 C350.30694,10.8939664 351.372829,11.1574552 352.184863,11.5185324 C353.238702,11.9877076 354.168248,12.7293797 354.969737,13.7397954 C355.406637,14.3170686 355.751639,14.9326264 356.007,15.5827156 C356.26161,16.2343061 356.461227,16.9924932 356.608872,17.8595289 C356.752748,18.7273153 356.861973,19.7572487 356.935795,20.9500797 C357.007355,22.1421601 357.044266,23.5331706 357.044266,25.1231115 L357.044266,42.9022238 C357.044266,46.2998029 356.935795,48.7027306 356.716591,50.1110069 C356.498892,51.5207845 356.098147,52.5867504 355.515862,53.3089047 C354.860509,54.1053766 354.022863,54.6646334 353.003679,54.9896781 C352.268479,55.224641 351.240252,55.4108096 349.940091,55.5504362 L349.940091,57 L383,57 L383,55.5046448 C381.881381,55.3702729 380.967653,55.2021205 380.307781,54.99193" id="Fill-12" fill="#FFFFFF"></path>
            <path d="M319.648813,2.29975217 C321.837784,2.29975217 323.513654,3.19515362 324.681708,4.98371427 C325.8475,6.77078008 326.577157,9.63785849 326.86917,13.580465 C326.940854,14.3114354 326.996689,14.968412 327.032907,15.5513945 C327.069881,16.1351245 327.104591,16.7726683 327.143073,17.4677629 C327.178539,18.1621101 327.198156,18.9461469 327.198156,19.8213682 L327.198156,21.884977 L310.366251,21.884977 C310.450008,15.7225523 311.222674,10.9518115 312.701605,7.61087291 C314.269576,4.07112231 316.58531,2.29975217 319.648813,2.29975217 Z M346.014549,35.0260022 C344.921196,36.6897448 344.008181,37.9349358 343.280032,38.7645649 C342.550376,39.5964362 341.56568,40.4088748 340.325943,41.2026279 C337.1153,43.4433738 333.214996,44.5622517 328.620496,44.5622517 C316.514382,44.5622517 310.422842,37.8093703 310.34965,24.3043547 L344.729536,24.3043547 L344.729536,24.2983754 L346.5616,24.2983754 C346.123959,20.7593722 345.156617,17.5439991 343.662593,14.6530035 C342.167062,11.7649975 340.251995,9.3075017 337.918904,7.28425318 C335.58355,5.26249951 332.886763,3.70862672 329.82326,2.62487707 C326.75976,1.54038 323.404999,1 319.758224,1 C315.601367,1 311.716909,1.75787735 308.106352,3.27512688 C304.49655,4.7923764 301.340993,6.87018608 298.644206,9.50556627 C295.945155,12.1431887 293.830132,15.2322489 292.298382,18.7712521 C290.76663,22.3117502 290,26.104874 290,30.1498761 C290,34.1238741 290.728902,37.8078754 292.188969,41.2026279 C293.646775,44.5996226 295.672007,47.542937 298.260892,50.0348138 C300.849022,52.5274379 303.911769,54.4781874 307.450643,55.8863145 C310.988005,57.2951891 314.798519,58 318.883691,58 C323.185423,58 327.124212,57.1875617 330.698548,55.561937 C334.271376,53.9355652 337.334876,51.6066244 339.888298,48.5721254 C340.690392,47.5608751 341.401187,46.6213762 342.02143,45.7543765 C342.640169,44.8881241 343.20684,43.9845011 343.716921,43.0457498 C344.227757,42.1069982 344.737838,41.0404392 345.248671,39.849062 C345.757999,38.65619 346.343535,37.1935016 347,35.4595022 L346.014549,35.0260022 Z" id="Fill-14" fill="#FFFFFF"></path>
        </g>
    </g>
</svg>