<svg height="360" viewBox="0 0 640 360" width="640" xmlns="http://www.w3.org/2000/svg"><g fill="none" fill-rule="evenodd"><path d="m0 0h640v360h-640z" fill="#02363d"/><g fill="#fff" fill-rule="nonzero" transform="translate(204 98)"><path d="m111 25v72h-60z"/><path d="m111 0c0 16.5685425-13.4314575 30-30 30s-30-13.4314575-30-30z"/><path d="m121 98c0-16.5685425 13.431458-30 30-30s30 13.4314575 30 30z"/><path d="m121 72v-72h60z"/><path d="m154.042482 158.962552c3.00263.068092 5.910058-1.07051 8.088489-3.167601l4.009892 4.390295c-2.648278 2.762148-6.320889 4.814754-12.029676 4.814754-9.787384 0-16.108272-6.582275-16.108272-15.495905-.080151-4.124801 1.495709-8.105558 4.365951-11.028766 2.870241-2.923208 6.788422-4.537878 10.855398-4.473474 9.718679 0 15.227595 7.50088 14.746658 17.903282h-22.972558c.811972 4.320608 3.803776 7.076421 9.037872 7.076421zm6.99545-12.017878c-.624594-4.035524-2.991804-7.006734-7.751209-7.006734-4.415877 0-7.495124 2.534081-8.288359 7.006734z"/><path d="m0 159.120026 17.6048792-18.361354h-17.18823246v-5.758672h25.34704616v5.879974l-17.60487922 18.35497h17.84118632v5.765056h-26z"/><path d="m46.0424818 158.962552c3.0026299.068092 5.9100578-1.07051 8.088489-3.167601l4.0098918 4.390295c-2.6482775 2.762148-6.3208887 4.814754-12.0296755 4.814754-9.7873839 0-16.1082725-6.582275-16.1082725-15.495905-.0801503-4.124801 1.4957096-8.105558 4.3659512-11.028766s6.7884226-4.537878 10.8553982-4.473474c9.7186786 0 15.2275954 7.50088 14.7466582 17.903282h-22.9725577c.8119718 4.320608 3.8037758 7.076421 9.0378714 7.076421zm6.9954499-12.017878c-.6245937-4.035524-2.991804-7.006734-7.7512083-7.006734-4.4158777 0-7.4951249 2.534081-8.2883589 7.006734z"/><path d="m100 150.190833c0-9.706551 7.067194-15.815207 14.845514-15.815207 3.781085-.051742 7.390932 1.618253 9.861348 4.562079v-17.937705h6.293138v44.397761h-6.293138v-4.1997c-2.424774 3.066922-6.074225 4.833698-9.917987 4.801507-7.551766 0-14.788875-6.141011-14.788875-15.808735m25.059277-.05824c-.138156-5.297006-4.402382-9.489643-9.554788-9.39438-5.152406.095264-9.267294 4.442823-9.220169 9.741512.047125 5.29869 4.238649 9.568139 9.391888 9.566492 5.405806 0 9.383069-4.439129 9.383069-9.913624"/><path d="m173 158.098261 5.926038-2.975792c1.596681 2.755304 4.638868 4.427593 7.901383 4.343389 3.702139 0 5.618617-1.842458 5.618617-3.925511 0-2.380633-3.577862-2.918808-7.469686-3.691248-5.232704-1.070018-10.681258-2.741527-10.681258-8.864059 0-4.704282 4.624403-9.047671 11.910944-8.984356 5.736352 0 10.001006 2.203352 12.427673 5.767969l-5.49434 2.918808c-1.543172-2.212479-4.15791-3.495951-6.913711-3.393668-3.518993 0-5.311195 1.665177-5.311195 3.57095 0 2.140037 2.838743 2.735195 7.286541 3.691247 5.062642 1.070018 10.798994 2.678212 10.798994 8.864059 0 4.102792-3.702138 9.636498-12.466918 9.579514-6.416604 0-10.923271-2.50093-13.52-6.901302"/><path d="m215.441203 151.622358-5.060164 5.547297v7.830345h-6.381039v-44h6.381039v28.813876l13.546946-14.948842h7.772106l-11.747493 12.896663 12.047402 17.238303h-7.223336z"/><path d="m81.0128264 134c-7.6252863 0-14.0128264 4.824781-14.0128264 12.822278v17.177722h6.5350435v-16.382979c0-4.824781 2.8410445-7.709637 7.6958314-7.709637 4.854787 0 7.2661475 2.884856 7.2661475 7.709637v16.382979h6.5029776v-17.177722c0-7.997497-6.4131929-12.822278-14.0128264-12.822278"/></g></g></svg>