<svg xmlns="http://www.w3.org/2000/svg" xmlns:xlink="http://www.w3.org/1999/xlink" width="257" height="257" viewBox="0 0 257 257"><defs><circle id="logo-a" cx="128.5" cy="128.5" r="124.5"/><filter id="logo-c" width="146.2%" height="106.2%" x="-23.1%" y="-3.1%" filterUnits="objectBoundingBox"><feGaussianBlur in="SourceGraphic" stdDeviation="2"/></filter><linearGradient id="logo-f" x1="50%" x2="50%" y1="0%" y2="100%"><stop offset="0%" stop-color="#FFF"/><stop offset="100%" stop-color="#DCDCDC"/></linearGradient><circle id="logo-e" cx="15" cy="99" r="6"/><filter id="logo-d" width="133.3%" height="133.3%" x="-16.7%" y="-8.3%" filterUnits="objectBoundingBox"><feOffset dy="1" in="SourceAlpha" result="shadowOffsetOuter1"/><feGaussianBlur in="shadowOffsetOuter1" result="shadowBlurOuter1" stdDeviation=".5"/><feColorMatrix in="shadowBlurOuter1" values="0 0 0 0 0.261559311 0 0 0 0 0 0 0 0 0 0 0 0 0 0.495442708 0"/></filter><filter id="logo-g" width="133.3%" height="133.3%" x="-16.7%" y="-8.3%" filterUnits="objectBoundingBox"><feGaussianBlur in="SourceAlpha" result="shadowBlurInner1" stdDeviation=".5"/><feOffset dy="1" in="shadowBlurInner1" result="shadowOffsetInner1"/><feComposite in="shadowOffsetInner1" in2="SourceAlpha" k2="-1" k3="1" operator="arithmetic" result="shadowInnerInner1"/><feColorMatrix in="shadowInnerInner1" values="0 0 0 0 1 0 0 0 0 1 0 0 0 0 1 0 0 0 0.5 0"/></filter><circle id="logo-i" cx="25" cy="129" r="6"/><filter id="logo-h" width="133.3%" height="133.3%" x="-16.7%" y="-8.3%" filterUnits="objectBoundingBox"><feOffset dy="1" in="SourceAlpha" result="shadowOffsetOuter1"/><feGaussianBlur in="shadowOffsetOuter1" result="shadowBlurOuter1" stdDeviation=".5"/><feColorMatrix in="shadowBlurOuter1" values="0 0 0 0 1 0 0 0 0 1 0 0 0 0 1 0 0 0 0.1 0"/></filter><filter id="logo-j" width="158.3%" height="158.3%" x="-29.2%" y="-20.8%" filterUnits="objectBoundingBox"><feGaussianBlur in="SourceAlpha" result="shadowBlurInner1" stdDeviation="2"/><feOffset dy="1" in="shadowBlurInner1" result="shadowOffsetInner1"/><feComposite in="shadowOffsetInner1" in2="SourceAlpha" k2="-1" k3="1" operator="arithmetic" result="shadowInnerInner1"/><feColorMatrix in="shadowInnerInner1" values="0 0 0 0 0.00365273109 0 0 0 0 0.136326565 0 0 0 0 0.256085247 0 0 0 0.656929348 0"/></filter><circle id="logo-l" cx="129" cy="233" r="6"/><filter id="logo-k" width="133.3%" height="133.3%" x="-16.7%" y="-8.3%" filterUnits="objectBoundingBox"><feOffset dy="1" in="SourceAlpha" result="shadowOffsetOuter1"/><feGaussianBlur in="shadowOffsetOuter1" result="shadowBlurOuter1" stdDeviation=".5"/><feColorMatrix in="shadowBlurOuter1" values="0 0 0 0 1 0 0 0 0 1 0 0 0 0 1 0 0 0 0.1 0"/></filter><filter id="logo-m" width="158.3%" height="158.3%" x="-29.2%" y="-20.8%" filterUnits="objectBoundingBox"><feGaussianBlur in="SourceAlpha" result="shadowBlurInner1" stdDeviation="2"/><feOffset dy="1" in="shadowBlurInner1" result="shadowOffsetInner1"/><feComposite in="shadowOffsetInner1" in2="SourceAlpha" k2="-1" k3="1" operator="arithmetic" result="shadowInnerInner1"/><feColorMatrix in="shadowInnerInner1" values="0 0 0 0 0.00365273109 0 0 0 0 0.136326565 0 0 0 0 0.256085247 0 0 0 0.656929348 0"/></filter><circle id="logo-o" cx="233" cy="129" r="6"/><filter id="logo-n" width="133.3%" height="133.3%" x="-16.7%" y="-8.3%" filterUnits="objectBoundingBox"><feOffset dy="1" in="SourceAlpha" result="shadowOffsetOuter1"/><feGaussianBlur in="shadowOffsetOuter1" result="shadowBlurOuter1" stdDeviation=".5"/><feColorMatrix in="shadowBlurOuter1" values="0 0 0 0 1 0 0 0 0 1 0 0 0 0 1 0 0 0 0.1 0"/></filter><filter id="logo-p" width="158.3%" height="158.3%" x="-29.2%" y="-20.8%" filterUnits="objectBoundingBox"><feGaussianBlur in="SourceAlpha" result="shadowBlurInner1" stdDeviation="2"/><feOffset dy="1" in="shadowBlurInner1" result="shadowOffsetInner1"/><feComposite in="shadowOffsetInner1" in2="SourceAlpha" k2="-1" k3="1" operator="arithmetic" result="shadowInnerInner1"/><feColorMatrix in="shadowInnerInner1" values="0 0 0 0 0.00365273109 0 0 0 0 0.136326565 0 0 0 0 0.256085247 0 0 0 0.656929348 0"/></filter><circle id="logo-r" cx="129" cy="24" r="6"/><filter id="logo-q" width="133.3%" height="133.3%" x="-16.7%" y="-8.3%" filterUnits="objectBoundingBox"><feOffset dy="1" in="SourceAlpha" result="shadowOffsetOuter1"/><feGaussianBlur in="shadowOffsetOuter1" result="shadowBlurOuter1" stdDeviation=".5"/><feColorMatrix in="shadowBlurOuter1" values="0 0 0 0 1 0 0 0 0 1 0 0 0 0 1 0 0 0 0.1 0"/></filter><filter id="logo-s" width="158.3%" height="158.3%" x="-29.2%" y="-20.8%" filterUnits="objectBoundingBox"><feGaussianBlur in="SourceAlpha" result="shadowBlurInner1" stdDeviation="2"/><feOffset dy="1" in="shadowBlurInner1" result="shadowOffsetInner1"/><feComposite in="shadowOffsetInner1" in2="SourceAlpha" k2="-1" k3="1" operator="arithmetic" result="shadowInnerInner1"/><feColorMatrix in="shadowInnerInner1" values="0 0 0 0 0.00365273109 0 0 0 0 0.136326565 0 0 0 0 0.256085247 0 0 0 0.656929348 0"/></filter><circle id="logo-u" cx="129" cy="24" r="3"/><filter id="logo-t" width="166.7%" height="166.7%" x="-33.3%" y="-16.7%" filterUnits="objectBoundingBox"><feOffset dy="1" in="SourceAlpha" result="shadowOffsetOuter1"/><feGaussianBlur in="shadowOffsetOuter1" result="shadowBlurOuter1" stdDeviation=".5"/><feColorMatrix in="shadowBlurOuter1" values="0 0 0 0 0.0235294118 0 0 0 0 0.28627451 0 0 0 0 0.537254902 0 0 0 1 0"/></filter><circle id="logo-w" cx="233" cy="129" r="3"/><filter id="logo-v" width="166.7%" height="166.7%" x="-33.3%" y="-16.7%" filterUnits="objectBoundingBox"><feOffset dy="1" in="SourceAlpha" result="shadowOffsetOuter1"/><feGaussianBlur in="shadowOffsetOuter1" result="shadowBlurOuter1" stdDeviation=".5"/><feColorMatrix in="shadowBlurOuter1" values="0 0 0 0 0.0235294118 0 0 0 0 0.28627451 0 0 0 0 0.537254902 0 0 0 1 0"/></filter><circle id="logo-y" cx="25" cy="129" r="3"/><filter id="logo-x" width="166.7%" height="166.7%" x="-33.3%" y="-16.7%" filterUnits="objectBoundingBox"><feOffset dy="1" in="SourceAlpha" result="shadowOffsetOuter1"/><feGaussianBlur in="shadowOffsetOuter1" result="shadowBlurOuter1" stdDeviation=".5"/><feColorMatrix in="shadowBlurOuter1" values="0 0 0 0 0.0235294118 0 0 0 0 0.28627451 0 0 0 0 0.537254902 0 0 0 1 0"/></filter><circle id="logo-A" cx="129" cy="233" r="3"/><filter id="logo-z" width="166.7%" height="166.7%" x="-33.3%" y="-16.7%" filterUnits="objectBoundingBox"><feOffset dy="1" in="SourceAlpha" result="shadowOffsetOuter1"/><feGaussianBlur in="shadowOffsetOuter1" result="shadowBlurOuter1" stdDeviation=".5"/><feColorMatrix in="shadowBlurOuter1" values="0 0 0 0 0.0235294118 0 0 0 0 0.28627451 0 0 0 0 0.537254902 0 0 0 1 0"/></filter></defs><g fill="none" fill-rule="evenodd"><circle cx="128" cy="128" r="125" fill="#FFF" transform="translate(.5 .5)"/><mask id="logo-b" fill="#fff"><use xlink:href="#logo-a"/></mask><use fill="#2091EF" xlink:href="#logo-a"/><path fill="#FFF" d="M96.7163932,135.871344 L55,129 L96.7163932,122.128656 C97.8740281,116.662883 100.384621,111.696675 103.881208,107.596997 L93,93 L107.596997,103.881208 C111.696675,100.384621 116.662883,97.8740281 122.128656,96.7163932 L129,55 L135.871344,96.7163932 C141.337117,97.8740281 146.303325,100.384621 150.403003,103.881208 L165,93 L154.118792,107.596997 C157.615379,111.696675 160.125972,116.662883 161.283607,122.128656 L203,129 L161.283607,135.871344 C160.125972,141.337117 157.615379,146.303325 154.118792,150.403003 L165,165 L150.403003,154.118792 C146.303325,157.615379 141.337117,160.125972 135.871344,161.283607 L129,203 L122.128656,161.283607 C116.662883,160.125972 111.696675,157.615379 107.596997,154.118792 L93,165 L103.881208,150.403003 C100.384621,146.303325 97.8740281,141.337117 96.7163932,135.871344 Z M129,147 C138.941125,147 147,138.941125 147,129 C147,119.058875 138.941125,111 129,111 C119.058875,111 111,119.058875 111,129 C111,138.941125 119.058875,147 129,147 Z" mask="url(#logo-b)" opacity=".402"/><g mask="url(#logo-b)"><g><path fill="#000" d="M16.5857864,83.5194366 C22.3191864,84.8737642 26.5857864,90.0244096 26.5857864,96.1715729 C26.5857864,102.318736 22.3191864,107.469382 16.5857864,108.823709 L16.5857864,189.171573 C16.5857864,190.828427 15.2426407,192.171573 13.5857864,192.171573 C11.9289322,192.171573 10.5857864,190.828427 10.5857864,189.171573 L10.5857864,108.823709 C4.85238644,107.469382 0.585786438,102.318736 0.585786438,96.1715729 C0.585786438,90.0244096 4.85238644,84.8737642 10.5857864,83.5194366 L10.5857864,3.17157288 C10.5857864,1.51471863 11.9289322,0.171572875 13.5857864,0.171572875 C15.2426407,0.171572875 16.5857864,1.51471863 16.5857864,3.17157288 L16.5857864,83.5194366 Z" filter="url(#logo-c)" opacity=".3" transform="rotate(-135 78.327 90.387)"/><path fill="#FFF" d="M18,99 C17.0369613,98.7379815 16.0325385,98.5993309 15,98.5993309 C13.9674615,98.5993309 12.9630387,98.7379815 12,99 L12,6 C12,4.34314575 13.3431458,3 15,3 C16.6568542,3 18,4.34314575 18,6 L18,99 Z" transform="rotate(-135 78.327 90.387)"/><path fill="#E04759" d="M18,111.652136 L18,192 C18,193.656854 16.6568542,195 15,195 C13.3431458,195 12,193.656854 12,192 L12,111.652136 C6.26660001,110.297809 2,105.147163 2,99 C2,91.8202983 7.82029825,86 15,86 C22.1797017,86 28,91.8202983 28,99 C28,105.147163 23.7334,110.297809 18,111.652136 Z" transform="rotate(-135 78.327 90.387)"/><g transform="rotate(-135 78.327 90.387) rotate(135 15 99)"><use fill="#000" filter="url(#logo-d)" xlink:href="#logo-e"/><use fill="url(#logo-f)" xlink:href="#logo-e"/><use fill="#000" filter="url(#logo-g)" xlink:href="#logo-e"/></g></g></g><circle cx="128.5" cy="128.5" r="104.5" stroke="#FFF" stroke-width="4" mask="url(#logo-b)" opacity=".22"/><g mask="url(#logo-b)"><use fill="#000" filter="url(#logo-h)" xlink:href="#logo-i"/><use fill="#0661B9" xlink:href="#logo-i"/><use fill="#000" filter="url(#logo-j)" xlink:href="#logo-i"/></g><g mask="url(#logo-b)"><use fill="#000" filter="url(#logo-k)" xlink:href="#logo-l"/><use fill="#004D99" xlink:href="#logo-l"/><use fill="#000" filter="url(#logo-m)" xlink:href="#logo-l"/></g><g mask="url(#logo-b)"><use fill="#000" filter="url(#logo-n)" xlink:href="#logo-o"/><use fill="#0661B9" xlink:href="#logo-o"/><use fill="#000" filter="url(#logo-p)" xlink:href="#logo-o"/></g><g mask="url(#logo-b)"><use fill="#000" filter="url(#logo-q)" xlink:href="#logo-r"/><use fill="#1F76CC" xlink:href="#logo-r"/><use fill="#000" filter="url(#logo-s)" xlink:href="#logo-r"/></g><g mask="url(#logo-b)"><use fill="#000" filter="url(#logo-t)" xlink:href="#logo-u"/><use fill="#FFF" xlink:href="#logo-u"/></g><g mask="url(#logo-b)"><use fill="#000" filter="url(#logo-v)" xlink:href="#logo-w"/><use fill="#FFF" xlink:href="#logo-w"/></g><g mask="url(#logo-b)"><use fill="#000" filter="url(#logo-x)" xlink:href="#logo-y"/><use fill="#FFF" xlink:href="#logo-y"/></g><g mask="url(#logo-b)"><use fill="#000" filter="url(#logo-z)" xlink:href="#logo-A"/><use fill="#FFF" xlink:href="#logo-A"/></g></g></svg>