<svg xmlns="http://www.w3.org/2000/svg" xmlns:xlink="http://www.w3.org/1999/xlink" width="640" height="360" viewBox="0 0 640 360"><defs><linearGradient id="picture-a" x1="50%" x2="50%" y1="0%" y2="100%"><stop offset="0%" stop-color="#FAFAFA"/><stop offset="100%" stop-color="#FFF"/></linearGradient><linearGradient id="picture-d" x1="50%" x2="50%" y1="0%" y2="100%"><stop offset="0%" stop-color="#5AC9FF"/><stop offset="100%" stop-color="#0072E6"/></linearGradient><circle id="picture-c" cx="320" cy="180" r="110"/><filter id="picture-b" width="103.6%" height="103.6%" x="-1.8%" y="-.9%" filterUnits="objectBoundingBox"><feOffset dy="2" in="SourceAlpha" result="shadowOffsetOuter1"/><feGaussianBlur in="shadowOffsetOuter1" result="shadowBlurOuter1" stdDeviation="1"/><feColorMatrix in="shadowBlurOuter1" values="0 0 0 0 0 0 0 0 0 0 0 0 0 0 0 0 0 0 0.16 0"/></filter><circle id="picture-f" cx="228" cy="180" r="6"/><filter id="picture-e" width="133.3%" height="133.3%" x="-16.7%" y="-8.3%" filterUnits="objectBoundingBox"><feOffset dy="1" in="SourceAlpha" result="shadowOffsetOuter1"/><feGaussianBlur in="shadowOffsetOuter1" result="shadowBlurOuter1" stdDeviation=".5"/><feColorMatrix in="shadowBlurOuter1" values="0 0 0 0 1 0 0 0 0 1 0 0 0 0 1 0 0 0 0.1 0"/></filter><filter id="picture-g" width="158.3%" height="158.3%" x="-29.2%" y="-20.8%" filterUnits="objectBoundingBox"><feGaussianBlur in="SourceAlpha" result="shadowBlurInner1" stdDeviation="2"/><feOffset dy="1" in="shadowBlurInner1" result="shadowOffsetInner1"/><feComposite in="shadowOffsetInner1" in2="SourceAlpha" k2="-1" k3="1" operator="arithmetic" result="shadowInnerInner1"/><feColorMatrix in="shadowInnerInner1" values="0 0 0 0 0.00365273109 0 0 0 0 0.136326565 0 0 0 0 0.256085247 0 0 0 0.656929348 0"/></filter><circle id="picture-i" cx="320" cy="272" r="6"/><filter id="picture-h" width="133.3%" height="133.3%" x="-16.7%" y="-8.3%" filterUnits="objectBoundingBox"><feOffset dy="1" in="SourceAlpha" result="shadowOffsetOuter1"/><feGaussianBlur in="shadowOffsetOuter1" result="shadowBlurOuter1" stdDeviation=".5"/><feColorMatrix in="shadowBlurOuter1" values="0 0 0 0 1 0 0 0 0 1 0 0 0 0 1 0 0 0 0.1 0"/></filter><filter id="picture-j" width="158.3%" height="158.3%" x="-29.2%" y="-20.8%" filterUnits="objectBoundingBox"><feGaussianBlur in="SourceAlpha" result="shadowBlurInner1" stdDeviation="2"/><feOffset dy="1" in="shadowBlurInner1" result="shadowOffsetInner1"/><feComposite in="shadowOffsetInner1" in2="SourceAlpha" k2="-1" k3="1" operator="arithmetic" result="shadowInnerInner1"/><feColorMatrix in="shadowInnerInner1" values="0 0 0 0 0.00365273109 0 0 0 0 0.136326565 0 0 0 0 0.256085247 0 0 0 0.656929348 0"/></filter><circle id="picture-l" cx="412" cy="180" r="6"/><filter id="picture-k" width="133.3%" height="133.3%" x="-16.7%" y="-8.3%" filterUnits="objectBoundingBox"><feOffset dy="1" in="SourceAlpha" result="shadowOffsetOuter1"/><feGaussianBlur in="shadowOffsetOuter1" result="shadowBlurOuter1" stdDeviation=".5"/><feColorMatrix in="shadowBlurOuter1" values="0 0 0 0 1 0 0 0 0 1 0 0 0 0 1 0 0 0 0.1 0"/></filter><filter id="picture-m" width="158.3%" height="158.3%" x="-29.2%" y="-20.8%" filterUnits="objectBoundingBox"><feGaussianBlur in="SourceAlpha" result="shadowBlurInner1" stdDeviation="2"/><feOffset dy="1" in="shadowBlurInner1" result="shadowOffsetInner1"/><feComposite in="shadowOffsetInner1" in2="SourceAlpha" k2="-1" k3="1" operator="arithmetic" result="shadowInnerInner1"/><feColorMatrix in="shadowInnerInner1" values="0 0 0 0 0.00365273109 0 0 0 0 0.136326565 0 0 0 0 0.256085247 0 0 0 0.656929348 0"/></filter><circle id="picture-o" cx="320" cy="88" r="6"/><filter id="picture-n" width="133.3%" height="133.3%" x="-16.7%" y="-8.3%" filterUnits="objectBoundingBox"><feOffset dy="1" in="SourceAlpha" result="shadowOffsetOuter1"/><feGaussianBlur in="shadowOffsetOuter1" result="shadowBlurOuter1" stdDeviation=".5"/><feColorMatrix in="shadowBlurOuter1" values="0 0 0 0 1 0 0 0 0 1 0 0 0 0 1 0 0 0 0.1 0"/></filter><filter id="picture-p" width="158.3%" height="158.3%" x="-29.2%" y="-20.8%" filterUnits="objectBoundingBox"><feGaussianBlur in="SourceAlpha" result="shadowBlurInner1" stdDeviation="2"/><feOffset dy="1" in="shadowBlurInner1" result="shadowOffsetInner1"/><feComposite in="shadowOffsetInner1" in2="SourceAlpha" k2="-1" k3="1" operator="arithmetic" result="shadowInnerInner1"/><feColorMatrix in="shadowInnerInner1" values="0 0 0 0 0.00365273109 0 0 0 0 0.136326565 0 0 0 0 0.256085247 0 0 0 0.656929348 0"/></filter><circle id="picture-r" cx="320" cy="88" r="3"/><filter id="picture-q" width="166.7%" height="166.7%" x="-33.3%" y="-16.7%" filterUnits="objectBoundingBox"><feOffset dy="1" in="SourceAlpha" result="shadowOffsetOuter1"/><feGaussianBlur in="shadowOffsetOuter1" result="shadowBlurOuter1" stdDeviation=".5"/><feColorMatrix in="shadowBlurOuter1" values="0 0 0 0 0.0235294118 0 0 0 0 0.28627451 0 0 0 0 0.537254902 0 0 0 1 0"/></filter><circle id="picture-t" cx="412" cy="180" r="3"/><filter id="picture-s" width="166.7%" height="166.7%" x="-33.3%" y="-16.7%" filterUnits="objectBoundingBox"><feOffset dy="1" in="SourceAlpha" result="shadowOffsetOuter1"/><feGaussianBlur in="shadowOffsetOuter1" result="shadowBlurOuter1" stdDeviation=".5"/><feColorMatrix in="shadowBlurOuter1" values="0 0 0 0 0.0235294118 0 0 0 0 0.28627451 0 0 0 0 0.537254902 0 0 0 1 0"/></filter><circle id="picture-v" cx="228" cy="180" r="3"/><filter id="picture-u" width="166.7%" height="166.7%" x="-33.3%" y="-16.7%" filterUnits="objectBoundingBox"><feOffset dy="1" in="SourceAlpha" result="shadowOffsetOuter1"/><feGaussianBlur in="shadowOffsetOuter1" result="shadowBlurOuter1" stdDeviation=".5"/><feColorMatrix in="shadowBlurOuter1" values="0 0 0 0 0.0235294118 0 0 0 0 0.28627451 0 0 0 0 0.537254902 0 0 0 1 0"/></filter><circle id="picture-x" cx="320" cy="272" r="3"/><filter id="picture-w" width="166.7%" height="166.7%" x="-33.3%" y="-16.7%" filterUnits="objectBoundingBox"><feOffset dy="1" in="SourceAlpha" result="shadowOffsetOuter1"/><feGaussianBlur in="shadowOffsetOuter1" result="shadowBlurOuter1" stdDeviation=".5"/><feColorMatrix in="shadowBlurOuter1" values="0 0 0 0 0.0235294118 0 0 0 0 0.28627451 0 0 0 0 0.537254902 0 0 0 1 0"/></filter><filter id="picture-y" width="146.2%" height="106.2%" x="-23.1%" y="-3.1%" filterUnits="objectBoundingBox"><feGaussianBlur in="SourceGraphic" stdDeviation="2"/></filter><linearGradient id="picture-B" x1="50%" x2="50%" y1="0%" y2="100%"><stop offset="0%" stop-color="#FFF"/><stop offset="100%" stop-color="#DCDCDC"/></linearGradient><circle id="picture-A" cx="15" cy="99" r="6"/><filter id="picture-z" width="133.3%" height="133.3%" x="-16.7%" y="-8.3%" filterUnits="objectBoundingBox"><feOffset dy="1" in="SourceAlpha" result="shadowOffsetOuter1"/><feGaussianBlur in="shadowOffsetOuter1" result="shadowBlurOuter1" stdDeviation=".5"/><feColorMatrix in="shadowBlurOuter1" values="0 0 0 0 0.261559311 0 0 0 0 0 0 0 0 0 0 0 0 0 0.495442708 0"/></filter><filter id="picture-C" width="133.3%" height="133.3%" x="-16.7%" y="-8.3%" filterUnits="objectBoundingBox"><feGaussianBlur in="SourceAlpha" result="shadowBlurInner1" stdDeviation=".5"/><feOffset dy="1" in="shadowBlurInner1" result="shadowOffsetInner1"/><feComposite in="shadowOffsetInner1" in2="SourceAlpha" k2="-1" k3="1" operator="arithmetic" result="shadowInnerInner1"/><feColorMatrix in="shadowInnerInner1" values="0 0 0 0 1 0 0 0 0 1 0 0 0 0 1 0 0 0 0.5 0"/></filter></defs><g fill="none" fill-rule="evenodd"><rect width="640" height="360" fill="url(#picture-a)"/><use fill="#000" filter="url(#picture-b)" xlink:href="#picture-c"/><use fill="url(#picture-d)" xlink:href="#picture-c"/><circle cx="320" cy="180" r="92" fill="url(#picture-d)" stroke="#FFF" stroke-width="4" opacity=".22"/><use fill="#000" filter="url(#picture-e)" xlink:href="#picture-f"/><use fill="#0661B9" xlink:href="#picture-f"/><use fill="#000" filter="url(#picture-g)" xlink:href="#picture-f"/><g><use fill="#000" filter="url(#picture-h)" xlink:href="#picture-i"/><use fill="#004D99" xlink:href="#picture-i"/><use fill="#000" filter="url(#picture-j)" xlink:href="#picture-i"/></g><use fill="#000" filter="url(#picture-k)" xlink:href="#picture-l"/><use fill="#0661B9" xlink:href="#picture-l"/><use fill="#000" filter="url(#picture-m)" xlink:href="#picture-l"/><use fill="#000" filter="url(#picture-n)" xlink:href="#picture-o"/><use fill="#1F76CC" xlink:href="#picture-o"/><use fill="#000" filter="url(#picture-p)" xlink:href="#picture-o"/><g><use fill="#000" filter="url(#picture-q)" xlink:href="#picture-r"/><use fill="#FFF" xlink:href="#picture-r"/></g><g><use fill="#000" filter="url(#picture-s)" xlink:href="#picture-t"/><use fill="#FFF" xlink:href="#picture-t"/></g><g><use fill="#000" filter="url(#picture-u)" xlink:href="#picture-v"/><use fill="#FFF" xlink:href="#picture-v"/></g><g><use fill="#000" filter="url(#picture-w)" xlink:href="#picture-x"/><use fill="#FFF" xlink:href="#picture-x"/></g><path fill="#FFF" d="M287.716393,186.871344 L246,180 L287.716393,173.128656 C288.874028,167.662883 291.384621,162.696675 294.881208,158.596997 L284,144 L298.596997,154.881208 C302.696675,151.384621 307.662883,148.874028 313.128656,147.716393 L320,106 L326.871344,147.716393 C332.337117,148.874028 337.303325,151.384621 341.403003,154.881208 L356,144 L345.118792,158.596997 C348.615379,162.696675 351.125972,167.662883 352.283607,173.128656 L394,180 L352.283607,186.871344 C351.125972,192.337117 348.615379,197.303325 345.118792,201.403003 L356,216 L341.403003,205.118792 C337.303325,208.615379 332.337117,211.125972 326.871344,212.283607 L320,254 L313.128656,212.283607 C307.662883,211.125972 302.696675,208.615379 298.596997,205.118792 L284,216 L294.881208,201.403003 C291.384621,197.303325 288.874028,192.337117 287.716393,186.871344 Z M320,198 C329.941125,198 338,189.941125 338,180 C338,170.058875 329.941125,162 320,162 C310.058875,162 302,170.058875 302,180 C302,189.941125 310.058875,198 320,198 Z" opacity=".402"/><g><path fill="#000" d="M16.5857864,83.5194366 C22.3191864,84.8737642 26.5857864,90.0244096 26.5857864,96.1715729 C26.5857864,102.318736 22.3191864,107.469382 16.5857864,108.823709 L16.5857864,189.171573 C16.5857864,190.828427 15.2426407,192.171573 13.5857864,192.171573 C11.9289322,192.171573 10.5857864,190.828427 10.5857864,189.171573 L10.5857864,108.823709 C4.85238644,107.469382 0.585786438,102.318736 0.585786438,96.1715729 C0.585786438,90.0244096 4.85238644,84.8737642 10.5857864,83.5194366 L10.5857864,3.17157288 C10.5857864,1.51471863 11.9289322,0.171572875 13.5857864,0.171572875 C15.2426407,0.171572875 16.5857864,1.51471863 16.5857864,3.17157288 L16.5857864,83.5194366 Z" filter="url(#picture-y)" opacity=".3" transform="rotate(-135 184.276 76.332)"/><path fill="#FFF" d="M18,99 C17.0369613,98.7379815 16.0325385,98.5993309 15,98.5993309 C13.9674615,98.5993309 12.9630387,98.7379815 12,99 L12,6 C12,4.34314575 13.3431458,3 15,3 C16.6568542,3 18,4.34314575 18,6 L18,99 Z" transform="rotate(-135 184.276 76.332)"/><path fill="#E04759" d="M18,111.652136 L18,192 C18,193.656854 16.6568542,195 15,195 C13.3431458,195 12,193.656854 12,192 L12,111.652136 C6.26660001,110.297809 2,105.147163 2,99 C2,91.8202983 7.82029825,86 15,86 C22.1797017,86 28,91.8202983 28,99 C28,105.147163 23.7334,110.297809 18,111.652136 Z" transform="rotate(-135 184.276 76.332)"/><g transform="rotate(-135 184.276 76.332) rotate(135 15 99)"><use fill="#000" filter="url(#picture-z)" xlink:href="#picture-A"/><use fill="url(#picture-B)" xlink:href="#picture-A"/><use fill="#000" filter="url(#picture-C)" xlink:href="#picture-A"/></g></g></g></svg>