<svg height="360" viewBox="0 0 640 360" width="640" xmlns="http://www.w3.org/2000/svg" xmlns:xlink="http://www.w3.org/1999/xlink"><defs><circle id="a" cx="40" cy="40" r="40"/><mask id="b" fill="#fff"><use fill="#fff" fill-rule="evenodd" xlink:href="#a"/></mask></defs><g fill="none" fill-rule="evenodd"><path d="m0 0h640v360h-640z" fill="#fff"/><g transform="translate(65 138)"><use fill="#ffdbdb" xlink:href="#a"/><path d="m7.94419367 62.7458499c18.19721583-3.753077 31.87822253-19.866322 31.87822253-39.1749374 0-10.3835556-3.9564709-19.84302791-10.4441079-26.95311205 2.6225987-.54089674 5.3390029-.82506258 8.1217775-.82506258 22.09139 0 40 17.90861003 40 40.00000003s-17.90861 40-40 40c-11.7078344 0-22.2408468-5.030011-29.55589213-13.046888z" fill="#ffa2a2" mask="url(#b)" transform="matrix(.70710678 -.70710678 .70710678 .70710678 -12.796263 40.692565)"/><path d="m8 64.8286869c2.9828566.7098636 6.0952067 1.0856565 9.2953279 1.0856565 22.09139 0 40-17.90861 40-40 0-9.4200707-3.2562978-18.07959228-8.7046721-24.9143434 17.6086908 4.19053624 30.7046721 20.0230747 30.7046721 38.9143434 0 22.09139-17.90861 40-40 40-12.6713193 0-23.9664986-5.8919555-31.2953279-15.0856565z" fill="#ff4c4c" mask="url(#b)"/></g><g fill="#ff4c4c"><text font-family="NittiGrotesk-Light, Nitti Grotesk" font-size="28" font-weight="300" letter-spacing="3.333333"><tspan x="174" y="165">WEB</tspan></text><text font-family="NittiGrotesk-Bold, Nitti Grotesk" font-size="52" font-weight="bold"><tspan x="174" y="207">PERSONALIZATION</tspan></text></g></g></svg>