<svg height="257" viewBox="0 0 257 257" width="257" xmlns="http://www.w3.org/2000/svg"><g fill="none" fill-rule="evenodd"><path d="m0 0h257v257h-257z" fill="#37404a"/><g fill-rule="nonzero"><path d="m160.553398 55.902439h14.446602v147.097561h-14.446602z" fill="#89c6be"/><path d="m82 88.6772312h17.9413989v-33.6772312h23.7774881v33.6772312h21.484996v18.4684868h-21.484996v59.969902c0 2.605033.104499 4.853646.313497 6.734574.206476 1.885652.693657 3.477011 1.458302 4.781708.765005 1.302516 1.909809 2.280221 3.444143 2.932388 1.527848.65253 3.613143.977342 6.256968.977342 1.66766 0 3.337483-.033426 5.005143-.109724 1.669461-.069395 3.337121-.325175 5.006943-.757531v19.120654c-2.643464.287026-5.216302.576232-7.717432.869798-2.562529.289861-5.139187.434329-7.717792.432719-6.25913 0-11.299586-.618741-15.123529-1.84496-3.826826-1.230942-6.812975-3.044655-8.967456-5.434237-2.159166-2.389946-3.617828-5.396452-4.382472-9.019156-.767167-3.616164-1.218315-7.745705-1.3541635-12.382083v-66.27103h-17.9410385z" fill="#fff"/></g></g></svg>