<?xml version="1.0" encoding="UTF-8"?>
<svg width="257px" height="257px" viewBox="0 0 257 257" version="1.1" xmlns="http://www.w3.org/2000/svg" xmlns:xlink="http://www.w3.org/1999/xlink">
    <!-- Generator: Sketch 52.6 (67491) - http://www.bohemiancoding.com/sketch -->
    <title>typeform/logo</title>
    <desc>Created with Sketch.</desc>
    <g id="typeform/logo" stroke="none" stroke-width="1" fill="none" fill-rule="evenodd">
        <rect fill="#37404A" x="0" y="0" width="257" height="257"></rect>
        <polygon id="Shape" fill="#89C6BE" fill-rule="nonzero" points="160.553398 55.902439 175 55.902439 175 203 160.553398 203"></polygon>
        <path d="M82,88.6772312 L99.9413989,88.6772312 L99.9413989,55 L123.718887,55 L123.718887,88.6772312 L145.203883,88.6772312 L145.203883,107.145718 L123.718887,107.145718 L123.718887,167.11562 C123.718887,169.720653 123.823386,171.969266 124.032384,173.850194 C124.23886,175.735846 124.726041,177.327205 125.490686,178.631902 C126.255691,179.934418 127.400495,180.912123 128.934829,181.56429 C130.462677,182.21682 132.547972,182.541632 135.191797,182.541632 C136.859457,182.541632 138.52928,182.508206 140.19694,182.431908 C141.866401,182.362513 143.534061,182.106733 145.203883,181.674377 L145.203883,200.795031 C142.560419,201.082057 139.987581,201.371263 137.486451,201.664829 C134.923922,201.95469 132.347264,202.099158 129.768659,202.097548 C123.509529,202.097548 118.469073,201.478807 114.64513,200.252588 C110.818304,199.021646 107.832155,197.207933 105.677674,194.818351 C103.518508,192.428405 102.059846,189.421899 101.295202,185.799195 C100.528035,182.183031 100.076887,178.05349 99.9410385,173.417112 L99.9410385,107.146082 L82,107.146082 L82,88.6772312" id="Shape" fill="#FFFFFF" fill-rule="nonzero"></path>
    </g>
</svg>