<svg height="257" viewBox="0 0 257 257" width="257" xmlns="http://www.w3.org/2000/svg"><g fill="none" fill-rule="evenodd"><circle cx="128.5" cy="128.5" fill="#37404a" r="125.5"/><g fill-rule="nonzero" transform="translate(82 55)"><path d="m78.5533981.90243902h14.4466019v147.09756098h-14.4466019z" fill="#89c6be"/><path d="m0 33.6772312h17.9413989v-33.6772312h23.7774883v33.6772312h21.4849963v18.4684872h-21.4849963v59.9699016c0 2.605033.104499 4.853646.313497 6.734574.2064757 1.885652.6936572 3.477011 1.4583017 4.781708.7650048 1.302516 1.9098095 2.280221 3.4441432 2.932388 1.5278476.65253 3.6131434.977342 6.2569683.977342 1.66766 0 3.3374821-.033426 5.0051422-.109724 1.6694617-.069395 3.3371218-.325175 5.0069439-.757531v19.120654c-2.6434646.287026-5.2163023.576232-7.717432.869798-2.5625298.289861-5.1391876.434329-7.7177923.432719-6.2591304 0-11.299586-.618741-15.1235291-1.84496-3.8268258-1.230942-6.812975-3.044655-8.9674563-5.434237-2.1591658-2.389946-3.6178278-5.396452-4.3824723-9.019156-.7671668-3.616164-1.2183143-7.745705-1.354163-12.382083v-66.2710303h-17.9410385z" fill="#fff"/></g></g></svg>