<svg height="257" viewBox="0 0 257 257" width="257" xmlns="http://www.w3.org/2000/svg"><g fill="none" fill-rule="evenodd"><circle cx="128.5" cy="128.5" fill="#3b5998" r="125.5"/><path d="m125.40709.29776119h-117.81417955c-4.01977612 0-7.29514926 3.27537314-7.29514926 7.29514926v117.81417955c0 4.019776 3.27537314 7.295149 7.29514926 7.295149h63.42313435v-51.2645524h-17.2701493v-19.9996269h17.2701493v-14.7391791c0-17.1212687 10.4712686-26.4014925 25.7067164-26.4014925 7.2951488 0 13.5977608.5458955 15.4339548.7940298v17.8656717h-10.570522c-8.2876865 0-9.9253731 3.9205223-9.9253731 9.7268656v12.7541045h19.8011191l-2.580597 19.9996269h-17.2205221v51.3141794h33.7462691c4.019776 0 7.295149-3.275373 7.295149-7.29515v-117.86380555c0-4.06940299-3.225746-7.29514926-7.295149-7.29514926z" fill="#fff" fill-rule="nonzero" transform="translate(62 62)"/></g></svg>