<svg height="360" viewBox="0 0 640 360" width="640" xmlns="http://www.w3.org/2000/svg"><g fill="none" fill-rule="evenodd"><path d="m0 0h640v360h-640z" fill="#3b5998"/><g fill="#fff"><g transform="translate(146 122)"><path d="m27.1027788 10.6992c-4.0776498 0-5.2593687 1.8144-5.2593687 5.804v6.62h10.8793295l-1.0873732 10.7048h-9.7919563v32.4704h-13.05327646v-32.4704h-8.79013364v-10.7048h8.79013364v-6.44c0-10.7896 4.35269126-16.5032 16.49929036-16.5032 2.6296843 0 5.7095092.18 7.6132119.4512v10.068"/><path d="m46.681894 46.252c0 6.44 2.3586406 10.6992 8.4295415 10.6992 5.3497166 0 8.0689493-3.8984 8.0689493-10.0624v-4.356c0-6.1688-2.7192327-10.068-8.0689493-10.068-6.0709009 0-8.4295415 4.2648-8.4295415 10.7048zm-13.0532765-2.9016c0-12.0632 5.7103088-21.1344 17.676212-21.1344 6.5266382 0 10.5131405 3.3576 12.4168433 7.5272v-6.62h12.5119885v43.1696h-12.5119885v-6.5248c-1.8133548 4.1704-5.8902051 7.4328-12.4168433 7.4328-11.9659032 0-17.676212-9.0664-17.676212-21.1296z"/><path d="m103.421191 22.216c5.073076 0 9.882304 1.0872 12.506392 2.9016l-2.899929 9.2512c-1.99405-.9968-5.254571-1.9944-8.700585-1.9944-7.0719238 0-10.1525483 4.0792-10.1525483 11.0656v2.536c0 6.9864 3.0806245 11.0656 10.1525483 11.0656 3.446014 0 6.706535-.9976 8.700585-1.9944l2.899929 9.2512c-2.624088 1.8144-7.433316 2.9024-12.506392 2.9024-15.3167716 0-22.2991472-8.2544-22.2991472-21.4952v-1.9952c0-13.24 6.9823756-21.4944 22.2991472-21.4944"/><path d="m130.703866 40.7192h15.77251v-1.0872c0-4.7168-1.903703-8.4352-7.614012-8.4352-5.895002 0-8.158498 3.7184-8.158498 9.5224m-13.053276 5.6232v-3.8088c0-12.2432 6.976779-20.3176 21.211774-20.3176 13.413869 0 19.304074 8.164 19.304074 20.1368v6.8912h-27.462572c.270245 5.8992 2.899929 8.5248 10.152549 8.5248 4.893179 0 10.0622-.9976 13.868806-2.6256l2.353844 8.9752c-3.440418 1.8144-10.513141 3.172-16.768736 3.172-16.493693 0-22.659739-8.2488-22.659739-20.948"/><path d="m193.518062 43.0744c0-6.0792-2.35864-10.6096-8.609438-10.6096-5.349716 0-8.249645 3.8088-8.249645 9.9728v4.536c0 6.1688 2.899929 9.9776 8.249645 9.9776 6.250798 0 8.609438-4.5352 8.609438-10.6144zm13.053277 2.992c0 12.0624-5.799857 21.1344-17.76656 21.1344-6.525839 0-11.059226-3.268-12.872581-7.4376v6.5296h-12.326495v-64.8504l13.053276-1.1776v28.8416c1.902903-3.808 6.070102-6.8904 12.1458-6.8904 11.966703 0 17.76656 9.0656 17.76656 21.1288z"/><path d="m240.830793 42.7136c0-5.7136-2.35944-10.2488-8.429542-10.2488-6.075698 0-8.429541 4.5352-8.429541 10.2488v3.9888c0 5.7136 2.353843 10.2488 8.429541 10.2488 6.070102 0 8.429542-4.5352 8.429542-10.2488zm-29.91236 3.0824v-2.1752c0-12.424 7.067127-21.4048 21.482818-21.4048 14.410095 0 21.482019 8.9808 21.482019 21.4048v2.1752c0 12.4288-7.071924 21.4048-21.482019 21.4048-14.415691 0-21.482818-8.976-21.482818-21.4048z"/><path d="m288.143523 42.7136c0-5.7136-2.35944-10.2488-8.429541-10.2488-6.075699 0-8.430341 4.5352-8.430341 10.2488v3.9888c0 5.7136 2.354642 10.2488 8.430341 10.2488 6.070101 0 8.429541-4.5352 8.429541-10.2488zm-29.912359 3.0824v-2.1752c0-12.424 7.067126-21.4048 21.482818-21.4048 14.410094 0 21.482018 8.9808 21.482018 21.4048v2.1752c0 12.4288-7.071924 21.4048-21.482018 21.4048-14.415692 0-21.482818-8.976-21.482818-21.4048z"/><path d="m319.137659 43.7104 12.872581-20.5872h13.868806l-13.508214 21.3144 14.049502 21.8552h-13.864009l-13.418666-21.128v21.128h-13.053277v-64.8448l13.053277-1.1832"/></g><text font-family=".SFNSDisplay, .SF NS Display" font-size="28" letter-spacing="3.333333"><tspan x="151" y="231">CUSTOM AUDIENCES</tspan></text></g></g></svg>