<?xml version="1.0" encoding="UTF-8"?>
<svg width="640px" height="360px" viewBox="0 0 640 360" version="1.1" xmlns="http://www.w3.org/2000/svg" xmlns:xlink="http://www.w3.org/1999/xlink">
    <!-- Generator: Sketch 61 (89581) - https://sketch.com -->
    <title>website/picture</title>
    <desc>Created with Sketch.</desc>
    <defs>
        <circle id="path-1" cx="40" cy="40" r="40"></circle>
    </defs>
    <g id="website/picture" stroke="none" stroke-width="1" fill="none" fill-rule="evenodd">
        <rect id="Rectangle" fill="#FFFFFF" x="0" y="0" width="640" height="360"></rect>
        <g id="Group" transform="translate(65.000000, 138.000000)">
            <mask id="mask-2" fill="white">
                <use xlink:href="#path-1"></use>
            </mask>
            <use id="Oval-2" fill="#FFDBDB" xlink:href="#path-1"></use>
            <path d="M37.5000858,-4.20726213 C59.5914758,-4.20726213 77.5000858,13.7013479 77.5000858,35.7927379 C77.5000858,57.8841279 59.5914758,75.7927379 37.5000858,75.7927379 C25.7921389,75.7927379 15.2590366,70.7626302 7.94398288,62.7456189 C26.1417565,58.9923642 39.8224162,42.879283 39.8224162,23.5709125 C39.8224162,13.1874693 35.866031,3.72808949 29.3785191,-3.38196853 C32.0008414,-3.92308943 34.7172775,-4.20726213 37.5000858,-4.20726213 Z" id="Combined-Shape" fill="#FFA2A2" mask="url(#mask-2)" transform="translate(42.722140, 35.792738) rotate(-45.000000) translate(-42.722140, -35.792738) "></path>
            <path d="M48.5908989,1.00005785 C66.1994671,5.19068195 79.2953279,21.0231616 79.2953279,39.9143434 C79.2953279,62.0057334 61.3867179,79.9143434 39.2953279,79.9143434 C26.6233208,79.9143434 15.3276031,74.0217482 7.99880659,64.8271897 C10.981991,65.5384459 14.0947617,65.9143434 17.2953279,65.9143434 C39.3867179,65.9143434 57.2953279,48.0057334 57.2953279,25.9143434 C57.2953279,16.6359596 54.1362491,8.09541822 48.8350108,1.3096385 Z" id="Combined-Shape" fill="#FF4C4C" mask="url(#mask-2)"></path>
        </g>
        <text id="Website" font-family="NittiGrotesk-Bold, Nitti Grotesk" font-size="52" font-weight="bold" fill="#FF4C4C">
            <tspan x="174" y="195">Website</tspan>
        </text>
    </g>
</svg>