<?xml version="1.0" encoding="UTF-8"?>
<svg width="257px" height="257px" viewBox="0 0 257 257" version="1.1" xmlns="http://www.w3.org/2000/svg" xmlns:xlink="http://www.w3.org/1999/xlink">
    <!-- Generator: Sketch 52.2 (67145) - http://www.bohemiancoding.com/sketch -->
    <title>outreach/logo</title>
    <desc>Created with Sketch.</desc>
    <g id="outreach/logo" stroke="none" stroke-width="1" fill="none" fill-rule="evenodd">
        <g id="Group" transform="translate(3.000000, 3.000000)">
            <circle id="Oval-2" fill="#5952FF" cx="125.5" cy="125.5" r="125.5"></circle>
            <path d="M117.597301,57 C140.876077,57 176.050638,64.206635 192.424477,80.7328986 C196.572517,84.9231587 202,93.1301482 202,105.149713 C202,126.519529 184.940744,159.306656 166.104483,178.323598 C156.366491,188.153612 140.876077,201 120.039415,201 C99.669851,201 84.1134344,187.035869 79.609994,182.488339 C62.3578061,165.074006 50,138.641171 50,113.994683 C50,98.4432551 54.3917429,84.8414971 65.5970339,73.5364713 C75.9747478,63.0633728 93.8565034,57 117.597301,57 Z M145.310651,140.480935 C152.943787,132.830258 155,123.408364 155,118.222632 C155,114.463715 154.013807,108.948339 149.319527,104.249692 C142.120316,97.0369004 134.146943,95 125.473373,95 C114.487179,95 107.105523,98.4784748 102.189349,103.408364 C98.3333333,107.270603 95,113.209102 95,121.646986 C95,130.079951 99.4871795,138.227552 104.378698,143.123001 C108.895464,147.649446 115.996055,151 123.145957,151 C130.295858,151 137.677515,148.131611 145.310651,140.480935 Z" id="Combined-Shape" fill="#FFFFFF"></path>
        </g>
    </g>
</svg>