<svg height="257" viewBox="0 0 257 257" width="257" xmlns="http://www.w3.org/2000/svg"><g fill="none" fill-rule="evenodd"><path d="m0 0h257v257h-257z" fill="#5952ff"/><path d="m120.597301 60c23.278776 0 58.453337 7.206635 74.827176 23.7328986 4.14804 4.1902601 9.575523 12.3972496 9.575523 24.4168144 0 21.369816-17.059256 54.156943-35.895517 73.173885-9.737992 9.830014-25.228406 22.676402-46.065068 22.676402-20.369564 0-35.9259806-13.964131-40.429421-18.511661-17.2521879-17.414333-29.609994-43.847168-29.609994-68.493656 0-15.551428 4.3917429-29.1531859 15.5970339-40.4582117 10.3777139-10.4730985 28.2594695-16.5364713 52.0002671-16.5364713zm27.71335 83.480935c7.633136-7.650677 9.689349-17.072571 9.689349-22.258303 0-3.758917-.986193-9.274293-5.680473-13.97294-7.199211-7.212792-15.172584-9.249692-23.846154-9.249692-10.986194 0-18.36785 3.478475-23.284024 8.408364-3.856016 3.862239-7.189349 9.800738-7.189349 18.238622 0 8.432965 4.487179 16.580566 9.378698 21.476015 4.516766 4.526445 11.617357 7.876999 18.767259 7.876999 7.149901 0 14.531558-2.868389 22.164694-10.519065z" fill="#fff"/></g></svg>