<?xml version="1.0" encoding="UTF-8"?>
<svg width="257px" height="257px" viewBox="0 0 257 257" version="1.1" xmlns="http://www.w3.org/2000/svg" xmlns:xlink="http://www.w3.org/1999/xlink">
    <!-- Generator: Sketch 52.6 (67491) - http://www.bohemiancoding.com/sketch -->
    <title>outreach/logo</title>
    <desc>Created with Sketch.</desc>
    <g id="outreach/logo" stroke="none" stroke-width="1" fill="none" fill-rule="evenodd">
        <rect fill="#5952FF" x="0" y="0" width="257" height="257"></rect>
        <path d="M120.597301,60 C143.876077,60 179.050638,67.206635 195.424477,83.7328986 C199.572517,87.9231587 205,96.1301482 205,108.149713 C205,129.519529 187.940744,162.306656 169.104483,181.323598 C159.366491,191.153612 143.876077,204 123.039415,204 C102.669851,204 87.1134344,190.035869 82.609994,185.488339 C65.3578061,168.074006 53,141.641171 53,116.994683 C53,101.443255 57.3917429,87.8414971 68.5970339,76.5364713 C78.9747478,66.0633728 96.8565034,60 120.597301,60 Z M148.310651,143.480935 C155.943787,135.830258 158,126.408364 158,121.222632 C158,117.463715 157.013807,111.948339 152.319527,107.249692 C145.120316,100.0369 137.146943,98 128.473373,98 C117.487179,98 110.105523,101.478475 105.189349,106.408364 C101.333333,110.270603 98,116.209102 98,124.646986 C98,133.079951 102.487179,141.227552 107.378698,146.123001 C111.895464,150.649446 118.996055,154 126.145957,154 C133.295858,154 140.677515,151.131611 148.310651,143.480935 Z" id="Combined-Shape" fill="#FFFFFF"></path>
    </g>
</svg>