<svg height="360" viewBox="0 0 640 360" width="640" xmlns="http://www.w3.org/2000/svg"><g fill="none" fill-rule="evenodd"><path d="m0 0h640v360h-640z" fill="#5952ff"/><path d="m357.816791 31.6163607c2.122139 2.2317998 3.183209 5.2541291 3.183209 9.0742184v20.1344014h-7.868796v-17.8447579c0-2.251081-.641465-4.0273623-1.919571-5.3360743-1.28293-1.3038917-3.02646-1.9570426-5.22818-1.9570426-2.604443.0385624-4.666294.925498-6.187965 2.6511661-1.52167 1.7280782-2.281299 3.9381867-2.281299 6.6303254v15.8563833h-7.81092v-44.7324023h7.81092v18.6304671c2.201719-4.2225845 6.067389-6.3700291 11.592185-6.4519742 3.684806 0 6.588278 1.1158999 8.710417 3.3452896zm-45.457187 3.5887148c-2.604444 0-4.714525.8821153-6.337479 2.6511661-1.620543 1.7690508-2.433226 4.0611044-2.433226 6.8737506 0 2.8921812.812683 5.2227972 2.435637 6.991848 1.620543 1.7690508 3.733036 2.6511661 6.33748 2.6511661 3.843965 0 6.728146-1.2653293 8.650128-3.7959878l4.86404 4.0370029c-1.437308 2.0881315-3.40726 3.7540665-5.705661 4.8251223-2.363291 1.1255405-5.105191 1.6871057-8.230524 1.6871057-3.163916 0-5.975751-.6820728-8.440326-2.0486284-2.425499-1.3296604-4.416408-3.3294792-5.734599-5.7602608-1.36251-2.4704048-2.044971-5.3119728-2.044971-8.5271142 0-3.256114.692107-6.129014 2.073909-8.6211101 1.329712-2.439587 3.330545-4.4476462 5.765949-5.7867725 2.462164-1.3665556 5.295702-2.0486284 8.500614-2.0486284 2.922765 0 5.536854.510952 7.839858 1.5352662 2.303003 1.0243142 4.174344 2.4824555 5.618846 4.3696037l-4.748287 4.5214433c-2.163135-2.3691784-4.965323-3.5549727-8.408976-3.5549727zm-21.609647-6.6327355v32.2526405h-7.81092v-5.123981c-1.111538 1.7235083-2.654439 3.1267835-4.475784 4.070745-1.823111.9447792-3.9139 1.4147587-6.277192 1.4147587-3.04334 0-5.715307-.6941235-8.020721-2.0799603-2.303004-1.3858369-4.094765-3.335649-5.377694-5.8470263-1.278107-2.5113774-1.919572-5.3963281-1.919572-8.6524421 0-3.2127313.639054-6.0567094 1.921983-8.5295243 1.278107-2.4704048 3.072279-4.3912951 5.377694-5.7554406 2.300592-1.3665556 4.953266-2.0510385 7.958022-2.0510385 2.363292 0 4.466139.4723896 6.308541 1.4171688 1.83307.9371012 3.386781 2.3402984 4.504723 4.0683349v-5.1818247h7.81092zm-10.634812 23.6628624c1.642247-1.5882895 2.58274-3.687531 2.823892-6.3001347v-2.2896434c-.241152-2.6150139-1.181645-4.7142554-2.82148-6.3001347-1.644658-1.5906997-3.725802-2.3812292-6.250665-2.3812292-2.681612 0-4.86404.9134472-6.547282 2.7427518-1.680831 1.8293046-2.544155 4.1888424-2.580328 7.0834338.036173 2.8921812.899497 5.2541291 2.580328 7.0834337 1.683242 1.8268945 3.86567 2.7427519 6.547282 2.7427519 2.524863 0 4.606007-.7953499 6.248253-2.3812292zm-31.091751-19.5029418c2.58274 2.9331537 3.875315 7.0521018 3.875315 12.3592543 0 1.0460055-.021703 1.8268944-.060288 2.3498972h-23.729375c.520889 2.2920536 1.591605 4.0900262 3.214559 5.396328 1.620543 1.3063019 3.614871 1.9594528 5.978163 1.9594528 1.618125.0050509 3.22097-.3128776 4.714525-.9351386 1.484917-.6096568 2.825578-1.5234478 3.935603-2.6824981l4.203283 4.4009358c-1.624046 1.7833398-3.624979 3.1829494-5.857587 4.0972566-2.303003.9664706-4.854393 1.4485008-7.658993 1.4485008-3.282081 0-6.175907-.6820728-8.679067-2.0486284-2.452085-1.3153988-4.466853-3.3172947-5.797299-5.7602608-1.36251-2.4704048-2.042559-5.3119728-2.042559-8.5271142s.689696-6.0687602 2.073909-8.5608563c1.339475-2.4501103 3.349526-4.468215 5.794887-5.8181045 2.483868-1.388247 5.305348-2.0799603 8.469265-2.0799603 5.129307 0 8.982919 1.4701921 11.565659 4.4009357zm-3.272435 9.4646629c-.081992-2.3715886-.863325-4.2587368-2.344-5.666265-1.480674-1.4075281-3.443653-2.1112922-5.886525-2.1112922-2.283711 0-4.196048.6941235-5.739422 2.0823704-1.540962 1.3858368-2.491102 3.2826257-2.850418 5.6951868zm-33.11743-12.2074147c1.861695-1.1062593 4.034476-1.6774651 6.518343-1.7184377v7.5967959c-3.3279-.2024527-5.978162.5712058-7.960433 2.3209754-1.982271 1.7473595-2.973407 4.1093075-2.973407 7.0810236v15.5551145h-7.808507v-32.2526405h7.808507v6.2085489c1.080362-2.0871907 2.553802-3.687531 4.413085-4.7913801zm-18.074357 28.8422768c-2.563447 1.5665982-5.247471 2.3523074-8.04966 2.3523074-2.763604 0-5.028023-.814631-6.788434-2.4414829-1.762822-1.6292621-2.643028-4.0297725-2.643028-7.2039414v-30.5028709l7.74822-.9254979v9.7876231h9.19031v5.7289289h-9.187898v14.5283902c0 1.4870631.277325 2.5427093.839209 3.1645282.561885.6242291 1.398683.9351386 2.522452.9351386 1.200938 0 2.72502-.4434678 4.565011-1.3279932l1.803818 5.9072801zm-31.950253-30.2594456h7.74822v18.0785425c0 10.5516411-7.340673 14.4753669-14.787452 14.4753669-7.449191 0-14.787452-3.9237258-14.787452-14.4753669v-18.0761324h7.750631v18.35571c0 4.0442333 3.007168 7.3244488 7.036821 7.3244488s7.036821-3.2778053 7.036821-7.3244488v-18.3581201zm-37.882597-7.6570497c3.346511 1.8154125 6.138298 4.5031661 8.078599 7.7775572 1.96539 3.2946764 2.944468 6.9532856 2.944468 10.9734175 0 4.0177217-.979078 7.6859715-2.942057 10.9999291-1.94137 3.2964228-4.730938 6.0128328-8.078598 7.8667328-3.424361 1.9281208-7.220097 2.8921812-11.384795 2.8921812-4.16711 0-7.958022-.9640604-11.382383-2.8921812-3.3487585-1.8532695-6.1392576-4.5697754-8.0810098-7.8667328-1.9629788-3.3139576-2.9444682-6.9822074-2.9444682-10.9999291 0-4.0201319.9814894-7.6787411 2.9420566-10.9734175 1.9407707-3.2748615 4.7334697-5.9626909 8.0810094-7.7775572 3.424361-1.8871482 7.217685-2.8319274 11.382384-2.8319274 4.167109 0 7.960433.9447792 11.384794 2.8319274zm-18.411969 6.3025448c-2.170789 1.2336819-3.974326 3.0220529-5.225768 5.1818246-1.2829296 2.1932374-1.9219829 4.613029-1.9219829 7.2666053 0 2.6511661.6511109 5.0854186 1.9533329 7.2931169 1.260177 2.1701791 3.061422 3.9770432 5.228179 5.2444885 2.182427 1.2870206 4.552953 1.9281208 7.118813 1.9281208 2.474952.0132473 4.905918-.6537628 7.027174-1.9281208 2.143593-1.2666232 3.915281-3.0755448 5.136542-5.2444885 1.264741-2.221149 1.917927-4.7376061 1.893045-7.2931169 0-2.6511661-.631819-5.0733679-1.893045-7.2641951-1.223559-2.1514827-2.995943-3.9403225-5.136542-5.1842348-2.127308-1.2571334-4.555847-1.9143152-7.027174-1.9016091-2.510266-.0135539-4.97864.6429183-7.150163 1.9016091zm-74.2073509-27.2178351c11.0568277 0 27.7638512 3.4031332 35.5410092 11.2072021 1.9702134 1.978734 4.5481303 5.8542568 4.5481303 11.5301623 0 10.0913022-8.1027135 25.5741122-17.0494596 34.5543348-4.6252989 4.6419508-11.9828522 10.7083008-21.8797379 10.7083008-9.6750257 0-17.0639287-6.5941731-19.2029486-8.7416176-8.19435128-8.2234352-14.0639955-20.7056072-14.0639955-32.3442263 0-7.3437301 2.08596641-13.7667825 7.40819517-19.1052669 4.92915073-4.94562983 13.42253073-7.8088892 24.69880693-7.8088892zm12.8468757 39.4325417c3.6058169-3.6111656 4.5771513-8.0583566 4.5771513-10.5060534 0-1.7742318-.4658678-4.3775223-2.6833986-6.5953121-3.4008351-3.4044814-7.1673764-4.3659107-11.2646838-4.3659107-5.1897675 0-8.6767881 1.6418611-10.9991392 3.9687987-1.8215432 1.8229999-3.3961764 4.6260075-3.3961764 8.60874 0 3.9804101 2.1196986 7.8261273 4.4304029 10.1368088 2.1336747 2.1365095 5.4879229 3.717991 8.8654646 3.717991s6.8645623-1.3538968 10.4703792-4.9650623z" fill="#fff" transform="translate(140 138)"/></g></svg>