<?xml version="1.0" encoding="UTF-8"?>
<svg width="257px" height="257px" viewBox="0 0 257 257" version="1.1" xmlns="http://www.w3.org/2000/svg" xmlns:xlink="http://www.w3.org/1999/xlink">
    <title>bigquery-importer/logo</title>
    <g id="bigquery-importer/logo" stroke="none" stroke-width="1" fill="none" fill-rule="evenodd">
        <rect fill="#FFFFFF" x="0" y="0" width="257" height="257"></rect>
        <g id="Group-4" transform="translate(27.000000, 40.000000)" fill-rule="nonzero">
            <path d="M45.2459834,169.520468 L1.74343569,94.4795322 C-0.581145229,90.4699837 -0.581145229,85.5300163 1.74343569,81.5204678 L45.2459834,6.47953216 C47.5672966,2.47560953 51.8548214,0.00649593863 56.4974523,0 L143.549527,0 C148.175358,0.023133934 152.44113,2.49002052 154.754017,6.47953216 L198.256564,81.5204678 C200.581145,85.5300163 200.581145,90.4699837 198.256564,94.4795322 L154.754017,169.520468 C152.432703,173.52439 148.145179,175.993504 143.502548,176 L56.4739628,176 C51.8397294,175.985174 47.5630881,173.517176 45.2459834,169.520468 L45.2459834,169.520468 Z" id="Path" fill="#4386FA"></path>
            <path d="M127.748304,64 C127.748304,64 139.80893,92.8527326 123.369009,109.206508 C106.929087,125.560284 77,115.093867 77,115.093867 C77,115.093867 121.495513,160.06675 137.888597,176 L144.071132,176 C148.699768,175.993512 152.974369,173.527489 155.288685,169.528577 L184,119.929912 L127.748304,64 Z" id="Path" fill="#000000" opacity="0.1"></path>
            <path d="M142.38273,122.959853 L128.943834,109.657371 C128.798211,109.50897 128.631043,109.382897 128.447847,109.283312 C140.251218,94.1658274 138.139122,72.5683152 123.625568,59.9724713 C109.112015,47.3766273 87.2041835,48.1280215 73.6062161,61.6880337 C60.0082487,75.2480458 59.411448,96.9384676 72.2436171,111.211003 C85.0757863,125.483538 106.909823,127.414158 122.094484,115.61894 C122.189764,115.790521 122.309032,115.947932 122.448761,116.086514 L135.887657,129.388996 C136.281996,129.78017 136.817342,130 137.37562,130 C137.933897,130 138.469244,129.78017 138.863582,129.388996 L138.863582,129.388996 L142.38273,125.905569 C142.777916,125.515234 143,124.985322 143,124.432711 C143,123.8801 142.777916,123.350188 142.38273,122.959853 L142.38273,122.959853 Z M99.5624859,114.35649 C84.3791441,114.35649 72.0706136,102.1729 72.0706136,87.1436801 C72.0706136,72.1144601 84.3791441,59.9308701 99.5624859,59.9308701 C114.745828,59.9308701 127.054358,72.1144601 127.054358,87.1436801 C127.054358,94.3609661 124.157901,101.282651 119.002175,106.386043 C113.846449,111.489434 106.853784,114.35649 99.5624859,114.35649 L99.5624859,114.35649 Z" id="Shape" fill="#FFFFFF"></path>
            <path d="M81,85.07125 L81,96.495 C82.6681874,99.6019423 85.082508,102.190439 88,104 L88,85 L81,85.07125 Z" id="Path" fill="#FFFFFF"></path>
            <path d="M81,85.07125 L81,96.495 C82.6681874,99.6019423 85.082508,102.190439 88,104 L88,85 L81,85.07125 Z" id="Path" fill="#FFFFFF"></path>
            <path d="M95,77 L95,107.66484 C97.3138517,108.11172 99.6861483,108.11172 102,107.66484 L102,77 L95,77 Z" id="Path" fill="#FFFFFF"></path>
            <path d="M95,77 L95,107.66484 C97.3138517,108.11172 99.6861483,108.11172 102,107.66484 L102,77 L95,77 Z" id="Path" fill="#FFFFFF"></path>
            <path d="M116,96.65 L116,90 L109,90 L109,104 C111.914614,102.228627 114.328666,99.6938733 116,96.65 Z" id="Path" fill="#FFFFFF"></path>
            <path d="M116,96.65 L116,90 L109,90 L109,104 C111.914614,102.228627 114.328666,99.6938733 116,96.65 Z" id="Path" fill="#FFFFFF"></path>
        </g>
    </g>
</svg>