<?xml version="1.0" encoding="UTF-8"?>
<svg width="640px" height="360px" viewBox="0 0 640 360" version="1.1" xmlns="http://www.w3.org/2000/svg" xmlns:xlink="http://www.w3.org/1999/xlink">
    <title>bigquery/picture</title>
    <defs>
        <linearGradient x1="50%" y1="-3.89783073e-15%" x2="50%" y2="99.8449958%" id="linearGradient-1">
            <stop stop-color="#4387FD" offset="0%"></stop>
            <stop stop-color="#4683EA" offset="100%"></stop>
        </linearGradient>
    </defs>
    <g id="bigquery/picture" stroke="none" stroke-width="1" fill="none" fill-rule="evenodd">
        <rect id="Rectangle-Copy" fill="#3569C5" x="0" y="0" width="640" height="360"></rect>
        <path d="M176.264938,236.540703 L146.733139,185.459409 C144.422287,181.462316 144.422287,176.537684 146.733139,172.540591 L176.264938,121.459409 C178.57579,117.462316 182.846497,115 187.468202,115 L246.531798,115 C251.153503,115 255.42421,117.462316 257.735062,121.459409 L287.266861,172.540591 C289.577713,176.537684 289.577713,181.462316 287.266861,185.459409 L257.735062,236.540591 C255.42421,240.537684 251.153503,243 246.531798,243 L187.468202,243 C182.846497,243 178.575903,240.537796 176.264938,236.540703 Z" id="Path" fill="url(#linearGradient-1)" fill-rule="nonzero"></path>
        <polygon id="Path" fill="#000000" fill-rule="nonzero" opacity="0.07" points="279 204.423625 235.783592 161.004268 217.172333 156 200.455336 162.241022 194 179.140562 199.190778 197.956307 245.019255 244 254.744687 243.566529"></polygon>
        <path d="M216.99799,153 C231.355971,153 242.995981,164.639849 242.995981,178.998977 C242.995981,185.052594 240.926701,190.623079 237.456905,195.041678 L247.645752,205.230082 C248.086594,205.671754 248.115983,206.376463 247.733921,206.853662 L247.645752,206.952258 L244.952328,209.64374 C244.510127,210.087086 243.805276,210.116642 243.328054,209.732409 L243.229456,209.64374 L233.040912,199.45761 C228.622252,202.927358 223.05169,204.99661 216.99799,204.99661 C202.640122,204.99661 191,193.356649 191,178.998977 C191,164.639849 202.640122,153 216.99799,153 Z M216.99799,159.271232 C206.10324,159.271232 197.271991,168.104265 197.271991,178.998865 C197.271991,189.893466 206.10324,198.724593 216.99799,198.724593 C227.892741,198.724593 236.725222,189.893466 236.725222,178.998865 C236.725222,168.104265 227.892741,159.271232 216.99799,159.271232 Z M219.304606,171.182662 L219.304606,192.97388 C218.538835,193.101432 217.759502,193.18572 216.958648,193.18572 C216.25699,193.18572 215.57011,193.12575 214.895998,193.023544 L214.392778,192.939246 L214.392778,171.182662 L219.304606,171.182662 Z M209.567928,177.994926 L209.567928,191.091423 C207.670278,189.930089 206.064917,188.342791 204.887237,186.456423 L204.657444,186.0752 L204.657444,177.994926 L209.567928,177.994926 Z M229.49344,181.353758 L229.49344,185.681559 C228.402224,187.70488 226.833536,189.425081 224.940349,190.713301 L224.581611,190.949749 L224.581611,181.353758 L229.49344,181.353758 Z" id="Combined-Shape" fill="#FFFFFF" fill-rule="nonzero"></path>
        <path d="M439.937259,143.739992 C442.954294,143.663791 445.856654,144.897089 447.895936,147.121867 L447.895936,147.121867 L447.895936,144.641826 L454.107311,144.641826 L454.107311,171.189534 C454.107311,181.605706 448.076304,186.577062 440.185265,186.577062 C432.970599,186.577062 428.923625,182.067897 426.950863,177.840554 L426.950863,177.840554 L432.587322,175.495788 C433.794479,178.62608 436.785454,180.706371 440.140173,180.748966 C444.807158,180.748966 447.895936,177.682732 447.895936,172.587376 L447.895936,172.587376 L447.895936,169.667692 C445.931681,172.097408 442.922083,173.438733 439.801985,173.275024 C431.882029,172.987659 425.645452,166.420467 425.76721,158.496235 C425.76721,150.684107 432.046222,143.739992 439.937259,143.739992 Z M337.093413,127.410824 L337.511574,127.416817 C343.414049,127.31377 349.115586,129.560321 353.361288,133.662008 L353.361288,133.662008 L348.9874,138.171173 C345.965849,135.240835 341.923598,133.599681 337.714486,133.594371 C333.292348,133.581607 329.05111,135.348915 325.946519,138.498039 C322.841929,141.647162 321.135201,145.91314 321.210941,150.334647 L321.210941,150.334647 L321.210941,150.61647 L321.217415,151.025202 C321.336672,155.242567 323.075307,159.258691 326.081344,162.233991 C329.184349,165.305268 333.382474,167.014731 337.748305,166.98474 C344.624781,166.98474 351.918357,163.264677 352.662369,154.494352 L352.662369,154.494352 L337.714486,154.494352 L337.714486,148.249157 L358.738469,148.249157 L358.749741,148.294249 L358.848188,148.807065 C359.061127,150.006374 359.156604,151.224014 359.133021,152.442682 C359.133021,164.89925 350.11469,173.320158 337.838488,173.342661 C329.469345,173.657732 321.591814,169.393616 317.279517,162.214067 C312.96722,155.034518 312.903458,146.077169 317.113112,138.836958 C321.322765,131.596748 329.138794,127.22092 337.511574,127.416817 Z M375.655184,143.73729 L376.042391,143.739997 C383.144325,143.739997 390.821179,148.77899 390.821179,158.563877 C390.774194,166.753786 384.097026,173.355012 375.907116,173.308564 C367.717205,173.261624 361.115742,166.58469 361.161902,158.394778 L361.161902,158.394778 L361.161902,158.079138 L361.173561,157.692097 C361.335656,153.957259 362.926321,150.421118 365.625312,147.820271 C368.417372,145.129741 372.165743,143.661536 376.042391,143.739992 Z M407.8965,143.738479 L408.28292,143.739992 L408.294195,143.751271 L408.568474,143.753755 C415.614543,143.881254 423.106801,148.915565 423.106801,158.563877 C423.056744,166.751587 416.380499,173.349415 408.19277,173.302979 C400.00504,173.256051 393.404461,166.582526 393.447557,158.394778 L393.447557,158.394778 L393.447557,158.079138 L393.459201,157.69289 C393.620952,153.965677 395.205491,150.436066 397.895003,147.836477 C400.677257,145.147246 404.414006,143.673656 408.28292,143.739992 Z M481.635752,143.739992 L481.957445,143.748295 C487.306852,143.950434 492.034158,147.330069 493.945781,152.352499 L493.945781,152.352499 L494.971628,154.753629 L475.176386,162.960309 C476.436002,165.805127 479.304815,167.592551 482.413588,167.469474 C485.368723,167.506306 488.117301,165.957814 489.61699,163.411226 L489.61699,163.411226 L494.723617,166.7931 C491.91636,170.871305 487.274352,173.297806 482.3234,173.275024 C478.410734,173.333097 474.645591,171.783318 471.90753,168.987723 C469.169469,166.192128 467.698309,162.395577 467.837721,158.484963 C467.837721,149.69209 474.128005,143.739992 481.613224,143.739992 L481.613224,143.739992 L481.635752,143.739992 Z M464.906763,128.893567 L464.906763,172.395736 L458.402291,172.395736 L458.402291,128.893567 L464.906763,128.893567 Z M376.121302,149.556816 L376.11003,149.579362 C371.330314,149.579362 367.666619,153.265605 367.666619,158.507509 C367.666619,163.749414 371.38668,167.525839 376.098756,167.525839 C380.382464,167.525839 384.395621,164.211602 384.395621,158.575146 C384.395621,152.938691 380.37119,149.556816 376.121302,149.556816 L376.121302,149.556816 Z M408.373108,149.556816 L408.361837,149.579362 C403.58212,149.579362 399.918423,153.265605 399.918423,158.507509 C399.918423,163.749414 403.638486,167.525839 408.350563,167.525839 C412.634271,167.525839 416.647428,164.211602 416.647428,158.575146 C416.647428,152.938691 412.622996,149.556816 408.373108,149.556816 L408.373108,149.556816 Z M440.512179,149.50045 L440.523453,149.511725 L440.296047,149.515072 C436.205024,149.635447 432.260408,152.99608 432.260408,158.530055 C432.260408,164.031236 436.194653,167.413108 440.421996,167.413108 C444.412607,167.413108 448.403218,164.211602 448.403218,158.518781 C448.403218,152.825959 444.401333,149.50045 440.512179,149.50045 L440.512179,149.50045 Z M482.116122,149.371374 L481.872486,149.37645 L481.872486,149.398996 L481.647843,149.403031 C477.459093,149.553222 473.5519,153.870583 474.116733,158.079138 L474.116733,158.079138 L487.339865,152.532865 C486.281704,150.511427 484.152178,149.282014 481.872486,149.37645 Z" id="Combined-Shape" fill="#FFFFFF" fill-rule="nonzero"></path>
        <path d="M355.04095,202.35213 C356.375766,202.343175 357.693537,202.65233 358.885013,203.254161 C360.018874,203.809488 360.986862,204.653076 361.69197,205.700383 L361.849793,205.700383 L361.849793,202.994884 L365.355668,202.994884 L365.355668,221.685373 C365.508731,224.40452 364.54351,227.068043 362.683989,229.057859 C360.774254,230.878823 358.207393,231.846989 355.570781,231.740811 C354.534079,231.748141 353.501623,231.607697 352.504549,231.323714 C351.583147,231.075545 350.702322,230.695879 349.889233,230.196424 C349.11741,229.69838 348.432029,229.07773 347.860107,228.358937 C347.308866,227.686348 346.87792,226.923612 346.586268,226.104355 L350.058325,224.661422 C350.436696,225.77709 351.163919,226.741451 352.132541,227.412012 C353.124504,228.10109 354.306686,228.463626 355.514415,228.449122 C357.255426,228.550448 358.9558,227.897405 360.181403,226.656727 C361.360512,225.291038 361.962785,223.520597 361.861064,221.719193 L361.861064,219.791523 L361.703242,219.791523 C360.998135,220.83883 360.030147,221.682419 358.896287,222.237747 C357.704661,222.839168 356.386991,223.148298 355.052224,223.139578 C352.526798,223.153044 350.121718,222.061698 348.468843,220.152257 C346.665332,218.116713 345.695268,215.476208 345.752071,212.757226 C345.683263,210.04505 346.650761,207.408616 348.457569,205.38474 C350.09724,203.452254 352.506601,202.342463 355.04095,202.35213 Z M469.697751,202.994884 L475.514572,217.02966 L475.593483,217.02966 L481.229944,202.994884 L485.220538,202.994884 L473.011986,231.177166 L469.224288,231.177166 L473.733453,221.335913 L465.707139,202.994884 L469.697751,202.994884 Z M391.73992,193.290254 C395.657559,193.290254 399.414653,194.846946 402.184274,197.617703 C404.982844,200.40954 406.511308,204.228663 406.411616,208.180423 C406.425483,210.330357 405.983652,212.458831 405.115231,214.425619 C404.273118,216.364004 403.028057,218.100942 401.462808,219.520975 L403.435567,222.542115 L400.549703,224.413417 L398.588216,221.505007 C396.459768,222.569954 394.114263,223.129326 391.734284,223.139578 C387.803822,223.224681 384.017587,221.658668 381.295567,218.822053 C375.659752,212.877376 375.659752,203.56238 381.295567,197.617703 C384.065187,194.846946 387.822281,193.290254 391.73992,193.290254 Z M413.648828,202.994884 L413.648828,215.023081 C413.731489,218.224589 415.332243,219.825343 418.451087,219.825343 C419.879439,219.832545 421.229664,219.174102 422.103513,218.044222 C423.030072,216.926374 423.548899,215.530052 423.580469,214.084115 L423.580263,202.994884 L427.24396,202.994884 L427.24396,222.497024 L423.760631,222.497024 L423.760631,219.791523 L423.602809,219.791523 C422.98238,220.812381 422.093241,221.643026 421.032585,222.192655 C419.932234,222.816183 418.689981,223.146156 417.425253,223.150852 C415.376137,223.282853 413.367629,222.536836 411.901526,221.099182 C410.52415,219.477969 409.836257,217.381918 409.985131,215.259812 L409.985131,202.994884 L413.648828,202.994884 Z M440.045266,202.338324 C442.647263,202.308683 445.153171,203.320278 447.005377,205.148009 C448.850879,207.346705 449.772167,210.175221 449.5756,213.039048 L449.5756,213.433602 L434.165529,213.433602 C434.145792,215.171402 434.838287,216.841535 436.081925,218.055496 C437.506048,219.446514 439.513241,220.06599 441.473602,219.719518 C443.433964,219.373046 445.107221,218.103091 445.968269,216.308194 L449.237412,217.897673 C448.405333,219.49897 447.144744,220.837616 445.596263,221.764284 C443.989533,222.699484 442.156731,223.175232 440.297993,223.139578 C437.620377,223.216815 435.038352,222.141314 433.20733,220.186077 C431.32998,218.16844 430.328747,215.489028 430.422921,212.73468 C430.339929,209.999201 431.31737,207.337494 433.150967,205.305831 C434.961056,203.436381 437.44327,202.367964 440.045266,202.338324 Z M342.336379,202.994884 L342.336379,222.51957 L338.672685,222.51957 L338.672685,202.994884 L342.336379,202.994884 Z M325.629923,193.976554 C327.788119,193.943947 329.874289,194.75254 331.446747,196.231135 C333.041724,197.626589 333.933913,199.658797 333.881697,201.777408 C334.018942,204.387035 332.456819,206.787147 330.015086,207.718235 L330.015086,207.876058 C331.418264,208.313843 332.645988,209.186276 333.520963,210.36737 C334.394315,211.534289 334.857955,212.956912 334.839893,214.414347 C334.896953,216.630751 333.972909,218.759353 332.314761,220.231171 C330.655824,221.752768 328.465884,222.562358 326.216114,222.485752 L315.315201,222.485752 L315.303929,222.497024 L315.303929,193.976554 L325.629923,193.976554 Z M464.906765,202.893427 L463.779475,206.444396 C463.084457,206.222169 462.355147,206.12671 461.626348,206.162573 C460.235909,206.166992 458.91735,206.780946 458.019016,207.842235 C457.025653,208.897002 456.476624,210.293796 456.485898,211.742664 L456.484929,222.496254 L452.901109,222.497024 L452.901109,202.994884 L456.406986,202.994884 L456.406986,206.185119 L456.564809,206.185119 C456.995998,205.073037 457.790557,204.139431 458.819393,203.535984 C459.81612,202.845414 460.989541,202.454274 462.201265,202.408693 C463.12653,202.386553 464.046743,202.551424 464.906765,202.893427 Z M355.694773,205.689111 C353.998668,205.665501 352.379707,206.396511 351.275791,207.684415 C350.049973,209.087435 349.408515,210.906918 349.483398,212.7685 C349.406208,214.623627 350.048329,216.436913 351.275791,217.830036 C352.381844,219.113747 354.000498,219.84049 355.694773,219.814069 L355.694773,219.780252 C357.385788,219.82624 359.008046,219.110293 360.113753,217.830036 C362.496313,214.867796 362.496313,210.646655 360.113753,207.684415 C359.016704,206.38738 357.393186,205.654312 355.694773,205.689111 Z M391.723013,196.839872 C388.781697,196.769473 385.946431,197.939583 383.910882,200.063927 C379.769622,204.716994 379.769622,211.734036 383.910882,216.387103 C385.950482,218.528568 388.800423,219.707854 391.75683,219.633703 C393.423115,219.63345 395.066741,219.247623 396.559092,218.506413 L393.177218,213.478694 L396.063084,211.528478 L399.366047,216.511106 C401.577393,214.33513 402.764982,211.325204 402.635191,208.225515 C402.74626,205.189484 401.609768,202.240304 399.49005,200.063927 C397.474095,197.938303 394.651664,196.766727 391.723013,196.839872 Z M326.182297,209.679722 L318.966929,209.679254 L318.967626,218.991147 L326.340117,218.991147 C328.859997,219.015499 330.936745,217.052324 331.078629,214.561467 L331.086017,214.346707 L331.086017,214.346707 C331.087483,213.111534 330.582204,211.929831 329.688172,211.077561 C328.762285,210.148131 327.493674,209.642319 326.182297,209.679722 Z M439.971079,205.677837 C438.667711,205.651728 437.40011,206.105016 436.408839,206.951676 C435.388896,207.843196 434.694809,209.048924 434.436078,210.378642 L434.436078,210.389913 L445.630081,210.389913 C445.553581,209.086011 444.956506,207.867492 443.972962,207.008041 C442.853442,206.077708 441.42477,205.602826 439.971079,205.677837 Z M325.776472,197.459883 L319.012718,197.459883 L318.967626,197.471157 L318.967626,206.196391 L325.618652,206.196391 C326.84365,206.226531 328.026676,205.749241 328.887795,204.87746 C330.578684,203.263835 330.644243,200.585976 329.034341,198.891542 L328.9216,198.778801 C328.105766,197.91583 326.963813,197.436949 325.776472,197.459883 Z M342.336379,194.393651 C342.830882,194.875701 343.104211,195.540666 343.091665,196.231135 C343.085527,197.46158 342.211809,198.516669 341.004077,198.752073 C339.796345,198.987478 338.590334,198.337759 338.122539,197.19969 C337.654744,196.061622 338.055206,194.751574 339.079368,194.069574 C340.10353,193.387574 341.466687,193.52321 342.336379,194.393651 Z" id="Combined-Shape" fill="#FFFFFF" fill-rule="nonzero"></path>
    </g>
</svg>