<?xml version="1.0" encoding="UTF-8"?>
<svg width="640px" height="360px" viewBox="0 0 640 360" version="1.1" xmlns="http://www.w3.org/2000/svg" xmlns:xlink="http://www.w3.org/1999/xlink">
    <title>bigquery-importer/picture</title>
    <g id="bigquery-importer/picture" stroke="none" stroke-width="1" fill="none" fill-rule="evenodd">
        <rect id="Rectangle" fill="#FFFFFF" x="0" y="0" width="640" height="360"></rect>
        <g id="Group" transform="translate(168.000000, 141.000000)">
            <text id="BigQuery" font-family="NittiGrotesk-Light, Nitti Grotesk" font-size="28" font-weight="300" letter-spacing="3.333333" fill="#4386FA">
                <tspan x="113" y="25">BIGQUERY</tspan>
            </text>
            <text id="Importer" font-family="NittiGrotesk-Bold, Nitti Grotesk" font-size="52" font-weight="bold" fill="#4386FA">
                <tspan x="113" y="67">Importer</tspan>
            </text>
            <g id="bquery" fill-rule="nonzero">
                <g id="Group-4" transform="translate(0.527781, 0.290000)">
                    <path d="M19.2622193,72.47 L0.742219263,40.39 C-0.247406421,38.675918 -0.247406421,36.564082 0.742219263,34.85 L19.2622193,2.77 C20.2504538,1.05832307 22.0757482,0.00277701377 24.0522193,7.10542736e-15 L61.1122193,7.10542736e-15 C63.0815384,0.00988975679 64.8975721,1.06448377 65.8822193,2.77 L84.4022193,34.85 C85.3918449,36.564082 85.3918449,38.675918 84.4022193,40.39 L65.8822193,72.47 C64.8939847,74.1816769 63.0686903,75.237223 61.0922193,75.24 L24.0422193,75.24 C22.0693233,75.233662 20.2486622,74.1785927 19.2622193,72.47 L19.2622193,72.47 Z" id="Path" fill="#4386FA"></path>
                    <path d="M54.1422193,27.29 C54.1422193,27.29 59.2922193,39.64 52.2722193,46.64 C45.2522193,53.64 32.4722193,49.16 32.4722193,49.16 C32.4722193,49.16 51.4722193,68.41 58.4722193,75.23 L61.1122193,75.23 C63.0886903,75.227223 64.9139847,74.1716769 65.9022193,72.46 L78.1622193,51.23 L54.1422193,27.29 Z" id="Path" fill="#000000" opacity="0.1"></path>
                    <path d="M60.2222193,52.56 L54.5322193,46.87 C54.4705629,46.8065232 54.3997843,46.7525967 54.3222193,46.71 C59.3197413,40.2436514 58.4254845,31.0055374 52.2804769,25.6177945 C46.1354693,20.2300516 36.8597404,20.5514528 31.1023901,26.3516087 C25.3450397,32.1517646 25.0923556,41.4296197 30.5254686,47.5345501 C35.9585816,53.6394804 45.2030662,54.4652832 51.6322193,49.42 C51.6725603,49.4933921 51.7230584,49.5607228 51.7822193,49.62 L57.4722193,55.31 C57.6391812,55.4773207 57.8658456,55.5713507 58.1022193,55.5713507 C58.3385929,55.5713507 58.5652573,55.4773207 58.7322193,55.31 L58.7322193,55.31 L60.2222193,53.82 C60.3895399,53.6530381 60.4835699,53.4263736 60.4835699,53.19 C60.4835699,52.9536264 60.3895399,52.7269619 60.2222193,52.56 L60.2222193,52.56 Z M42.0922193,48.88 C35.6636248,48.88 30.4522193,43.6685945 30.4522193,37.24 C30.4522193,30.8114055 35.6636248,25.6 42.0922193,25.6 C48.5208138,25.6 53.7322193,30.8114055 53.7322193,37.24 C53.7322193,40.3271199 52.5058656,43.2877995 50.3229422,45.4707229 C48.1400188,47.6536464 45.1793392,48.88 42.0922193,48.88 L42.0922193,48.88 Z" id="Shape" fill="#FFFFFF"></path>
                    <path d="M34.6522193,36.62 L34.6522193,41.43 C35.3933711,42.7381862 36.4660192,43.8280795 37.7622193,44.59 L37.7622193,36.59 L34.6522193,36.62 Z" id="Path" fill="#FFFFFF"></path>
                    <path d="M34.6522193,36.62 L34.6522193,41.43 C35.3933711,42.7381862 36.4660192,43.8280795 37.7622193,44.59 L37.7622193,36.59 L34.6522193,36.62 Z" id="Path" fill="#FFFFFF"></path>
                    <path d="M40.4722193,32.63 L40.4722193,45.63 C41.5002305,45.8194494 42.554208,45.8194494 43.5822193,45.63 L43.5822193,32.63 L40.4722193,32.63 Z" id="Path" fill="#FFFFFF"></path>
                    <path d="M40.4722193,32.63 L40.4722193,45.63 C41.5002305,45.8194494 42.554208,45.8194494 43.5822193,45.63 L43.5822193,32.63 L40.4722193,32.63 Z" id="Path" fill="#FFFFFF"></path>
                    <path d="M49.4722193,41.42 L49.4722193,38.57 L46.3622193,38.57 L46.3622193,44.57 C47.6571408,43.8108403 48.7296694,42.7245171 49.4722193,41.42 Z" id="Path" fill="#FFFFFF"></path>
                    <path d="M49.4722193,41.42 L49.4722193,38.57 L46.3622193,38.57 L46.3622193,44.57 C47.6571408,43.8108403 48.7296694,42.7245171 49.4722193,41.42 Z" id="Path" fill="#FFFFFF"></path>
                </g>
                <g id="Group-4" transform="translate(0.527781, 0.290000)">
                    <path d="M19.2622193,72.47 L0.742219263,40.39 C-0.247406421,38.675918 -0.247406421,36.564082 0.742219263,34.85 L19.2622193,2.77 C20.2504538,1.05832307 22.0757482,0.00277701377 24.0522193,7.10542736e-15 L61.1122193,7.10542736e-15 C63.0815384,0.00988975679 64.8975721,1.06448377 65.8822193,2.77 L84.4022193,34.85 C85.3918449,36.564082 85.3918449,38.675918 84.4022193,40.39 L65.8822193,72.47 C64.8939847,74.1816769 63.0686903,75.237223 61.0922193,75.24 L24.0422193,75.24 C22.0693233,75.233662 20.2486622,74.1785927 19.2622193,72.47 L19.2622193,72.47 Z" id="Path" fill="#4386FA"></path>
                    <path d="M54.1422193,27.29 C54.1422193,27.29 59.2922193,39.64 52.2722193,46.64 C45.2522193,53.64 32.4722193,49.16 32.4722193,49.16 C32.4722193,49.16 51.4722193,68.41 58.4722193,75.23 L61.1122193,75.23 C63.0886903,75.227223 64.9139847,74.1716769 65.9022193,72.46 L78.1622193,51.23 L54.1422193,27.29 Z" id="Path" fill="#000000" opacity="0.1"></path>
                    <path d="M60.2222193,52.56 L54.5322193,46.87 C54.4705629,46.8065232 54.3997843,46.7525967 54.3222193,46.71 C59.3197413,40.2436514 58.4254845,31.0055374 52.2804769,25.6177945 C46.1354693,20.2300516 36.8597404,20.5514528 31.1023901,26.3516087 C25.3450397,32.1517646 25.0923556,41.4296197 30.5254686,47.5345501 C35.9585816,53.6394804 45.2030662,54.4652832 51.6322193,49.42 C51.6725603,49.4933921 51.7230584,49.5607228 51.7822193,49.62 L57.4722193,55.31 C57.6391812,55.4773207 57.8658456,55.5713507 58.1022193,55.5713507 C58.3385929,55.5713507 58.5652573,55.4773207 58.7322193,55.31 L58.7322193,55.31 L60.2222193,53.82 C60.3895399,53.6530381 60.4835699,53.4263736 60.4835699,53.19 C60.4835699,52.9536264 60.3895399,52.7269619 60.2222193,52.56 L60.2222193,52.56 Z M42.0922193,48.88 C35.6636248,48.88 30.4522193,43.6685945 30.4522193,37.24 C30.4522193,30.8114055 35.6636248,25.6 42.0922193,25.6 C48.5208138,25.6 53.7322193,30.8114055 53.7322193,37.24 C53.7322193,40.3271199 52.5058656,43.2877995 50.3229422,45.4707229 C48.1400188,47.6536464 45.1793392,48.88 42.0922193,48.88 L42.0922193,48.88 Z" id="Shape" fill="#FFFFFF"></path>
                    <path d="M34.6522193,36.62 L34.6522193,41.43 C35.3933711,42.7381862 36.4660192,43.8280795 37.7622193,44.59 L37.7622193,36.59 L34.6522193,36.62 Z" id="Path" fill="#FFFFFF"></path>
                    <path d="M34.6522193,36.62 L34.6522193,41.43 C35.3933711,42.7381862 36.4660192,43.8280795 37.7622193,44.59 L37.7622193,36.59 L34.6522193,36.62 Z" id="Path" fill="#FFFFFF"></path>
                    <path d="M40.4722193,32.63 L40.4722193,45.63 C41.5002305,45.8194494 42.554208,45.8194494 43.5822193,45.63 L43.5822193,32.63 L40.4722193,32.63 Z" id="Path" fill="#FFFFFF"></path>
                    <path d="M40.4722193,32.63 L40.4722193,45.63 C41.5002305,45.8194494 42.554208,45.8194494 43.5822193,45.63 L43.5822193,32.63 L40.4722193,32.63 Z" id="Path" fill="#FFFFFF"></path>
                    <path d="M49.4722193,41.42 L49.4722193,38.57 L46.3622193,38.57 L46.3622193,44.57 C47.6571408,43.8108403 48.7296694,42.7245171 49.4722193,41.42 Z" id="Path" fill="#FFFFFF"></path>
                    <path d="M49.4722193,41.42 L49.4722193,38.57 L46.3622193,38.57 L46.3622193,44.57 C47.6571408,43.8108403 48.7296694,42.7245171 49.4722193,41.42 Z" id="Path" fill="#FFFFFF"></path>
                </g>
            </g>
        </g>
    </g>
</svg>