<?xml version="1.0" encoding="UTF-8"?>
<svg width="257px" height="257px" viewBox="0 0 257 257" version="1.1" xmlns="http://www.w3.org/2000/svg" xmlns:xlink="http://www.w3.org/1999/xlink">
    <title>mysql-importer/logo</title>
    <g id="mysql-importer/logo" stroke="none" stroke-width="1" fill="none" fill-rule="evenodd">
        <rect fill="#5D87A1" x="0" y="0" width="257" height="257"></rect>
        <path d="M199.577189,173.84315 C190.32328,173.611984 183.158464,174.527522 177.144971,177.027762 C175.408702,177.709093 172.648004,177.709093 172.406598,179.865626 C173.344369,180.778122 173.452692,182.250283 174.266665,183.509528 C175.653203,185.781644 178.070362,188.838506 180.277063,190.432333 C182.700411,192.257326 185.133044,194.064068 187.683285,195.654854 C192.180252,198.389301 197.277639,199.980086 201.660093,202.705409 C204.213429,204.29011 206.75129,206.340186 209.307721,208.046554 C210.564272,208.956008 211.36896,210.431211 213,211 L213,210.653251 C212.182932,209.631256 211.950811,208.153012 211.149218,207.015433 L207.676681,203.724363 C204.321752,199.295714 200.152851,195.429771 195.655884,192.254284 C191.95432,189.747961 183.857924,186.341308 182.356871,182.149908 L182.121655,181.918743 C184.665706,181.684535 187.683285,180.778122 190.100444,180.081583 C194.034129,179.062629 197.621179,179.293795 201.656998,178.274841 C203.513969,177.818592 205.355466,177.246761 207.218628,176.684055 L207.218628,175.659018 C205.12644,173.611984 203.634673,170.892745 201.434161,168.958253 C195.547561,163.960815 189.060539,159.072877 182.356871,154.981851 C178.766726,152.703652 174.149056,151.237575 170.32679,149.300041 C168.949536,148.615669 166.628321,148.278045 165.817443,147.140466 C163.743825,144.640227 162.577028,141.349157 161.07288,138.389627 C157.730331,132.14511 154.483726,125.216222 151.59923,118.61279 C149.513231,114.184141 148.244301,109.761576 145.700249,105.664467 C133.784681,86.3499622 120.844683,74.6517595 100.956516,63.1695142 C96.6823856,60.7787739 91.597378,59.7598197 86.1657357,58.5066581 L77.4905827,58.0564932 C75.6398009,57.2595798 73.7859241,55.0969635 72.1703587,54.0749676 C65.5719192,49.9869842 48.5837228,41.126645 43.7308366,52.8248477 C40.6049342,60.2191095 48.3546962,67.4886634 51.0163557,71.2390233 C52.9816508,73.8426794 55.528797,76.8052508 56.9029561,79.7617388 C57.7169287,81.6931893 57.9459552,83.7432644 58.7599279,85.7842145 C60.6107097,90.7846943 62.3407883,96.3478801 64.7734213,101.013778 C66.042352,103.392352 67.4257959,105.892592 69.0475513,108.046083 C69.9760371,109.305328 71.5916025,109.86195 71.9444272,111.915067 C70.3319567,114.178058 70.2050636,117.593836 69.2796727,120.434741 C65.120056,133.273564 66.7449063,149.178375 72.6407916,158.613587 C74.4853835,161.454492 78.8864065,167.708133 84.7730069,165.31131 C89.9849075,163.267318 88.8304901,156.791636 90.3284473,151.112867 C90.6719871,149.741081 90.4460555,148.840751 91.139325,147.940422 L91.139325,148.162462 C92.7517954,151.340991 94.3797406,154.403937 95.8746029,157.591591 C99.4616533,163.154777 105.707268,168.95217 110.909884,172.805946 C113.679867,174.862104 115.874188,178.378257 119.343631,179.63446 L119.343631,179.293795 L119.114604,179.293795 C118.41205,178.274841 117.384525,177.818592 116.46223,177.027762 C114.376231,174.980729 112.067396,172.480489 110.448736,170.211415 C105.60204,163.845232 101.312435,156.797719 97.5056431,149.525123 C95.6424814,145.996804 94.0362009,142.139987 92.5351487,138.617751 C91.8356894,137.258131 91.8356894,135.208056 90.675082,134.523684 C88.9357185,137.020882 86.4009521,139.183499 85.1320214,142.243403 C82.9315099,147.137425 82.7024834,153.156859 81.8854158,159.416584 L81.4304578,159.635583 C77.7474638,158.726128 76.4661533,154.981851 75.0672346,151.803323 C71.6039823,143.730772 71.0221312,130.773324 74.0273305,121.459779 C74.8320182,119.078163 78.3138402,111.577444 76.9242064,109.308369 C76.227842,107.133587 73.9128172,105.895633 72.6438865,104.183182 C71.1521192,102.02969 69.5179841,99.3043682 68.4780799,96.9136278 C65.7050021,90.5535285 64.3091784,83.5060153 61.3225488,77.1489577 C59.9267251,74.1863863 57.503377,71.1203987 55.5411769,68.3920348 C53.3375704,65.3260472 50.9142223,63.1664726 49.1717638,59.5316956 C48.5961026,58.2815756 47.7883199,56.2375839 48.7137108,54.8779644 C48.9396423,53.9654681 49.4100752,53.6248028 50.3323711,53.3966787 C51.8303283,52.1526421 56.1106482,53.7343024 57.6117003,54.4186746 C61.8982101,56.122001 65.4821655,57.7127863 69.0599311,60.0974433 C70.6785914,61.2380637 72.41486,63.3976383 74.4915734,63.9664277 L76.9242064,63.9664277 C80.6164852,64.7572578 84.7791968,64.1854268 88.2548289,65.213506 C94.3797406,67.1479981 99.9289912,69.9858617 104.905675,73.0488076 C120.04928,82.4870611 132.537415,95.8977153 140.968066,111.915067 C142.35151,114.524807 142.939551,116.915547 144.202292,119.637828 C146.63802,125.210138 149.649409,130.891949 152.066568,136.345635 C154.496106,141.683739 156.81113,147.134383 160.280573,151.569115 C162.010651,153.953772 168.961915,155.203892 172.078533,156.454012 C174.384273,157.472966 177.974418,158.379379 180.054227,159.629499 C183.987912,162.011115 187.906122,164.745562 191.604591,167.364426 C193.446088,168.727088 199.23365,171.567993 199.577189,173.84315 M81.6069635,76.0008766 C80.0529932,75.9859286 78.5037706,76.1622109 77,76.5250917 L77,76.73422 L77.2169401,76.73422 C78.1238701,78.3988817 79.6996987,79.5532701 80.8235688,81.0060151 C81.7304988,82.6762535 82.5169066,84.33255 83.4057583,86 L83.6226984,85.79366 C85.2105792,84.753595 86,83.086145 86,80.58497 C85.3160362,79.8488382 85.2105792,79.1294367 84.6411115,78.3988817 C83.978239,77.3560283 82.5169066,76.83739 81.6069635,76.0008766" id="Shape" fill="#FFFFFF" fill-rule="nonzero"></path>
    </g>
</svg>