<?xml version="1.0" encoding="UTF-8"?>
<svg width="640px" height="360px" viewBox="0 0 640 360" version="1.1" xmlns="http://www.w3.org/2000/svg" xmlns:xlink="http://www.w3.org/1999/xlink">
    <title>mysql-importer/picture</title>
    <g id="mysql-importer/picture" stroke="none" stroke-width="1" fill="none" fill-rule="evenodd">
        <rect id="Rectangle" fill="#FFFFFF" x="0" y="0" width="640" height="360"></rect>
        <g id="Group-2" transform="translate(163.000000, 133.000000)">
            <g id="Group" transform="translate(122.000000, 8.000000)">
                <text id="MySQL" font-family="NittiGrotesk-Light, Nitti Grotesk" font-size="28" font-weight="300" letter-spacing="3.333333">
                    <tspan x="0" y="24" fill="#5D87A1">My</tspan>
                    <tspan x="37.072916" y="24" fill="#F8981D">SQL</tspan>
                </text>
                <text id="Importer-Copy" font-family="NittiGrotesk-Bold, Nitti Grotesk" font-size="52" font-weight="bold" fill="#5D87A1">
                    <tspan x="0" y="66">Importer</tspan>
                </text>
            </g>
            <g id="mysql">
                <circle id="Oval" fill="#5D87A1" cx="47" cy="47" r="47"></circle>
                <path d="M73.9467066,63.9528982 C70.462882,63.8655063 67.7655395,64.2116243 65.5016361,65.156837 C64.847982,65.4144132 63.8086604,65.4144132 63.717778,66.2296878 C64.0708211,66.5746559 64.1116017,67.1312045 64.4180384,67.6072605 C64.9400296,68.4662311 65.8500185,69.6218743 66.6807767,70.2244186 C67.593096,70.9143549 68.5089108,71.5973917 69.4690016,72.1987862 C71.1619772,73.2325406 73.0809936,73.833935 74.7308584,74.8642398 C75.6921144,75.4633344 76.6475445,76.2383628 77.6099656,76.8834532 C78.0830201,77.2272714 78.3859613,77.7849699 79,78 L79,77.8689121 C78.6923981,77.4825478 78.6050112,76.9236995 78.3032351,76.4936392 L76.995927,75.2494542 C75.7328949,73.5752089 74.1634261,72.113694 72.4704505,70.913205 C71.0769206,69.9656925 68.0288654,68.6778116 67.4637634,67.093258 L67.3752113,67.0058661 C68.3329718,66.9173243 69.4690016,66.5746559 70.3789905,66.3113303 C71.8599073,65.9261159 73.2103262,66.0135078 74.7296932,65.6282934 C75.4287885,65.4558093 76.1220579,65.2396293 76.8234835,65.026899 L76.8234835,64.6393848 C76.0358362,63.8655063 75.4742297,62.8375013 74.6458018,62.1061689 C72.4296699,60.2168935 69.9874972,58.3690143 67.4637634,56.8224072 C66.1121792,55.9611368 64.3737624,55.4068881 62.9347914,54.6744058 C62.4162957,54.4156797 61.5424267,54.2880415 61.2371551,53.8579812 C60.4564987,52.9127686 60.0172339,51.6685836 59.4509668,50.549737 C58.1925953,48.1890052 56.9703438,45.5695472 55.8844159,43.073128 C55.0990989,41.3988827 54.6213838,39.7269372 53.6636233,38.1780304 C49.1777622,30.8762052 44.3062335,26.4537139 36.8189235,22.1128651 C35.2098393,21.2090487 33.2954835,20.8238343 31.2506299,20.350078 L27.98469,20.1798938 C27.287925,19.8786216 26.589995,19.0610472 25.9817821,18.6746829 C23.4976637,17.1292257 17.1021074,13.7795853 15.2751385,18.2020766 C14.0983282,20.9974682 17.0158856,23.7457142 18.0179222,25.1635332 C18.757798,26.1478422 19.7167236,27.2678387 20.2340541,28.3855354 C20.5404908,29.1157179 20.6267126,29.8907463 20.9331493,30.662325 C21.6299142,32.5527503 22.281238,34.6559059 23.1970527,36.4198429 C23.6747678,37.3190598 24.1955938,38.2642724 24.8061369,39.0783972 C25.1556846,39.5544532 25.7638974,39.7648837 25.8967255,40.541062 C25.2896778,41.3965829 25.2419063,42.6879136 24.8935238,43.7619143 C23.3275505,48.6156157 23.9392588,54.62841 26.1588862,58.1953804 C26.8533208,59.2693811 28.5101766,61.6335626 30.7263085,60.7274463 C32.6884358,59.9547178 32.2538316,57.506594 32.8177684,55.3597424 C32.947101,54.8411404 32.8620444,54.5007718 33.12304,54.1604033 L33.12304,54.2443455 C33.7300877,55.4459845 34.3429612,56.6039274 34.9057329,57.8090161 C36.2561518,59.9121717 38.6074422,62.1038691 40.566074,63.5607845 C41.6088911,64.3381126 42.4349886,65.6673898 43.7411315,66.1422959 L43.7411315,66.0135078 L43.6549098,66.0135078 C43.3904188,65.6282934 43.0035861,65.4558093 42.6563688,65.156837 C41.8710518,64.3829585 41.0018434,63.4377459 40.3924653,62.5799251 C38.5678268,60.1731976 36.9529168,57.5088938 35.5197715,54.7594979 C34.8183459,53.4256212 34.2136286,51.9675559 33.6485266,50.635979 C33.3852007,50.1219765 33.3852007,49.3469481 32.9482662,49.088222 C32.293447,50.0322848 31.339182,50.8498592 30.8614669,52.0066523 C30.033039,53.8568313 29.9468173,56.132471 29.6392154,58.4989523 L29.467937,58.5817446 C28.0813981,58.2379264 27.5990224,56.8224072 27.0723707,55.6207683 C25.7685581,52.5689504 25.5495082,47.6704031 26.6808773,44.1494285 C26.9838186,43.2490617 28.2946222,40.4134238 27.7714659,39.5556031 C27.5093052,38.733429 26.6377665,38.2654223 26.1600514,37.6180321 C25.5984449,36.8039074 24.9832411,35.7736026 24.5917477,34.8697861 C23.5477655,32.4653583 23.0222789,29.8010546 21.8979007,27.3977767 C21.3724142,26.2777802 20.4600949,25.1186873 19.7213842,24.0872327 C18.8917912,22.9281398 17.9794719,22.1117152 17.3234876,20.7375922 C17.106768,20.2649859 16.8026616,19.4922573 17.1510441,18.9782548 C17.2361006,18.6332867 17.4132048,18.5044986 17.7604221,18.4182566 C18.3243589,17.9479501 19.9357734,18.5458948 20.5008754,18.8046209 C22.1146203,19.4485614 23.4638741,20.0499558 24.8107976,20.9514725 C25.4201756,21.3826826 26.0738296,22.1991072 26.8556512,22.4141373 L27.7714659,22.4141373 C29.1615003,22.7131097 30.7286388,22.4969296 32.037112,22.8855937 C34.3429612,23.6169261 36.4320908,24.689777 38.305666,25.84772 C44.0067877,29.4158402 48.7082032,34.4857216 51.8820956,40.541062 C52.4029216,41.5276708 52.6243017,42.4314873 53.0996865,43.4606422 C54.0166664,45.5672475 55.1503659,47.7152489 56.0603548,49.7770084 C56.9750044,51.7950719 57.8465432,53.8556814 59.1526861,55.5322265 C59.8040099,56.4337432 62.4209564,56.9063495 63.5942712,57.3789558 C64.4623145,57.7641702 65.8138986,58.1068385 66.5968853,58.5794449 C68.077802,59.4798116 69.552893,60.5135661 70.9452577,61.5036246 C71.6385271,62.018777 73.8173739,63.0927777 73.9467066,63.9528982 M29.5471678,26.6227483 C28.9462425,26.616584 28.3471531,26.6892806 27.7656401,26.8389283 L27.7656401,26.9251704 L27.8495316,26.9251704 C28.2002443,27.6116569 28.8096224,28.0877129 29.2442266,28.6868076 C29.5949393,29.3755939 29.8990458,30.0586308 30.2427676,30.7462672 L30.326659,30.6611751 C30.9406977,30.2322647 31.2459693,29.5446283 31.2459693,28.5131736 C30.9814782,28.2096017 30.9406977,27.9129291 30.7204827,27.6116569 C30.4641478,27.1815967 29.8990458,26.9677164 29.5471678,26.6227483" id="Shape" fill="#FFFFFF" fill-rule="nonzero"></path>
            </g>
        </g>
    </g>
</svg>