<svg xmlns="http://www.w3.org/2000/svg" xmlns:xlink="http://www.w3.org/1999/xlink" width="257" height="257" viewBox="0 0 257 257">
  <defs>
    <circle id="logo-a" cx="128.5" cy="128.5" r="124.5"/>
    <path id="logo-d" d="M9.6,0 L64.0531716,0 L102,38.5703187 L102,132.4 C102,137.701934 97.7019336,142 92.4,142 L9.6,142 C4.2980664,142 2.42565644e-15,137.701934 1.77635684e-15,132.4 L0,9.6 C-6.49299601e-16,4.2980664 4.2980664,2.75030624e-15 9.6,1.77635684e-15 Z"/>
    <filter id="logo-c" width="103.9%" height="102.8%" x="-2%" y="-.7%" filterUnits="objectBoundingBox">
      <feOffset dy="1" in="SourceAlpha" result="shadowOffsetOuter1"/>
      <feGaussianBlur in="shadowOffsetOuter1" result="shadowBlurOuter1" stdDeviation=".5"/>
      <feColorMatrix in="shadowBlurOuter1" values="0 0 0 0 0   0 0 0 0 0   0 0 0 0 0  0 0 0 0.2 0"/>
    </filter>
    <linearGradient id="logo-e" x1="50%" x2="50%" y1="0%" y2="100%">
      <stop offset="0%" stop-color="#28865D"/>
      <stop offset="100%" stop-color="#22A565"/>
    </linearGradient>
  </defs>
  <g fill="none" fill-rule="evenodd">
    <circle cx="128" cy="128" r="125" fill="#FFF" transform="translate(.5 .5)"/>
    <mask id="logo-b" fill="#fff">
      <use xlink:href="#logo-a"/>
    </mask>
    <use fill="#1D4D35" xlink:href="#logo-a"/>
    <g mask="url(#logo-b)">
      <g transform="translate(78 58)">
        <g>
          <use fill="#000" filter="url(#logo-c)" xlink:href="#logo-d"/>
          <use fill="#22A565" xlink:href="#logo-d"/>
        </g>
        <path fill="url(#logo-e)" d="M99.6036202,36.1016949 L102,38.5703187 L102,70.1900261 L68.137931,36.1016949 L99.6036202,36.1016949 Z"/>
        <path fill="#FFF" d="M26,70 L76,70 L76,115 L26,115 L26,70 Z M32,76 L32,83 L48,83 L48,76 L32,76 Z M32,89 L32,96 L48,96 L48,89 L32,89 Z M32,102 L32,109 L48,109 L48,102 L32,102 Z M54,76 L54,83 L70,83 L70,76 L54,76 Z M54,89 L54,96 L70,96 L70,89 L54,89 Z M54,102 L54,109 L70,109 L70,102 L54,102 Z"/>
        <path fill="#8ED0B0" d="M64,0.000543740272 L92.4,1.77635684e-15 C97.7019336,8.02407438e-16 102,4.2980664 102,9.6 C102,9.60018125 102,9.6003625 102,9.60054376 L101.997848,38.0005437 L64,0.000543740272 Z" transform="rotate(180 83 19)"/>
      </g>
    </g>
  </g>
</svg>
