<svg width="256" height="256" viewBox="0 0 256 256" xmlns="http://www.w3.org/2000/svg">
  <g fill="none" fill-rule="evenodd">
    <circle cx="128.5" cy="128.5" fill="#242a33" r="125.5"/>
    <g fill="#fff" fill-rule="nonzero">
      <path d="M207.879 102.26c-.101-2.033-.309-3.582-.441-4.64-.151-1.059-.227-1.62-.227-1.62l-.271 1.607c-.088.522-.189 1.179-.315 1.931a73.788 73.788 0 00-.466 2.557c-.366 1.9-.882 4.182-1.55 6.694a57.793 57.793 0 01-2.773 8.02c-1.197 2.754-2.703 5.502-4.612 7.963a30.976 30.976 0 01-6.805 6.49c-2.621 1.836-5.558 3.328-8.702 4.571-3.131 1.23-6.471 2.238-9.88 3.099-3.402.918-6.9 1.67-10.378 2.524-3.484.823-6.962 1.76-10.346 2.895-3.37 1.122-6.66 2.499-9.697 4.303-3.03 1.81-5.803 4.087-7.946 6.835-2.167 2.703-3.566 5.865-4.366 8.69-.271.968-.454 1.886-.605 2.792a25.855 25.855 0 00-.605-2.786c-.8-2.825-2.2-5.993-4.373-8.684-2.136-2.741-4.908-5.023-7.933-6.834-3.03-1.804-6.326-3.181-9.703-4.31-3.378-1.135-6.856-2.053-10.34-2.881-3.472-.868-6.976-1.626-10.378-2.544-3.415-.86-6.742-1.875-9.874-3.099-3.144-1.262-6.087-2.735-8.701-4.577a31.12 31.12 0 01-6.8-6.497c-1.908-2.454-3.408-5.208-4.612-7.956-1.197-2.748-2.091-5.49-2.772-8.014-.668-2.512-1.19-4.794-1.55-6.694a72.767 72.767 0 00-.479-2.57c-.12-.752-.227-1.396-.309-1.918-.182-1.046-.277-1.607-.277-1.607s-.082.561-.227 1.62c-.132 1.064-.34 2.632-.44 4.64-.114 2.015-.196 4.489-.039 7.345.158 2.869.567 6.12 1.406 9.614.856 3.475 2.18 7.217 4.196 10.743 2.01 3.519 4.65 6.815 7.744 9.467a36.122 36.122 0 004.87 3.608 39.61 39.61 0 005.23 2.818c3.554 1.67 7.228 2.8 10.85 3.781 3.636.912 7.24 1.651 10.744 2.282 1.733.306 3.46.619 5.16.918 1.67.326 3.315.65 4.94.963 3.201.676 6.226 1.44 8.942 2.493 2.715 1.045 5.122 2.352 7.076 4.01 3.988 3.239 6.01 8.103 6.987 11.718.246.924.454 1.747.599 2.474.176.726.309 1.364.384 1.9.19 1.039.284 1.606.284 1.606s.1-.567.296-1.607c.07-.529.202-1.154.372-1.887.157-.74.365-1.562.611-2.48.504-1.804 1.241-3.914 2.37-5.993 1.133-2.072 2.62-4.105 4.618-5.725 1.947-1.657 4.366-2.964 7.076-4.003 2.716-1.046 5.734-1.811 8.94-2.493 1.62-.313 3.265-.638 4.935-.956 1.713-.313 3.434-.625 5.16-.931a155.15 155.15 0 0010.743-2.289c3.623-.982 7.303-2.123 10.85-3.787a41.16 41.16 0 005.23-2.818 37.287 37.287 0 004.865-3.602c3.094-2.665 5.734-5.961 7.737-9.48 2.023-3.532 3.346-7.268 4.197-10.736a53.827 53.827 0 001.411-9.608c.158-2.856.082-5.33-.031-7.344"/>
      <path d="M180.755 100.067c-.064-1.318-.198-2.331-.287-3.015-.102-.685-.147-1.052-.147-1.052l-.185 1.045c-.051.342-.121.76-.204 1.255a55.175 55.175 0 00-.313 1.66c-.23 1.24-.58 2.723-1.02 4.358a36.274 36.274 0 01-1.825 5.22c-.79 1.786-1.773 3.579-3.036 5.175a20.135 20.135 0 01-4.485 4.226c-1.715 1.19-3.648 2.166-5.715 2.97-2.067.812-4.255 1.458-6.513 2.022-2.233.595-4.535 1.083-6.832 1.64-2.29.539-4.58 1.147-6.8 1.875-2.226.735-4.395 1.635-6.391 2.807-1.99 1.178-3.821 2.66-5.225 4.447-1.429 1.761-2.354 3.813-2.877 5.65-.178.628-.3 1.223-.395 1.812a17.163 17.163 0 00-.402-1.805c-.53-1.837-1.448-3.89-2.877-5.65-1.403-1.787-3.228-3.27-5.218-4.448-2.003-1.166-4.172-2.065-6.398-2.8-2.22-.735-4.51-1.337-6.806-1.875-2.284-.564-4.587-1.058-6.832-1.653-2.246-.564-4.434-1.223-6.5-2.021-2.067-.817-4.006-1.78-5.722-2.984a20.09 20.09 0 01-4.478-4.225c-1.257-1.59-2.246-3.383-3.037-5.163a36.274 36.274 0 01-1.824-5.22 60.87 60.87 0 01-1.02-4.359 49.12 49.12 0 00-.313-1.666l-.21-1.248c-.116-.684-.18-1.045-.18-1.045l-.146 1.052c-.09.69-.23 1.71-.293 3.021a41.612 41.612 0 00-.026 4.777c.102 1.856.37 3.972.925 6.252.568 2.262 1.435 4.688 2.762 6.988 1.32 2.293 3.062 4.434 5.097 6.17 1.008.88 2.092 1.66 3.208 2.338 1.11.709 2.271 1.317 3.439 1.837 2.34 1.083 4.758 1.818 7.15 2.458 2.393.595 4.76 1.077 7.068 1.482 1.142.196 2.278.405 3.394.602 1.103.209 2.182.418 3.26.614 2.105.45 4.095.944 5.88 1.628 1.787.672 3.375 1.533 4.664 2.61 2.622 2.11 3.949 5.27 4.6 7.634.165.595.299 1.127.395 1.596.114.475.197.9.242 1.236.128.684.198 1.045.198 1.045s.064-.361.191-1.04c.045-.341.134-.753.243-1.234.102-.476.242-1.02.401-1.603.332-1.172.817-2.56 1.557-3.909.746-1.35 1.729-2.673 3.049-3.718 1.282-1.077 2.87-1.933 4.657-2.61 1.786-.678 3.776-1.172 5.881-1.622 1.065-.21 2.156-.412 3.247-.615 1.123-.202 2.264-.411 3.406-.614 2.303-.405 4.67-.887 7.075-1.482 2.385-.64 4.803-1.381 7.138-2.465 1.18-.513 2.315-1.14 3.444-1.837a23.49 23.49 0 003.202-2.344 23.865 23.865 0 005.09-6.17c1.334-2.287 2.202-4.713 2.763-6.975.555-2.28.816-4.396.925-6.258.108-1.857.05-3.46-.02-4.777" opacity=".5"/>
    </g>
  </g>
</svg>
