<svg
  xmlns="http://www.w3.org/2000/svg"
  width="20"
  height="20"
  viewBox="0 0 24 24"
>
  <path
    d="m13 12.5862543v-11.58488389c0-.55228475-.4477153-1-1-1s-1 .44771525-1 1v11.58420099l-3.29084855-3.29126322c-.39049969-.39054889-1.02366467-.39058878-1.41421356-.00008909s-.39058878 1.02366471-.00008909 1.41421361l4.9979999 4.9986295c.3904792.3905285 1.0236038.3905918 1.4141612.0001415l5-4.9986296c.3905778-.3904708.3906646-1.02363573.0001938-1.41421354-.3904708-.39057782-1.0236357-.3906646-1.4142136-.00019384zm6 2.4137457c0-.5522847.4477153-1 1-1s1 .4477153 1 1v5c0 2.209139-1.790861 4-4 4h-10c-2.209139 0-4-1.790861-4-4v-5c0-.5522847.44771525-1 1-1s1 .4477153 1 1v5c0 1.1045695.8954305 2 2 2h10c1.1045695 0 2-.8954305 2-2zm-11 3h8c.5522847 0 1 .4477153 1 1s-.4477153 1-1 1h-8c-.55228475 0-1-.4477153-1-1s.44771525-1 1-1z"
    fill="#ffffff"
  ></path>
</svg>
