<svg height="257" viewBox="0 0 257 257" width="257" xmlns="http://www.w3.org/2000/svg"><g fill="none" fill-rule="evenodd"><circle cx="128.5" cy="128.5" fill="#31706c" r="125.5"/><g fill="#fff" fill-rule="nonzero" transform="translate(55 79)"><path d="m21.9356338 23.4158198-21.81099952-15.19537242v53.55746012l21.81099952-15.0708201z"/><path d="m73.9081299 98.6453685h54.4651821c9.721474 0 17.822702-8.9677608 17.822702-19.803805v-30.2661926z"/><path d="m146.196014 7.97134291-130.4920943 90.42492109h.1246343c.6231714.1245523 1.3709771.1245523 2.1187828.1245523h45.6161476l82.5078956-57.169475v-33.37999839z"/><path d="m146.196014.99641786h-146.196014l27.9180794 19.30559614v22.2948497l16.0778226-11.0851488 29.0397879 20.1774618zm-111.7969518 16.68999924-15.5792854-10.83604429 109.5535352-2.24194019zm38.6366277 26.7787301-26.1731994-18.184626 83.1310665-19.18104392z"/><path d="m43.995902 38.6111922-43.74663343 30.3907449v.1245522 10.8360443c.24926856 5.7294027 2.86658851 10.711492 6.48098272 14.3235068.62317142.6227611 1.37097712 1.2455223 2.2434171 1.8682834l58.95201591-40.8531324z"/></g></g></svg>