<svg height="257" viewBox="0 0 257 257" width="257" xmlns="http://www.w3.org/2000/svg"><g fill="none" fill-rule="evenodd"><path d="m0 0h257v257h-257z" fill="#2f326a"/><path d="m128.99985 137.714372c-19.21906 0-34.800661-15.606126-34.800661-34.857186 0-19.2510603 15.581601-34.857186 34.800661-34.857186s34.800661 15.6061257 34.800661 34.857186c0 19.25106-15.581601 34.857186-34.800661 34.857186zm-41.3126438-2.893835-24.7278129 24.767954c-13.0649658-15.244641-20.9593933-35.064479-20.9593933-56.731305h19.460556c8.4718853 0 15.1130264 7.023907 17.564031 15.14671 1.8592793 6.163144 4.8239135 11.845811 8.6626192 16.816641zm-15.3262879 34.185664 24.7278129-24.767953c8.8233158 6.83647 19.8933868 10.904566 31.9111188 10.904566s23.087802-4.068096 31.911118-10.904566l24.727813 24.768103c-15.219657 13.086262-35.007915 20.993649-56.638931 20.993649-21.631017 0-41.4177727-7.907387-56.6389317-20.993799zm97.9530767-34.185513c3.838706-4.970981 6.80334-10.653648 8.662619-16.816792 2.449503-8.122803 9.090644-15.14671 17.56253-15.14671h19.460856c0 21.666826-7.893677 41.486814-20.959694 56.731455z" fill="#fff" fill-rule="nonzero"/></g></svg>