<svg height="360" viewBox="0 0 640 360" width="640" xmlns="http://www.w3.org/2000/svg"><g fill="none" fill-rule="evenodd"><path d="m0 0h640v360h-640z" fill="#31706c"/><g fill="#fff"><g fill-rule="nonzero" transform="translate(121 152)"><path d="m13 12.7953488-13-8.7953488v31l13-8.7232558z"/><path d="m43 56h31.6448276c5.6482758 0 10.3551724-5.1940299 10.3551724-11.4701493v-17.5298507z"/><path d="m85 4-76 52.9270977h.07258835c.36294174.0729023.79847182.0729023 1.23400195.0729023h26.5673352l48.0534862-33.4621733v-19.5378267z"/><path d="m86 0h-86l16.4228474 11.4250614v13.1941032l9.4578005-6.5601965 17.082694 11.9410319zm-65.7647059 9.87714988-9.1645354-6.41277642 64.4450128-1.32678132zm22.7280478 15.84766582-15.3964195-10.7616707 48.9019608-11.35135139z"/><path d="m25.8563536 22-25.8563536 17.95671v.073593 6.4025974c.14732965 3.3852814 1.69429098 6.3290044 3.8305709 8.4632035.36832413.3679654.81031308.7359307 1.32596685 1.1038961l34.84346225-24.1385281z"/></g><g transform="translate(226 161)"><path d="m0 19.5012053c0-11.58803081 8.80096867-19.5012053 20.1574088-19.5012053 8.3469048 0 13.1739065 4.52215835 15.8425912 9.21245133l-6.9284093 3.39222137c-1.5892235-3.05173371-4.9959134-5.48215277-8.9141819-5.48215277-6.8702891 0-11.86741334 5.25616537-11.86741334 12.37868537 0 7.120712 4.99712424 12.37748 11.86741334 12.37748 3.9182685 0 7.3249584-2.3743742 8.9141819-5.4827554l6.9284093 3.3343686c-2.7255941 4.6914983-7.4956864 9.2697015-15.8425912 9.2697015-11.35644013 0-20.1574088-7.9125719-20.1574088-19.4987947"/><path d="m56.9907972 38.32028v-3.4498654c-1.8205569 2.092838-5.021536 4.1295854-9.3811048 4.1295854-5.8500247 0-8.6096924-3.2809908-8.6096924-8.5987291v-19.4012709h7.0086144v16.5732256c0 3.7906301 1.9317674 5.0348735 4.9120908 5.0348735 2.7043566 0 4.8567797-1.5271083 6.070092-3.1115132v-18.4965859h7.0092028v27.32028z"/><path d="m69 35.0552658 3.1056698-4.9149562c2.1013548 1.2659825 6.0421476 2.4471736 9.4308079 2.4471736 3.1056698 0 4.5742097-1.2147544 4.5742097-2.8705417 0-4.4185734-16.2075263-.8290714-16.2075263-11.3225943 0-4.4739232 4.009433-8.3943472 11.1811339-8.3943472 4.6308079 0 8.2548922.8591016 11.2250878 2.4554172l-3.4579026 4.5004206c-1.9598595-1.0210296-4.3785249-1.5986709-7.709985-1.5986709-2.5986954 0-4.2924234 1.1594044-4.2924234 2.6509085 0 3.9769515 16.1509282.6624327 16.1509282 11.4315276 0 4.8601951-4.2352233 8.560397-11.8019067 8.560397-4.744004 0-8.9292524-.8702894-12.1980933-2.9447342"/><path d="m99.4531916 31.6318295v-13.192477h-4.4531916v-2.0527319l9.311759-12.3866206h2.277119v8.2436615h5.463065v6.195691h-5.463065v11.2944887c0 1.6748006.892184 2.9585764 2.45306 2.9585764 1.059208 0 2.061949-.3910249 2.452465-.7814546l1.505597 5.3582907c-1.059208.9486965-2.954727 1.7307463-5.909454 1.7307463-4.961398 0-7.6373544-2.5669563-7.6373544-7.3681705"/><path d="m137.508419 23.972325c0-4.1412348-2.554072-7.7319145-7.037161-7.7319145-4.483088 0-6.980282 3.5906797-6.980282 7.7319145 0 4.1977625 2.497194 7.7872645 6.980282 7.7872645 4.483089 0 7.037161-3.589502 7.037161-7.7872645zm-21.508419 0c0-7.5664535 5.448202-13.972325 14.471258-13.972325 9.08054 0 14.528742 6.4058715 14.528742 13.972325 0 7.6212147-5.448202 14.027675-14.528742 14.027675-9.023056 0-14.471258-6.4064603-14.471258-14.027675z"/><path d="m181.78133 38v-17.2517394c0-2.5457835-1.127447-4.3563597-4.060013-4.3563597-2.53811 0-4.62524 1.697189-5.640243 3.1676037v18.4404954h-7.21867v-17.2517394c0-2.5457835-1.127448-4.3563597-4.060615-4.3563597-2.480985 0-4.568116 1.697189-5.639642 3.2242973v18.3838018h-7.162147v-27.32028h7.162147v3.5620463c1.128049-1.6392892 4.737083-4.2417663 8.910743-4.2417663 4.004092 0 6.5416 1.8672698 7.557205 4.9781799 1.579027-2.48909 5.188663-4.9781799 9.361721-4.9781799 5.019697 0 8.008184 2.6585676 8.008184 8.2591707v19.7408293z"/><path d="m207.227847 15.5779778c-4.495655 0-6.431293 3.2579912-6.772305 5.9088997h13.54461c-.170506-2.5390309-1.992069-5.9088997-6.772305-5.9088997zm-14.227847 8.3943472c0-7.7319145 5.86213-13.972325 14.227847-13.972325 8.195818 0 13.772153 5.9642497 13.772153 14.6906965v1.5456763h-20.430989c.455087 3.3686911 3.243861 6.1862382 7.911236 6.1862382 2.332474 0 5.576942-.9945323 7.341467-2.6514973l3.186218 4.5286844c-2.731131 2.4295088-7.056886 3.7002019-11.324998 3.7002019-8.365717 0-14.682934-5.4678668-14.682934-14.027675z"/><path d="m224 38v-27.32028h7.230839v3.7333333c1.935954-2.4336026 5.353165-4.4130533 8.769161-4.4130533v7.0137211c-.513583-.1115779-1.19654-.1682715-1.993019-.1682715-2.391258 0-5.579602 1.3570275-6.776142 3.1109101v18.0436403z"/><path d="m239 34.5005923c0-2.4445833 2.054824-4.5005923 4.499408-4.5005923 2.445768 0 4.500592 2.056009 4.500592 4.5005923 0 2.4433987-2.054824 4.4994077-4.500592 4.4994077-2.444584 0-4.499408-2.056009-4.499408-4.4994077"/><path d="m254.768939 38h7.520834v-26.753975h-7.520834zm-.768939-33.84497739c0-2.32645829 2.072601-4.15502261 4.500631-4.15502261 2.486743 0 4.499369 1.82856432 4.499369 4.15502261 0 2.32586767-2.012626 4.2093598-4.499369 4.2093598-2.42803 0-4.500631-1.88349213-4.500631-4.2093598z"/><path d="m286.509473 23.972325c0-4.1412348-2.55352-7.7319145-7.037913-7.7319145-4.483787 0-6.981033 3.5906797-6.981033 7.7319145 0 4.1977625 2.497246 7.7872645 6.981033 7.7872645 4.484393 0 7.037913-3.589502 7.037913-7.7872645zm-21.509473 0c0-7.5664535 5.448316-13.972325 14.47156-13.972325 9.080124 0 14.52844 6.4058715 14.52844 13.972325 0 7.6212147-5.448316 14.027675-14.52844 14.027675-9.023244 0-14.47156-6.4064603-14.47156-14.027675z"/></g></g></g></svg>