<svg height="360" viewBox="0 0 640 360" width="640" xmlns="http://www.w3.org/2000/svg"><g fill="none" fill-rule="evenodd"><path d="m0 0h640v360h-640z" fill="#2f326a"/><g fill="#fff"><path d="m319.941 146.3432c-12.797 0-23.172-10.3743-23.172-23.1716s10.375-23.1716 23.172-23.1716 23.172 10.3743 23.172 23.1716-10.375 23.1716-23.172 23.1716zm-27.508-1.9237-16.465 16.4647c-8.6993-10.134-13.9558-23.3094-13.9558-37.7126h12.9578c5.641 0 10.063 4.6692 11.695 10.0689 1.238 4.097 3.212 7.8746 5.768 11.179zm-10.205 22.7252 16.465-16.4647c5.875 4.5446 13.246 7.2489 21.248 7.2489s15.373-2.7043 21.248-7.2488l16.465 16.4647c-10.134 8.6992-23.31 13.9557-37.713 13.9557s-27.578-5.2565-37.713-13.9558zm65.222-22.7251c2.556-3.3045 4.53-7.0821 5.768-11.1791 1.631-5.3997 6.053-10.0689 11.694-10.0689h12.958c0 14.4032-5.256 27.5787-13.956 37.7127z" fill-rule="nonzero"/><path d="m427.032 216.895h6.39v27.209h-6.39zm3.221-4.483c-1.159 0-2.13-.357-2.914-1.07-.784-.748-1.176-1.665-1.176-2.752s.392-1.987 1.176-2.7c.784-.748 1.755-1.121 2.914-1.121 1.158 0 2.129.356 2.913 1.07.784.679 1.176 1.545 1.176 2.598 0 1.121-.392 2.072-1.176 2.854-.75.747-1.721 1.121-2.913 1.121zm-12.634 32.049c-1.158 0-2.147-.391-2.965-1.172-.817-.815-1.226-1.834-1.226-3.057 0-1.257.392-2.276 1.175-3.057.818-.782 1.824-1.172 3.016-1.172 1.193 0 2.181.39 2.965 1.172.818.781 1.227 1.8 1.227 3.057 0 1.223-.409 2.242-1.227 3.057-.818.781-1.806 1.172-2.965 1.172zm27.972-1.783c2.215 1.188 4.703 1.783 7.463 1.783 2.795 0 5.299-.595 7.514-1.783 2.216-1.189 3.937-2.837 5.163-4.943 1.261-2.14 1.892-4.552 1.892-7.235 0-2.684-.631-5.078-1.892-7.185-1.226-2.106-2.947-3.753-5.163-4.942-2.215-1.189-4.719-1.783-7.514-1.783-2.76 0-5.248.594-7.463 1.783s-3.953 2.836-5.214 4.942c-1.227 2.107-1.84 4.501-1.84 7.185 0 2.683.613 5.095 1.84 7.235 1.261 2.106 2.999 3.754 5.214 4.943zm13.291-6.013c-1.534 1.563-3.476 2.344-5.828 2.344-2.351 0-4.294-.781-5.827-2.344-1.5-1.562-2.249-3.618-2.249-6.165 0-2.548.749-4.603 2.249-6.165 1.533-1.563 3.476-2.344 5.827-2.344 2.352 0 4.294.781 5.828 2.344 1.533 1.562 2.3 3.617 2.3 6.165 0 2.547-.767 4.603-2.3 6.165zm-180.64 5.974c-.744.607-1.657 1.063-2.74 1.366-1.049.304-2.165.456-3.349.456-2.9772 0-5.2777-.776-6.9016-2.329-1.6239-1.552-2.4358-3.813-2.4358-6.783v-24.247h6.3433v6.176h7.2571v5.062h-7.2571v12.857c0 1.317.3214 2.329.9642 3.038.6428.675 1.5731 1.012 2.7909 1.012 1.421 0 2.605-.371 3.552-1.114zm-91.5763 1.822c-2.808 0-5.32838-.591-7.56122-1.772-2.23283-1.181-3.97512-2.818-5.22687-4.91-1.251739-2.126-1.87761-4.522-1.87761-7.188s.625871-5.045 1.87761-7.137c1.25175-2.093 2.97712-3.729 5.17613-4.911 2.23284-1.181 4.77016-1.771 7.61196-1.771 2.6726 0 5.007.54 7.003 1.62 2.0298 1.079 3.5522 2.632 4.5671 4.657l-4.8716 2.834c-.7781-1.248-1.7592-2.176-2.9433-2.784-1.1502-.641-2.4189-.962-3.806-.962-2.3681 0-4.3303.777-5.88653 2.329-1.55622 1.519-2.33433 3.56-2.33433 6.125s.76119 4.623 2.28358 6.176c1.55618 1.518 3.53528 2.278 5.93728 2.278 1.3871 0 2.6558-.304 3.806-.912 1.1841-.641 2.1652-1.586 2.9433-2.834l4.8716 2.834c-1.0487 2.025-2.588 3.594-4.6179 4.708-1.996 1.08-4.3134 1.62-6.9522 1.62zm52.2926-.861c2.0975.574 4.2457.861 6.4448.861 3.789 0 6.783-.759 8.982-2.278s3.2986-3.543 3.2986-6.074c0-1.924-.5075-3.409-1.5224-4.455-.9811-1.046-2.1652-1.789-3.5523-2.227-1.387-.439-3.1632-.827-5.3283-1.165-2.1652-.371-3.7722-.759-4.8209-1.164-1.015-.439-1.5224-1.164-1.5224-2.176 0-.912.4736-1.637 1.4209-2.177.9811-.574 2.402-.861 4.2627-.861 2.8756 0 5.4636.675 7.7641 2.025l2.4359-4.809c-1.1841-.708-2.7065-1.265-4.5672-1.67-1.8607-.439-3.7214-.658-5.5821-.658-3.6537 0-6.5632.776-8.7284 2.328-2.1313 1.519-3.197 3.561-3.197 6.125 0 1.958.5075 3.493 1.5224 4.607 1.0488 1.08 2.2667 1.839 3.6537 2.278 1.4209.438 3.2478.826 5.4807 1.164 2.1313.337 3.6706.692 4.6179 1.063.9811.371 1.4716 1.029 1.4716 1.974 0 1.991-1.8945 2.987-5.6836 2.987-1.6577 0-3.3492-.237-5.0746-.709-1.6916-.506-3.1463-1.164-4.3642-1.974l-2.4358 4.809c1.2517.877 2.9264 1.603 5.0239 2.176zm48.3807-.911c2.199 1.181 4.668 1.772 7.409 1.772 2.774 0 5.26-.591 7.459-1.772s3.908-2.818 5.126-4.91c1.252-2.126 1.877-4.522 1.877-7.188s-.625-5.045-1.877-7.137c-1.218-2.093-2.927-3.729-5.126-4.911-2.199-1.181-4.685-1.771-7.459-1.771-2.741 0-5.21.59-7.409 1.771-2.199 1.182-3.925 2.818-5.176 4.911-1.218 2.092-1.827 4.471-1.827 7.137s.609 5.062 1.827 7.188c1.251 2.092 2.977 3.729 5.176 4.91zm13.194-5.973c-1.523 1.552-3.451 2.329-5.785 2.329-2.335 0-4.263-.777-5.785-2.329-1.489-1.552-2.233-3.594-2.233-6.125s.744-4.573 2.233-6.125c1.522-1.552 3.45-2.329 5.785-2.329 2.334 0 4.262.777 5.785 2.329 1.522 1.552 2.283 3.594 2.283 6.125s-.761 4.573-2.283 6.125zm48.946-19.944c3.417 0 6.124.995 8.12 2.986 1.996 1.958 2.994 4.91 2.994 8.859v15.49h-6.344v-14.68c0-2.363-.524-4.134-1.573-5.315-1.049-1.215-2.554-1.823-4.516-1.823-2.132 0-3.84.709-5.126 2.126-1.285 1.384-1.928 3.375-1.928 5.973v13.719h-6.343v-14.68c0-2.363-.525-4.134-1.573-5.315-1.049-1.215-2.555-1.823-4.517-1.823-2.165 0-3.89.692-5.176 2.076-1.252 1.383-1.878 3.391-1.878 6.023v13.719h-6.343v-15.126c0-7.583 5.743-12.209 13.249-12.209 2.03 0 5.494.388 7.05 1.164 1.59.742 2.842 1.856 3.755 3.341 1.116-1.417 2.554-2.514 4.313-3.29 1.76-.81 3.705-1.215 5.836-1.215zm44.841 15.844c.067-.81.101-1.434.101-1.873 0-2.767-.592-5.197-1.776-7.289-1.15-2.126-2.774-3.763-4.872-4.911-2.063-1.181-4.415-1.771-7.053-1.771-2.673 0-5.075.59-7.206 1.771-2.132 1.182-3.806 2.835-5.024 4.961-1.184 2.092-1.776 4.455-1.776 7.087 0 2.666.608 5.062 1.826 7.188 1.252 2.092 3.011 3.729 5.278 4.91s4.889 1.772 7.866 1.772c2.334 0 4.432-.371 6.292-1.114 1.861-.742 3.4-1.839 4.618-3.29l-3.4-3.898c-1.928 1.957-4.381 2.936-7.358 2.936-2.334 0-4.297-.574-5.887-1.721-1.556-1.181-2.52-2.767-2.892-4.758zm-18.777-8.96c1.421-1.215 3.147-1.822 5.177-1.822 2.063 0 3.789.607 5.176 1.822s2.216 2.801 2.486 4.758h-15.376c.305-1.991 1.15-3.577 2.537-4.758zm40.652-6.884v6.023c-.542-.101-1.032-.151-1.472-.151-2.47 0-4.398.725-5.785 2.176-1.387 1.418-2.081 3.476-2.081 6.176v13.111h-6.343v-13.63c0-9.881 6.343-14.943 15.681-13.705zm-200.1128 27.689c-3.6136-.004-7.4757-1-9.5689-2.987-2.0637-2.024-3.0955-5.011-3.0955-8.959v-15.439h6.3432v14.578c0 2.43.5413 4.252 1.6239 5.467 1.1164 1.181 2.6896 1.772 4.7194 1.772 2.0192-.005 3.585-.595 4.6973-1.772 1.0826-1.215 1.6239-3.037 1.6239-5.467v-14.578h6.3433v15.439c0 3.948-1.0318 6.935-3.0955 8.959-2.0975 1.992-5.9712 2.987-9.5911 2.987z"/></g></g></svg>