<?xml version="1.0" encoding="UTF-8"?>
<svg width="257px" height="257px" viewBox="0 0 257 257" version="1.1" xmlns="http://www.w3.org/2000/svg" xmlns:xlink="http://www.w3.org/1999/xlink">
    <title>snowflake/logo</title>
    <g id="snowflake/logo" stroke="none" stroke-width="1" fill="none" fill-rule="evenodd">
        <rect fill="#21BDF1" x="0" y="0" width="257" height="257"></rect>
        <path d="M120.15617,161.699333 C120.16117,175.132333 120.16017,188.564333 120.15617,201.995333 C120.15417,208.298333 115.70617,213.007333 109.69317,213.090333 C103.66817,213.174333 99.0171695,208.324333 99.0131695,201.943333 C99.0119195,200.105333 99.011232,198.267333 99.0109039,196.420708 L99.0107945,190.846333 C99.010857,190.222167 99.0109369,189.596083 99.0110266,188.967764 L99.0118964,183.243889 C99.0120584,181.954667 99.0121695,180.652667 99.0121695,179.335333 C92.8701695,182.879333 87.1461695,186.176333 81.4281695,189.481333 C78.5781695,191.128333 75.7601695,192.702333 72.2231695,192.196333 C67.7951695,191.563333 64.2621695,188.490333 63.2091695,184.068333 C62.2501695,180.041333 63.9091695,175.434333 67.5731695,173.195333 C73.9791695,169.280333 80.5181695,165.584333 87.0211695,161.827333 C92.6921695,158.551333 98.3431695,155.237333 104.08517,152.088333 C111.82317,147.843333 120.15217,152.867333 120.15617,161.699333 Z M153.56017,152.125133 C165.46317,158.828133 177.28817,165.671133 189.09417,172.544133 C194.50817,175.697133 196.12717,181.712133 193.20617,187.011133 C190.47117,191.972133 184.16217,193.797133 178.85717,190.910133 C172.82617,187.627133 166.92517,184.105133 160.96117,180.697133 C160.29217,180.314133 159.70617,179.707133 158.80717,179.762133 C158.35917,180.515133 158.58417,181.323133 158.58217,182.084133 C158.56117,188.720133 158.57417,195.356133 158.56917,201.991133 C158.56517,208.318133 154.16417,212.985133 148.11517,213.088133 C142.09817,213.192133 137.43217,208.334133 137.43017,201.948133 C137.42517,188.516133 137.41917,175.084133 137.43217,161.653133 C137.43917,152.851133 145.86417,147.792133 153.56017,152.125133 Z M58.2603695,97.4987332 C62.8493695,99.3707332 66.9283695,102.259733 71.2233695,104.715733 C79.3373695,109.354733 87.4313695,114.028733 95.5063695,118.733733 C102.90137,123.042733 103.23537,132.599733 95.8963695,136.992733 C83.9023695,144.171733 71.7473695,151.087733 59.5773695,157.967733 C54.7393695,160.703733 48.2563695,158.899733 45.6233695,154.444733 C42.5363695,149.219733 43.9383695,142.916733 49.0943695,139.803733 C55.1793695,136.129733 61.3823695,132.649733 67.5313695,129.081733 C68.0073695,128.804733 68.4673695,128.498733 69.2573695,128.004733 C62.4093695,124.015733 55.8013695,120.284733 49.3173695,116.350733 C44.6293695,113.506733 42.9443695,108.611733 44.6633695,103.783733 C46.6633695,98.1667332 52.7133695,95.2367332 58.2603695,97.4987332 Z M213.51807,105.879133 C214.23907,110.023133 212.05707,114.214133 207.70107,116.778133 C202.39907,119.899133 197.04507,122.932133 191.71807,126.013133 C190.69707,126.603133 189.70007,127.235133 188.35307,128.053133 C193.07007,130.785133 197.48107,133.336133 201.88907,135.895133 C204.10107,137.178133 206.33607,138.425133 208.50607,139.776133 C213.61307,142.953133 215.08407,149.157133 212.03307,154.422133 C209.46207,158.859133 202.84707,160.693133 198.06607,157.987133 C185.96607,151.139133 173.88107,144.257133 161.93107,137.154133 C154.35607,132.651133 154.64507,123.072133 162.30107,118.617133 C173.90607,111.866133 185.52007,105.127133 197.17607,98.4651332 C204.28507,94.4021332 212.15107,98.0291332 213.51807,105.879133 Z M133.72947,109.919533 C138.22547,114.354533 142.63147,118.882533 147.18147,123.260533 C148.563803,124.591533 148.528588,126.116637 148.521592,127.979113 L148.52147,128.495533 C148.98647,130.451533 147.91447,132.056533 146.30247,133.608533 C144.17147,135.661033 142.07247,137.746533 139.98097,139.839783 L135.80071,144.029135 C135.103247,144.726589 134.404803,145.423033 133.70447,146.117533 C131.21947,148.580533 126.42347,148.628533 123.96947,146.197533 C119.53647,141.808533 115.12147,137.402533 110.72247,132.978533 C108.26647,130.509533 108.28747,125.460533 110.72547,123.022533 C115.07947,118.670533 119.41847,114.305533 123.80347,109.983533 C126.41947,107.404533 131.15247,107.377533 133.72947,109.919533 Z M126.49667,122.081933 C125.28667,123.238933 124.09067,124.411933 122.93867,125.625933 C121.42267,127.223933 121.44467,128.812933 122.99467,130.437933 C124.14967,131.648933 125.36267,132.804933 126.53867,133.995933 C127.19067,134.654933 127.95867,135.005933 129.20067,134.975933 C129.43767,134.881933 130.06267,134.802933 130.43367,134.454933 C132.05667,132.926933 133.67267,131.380933 135.16067,129.724933 C136.32667,128.426933 135.94867,127.021933 134.85667,125.855933 C133.54967,124.460933 132.19967,123.094933 130.76467,121.832933 C129.32867,120.570933 127.83367,120.803933 126.49667,122.081933 Z M109.71027,43.0740834 C115.73427,43.1123332 120.14427,47.6333332 120.15427,53.8083332 C120.16627,60.6023332 120.15727,67.3973332 120.15727,74.1913332 C120.15727,81.0663332 120.18427,87.9403332 120.15027,94.8153332 C120.10927,102.983333 111.63927,108.164333 104.51827,104.170333 C92.3262695,97.3343332 80.2342695,90.3163332 68.1712695,83.2543332 C62.9842695,80.2173332 61.4872695,73.9233332 64.4632695,68.8693332 C67.3512695,63.9643332 73.8222695,62.2313332 78.9262695,65.1153332 C84.9762695,68.5333332 90.9842695,72.0263332 96.9652695,75.5643332 C98.4972695,76.4703332 99.0742695,76.5553332 99.0462695,74.4513332 C98.9532695,67.5783332 99.0012695,60.7033332 99.0132695,53.8293332 C99.0252695,47.5663332 103.54327,43.0353332 109.71027,43.0740834 Z M148.02427,43 C154.11427,43.0291332 158.56127,47.6321332 158.56927,53.9351332 C158.57827,60.8101332 158.62327,67.6861332 158.53827,74.5601332 C158.51327,76.5231332 159.05927,76.5061332 160.51627,75.6471332 C166.50427,72.1181332 172.52127,68.6411332 178.54927,65.1821332 C183.03027,62.6101332 188.67627,63.5521332 192.09127,67.3801332 C195.19327,70.8571332 195.44627,76.3361332 192.69727,80.2821332 C191.32112,82.2558332 189.33229,83.4311707 187.327095,84.5696607 L186.619671,84.9711907 C186.501977,85.0382707 186.38447,85.1055332 186.26727,85.1731332 C175.61327,91.3211332 164.92327,97.4051332 154.28227,103.576133 C150.55327,105.739133 146.79927,106.327133 142.93727,104.148133 C139.01527,101.933133 137.36627,98.4351332 137.40927,93.9791332 C137.47227,87.3451332 137.42527,80.7091332 137.42527,74.0741332 C137.42527,67.3591332 137.41627,60.6441332 137.42727,53.9291332 C137.43927,47.6801332 142.01527,42.9711332 148.02427,43 Z" id="Combined-Shape" fill="#FFFFFF"></path>
    </g>
</svg>