<?xml version="1.0" encoding="UTF-8"?>
<svg width="640px" height="360px" viewBox="0 0 640 360" version="1.1" xmlns="http://www.w3.org/2000/svg" xmlns:xlink="http://www.w3.org/1999/xlink">
    <title>snowflake/picture</title>
    <g id="snowflake/picture" stroke="none" stroke-width="1" fill="none" fill-rule="evenodd">
        <rect fill="#FFFFFF" x="0" y="0" width="640" height="360"></rect>
        <g id="Group-2" transform="translate(162.000000, 133.000000)" fill="#21BDF1">
            <g id="Group">
                <path d="M61.0243273,60.8825456 C67.6813487,64.633725 74.2947469,68.4632522 80.8975188,72.3095682 C83.9254206,74.0740719 84.8308828,77.440228 83.1972477,80.4056911 C81.6676372,83.1820004 78.1391865,84.2033195 75.1722455,82.5876766 C71.7992726,80.7504213 68.4990052,78.7794152 65.1635036,76.8722066 C64.7893502,76.6578695 64.4616165,76.3181759 63.9588304,76.3489554 C63.7082763,76.7703545 63.8341127,77.2225331 63.8329941,77.6484092 C63.8212494,81.3620936 63.8285199,85.075778 63.8257236,88.7889027 C63.8234865,92.3296624 61.3621279,94.9414413 57.9790881,94.9990829 C54.613945,95.0572841 52.0043792,92.3386164 52.0032607,88.7648388 C52.0004643,81.2479297 51.9971087,73.7310206 52.0043792,66.2146711 C52.0082941,61.2888348 56.7201655,58.4576821 61.0243273,60.8825456 Z M41.9981067,66.2362861 C42.000903,73.7546237 42.0003438,81.2724016 41.9981067,88.7896199 C41.9969881,92.3173562 39.5093683,94.9529441 36.1464956,94.9993985 C32.7769117,95.0464126 30.1757607,92.3319082 30.1735236,88.7605159 L30.172768,87.3884745 L30.172768,87.3884745 L30.1729644,76.1070076 L30.1729644,76.1070076 C26.7379462,78.0905547 23.5367017,79.935858 20.3388127,81.7856389 C18.7449016,82.707451 17.1688871,83.5884056 15.1907596,83.3052016 C12.7143251,82.9509168 10.7384347,81.2309845 10.1495265,78.7560281 C9.61318939,76.5021499 10.5410134,73.9236506 12.5901679,72.670501 C16.1728325,70.4793083 19.8298797,68.410688 23.4667933,66.3079266 C26.6383967,64.4743768 29.7988147,62.6195588 33.0101261,60.8570898 C37.3377344,58.4811989 41.9958696,61.2930896 41.9981067,66.2362861 Z M93.9241348,35.0954101 C94.3271248,37.4172027 93.1075349,39.7653284 90.6728265,41.2018815 C87.7093682,42.9505096 84.7168455,44.6498331 81.739414,46.3760501 C81.1687442,46.7066142 80.6114889,47.06071 79.8586073,47.5190175 C82.4950902,49.0496973 84.9605399,50.4789669 87.4243128,51.9127186 C88.6606707,52.6315554 89.9098841,53.3302223 91.1227668,54.087158 C93.9772333,55.8671617 94.7994225,59.3431272 93.0941205,62.2929916 C91.657106,64.7789457 87.9597698,65.8064958 85.2875152,64.2903831 C78.5244363,60.4535985 71.7697413,56.5977644 65.0905021,52.6181088 C60.8565911,50.0951763 61.0181225,44.7282721 65.297307,42.232233 C71.7837146,38.4497953 78.2751525,34.674081 84.7900656,30.941508 C88.7635142,28.665098 93.1600745,30.6972268 93.9241348,35.0954101 Z M7.97365359,30.4294774 C10.5395826,31.4772915 12.8203463,33.0943509 15.2218859,34.4690472 C19.7588108,37.0656336 24.2845527,39.6818106 28.7996708,42.3153392 C32.9345684,44.7272149 33.1213238,50.0765523 29.0177384,52.5354453 C22.3113203,56.5537453 15.5148793,60.4248365 8.71005118,64.2757774 C6.00489435,65.807198 2.37993947,64.7974455 0.907703431,62.3038494 C-0.818385683,59.3792613 -0.0344605331,55.8512845 2.84850528,54.1088457 C6.25091936,52.0523985 9.71931287,50.1045388 13.1575124,48.107423 C13.4236667,47.9523778 13.6808747,47.7811005 14.1226014,47.504594 C10.2935576,45.2718319 6.59870926,43.1834801 2.97319523,40.9815032 C0.351910564,39.3896317 -0.5902534,36.6497544 0.370921588,33.9473791 C1.48921709,30.8033769 4.872061,29.1633686 7.97365359,30.4294774 Z M49.7511118,37.039675 C52.2399647,39.4812389 54.6789962,41.9740014 57.1977418,44.3841857 C58.0325261,45.1835432 57.933437,46.1100713 57.9395263,47.266167 C58.1969365,48.3429876 57.603509,49.226575 56.7111534,50.0809847 C54.351836,52.3408765 52.0633757,54.6734372 49.7372726,56.9674613 C48.3616499,58.3233964 45.706726,58.3498214 44.348264,57.0115031 C41.8942861,54.5952631 39.4502725,52.1696643 37.015116,49.734156 C35.6555469,48.3749178 35.6671719,45.5953335 37.0167767,44.2531615 C39.4270225,41.8572908 41.8289648,39.4542634 44.2563713,37.0749084 C45.7045117,35.6551128 48.3245607,35.6402487 49.7511118,37.039675 Z M45.6632813,43.6211309 C44.9746885,44.2831579 44.2940629,44.9543399 43.6384769,45.6489819 C42.7757441,46.5633458 42.788264,47.47256 43.6703457,48.4023732 C44.3276389,49.0952986 45.017939,49.7567533 45.6871829,50.4382349 C46.0582263,50.8153098 46.4952836,51.0161495 47.2020871,50.9989837 C47.3369603,50.9451976 47.6926384,50.8999944 47.9037689,50.7008713 C48.8273939,49.8265608 49.7470352,48.9419509 50.5938337,47.9943998 C51.2573867,47.2516937 51.0422726,46.4477629 50.4208318,45.7805862 C49.6770377,44.9823774 48.908773,44.2007621 48.0921361,43.4786549 C47.27493,42.7565477 46.424148,42.8898686 45.6632813,43.6211309 Z M57.9397752,-5.32907052e-15 C61.3472591,0.01630962 63.8354498,2.5932025 63.8399259,6.12180467 C63.8449616,9.97062902 63.8701401,13.8200132 63.8225808,17.6682777 C63.8085928,18.7672221 64.1140913,18.757705 64.9293137,18.2768119 C68.2797264,16.3011753 71.6463653,14.3546499 75.019159,12.4182014 C77.5263734,10.9783212 80.6854299,11.5056801 82.5961947,13.6487055 C84.3318294,15.595231 84.4733882,18.662534 82.9352645,20.8716193 C82.2105727,21.9115576 81.1822176,22.5555849 80.1283661,23.1591253 L79.6006036,23.4591671 C79.5127183,23.5091603 79.4249779,23.5592836 79.3375434,23.6097429 C73.3764048,27.0515716 67.3951235,30.4575712 61.4412587,33.9122759 C59.3548042,35.1231861 57.2543617,35.4523655 55.093491,34.2324981 C52.8990489,32.9924769 51.9763985,31.0341951 52.0004579,28.539597 C52.0357077,24.8256915 52.0094103,21.1106662 52.0094103,17.3962008 C52.0094103,13.6369491 52.0043746,9.87769741 52.0105293,6.11844569 C52.0172435,2.62007429 54.5776124,-0.0161604619 57.9397752,-5.32907052e-15 Z M36.1518136,-5.32907052e-15 C39.5207447,0.0214294025 41.9870439,2.55431147 41.9926364,6.01384405 C41.9993474,9.82017026 41.9943142,13.6270567 41.9943142,17.4333829 C41.9943142,21.2850892 42.009414,25.1362353 41.9903994,28.9879416 C41.9674701,33.5640488 37.2306098,36.4666947 33.2481798,34.2290634 C26.4297854,30.3992068 19.6673161,26.467385 12.9210651,22.5109123 C10.0202275,20.8094385 9.18302804,17.2832364 10.8473605,14.4517421 C12.4624789,11.7037247 16.0813954,10.7328146 18.9358151,12.3485703 C22.3192868,14.2634987 25.6792699,16.2204456 29.0241531,18.2026037 C29.8809265,18.7101886 30.2036146,18.7578097 30.1879555,17.5790475 C30.1359451,13.7284616 30.1627892,9.87675533 30.1695002,6.02560926 C30.1762113,2.51677484 32.7029096,-0.0217097082 36.1518136,-5.32907052e-15 Z" id="Combined-Shape"></path>
            </g>
            <text id="Snowflake" font-family="NittiGrotesk-Light, Nitti Grotesk" font-size="28" font-weight="300" letter-spacing="3.333333">
                <tspan x="124" y="33">SNOWFLAKE</tspan>
            </text>
            <text id="Importer-Copy-2" font-family="NittiGrotesk-Bold, Nitti Grotesk" font-size="52" font-weight="bold">
                <tspan x="124" y="75">Importer</tspan>
            </text>
        </g>
    </g>
</svg>