<svg height="257" viewBox="0 0 257 257" width="257" xmlns="http://www.w3.org/2000/svg" xmlns:xlink="http://www.w3.org/1999/xlink"><defs><path id="a" d="m109.756176 3.1843871c-8.20912-1.9287742-21.7080371-3.1843871-36.9623334-3.1843871s-28.7579445 1.2556129-36.9670648 3.1843871c-16.3709259 3.48993548-29.2594815 16.5950968-32.69453706 33.2379355-1.89259259 8.3452903-3.13224074 22.0663226-3.13224074 37.5776774s1.23491667 29.232387 3.13224074 37.577677c3.43505556 16.642839 16.32361116 29.743226 32.69453706 33.237936 8.2091203 1.928774 21.708037 3.184387 36.9670648 3.184387s28.7532134-1.255613 36.9623334-3.184387c16.370926-3.489936 29.259481-16.595097 32.694537-33.237936 1.892593-8.34529 3.132241-22.0663222 3.132241-37.577677s-1.234917-29.2323871-3.132241-37.5776774c-3.435056-16.6428387-16.323611-29.74322583-32.694537-33.2379355z"/><mask id="b" fill="#fff"><use fill="#fff" fill-rule="evenodd" xlink:href="#a"/></mask></defs><g fill="none" fill-rule="evenodd"><path d="m0 0h257v257h-257z" fill="#00b388"/><g transform="translate(56 56)"><use fill="#fff" xlink:href="#a"/><path d="m90.2813981 113.60671c-1.3916801-3.375761-4.3354307-5.848356-7.8779166-6.617033-2.1338982-.50129-5.6446574-.830709-9.6096389-.830709s-7.4757407.329419-9.6143704.830709c-3.5164298.762485-6.4449121 3.204433-7.8495278 6.54542-.4822949 1.146123-1.6431317 1.846597-2.8720092 1.733032-.2603264-.024465-.5205598-.049927-.7806945-.076387-5.7061666-.572903-10.1916111-1.384516-12.7986574-2.325032-2.0284732-.767661-3.2641215-2.845665-2.9808333-5.012904.4447593-6.03458 4.0501481-20.1757415 9.4393056-36.3125157 6.1651203-18.452258 12.6046666-33.3907097 15.5097963-36.3029677.6894247-.7313823 1.5429903-1.2848225 2.4887592-1.6136774 1.9115185-.6540646 5.4270093-1.0980646 9.4535-1.0980646 4.0312222 0 7.5514445.444 9.4535 1.0980646l.0331204.0095483c.9345573.3303404 1.7778745.8801721 2.4603704 1.6041291 2.9051296 2.912258 9.3494074 17.8507097 15.5097961 36.3029677 5.389158 16.1367742 8.994546 30.2779357 9.439306 36.3172907.001429.070209.006166.140309.014194.210064.007751.132012.01406.264106.018932.396258.003129 1.956378-1.19565 3.709919-3.009228 4.401807-2.602315.940516-7.0877594 1.747355-12.7891946 2.325032l-.8895185.085935c-1.1784119.108234-2.2898847-.568537-2.7442593-1.670967z" fill="#00b388" fill-rule="nonzero" mask="url(#b)"/></g></g></svg>