<?xml version="1.0" encoding="UTF-8"?>
<svg width="640px" height="360px" viewBox="0 0 640 360" version="1.1" xmlns="http://www.w3.org/2000/svg" xmlns:xlink="http://www.w3.org/1999/xlink">
    <!-- Generator: Sketch 55.1 (78136) - https://sketchapp.com -->
    <title>aircall/picture</title>
    <desc>Created with Sketch.</desc>
    <defs>
        <path d="M103.742198,2.96808578 C95.9816327,1.17191394 83.2249786,0 68.8034187,0 C54.3818591,0 41.6252046,1.17191394 33.8646402,2.96808578 C18.391533,6.22429728 6.20656425,18.4440802 2.9596297,33.9613963 C1.16857513,41.744134 2.99760217e-15,54.5372357 2.99760217e-15,69 C2.99760217e-15,83.4627643 1.16857513,96.255866 2.9596297,104.038604 C6.20656425,119.55592 18.391533,131.775703 33.8646402,135.031914 C41.6252046,136.828086 54.3818591,138 68.8034187,138 C83.2249786,138 95.9816327,136.828086 103.742198,135.031914 C119.215305,131.775703 131.400274,119.55592 134.647208,104.038604 C136.438263,96.2558659 137.606838,83.4627643 137.606838,69 C137.606838,54.5372357 136.438263,41.744134 134.647208,33.9613963 C131.400274,18.4440802 119.215305,6.22429728 103.742198,2.96808578 Z" id="path-1"></path>
    </defs>
    <g id="aircall/picture" stroke="none" stroke-width="1" fill="none" fill-rule="evenodd">
        <rect fill="#FFFFFF" x="0" y="0" width="640" height="360"></rect>
        <rect id="Rectangle" x="0" y="0" width="640" height="360"></rect>
        <g id="logo" transform="translate(79.000000, 111.000000)">
            <g id="a-link" fill="#00B388" fill-rule="nonzero">
                <path d="M103.742198,2.96808578 C95.9816327,1.17191394 83.2249786,0 68.8034187,0 C54.3818591,0 41.6252046,1.17191394 33.8646402,2.96808578 C18.391533,6.22429728 6.20656425,18.4440802 2.9596297,33.9613963 C1.16857513,41.744134 2.99760217e-15,54.5372357 2.99760217e-15,69 C2.99760217e-15,83.4627643 1.16857513,96.255866 2.9596297,104.038604 C6.20656425,119.55592 18.391533,131.775703 33.8646402,135.031914 C41.6252046,136.828086 54.3818591,138 68.8034187,138 C83.2249786,138 95.9816327,136.828086 103.742198,135.031914 C119.215305,131.775703 131.400274,119.55592 134.647208,104.038604 C136.438263,96.2558659 137.606838,83.4627643 137.606838,69 C137.606838,54.5372357 136.438263,41.744134 134.647208,33.9613963 C131.400274,18.4440802 119.215305,6.22429728 103.742198,2.96808578 Z" id="a"></path>
            </g>
            <g id="Clipped">
                <mask id="mask-2" fill="white">
                    <use xlink:href="#path-1"></use>
                </mask>
                <g id="a"></g>
                <path d="M85.3366822,105.932357 C84.0309476,102.81558 81.2595391,100.468622 77.8875012,99.7589994 C75.8697545,99.2919946 72.5530242,98.9872972 68.8034187,98.9872972 C65.0538134,98.9872972 61.7370831,99.2919946 59.7193365,99.7589994 C56.3713899,100.463552 53.6155209,102.782128 52.2983658,105.865672 C51.8415771,106.935043 50.7470505,107.587591 49.5891087,107.480909 C49.3027349,107.454553 49.0553692,107.430959 48.8470092,107.410153 C43.4513034,106.871373 39.2102985,106.119747 36.7462743,105.242584 C36.7422778,105.240485 36.7373905,105.238347 36.7316118,105.236169 C35.0781196,104.613013 33.9015447,103.012612 33.9015447,101.136622 C33.9015447,101.089991 33.9022717,101.04353 33.9037149,100.99725 C33.9075054,100.921746 33.9119256,100.844639 33.9169716,100.765945 C33.9184384,100.7484 33.9200084,100.730884 33.921681,100.713398 C33.9263775,100.664296 33.9293204,100.616824 33.9305097,100.570981 C34.3505249,94.9392286 37.7609507,81.7544075 42.8548153,66.7054919 C48.67815,49.5014866 54.7681042,35.5734389 57.5142835,32.8568035 C57.9525815,32.3990801 58.4583639,32.0157406 59.0174219,31.720114 C59.2356385,31.5951333 59.512134,31.4756141 59.8404021,31.3628569 C59.8489802,31.3598943 59.8575673,31.3569511 59.8661633,31.3540274 C61.6704695,30.7421413 64.9957827,30.3322971 68.8001035,30.3322971 C72.611055,30.3322971 75.9363682,30.7421413 77.7373775,31.3529392 C77.7492704,31.3569511 77.7578574,31.3598943 77.7664355,31.3628569 C78.0947037,31.4756141 78.3711991,31.5951333 78.5894158,31.720114 C79.1484738,32.0157406 79.6542562,32.3990801 80.0885567,32.851874 C80.0899739,32.8533518 80.0913067,32.8549949 80.0925542,32.8568035 C82.8387335,35.5734389 88.9286876,49.5014866 94.7520223,66.7054919 C99.845887,81.7544075 103.256313,94.9392286 103.676328,100.570981 C103.677517,100.616824 103.68046,100.664296 103.685157,100.713398 C103.686829,100.730884 103.688399,100.7484 103.689866,100.765945 C103.694912,100.844639 103.699332,100.921746 103.703123,100.99725 C103.704566,101.04353 103.705293,101.089991 103.705293,101.136622 C103.705293,103.012612 102.528718,104.613013 100.875226,105.236169 C100.869447,105.238347 100.86456,105.240485 100.860563,105.242584 C98.398702,106.118977 94.1629786,106.870054 88.7740352,107.408734 C88.5402283,107.432105 88.2575115,107.458972 87.9258844,107.489333 L87.9258799,107.489282 C86.8155323,107.590938 85.767514,106.960748 85.3366822,105.932357 L85.3366822,105.932357 Z" id="Path" fill="#FFFFFF" fill-rule="nonzero" mask="url(#mask-2)"></path>
            </g>
            <path d="M219.888651,45.5778567 L233.066855,45.5778567 L233.066855,102.830239 L219.888651,102.830239 L219.888651,92.7702961 C215.770463,99.9058369 208.710711,104 199.533033,104 C184.236903,104 172,90.6647263 172,74.1710985 C172,57.677471 184.236903,44.4591734 199.533033,44.4591734 C208.710711,44.4591734 215.770463,48.5533362 219.888651,55.6888774 L219.888651,45.5778567 Z M417.186074,45.5778567 L430.364278,45.5778567 L430.364278,102.830239 L417.186074,102.830239 L417.186074,92.7702961 C413.067884,99.9058369 406.008132,104 396.830454,104 C381.534325,104 369.297422,90.6647263 369.297422,74.1710985 C369.297422,57.677471 381.534325,44.4591734 396.830454,44.4591734 C406.008132,44.4591734 413.067884,48.5533362 417.186074,55.6888774 L417.186074,45.5778567 Z M202.651366,91.5576983 C212.652681,91.5576983 220.183083,84.0712289 220.183083,74.1282619 C220.183083,64.3022709 212.652681,56.8158015 202.651366,56.8158015 C192.885375,56.8158015 185.119648,64.536223 185.119648,74.1282619 C185.119648,83.8372767 192.885375,91.5576983 202.651366,91.5576983 L202.651366,91.5576983 Z M399.25828,91.5576983 C409.259597,91.5576983 416.789997,84.0712289 416.789997,74.1282619 C416.789997,64.3022709 409.259597,56.8158015 399.25828,56.8158015 C389.49229,56.8158015 381.726564,64.536223 381.726564,74.1282619 C381.726564,83.8372767 389.49229,91.5576983 399.25828,91.5576983 Z M252.797702,17 C257.386541,17 261.269405,20.8602107 261.269405,25.3053019 C261.269405,29.9843453 257.386541,33.7275799 252.797702,33.7275799 C248.208864,33.7275799 244.443662,29.9843453 244.443662,25.3053019 C244.443662,20.8602107 248.208864,17 252.797702,17 Z M246.326263,45.4202455 L259.386804,45.4202455 L259.386804,102.672625 L246.326263,102.672625 L246.326263,45.4202455 Z M300.412483,44.3015588 C302.928483,44.3015588 305.351081,44.6729912 307.097743,45.3331224 C308.125806,45.721667 309.032815,46.1509448 309.736736,46.5135277 L304.422033,57.5750041 C302.747283,57.0703346 300.932739,56.8179999 299.118195,56.8179999 C292.764418,56.8179999 285.704666,62.0819235 285.704666,72.1418666 L285.704666,102.672625 L272.644124,102.672625 L272.644124,45.4202421 L285.704666,45.4202421 L285.704666,53.6596455 C288.293242,48.1617698 294.764681,44.3015588 300.412483,44.3015588 Z M366.006732,88.1675901 C361.653219,97.6426529 351.534241,103.842385 339.532662,103.842385 C322.471594,103.842385 309.411053,91.0919924 309.411053,74.1304603 C309.411053,57.1689282 322.353932,44.3015588 339.414999,44.3015588 C350.592941,44.3015588 360.005941,49.7994349 364.241793,58.2217129 L353.181516,64.4214451 C350.828264,59.859378 345.651112,56.8179999 339.414999,56.8179999 C329.531346,56.8179999 322.353932,64.304469 322.353932,74.1304603 C322.353932,83.8394752 329.649009,91.3259446 339.532662,91.3259446 C346.239425,91.3259446 351.769564,88.1675901 354.358141,82.9036666 L366.006732,88.1675901 Z M456.682141,17 L456.682141,102.672625 L443.621598,102.672625 L443.621598,17 L456.682141,17 Z M483,17 L483,102.672625 L469.939458,102.672625 L469.939458,17 L483,17 Z" id="Shape" fill="#101820" fill-rule="nonzero"></path>
        </g>
    </g>
</svg>