<svg height="360" viewBox="0 0 640 360" width="640" xmlns="http://www.w3.org/2000/svg" xmlns:xlink="http://www.w3.org/1999/xlink"><defs><path id="a" d="m81.1895 2.34525806c-6.0725-1.42051612-16.058-2.34525806-27.342-2.34525806s-21.273.92474194-27.3455 2.34525806c-12.11 2.57029033-21.644 12.22206454-24.185 24.47929034-1.4 6.1461935-2.317 16.2515484-2.317 27.6754516s.9135 21.5292581 2.317 27.6754516c2.541 12.2572258 12.075 21.9054834 24.185 24.4792904 6.0725 1.420516 16.058 2.345258 27.3455 2.345258s21.2695-.924742 27.342-2.345258c12.11-2.57029 21.644-12.2220646 24.185-24.4792904 1.4-6.1461935 2.317-16.2515484 2.317-27.6754516s-.9135-21.5292581-2.317-27.6754516c-2.541-12.2572258-12.075-21.90548388-24.185-24.47929034z"/><mask id="b" fill="#fff"><use fill="#fff" fill-rule="evenodd" xlink:href="#a"/></mask></defs><g fill="none" fill-rule="evenodd"><path d="m0 0h640v360h-640z" fill="#00b388"/><g transform="translate(131 127)"><path d="m81.1895 2.34525806c-6.0725-1.42051612-16.058-2.34525806-27.342-2.34525806s-21.273.92474194-27.3455 2.34525806c-12.11 2.57029033-21.644 12.22206454-24.185 24.47929034-1.4 6.1461935-2.317 16.2515484-2.317 27.6754516s.9135 21.5292581 2.317 27.6754516c2.541 12.2572258 12.075 21.9054834 24.185 24.4792904 6.0725 1.420516 16.058 2.345258 27.3455 2.345258s21.2695-.924742 27.342-2.345258c12.11-2.57029 21.644-12.2220646 24.185-24.4792904 1.4-6.1461935 2.317-16.2515484 2.317-27.6754516s-.9135-21.5292581-2.317-27.6754516c-2.541-12.2572258-12.075-21.90548388-24.185-24.47929034z" fill="#00b388" fill-rule="nonzero"/><use fill="#fff" xlink:href="#a"/><g fill-rule="nonzero"><path d="m66.7835 83.6698065c-1.029462-2.4862025-3.2070309-4.3072348-5.8275-4.8733549-1.5785-.3691935-4.1755-.6118064-7.1085-.6118064s-5.53.2426129-7.112.6118064c-2.6011947.5615593-4.7674692 2.3600216-5.8065 4.8206129-.3567661.844104-1.2154673 1.3599936-2.1245 1.2763549-.1925702-.0180182-.3850716-.036771-.5775-.0562581-4.221-.4219355-7.539-1.0196774-9.4675-1.7123548-1.5005145-.5653714-2.4145557-2.0957938-2.205-3.6919355.329-4.4443871 2.996-14.8591613 6.9825-26.7436775 4.5605-13.5898387 9.324-24.5918064 11.473-26.7366451.5099854-.5386532 1.1413901-.9462544 1.841-1.1884516 1.414-.4817097 4.0145-.8087097 6.993-.8087097 2.982 0 5.586.327 6.993.8087097l.0245.0070322c.6913164.2432912 1.3151401.6482349 1.82 1.1814194 2.149 2.1448387 6.916 13.1468064 11.473 26.7366451 3.9865 11.8845162 6.6535 22.2992904 6.9825 26.7471936.0010571.0517079.004561.1033361.0105.1547097.0057337.0972249.0104007.1945104.0140045.2918387.0023143 1.4408458-.8844537 2.7323047-2.2260045 3.241871-1.925.6926774-5.243 1.2869032-9.4605 1.7123548l-.658.0632903c-.8717019.0797127-1.6938873-.41872-2.03-1.2306451z" fill="#00b388" mask="url(#b)"/><path d="m172.011 36.3145806h10.29v45.453h-10.29v-7.9886451c-3.213 5.6644839-8.729 8.9169032-15.8935 8.9169032-11.9455 0-21.5005-10.5870645-21.5005-23.681129s9.555-23.5897097 21.5005-23.5897097c7.1645 0 12.6805 3.2489032 15.8935 8.9169032zm154.0735 0h10.29v45.453h-10.29v-7.9886451c-3.2165 5.6644839-8.729 8.9169032-15.8935 8.9169032-11.9455 0-21.504-10.5870645-21.504-23.681129s9.555-23.5897097 21.504-23.5897097c7.1645 0 12.677 3.2489032 15.8935 8.9169032zm-167.5345 36.5009355c7.812 0 13.692-5.942258 13.692-13.8359677 0-7.8022903-5.88-13.7446795-13.692-13.7446795-3.63405-.0158345-7.123952 1.4268939-9.694295 4.0077617-2.570343 2.5808677-4.008239 6.0861131-3.994307 9.7369178 0 7.7073548 6.062102 13.8359677 13.688602 13.8359677zm153.5345 0c7.812 0 13.692-5.942258 13.692-13.8359677 0-7.8022903-5.88-13.7446795-13.692-13.7446795-3.63405-.0158345-7.123952 1.4268939-9.694295 4.0077617-2.570343 2.5808677-4.008239 6.0861131-3.994307 9.7369178 0 7.7073548 6.062102 13.8359677 13.688602 13.8359677zm-114.3695-59.1905161c3.584 0 6.615 3.0660645 6.615 6.5927419-.005647 3.6747151-2.95725 6.658747-6.615 6.6876775-3.584 0-6.524-2.9711291-6.524-6.6876775 0-3.5266774 2.94-6.5927419 6.524-6.5927419zm-5.054 22.563h10.199v45.453h-10.199zm42.238-.8895806c1.9635 0 3.857.2953548 5.2185.819258.805.3094194 1.512.6504839 2.065.9388065l-4.1545 8.7797742c-1.343544-.4020455-2.73863-.6034468-4.1405-.597742-4.963 0-10.4755 4.1771613-10.4755 12.1658065v24.2366774h-10.199v-45.453h10.199v6.54c2.023-4.3635161 7.077-7.4295806 11.487-7.4295806zm51.2225 34.827258c-3.3985 7.5245161-11.3015 12.4470968-20.6745 12.4470968-13.321 0-23.52-10.1264516-23.52-23.5932258s10.1045-23.681129 23.429-23.681129c8.729 0 16.079 4.3670322 19.39 11.0511935l-8.638 4.9225806c-1.8375-3.6216129-5.88-6.0371935-10.752-6.0371935-7.7175 0-13.3245 5.9422581-13.3245 13.7480645 0 7.7073549 5.698 13.6496129 13.4155 13.6496129 5.2395 0 9.555-2.507 11.578-6.6876774zm70.8085-56.5006774v68.016h-10.199v-68.016zm20.552 0v68.016h-10.199v-68.016z" fill="#fff"/></g></g></g></svg>