<?xml version="1.0" encoding="UTF-8" standalone="no"?>
<svg width="175px" height="46px" viewBox="0 0 175 46" version="1.1" xmlns="http://www.w3.org/2000/svg" xmlns:xlink="http://www.w3.org/1999/xlink">
    <!-- Generator: Sketch 3.8.3 (29802) - http://www.bohemiancoding.com/sketch -->
    <title>main-logo-madkudu</title>
    <desc>Created with Sketch.</desc>
    <defs></defs>
    <g id="desktop" stroke="none" stroke-width="1" fill="none" fill-rule="evenodd">
        <g id="home" transform="translate(-210.000000, -17.000000)" fill="#404040">
            <g id="header">
                <g id="top">
                    <path d="M236.193338,62.6476703 C235.298281,59.5151209 232.948567,56.8875604 230.380731,54.9833626 C226.938395,52.4953187 222.454585,53.0215385 218.650716,51.5732967 C215.552364,49.2525714 218.515831,46.6922418 220.599284,45.102967 C225.254083,41.0327253 224.681948,33.4417143 220.975358,28.9418022 C218.499284,25.7162418 213.262822,23.5512088 210.680946,22.6332308 C206.789828,18.7100879 221.052579,15.2772747 216.343625,17.9447692 C214.751074,18.6322418 213.119413,19.9167033 216.060315,20.6911209 C219.497135,21.7647912 227.63639,28.4681538 228.577077,35.119956 C229.29914,38.6498242 228.323352,42.6422198 227.025645,45.9228791 C235.499355,48.6242418 239.138754,54.7058462 243.183309,62.5738681 C243.166762,62.5602198 241.265831,62.6906374 236.193338,62.6476703 Z M252.091762,62.8999121 C252.987321,59.7673626 255.336533,57.1398022 257.90437,55.2356044 C261.346705,52.7480659 265.830516,53.2737802 269.634384,51.8255385 C272.733238,49.5048132 269.769771,46.9444835 267.686318,45.3557143 C263.031519,41.284967 263.603152,33.6944615 267.309742,29.194044 C269.785817,25.9684835 275.022278,23.8034505 277.604155,22.8854725 C281.495774,18.9628352 267.232521,15.530022 271.941977,18.1975165 C273.534026,18.884989 275.166189,20.1689451 272.224785,20.9433626 C268.788467,22.017033 260.648711,28.7209011 259.708023,35.3727033 C258.98596,38.9020659 259.961748,42.8944615 261.259456,46.1756264 C252.785745,48.8764835 249.146347,54.9585934 245.102292,62.8261099 C245.118338,62.812967 247.019269,62.9433846 252.091762,62.8999121 Z M285.048926,31.7331429 C285.337751,32.2669451 285.670702,32.9261099 286.047779,33.7106374 C286.424857,34.4951648 286.81798,35.3443956 287.227149,36.2583297 C287.636318,37.1722637 288.041476,38.1064176 288.442622,39.0607912 C288.843768,40.0151648 289.220845,40.9129231 289.573854,41.7540659 C289.926862,40.9129231 290.30394,40.0151648 290.705086,39.0607912 C291.106232,38.1064176 291.51139,37.1722637 291.920559,36.2583297 C292.329728,35.3443956 292.722851,34.4951648 293.099928,33.7106374 C293.477006,32.9261099 293.809957,32.2669451 294.098782,31.7331429 L297.516547,31.7331429 C297.677006,32.8492747 297.82543,34.0988571 297.961819,35.4818901 C298.098209,36.8649231 298.218553,38.3045714 298.322851,39.8008352 C298.427149,41.2970989 298.523424,42.7974066 298.611676,44.3017582 C298.699928,45.8061099 298.776146,47.2214945 298.84033,48.5479121 L295.181877,48.5479121 C295.133739,46.9141538 295.069556,45.1348132 294.989327,43.2098901 C294.909097,41.284967 294.788754,39.3438681 294.628295,37.3865934 C294.33947,38.065978 294.018553,38.8181538 293.665544,39.6431209 C293.312536,40.4680879 292.963539,41.2930549 292.618553,42.118022 C292.273567,42.942989 291.940616,43.7315604 291.619699,44.4837363 C291.298782,45.2359121 291.026003,45.8789011 290.801361,46.4127033 L288.177865,46.4127033 C287.953223,45.8789011 287.680444,45.2359121 287.359527,44.4837363 C287.03861,43.7315604 286.705659,42.942989 286.360673,42.118022 C286.015688,41.2930549 285.666691,40.4680879 285.313682,39.6431209 C284.960673,38.8181538 284.639756,38.065978 284.350931,37.3865934 C284.190473,39.3438681 284.070129,41.284967 283.9899,43.2098901 C283.90967,45.1348132 283.845487,46.9141538 283.79735,48.5479121 L280.138897,48.5479121 C280.20308,47.2214945 280.279298,45.8061099 280.36755,44.3017582 C280.455802,42.7974066 280.552077,41.2970989 280.656375,39.8008352 C280.760673,38.3045714 280.881017,36.8649231 281.017407,35.4818901 C281.153797,34.0988571 281.302221,32.8492747 281.462679,31.7331429 L285.048926,31.7331429 Z M306.807092,46.0244835 C307.1601,46.0244835 307.497063,46.0163956 307.81798,46.0002198 C308.138897,45.984044 308.39563,45.9597802 308.588181,45.9274286 L308.588181,43.1856264 C308.443768,43.1532747 308.227149,43.1209231 307.938324,43.0885714 C307.649499,43.0562198 307.384742,43.040044 307.144054,43.040044 C306.807092,43.040044 306.490186,43.0602637 306.193338,43.1007033 C305.89649,43.1411429 305.635745,43.217978 305.411103,43.3312088 C305.186461,43.4444396 305.009957,43.5981099 304.88159,43.7922198 C304.753223,43.9863297 304.68904,44.228967 304.68904,44.5201319 C304.68904,45.0862857 304.877579,45.4785495 305.254656,45.6969231 C305.631734,45.9152967 306.149212,46.0244835 306.807092,46.0244835 Z M306.518266,35.4454945 C307.577292,35.4454945 308.459814,35.5668132 309.165831,35.8094505 C309.871848,36.0520879 310.437464,36.3998681 310.862679,36.8527912 C311.287894,37.3057143 311.588754,37.8556923 311.765258,38.5027253 C311.941762,39.1497582 312.030014,39.8695824 312.030014,40.6621978 L312.030014,48.183956 C311.516547,48.2971868 310.802507,48.4306374 309.887894,48.5843077 C308.973281,48.737978 307.866117,48.8148132 306.566404,48.8148132 C305.748066,48.8148132 305.005946,48.742022 304.340043,48.5964396 C303.67414,48.4508571 303.100501,48.2122637 302.619126,47.8806593 C302.137751,47.5490549 301.768696,47.1163516 301.511963,46.5825495 C301.255229,46.0487473 301.126862,45.3936264 301.126862,44.6171868 C301.126862,43.8730989 301.275287,43.2422418 301.572135,42.7246154 C301.868983,42.206989 302.266117,41.7945055 302.763539,41.4871648 C303.26096,41.1798242 303.830587,40.9574066 304.472421,40.8199121 C305.114255,40.6824176 305.780158,40.6136703 306.470129,40.6136703 C306.935458,40.6136703 307.348639,40.6338901 307.70967,40.6743297 C308.070702,40.7147692 308.363539,40.7673407 308.588181,40.832044 L308.588181,40.4923516 C308.588181,39.8776703 308.403653,39.3843077 308.034599,39.0122637 C307.665544,38.6402198 307.023711,38.4541978 306.109097,38.4541978 C305.499355,38.4541978 304.897636,38.4986813 304.30394,38.5876484 C303.710244,38.6766154 303.196777,38.801978 302.763539,38.9637363 L302.306232,36.0520879 C302.514828,35.9873846 302.775573,35.9186374 303.088467,35.8458462 C303.401361,35.7730549 303.742335,35.7083516 304.11139,35.6517363 C304.480444,35.5951209 304.869556,35.5465934 305.278725,35.5061538 C305.687894,35.4657143 306.101074,35.4454945 306.518266,35.4454945 L306.518266,35.4454945 Z M318.336032,42.0694945 C318.336032,43.1856264 318.584742,44.0833846 319.082163,44.7627692 C319.579585,45.4421538 320.317693,45.7818462 321.29649,45.7818462 C321.617407,45.7818462 321.914255,45.7697143 322.187034,45.7454505 C322.459814,45.7211868 322.684456,45.6928791 322.86096,45.6605275 L322.86096,39.0850549 C322.636318,38.9394725 322.343481,38.8181538 321.98245,38.7210989 C321.621418,38.624044 321.256375,38.5755165 320.887321,38.5755165 C319.186461,38.5755165 318.336032,39.7401758 318.336032,42.0694945 L318.336032,42.0694945 Z M326.447206,48.1354286 C326.126289,48.2324835 325.757235,48.3254945 325.340043,48.4144615 C324.922851,48.5034286 324.485602,48.5802637 324.028295,48.644967 C323.570989,48.7096703 323.105659,48.7622418 322.632307,48.8026813 C322.158954,48.8431209 321.705659,48.8633407 321.272421,48.8633407 C320.229441,48.8633407 319.298782,48.7096703 318.480444,48.4023297 C317.662106,48.094989 316.972135,47.6541978 316.41053,47.079956 C315.848926,46.5057143 315.419699,45.8101538 315.122851,44.9932747 C314.826003,44.1763956 314.677579,43.2584176 314.677579,42.2393407 C314.677579,41.2040879 314.805946,40.2699341 315.062679,39.4368791 C315.319413,38.6038242 315.688467,37.8961319 316.169842,37.3138022 C316.651218,36.7314725 317.240903,36.2866374 317.938897,35.9792967 C318.636891,35.671956 319.435172,35.5182857 320.333739,35.5182857 C320.83116,35.5182857 321.276433,35.5668132 321.669556,35.6638681 C322.062679,35.7609231 322.459814,35.8984176 322.86096,36.0763516 L322.86096,30.3015824 L326.447206,29.7192527 L326.447206,48.1354286 Z M339.901648,48.5479121 C339.564685,47.9979341 339.16755,47.4034725 338.710244,46.7645275 C338.252937,46.1255824 337.755516,45.4866374 337.21798,44.8476923 C336.680444,44.2087473 336.122851,43.5940659 335.545201,43.0036484 C334.96755,42.4132308 334.3899,41.8915604 333.812249,41.4386374 L333.812249,48.5479121 L330.057521,48.5479121 L330.057521,31.7331429 L333.812249,31.7331429 L333.812249,38.0902418 C334.791046,37.054989 335.773854,35.9752527 336.760673,34.851033 C337.747493,33.7268132 338.666117,32.6875165 339.516547,31.7331429 L343.969269,31.7331429 C342.830014,33.0919121 341.686748,34.4021538 340.53947,35.6638681 C339.392192,36.9255824 338.184742,38.1953846 336.91712,39.4732747 C338.248926,40.5894066 339.536605,41.9158242 340.780158,43.4525275 C342.023711,44.9892308 343.215115,46.6876923 344.35437,48.5479121 L339.901648,48.5479121 Z M356.26841,48.1111648 C355.658668,48.2890989 354.872421,48.4549011 353.90967,48.6085714 C352.94692,48.7622418 351.936032,48.8390769 350.877006,48.8390769 C349.801934,48.8390769 348.907378,48.6934945 348.193338,48.4023297 C347.479298,48.1111648 346.913682,47.7027253 346.49649,47.177011 C346.079298,46.6512967 345.78245,46.0244835 345.605946,45.2965714 C345.429441,44.5686593 345.341189,43.767956 345.341189,42.8944615 L345.341189,35.7851868 L348.927436,35.7851868 L348.927436,42.4577143 C348.927436,43.6223736 349.079871,44.4635165 349.384742,44.9811429 C349.689613,45.4987692 350.259241,45.7575824 351.093625,45.7575824 C351.350358,45.7575824 351.623138,45.7454505 351.911963,45.7211868 C352.200788,45.6969231 352.457521,45.6686154 352.682163,45.6362637 L352.682163,35.7851868 L356.26841,35.7851868 L356.26841,48.1111648 Z M362.694771,42.0694945 C362.694771,43.1856264 362.943481,44.0833846 363.440903,44.7627692 C363.938324,45.4421538 364.676433,45.7818462 365.655229,45.7818462 C365.976146,45.7818462 366.272994,45.7697143 366.545774,45.7454505 C366.818553,45.7211868 367.043195,45.6928791 367.219699,45.6605275 L367.219699,39.0850549 C366.995057,38.9394725 366.702221,38.8181538 366.341189,38.7210989 C365.980158,38.624044 365.615115,38.5755165 365.24606,38.5755165 C363.545201,38.5755165 362.694771,39.7401758 362.694771,42.0694945 L362.694771,42.0694945 Z M370.805946,48.1354286 C370.485029,48.2324835 370.115974,48.3254945 369.698782,48.4144615 C369.28159,48.5034286 368.844341,48.5802637 368.387034,48.644967 C367.929728,48.7096703 367.464398,48.7622418 366.991046,48.8026813 C366.517693,48.8431209 366.064398,48.8633407 365.63116,48.8633407 C364.588181,48.8633407 363.657521,48.7096703 362.839183,48.4023297 C362.020845,48.094989 361.330874,47.6541978 360.769269,47.079956 C360.207665,46.5057143 359.778438,45.8101538 359.48159,44.9932747 C359.184742,44.1763956 359.036318,43.2584176 359.036318,42.2393407 C359.036318,41.2040879 359.164685,40.2699341 359.421418,39.4368791 C359.678152,38.6038242 360.047206,37.8961319 360.528582,37.3138022 C361.009957,36.7314725 361.599642,36.2866374 362.297636,35.9792967 C362.99563,35.671956 363.793911,35.5182857 364.692479,35.5182857 C365.1899,35.5182857 365.635172,35.5668132 366.028295,35.6638681 C366.421418,35.7609231 366.818553,35.8984176 367.219699,36.0763516 L367.219699,30.3015824 L370.805946,29.7192527 L370.805946,48.1354286 Z M384.98245,48.1111648 C384.372708,48.2890989 383.586461,48.4549011 382.623711,48.6085714 C381.66096,48.7622418 380.650072,48.8390769 379.591046,48.8390769 C378.515974,48.8390769 377.621418,48.6934945 376.907378,48.4023297 C376.193338,48.1111648 375.627722,47.7027253 375.21053,47.177011 C374.793338,46.6512967 374.49649,46.0244835 374.319986,45.2965714 C374.143481,44.5686593 374.055229,43.767956 374.055229,42.8944615 L374.055229,35.7851868 L377.641476,35.7851868 L377.641476,42.4577143 C377.641476,43.6223736 377.793911,44.4635165 378.098782,44.9811429 C378.403653,45.4987692 378.973281,45.7575824 379.807665,45.7575824 C380.064398,45.7575824 380.337178,45.7454505 380.626003,45.7211868 C380.914828,45.6969231 381.171562,45.6686154 381.396203,45.6362637 L381.396203,35.7851868 L384.98245,35.7851868 L384.98245,48.1111648 Z" id="main-logo-madkudu"></path>
                </g>
            </g>
        </g>
    </g>
</svg>