<svg height="257" viewBox="0 0 257 257" width="257" xmlns="http://www.w3.org/2000/svg" xmlns:xlink="http://www.w3.org/1999/xlink"><defs><circle id="a" cx="128.5" cy="128.5" r="125.5"/><mask id="b" fill="#fff"><use fill="none" xlink:href="#a"/></mask><mask id="c" fill="#fff"><path d="m.024.0159601h159.976v159.5850379h-159.976z" fill="none"/></mask></defs><g fill="none" fill-rule="evenodd"><use fill="#ff4901" xlink:href="#a"/><g mask="url(#b)"><path d="m100 79.835212c-.0036 5.929975-1.0908 11.6065835-3.0724 16.8474813-5.2524 1.9762593-10.946 3.0635411-16.8932 3.0679301h-.0688c-5.9444-.004389-11.6364-1.0884788-16.8888-3.0643391-1.9816-5.2400998-3.0728-10.9195013-3.0768-16.8510723v-.0690275c.004-5.929975 1.0928-11.6069825 3.0712-16.8470823 5.2552-1.9770573 10.9476-3.0651371 16.8944-3.0687281h.0688c5.9472.003591 11.6408 1.0916708 16.8932 3.0687281 1.9816 5.2400998 3.0688 10.9171073 3.0724 16.8470823zm58.888-13.3346634h-46.6984l33.02-32.9380548c-2.5952-3.6361098-5.4888-7.0455861-8.6448-10.1933167l-.0016-.0015961c-3.1532-3.1445386-6.5684-6.0277306-10.2096-8.6140648l-33.0204 32.9376559v-46.58154616c-4.3232-.72379053-8.7616-1.10723193-13.2908-1.10962594h-.0852c-4.5288.00239401-8.9672.38583541-13.2904 1.10962594v46.58194516l-33.0204-32.9380549c-3.6432 2.5875312-7.0596 5.4723192-10.2136 8.6184539l-.0116.011172c-3.1504 3.1437407-6.0388 6.548828-8.6304 10.1793517l33.0204 32.9380548h-46.6992s-1.1104 8.7489277-1.112 13.270823v.0570573c.0016 4.5226933.3864 8.955611 1.1124 13.27202h46.698l-33.0196 32.9376561c5.1892 7.268628 11.5688 13.633117 18.856 18.809376l33.02-32.937257v46.581148c4.3184.722593 8.7524 1.106433 13.2764 1.109626h.1144c4.5236-.003193 8.9572-.387033 13.2756-1.109227v-46.582345l33.0208 32.937656c3.642-2.586733 7.0572-5.470324 10.2108-8.615262l.008-.007581c3.1524-3.145735 6.0432-6.552818 8.6364-10.185336l-33.02-32.9384541h46.6984c.7244-4.3076309 1.1092-8.7305736 1.1124-13.2432918v-.1141147c-.0032-4.5123192-.388-8.9348628-1.112-13.2424938z" fill="#fff" fill-rule="evenodd" mask="url(#c)" transform="translate(49 49)"/></g></g></svg>