<svg height="360" viewBox="0 0 640 360" width="640" xmlns="http://www.w3.org/2000/svg"><g fill="none" fill-rule="evenodd"><path d="m0 0h640v360h-640z" fill="#208dec"/><path d="m268.333048 192.133333v-24.266666c0-1.493334 1.213185-2.706667 2.706336-2.706667 1.49315 0 2.706335 1.213333 2.706335 2.706667v24.266666c0 1.493334-1.213185 2.706667-2.706335 2.706667-1.399829 0-2.706336-1.213333-2.706336-2.706667zm30.982877 1.026667-11.758562-18.76v17.733333c0 1.493334-1.213185 2.706667-2.706336 2.706667-1.49315 0-2.706335-1.213333-2.706335-2.706667v-23.52c0-1.96 1.586472-3.64 3.639555-3.64h.186643c1.213185 0 2.42637.653334 3.079624 1.68l11.665239 18.48v-17.453333c0-1.493333 1.213185-2.706667 2.706336-2.706667s2.706336 1.213334 2.706336 2.706667v23.52c0 1.96-1.586473 3.64-3.639555 3.64-1.306507 0-2.519692-.56-3.172945-1.68zm25.663527-22.96v22.213333c0 1.4-1.119863 2.52-2.519692 2.52h-.373287c-1.399829 0-2.519692-1.12-2.519692-2.52v-22.213333h-6.252569c-1.399828 0-2.519691-1.12-2.519691-2.52s1.119863-2.52 2.519691-2.52h18.01113c1.399829 0 2.519692 1.12 2.519692 2.52s-1.119863 2.52-2.519692 2.52zm13.15839 22.213333v-24.92c0-1.306666 1.119863-2.426666 2.42637-2.426666h16.331336c1.306507 0 2.42637 1.12 2.42637 2.426666 0 1.306667-1.119863 2.426667-2.42637 2.426667h-13.345034v6.906667h11.478596c1.306506 0 2.426369 1.12 2.426369 2.426666 0 1.306667-1.119863 2.426667-2.426369 2.426667h-11.478596v8.12h13.345034c1.306507 0 2.42637 1.12 2.42637 2.426667 0 1.306666-1.119863 2.426666-2.42637 2.426666h-16.331336c-1.306507.186667-2.42637-.84-2.42637-2.24zm44.047946.84-4.292809-9.613333h-6.625856v8.586667c0 1.493333-1.213185 2.706666-2.706335 2.706666h-.093322c-1.493151 0-2.706336-1.213333-2.706336-2.706666v-24.36c0-1.493334 1.213185-2.706667 2.706336-2.706667h9.892123c7.092466 0 10.358733 4.48 10.358733 9.24 0 4.013333-2.146404 7.093333-5.412671 8.306667l3.732876 8.4c.746576 1.773333-.466609 3.733333-2.426369 3.733333-1.026542 0-2.053083-.56-2.42637-1.586667zm-3.732877-23.426666h-7.092466v8.866666h7.185788c3.079623 0 4.85274-1.586666 4.85274-4.386666-.093322-2.333334-1.866439-4.48-4.946062-4.48zm36.02226 22.026666c-2.239726 2.24-5.319349 3.546667-8.492294 3.546667s-6.159247-1.026667-8.398973-3.36c-3.266267-3.266667-3.732877-7.186667-3.732877-12.04s.46661-8.866667 3.732877-12.04c2.239726-2.24 5.226028-3.36 8.398973-3.36s6.252568 1.213333 8.492294 3.453333c.746576.84 1.399829 1.68 1.866439 2.706667.839897 1.773333-.46661 3.733333-2.42637 3.733333-1.119863 0-2.053082-.653333-2.519692-1.68-.186644-.56-.559932-1.026666-.933219-1.493333-.933219-1.213333-2.613014-1.866667-4.479452-1.866667-1.679795 0-3.359589.746667-4.572774 1.96-2.053082 2.146667-2.053082 5.786667-2.053082 8.586667 0 2.706667 0 6.44 2.053082 8.586667 1.213185 1.213333 2.892979 1.96 4.572774 1.96 1.866438 0 3.546233-.653334 4.479452-1.866667.373287-.466667.746575-1.026667.933219-1.586667.373288-1.026666 1.399829-1.68 2.519692-1.68 1.95976 0 3.266267 1.96 2.42637 3.733334-.46661 1.026666-1.119863 1.96-1.866439 2.706666zm29.023117.186667c-2.239726 2.24-5.412672 3.36-8.585617 3.36s-6.252568-1.12-8.585616-3.36c-3.266267-3.266667-3.732877-7.186667-3.732877-12.04s.559932-8.866667 3.732877-12.04c2.239726-2.24 5.412671-3.36 8.585616-3.36s6.252569 1.12 8.585617 3.36c3.266267 3.266667 3.732876 7.186667 3.732876 12.04.093322 4.853333-.466609 8.866667-3.732876 12.04zm-3.826199-20.533333c-1.213185-1.213334-2.986301-1.96-4.666096-1.96-1.679794 0-3.546233.746666-4.666096 1.96-2.053082 2.146666-2.146404 5.786666-2.146404 8.586666 0 2.706667.093322 6.346667 2.146404 8.493334 1.213185 1.213333 2.986302 1.96 4.666096 1.96 1.679795 0 3.546233-.746667 4.666096-1.96 2.053082-2.146667 2.146404-5.786667 2.146404-8.493334 0-2.8-.093322-6.533333-2.146404-8.586666zm39.008562 20.72v-18.573334l-6.999144 18.946667c-.373288 1.12-1.493151 1.866667-2.706336 1.866667s-2.239726-.746667-2.706335-1.866667l-6.999144-19.226667v18.853334c0 1.493333-1.213185 2.613333-2.613014 2.613333-1.493151 0-2.613014-1.213333-2.613014-2.613333v-23.053334c0-2.24 1.866439-4.106666 4.106165-4.106666h.373287c1.679795 0 3.266268 1.026666 3.826199 2.706666l6.8125 18.48 6.905822-18.48c.559931-1.586666 2.146404-2.706666 3.826199-2.706666 2.239726 0 4.106164 1.866666 4.106164 4.106666v23.053334c0 1.493333-1.213185 2.613333-2.613014 2.613333-1.586472 0-2.706335-1.12-2.706335-2.613333zm-248.14298-54.226667h-62.992294c-5.879281 0-10.545377 4.666667-10.545377 10.453333v63c0 5.88 4.666096 10.546667 10.545377 10.546667h62.992294c5.785959 0 10.452055-4.666667 10.452055-10.453333v-63c0-5.88-4.666096-10.546667-10.452055-10.546667zm-20.344178 15.4c0-1.586667 1.213185-2.8 2.799658-2.8 1.586472 0 2.799657 1.213333 2.799657 2.8v37.426667c0 1.586666-1.213185 2.8-2.799657 2.8-1.586473 0-2.799658-1.213334-2.799658-2.8zm-13.998288-1.4c0-1.586667 1.213185-2.8 2.799658-2.8s2.799658 1.213333 2.799658 2.8v40.6c0 1.586667-1.213185 2.8-2.799658 2.8s-2.799658-1.213333-2.799658-2.8zm-13.998287 1.4c0-1.586667 1.213185-2.8 2.799657-2.8 1.586473 0 2.799658 1.213333 2.799658 2.8v37.426667c0 1.586666-1.213185 2.8-2.799658 2.8-1.586472 0-2.799657-1.213334-2.799657-2.8zm-13.998288 5.6c0-1.586667 1.213185-2.8 2.799658-2.8 1.586472 0 2.799657 1.213333 2.799657 2.8v25.2c0 1.586667-1.213185 2.8-2.799657 2.8-1.586473 0-2.799658-1.213333-2.799658-2.8zm60.659247 42.746667c-.46661.373333-10.825343 9.053333-29.863014 9.053333s-29.396404-8.68-29.863014-9.053333c-1.213185-1.026667-1.306507-2.8-.279965-3.92 1.026541-1.213334 2.799657-1.306667 3.91952-.28.186644 0 9.425514 7.653333 26.223459 7.653333 16.984589 0 26.130137-7.653333 26.130137-7.746667 1.213185-1.026666 2.986301-.84 3.919521.28 1.119863 1.213334.933219 2.986667-.186644 4.013334zm.933219-17.546667c0 1.586667-1.213185 2.8-2.799658 2.8-1.586472 0-2.799657-1.213333-2.799657-2.8v-25.2c0-1.586667 1.213185-2.8 2.799657-2.8 1.586473 0 2.799658 1.213333 2.799658 2.8z" fill="#fff"/></g></svg>