<svg height="257" viewBox="0 0 257 257" width="257" xmlns="http://www.w3.org/2000/svg" xmlns:xlink="http://www.w3.org/1999/xlink"><defs><circle id="a" cx="128.5" cy="128.5" r="125.5"/><mask id="b" fill="#fff"><use fill="none" xlink:href="#a"/></mask></defs><g fill="none" fill-rule="evenodd"><use fill="#6772e5" xlink:href="#a"/><path d="m118.655118 101.30989c0-5.6571427 4.636221-7.8329669 12.314961-7.8329669 11.011023 0 24.919685 3.3362637 35.930708 9.2835169v-34.0879125c-12.025196-4.7868132-23.905511-6.6725275-35.930708-6.6725275-29.411024 0-48.970079 15.3758242-48.970079 41.050549 0 40.035165 55.055118 33.652748 55.055118 50.914286 0 6.672528-5.795275 8.848352-13.908661 8.848352-12.025197 0-27.3826775-4.931868-39.5527562-11.604396v34.523077c13.4740157 5.802198 27.0929132 8.268132 39.5527562 8.268132 30.135433 0 50.853543-14.940659 50.853543-40.905495-.144882-43.226373-55.344882-35.538461-55.344882-51.784615z" fill="#fff" mask="url(#b)"/></g></svg>