<svg height="360" viewBox="0 0 640 360" width="640" xmlns="http://www.w3.org/2000/svg"><g fill="none" fill-rule="evenodd"><path d="m0 0h640v360h-640z" fill="#6772e5"/><g fill="#fff" transform="translate(189 126)"><path d="m262 56.244c0-18.6026667-9.024444-33.2813333-26.272778-33.2813333-17.321111 0-27.801111 14.6786666-27.801111 33.136 0 21.8726666 12.372222 32.918 30.13 32.918 8.660556 0 15.210556-1.962 20.159445-4.7233334v-14.5333333c-4.948889 2.4706667-10.625556 3.9966667-17.830556 3.9966667-7.059444 0-13.318333-2.4706667-14.118889-11.0453334h35.588333c0-.9446666.145556-4.7233333.145556-6.4673333zm-35.952222-6.9033333c0-8.2113334 5.021666-11.6266667 9.606666-11.6266667 4.439445 0 9.17 3.4153333 9.17 11.6266667z"/><path d="m179.833889 22.9626667c-7.132222 0-11.717222 3.3426666-14.264445 5.668l-.946111-4.5053334h-16.011111v84.7293337l18.194445-3.851334.072777-20.5646663c2.62 1.8893333 6.477223 4.578 12.881667 4.578 13.027222 0 24.89-10.464 24.89-33.4993334-.072778-21.0733333-12.081111-32.5546666-24.817222-32.5546666zm-4.366667 50.0673333c-4.293889 0-6.841111-1.526-8.587778-3.4153333l-.072777-26.9593334c1.892222-2.1073333 4.512222-3.5606666 8.660555-3.5606666 6.622778 0 11.207778 7.412 11.207778 16.9313333 0 9.7373333-4.512222 17.004-11.207778 17.004z"/><path d="m123.576667 18.6753333 18.267222-3.924v-14.7513333l-18.267222 3.85133333z"/><path d="m123.576667 24.198h18.267222v63.583333h-18.267222z"/><path d="m103.999444 29.5753333-1.164444-5.3773333h-15.72v63.5833333h18.194444v-43.0913333c4.293889-5.5953333 11.571667-4.578 13.827778-3.7786667v-16.7133333c-2.328889-.872-10.843889-2.4706667-15.137778 5.3773333z"/><path d="m67.6105556 8.42933333-17.7577778 3.77866667-.0727778 58.206c0 10.7546667 8.0783333 18.6753333 18.8494444 18.6753333 5.9677778 0 10.3344445-1.09 12.7361112-2.398v-14.7513333c-2.3288889.9446667-13.8277778 4.2873333-13.8277778-6.4673333v-25.7966667h13.8277778v-15.478h-13.8277778z"/><path d="m18.4127778 42.6553333c0-2.834 2.3288889-3.924 6.1861111-3.924 5.5311111 0 12.5177778 1.6713334 18.0488889 4.6506667v-17.0766667c-6.0405556-2.398-12.0083334-3.3426666-18.0488889-3.3426666-14.7738889 0-24.5988889 7.7026666-24.5988889 20.5646666 0 20.056 27.6555556 16.8586667 27.6555556 25.506 0 3.3426667-2.9111112 4.4326667-6.9866667 4.4326667-6.0405556 0-13.75500001-2.4706667-19.86833334-5.8133333v17.2946666c6.76833333 2.9066667 13.60944444 4.142 19.86833334 4.142 15.1377778 0 25.545-7.4846666 25.545-20.492-.0727778-21.6546666-27.8011111-17.8033333-27.8011111-25.942z"/></g></g></svg>