<svg height="257" viewBox="0 0 257 257" width="257" xmlns="http://www.w3.org/2000/svg"><g fill="none" fill-rule="evenodd"><circle cx="128.5" cy="128.5" fill="#48b882" r="125.5"/><path d="m146.03505 152.744209h-83.0125914c-3.8261887 0-6.9284261-3.112578-6.9284261-6.951598 0-3.838325 3.1022374-6.951598 6.9284261-6.951598h83.0125914c3.826223 0 6.928426 3.113273 6.928426 6.951598 0 3.83902-3.102203 6.951598-6.928426 6.951598" fill="#b8dfc8"/><path d="m128.236962 195.328135c-6.763356 0-13.442186-1.010154-19.850287-3.000588-3.654918-1.137108-5.700363-5.030402-4.567738-8.698326 1.131931-3.667246 5.020511-5.719532 8.667981-4.58371 5.079229 1.57836 10.377743 2.379428 15.750044 2.379428 23.50867 0 43.921718-15.137453 50.796103-37.665497 1.119633-3.672703 4.989852-5.741325 8.653084-4.612907 3.658382 1.125464 5.717164 5.011929 4.596838 8.68272-8.668674 28.410487-34.406737 47.49888-64.046025 47.49888" fill="#fff"/><path d="m193.451466 117.426093h-83.012591c-3.826224 0-6.928426-3.111883-6.928426-6.951598 0-3.83902 3.102202-6.951598 6.928426-6.951598h83.012591c3.826223 0 6.928426 3.112578 6.928426 6.951598 0 3.839715-3.102203 6.951598-6.928426 6.951598" fill="#b8dfc8"/><path d="m70.8189645 117.428179c-.6725423 0-1.3552348-.098539-2.0311547-.305523-3.6583995-1.125637-5.7173199-5.012102-4.5968548-8.68272 8.6693317-28.4125715 34.4074128-47.5002696 64.046007-47.5002696 6.766648 0 13.44617 1.0093721 19.8515 3.0039594 3.655784 1.1371076 5.69915 5.0303501 4.565833 8.6976657-1.132625 3.667837-5.016354 5.729681-8.669367 4.5809294-5.076631-1.5783604-10.374452-2.3793583-15.747966-2.3793583-23.507976 0-43.9217179 15.1365836-50.7961023 37.6668864-.9133397 2.99249-3.6569965 4.91843-6.6218952 4.91843" fill="#fff"/><g fill="#b8dfc8"><path d="m176.288715 83.9850831c0 3.8383249-3.10151 6.950903-6.927733 6.950903s-6.927733-3.1125781-6.927733-6.950903c0-3.83902 3.10151-6.9509029 6.927733-6.9509029s6.927733 3.1118829 6.927733 6.9509029"/><path d="m94.0392902 172.293493c0 3.83902-3.10151 6.95092-6.9277333 6.95092s-6.9277333-3.1119-6.9277333-6.95092 3.10151-6.950903 6.9277333-6.950903 6.9277333 3.111883 6.9277333 6.950903"/></g></g></svg>