<svg xmlns="http://www.w3.org/2000/svg" xmlns:xlink="http://www.w3.org/1999/xlink" width="257" height="257" viewBox="0 0 257 257"><defs><circle id="logo-a" cx="128.5" cy="128.5" r="124.5"/></defs><g fill="none" fill-rule="evenodd"><circle cx="128" cy="128" r="125" fill="#FFF" transform="translate(.5 .5)"/><mask id="logo-b" fill="#fff"><use xlink:href="#logo-a"/></mask><use fill="#48B882" xlink:href="#logo-a"/><path fill="#B8DFC8" d="M146.03505,152.744209 L63.0224586,152.744209 C59.1962699,152.744209 56.0940325,149.631631 56.0940325,145.792611 C56.0940325,141.954286 59.1962699,138.841013 63.0224586,138.841013 L146.03505,138.841013 C149.861273,138.841013 152.963476,141.954286 152.963476,145.792611 C152.963476,149.631631 149.861273,152.744209 146.03505,152.744209" mask="url(#logo-b)"/><path fill="#FFF" d="M128.236962,195.328135 C121.473606,195.328135 114.794776,194.317981 108.386675,192.327547 C104.731757,191.190439 102.686312,187.297145 103.818937,183.629221 C104.950868,179.961975 108.839448,177.909689 112.486918,179.045511 C117.566147,180.623871 122.864661,181.424939 128.236962,181.424939 C151.745632,181.424939 172.15868,166.287486 179.033065,143.759442 C180.152698,140.086739 184.022917,138.018117 187.686149,139.146535 C191.344531,140.271999 193.403313,144.158464 192.282987,147.829255 C183.614313,176.239742 157.87625,195.328135 128.236962,195.328135" mask="url(#logo-b)"/><path fill="#B8DFC8" d="M193.451466,117.426093 L110.438875,117.426093 C106.612651,117.426093 103.510449,114.31421 103.510449,110.474495 C103.510449,106.635475 106.612651,103.522897 110.438875,103.522897 L193.451466,103.522897 C197.277689,103.522897 200.379892,106.635475 200.379892,110.474495 C200.379892,114.31421 197.277689,117.426093 193.451466,117.426093" mask="url(#logo-b)"/><path fill="#FFF" d="M70.8189645,117.428179 C70.1464222,117.428179 69.4637297,117.32964 68.7878098,117.122656 C65.1294103,115.997019 63.0704899,112.110554 64.190955,108.439936 C72.8602867,80.0273645 98.5983678,60.9396664 128.236962,60.9396664 C135.00361,60.9396664 141.683132,61.9490385 148.088462,63.9436258 C151.744246,65.0807334 153.787612,68.9739759 152.654295,72.6412915 C151.52167,76.3091285 147.637941,78.3709725 143.984928,77.2222209 C138.908297,75.6438605 133.610476,74.8428626 128.236962,74.8428626 C104.728986,74.8428626 84.3152441,89.9794462 77.4408597,112.509749 C76.52752,115.502239 73.7838632,117.428179 70.8189645,117.428179" mask="url(#logo-b)"/><path fill="#B8DFC8" d="M176.288715 83.9850831C176.288715 87.823408 173.187205 90.9359861 169.360982 90.9359861 165.534759 90.9359861 162.433249 87.823408 162.433249 83.9850831 162.433249 80.1460631 165.534759 77.0341802 169.360982 77.0341802 173.187205 77.0341802 176.288715 80.1460631 176.288715 83.9850831M94.0392902 172.293493C94.0392902 176.132513 90.9377802 179.244413 87.1115569 179.244413 83.2853336 179.244413 80.1838236 176.132513 80.1838236 172.293493 80.1838236 168.454473 83.2853336 165.34259 87.1115569 165.34259 90.9377802 165.34259 94.0392902 168.454473 94.0392902 172.293493" mask="url(#logo-b)"/></g></svg>