<svg xmlns="http://www.w3.org/2000/svg" xmlns:xlink="http://www.w3.org/1999/xlink" width="640" height="360" viewBox="0 0 640 360"><defs><polygon id="picture-a" points="0 38.184 0 .03 351.586 .03 351.586 76.339 175.793 76.339 0 76.339"/></defs><g fill="none" fill-rule="evenodd"><rect width="640" height="360" fill="#48B882"/><g transform="translate(144 142)"><mask id="picture-b" fill="#fff"><use xlink:href="#picture-a"/></mask><path fill="#FFF" d="M130.955733 36.4426192L124.556178 35.0405282C121.353956 34.3402231 119.591022 32.3462192 119.591022 29.424859 119.591022 25.7105962 122.857778 22.9094744 127.191289 22.9094744 133.188978 22.9094744 134.961689 27.3617526 135.362578 28.7268244 135.496533 29.1822103 135.8104 29.5655321 136.224 29.7787628 136.634667 29.9909077 137.101067 30.0221026 137.537156 29.8667205L140.912444 28.6655205C141.752356 28.367491 142.218756 27.455041 141.975289 26.5885936 141.106044 23.4994128 137.912622 16.3130423 127.070044 16.3130423 119.049333 16.3130423 112.273333 22.5126282 112.273333 29.8513205 112.273333 36.1595949 116.375111 40.8270782 123.244978 42.3367718L129.346311 43.6787436C133.019822 44.4627615 135.212978 46.7212308 135.212978 49.7205782 135.212978 53.5521179 132.092889 55.9317141 127.070044 55.9317141 121.162311 55.9317141 118.317956 52.0215949 117.624711 48.3621205 117.533778 47.8851154 117.245333 47.4694141 116.833689 47.2218295 116.422044 46.9754295 115.924356 46.9171859 115.465778 47.0644731L111.76 48.2591577C110.948444 48.5201679 110.454667 49.3415013 110.612089 50.1690538 111.760978 56.2325077 116.703644 62.7108731 127.130667 62.7108731 135.945333 62.7108731 142.592267 56.9170179 142.592267 49.2339974 142.592267 42.7494128 138.351644 38.0876551 130.955733 36.4426192M168.844622 42.366091C168.865156 42.4991628 168.803556 42.5948205 168.765422 42.6399346 168.725333 42.6869244 168.638311 42.7656026 168.498489 42.7656026L154.907378 42.7656026C154.798844 42.7656026 154.697156 42.7158487 154.628711 42.6290756 154.592533 42.5843564 154.535822 42.4894885 154.5632 42.3653013 155.184089 39.5075154 157.613867 36.6231744 161.644267 36.6231744 165.600356 36.6231744 168.292178 38.7702897 168.844622 42.366091zM161.584622 30.2099628C154.429244 30.2099628 147.028444 36.2540679 147.028444 46.3688077 147.028444 51.2514962 148.613422 55.4142346 151.611289 58.4085474 154.391111 61.1831141 158.189778 62.7108731 162.309156 62.7108731 168.435911 62.7108731 173.404 59.4759846 175.598133 54.0580474 175.776089 53.6195423 175.767289 53.1213128 175.573689 52.6921859 175.382044 52.2629603 175.032978 51.9413372 174.592 51.7879295L171.602933 50.7443821C170.770844 50.4552372 169.853689 50.8639295 169.513422 51.6748974 168.223733 54.7417679 165.799822 56.2965756 162.309156 56.2965756 158.0832 56.2965756 154.868267 53.4228962 154.308978 49.14525 154.291378 49.0122769 154.352978 48.9181 154.392089 48.8741705 154.4312 48.8282667 154.517244 48.7523526 154.654133 48.7523526L174.492267 48.7523526C175.383022 48.7523526 176.121244 48.0512577 176.174044 47.1562808 176.190667 46.8704923 176.200444 46.5585436 176.200444 46.2465949 176.200444 36.3547603 170.599733 30.2099628 161.584622 30.2099628L161.584622 30.2099628zM195.356089 54.2237949C190.594311 54.2237949 187.635556 50.8871282 187.635556 45.5154897 187.635556 40.2251949 190.666667 36.806691 195.356089 36.806691 199.901778 36.806691 202.956356 40.3065385 202.956356 45.5154897 202.956356 50.7243423 199.901778 54.2237949 195.356089 54.2237949zM208.046667 31.1245846L204.458222 31.1245846C203.530311 31.1245846 202.774489 31.8873782 202.774489 32.8687333 202.774489 33.0827538 202.609244 33.1729821 202.5584 33.195391 202.489956 33.2257962 202.355022 33.2621244 202.231822 33.1475128 200.382844 31.4411731 197.785867 30.5763051 194.511289 30.5763051 186.391822 30.5763051 180.498756 36.8595051 180.498756 45.5154897 180.498756 54.1367256 186.391822 60.3940615 194.511289 60.3940615 197.512089 60.3940615 200.230311 59.3983923 202.164356 57.5922487 202.292444 57.4737872 202.430311 57.5089308 202.501689 57.5393359 202.551556 57.5621397 202.714844 57.6503936 202.714844 57.8637231L202.714844 59.1076679C202.714844 65.1321282 200.108089 67.9383044 194.511289 67.9383044 190.96 67.9383044 188.176267 65.7187103 187.420444 62.2844115 187.322667 61.8424513 187.060622 61.4661385 186.681244 61.2246744 186.299911 60.9814333 185.8472 60.9050256 185.4072 61.0065077L181.880356 61.827841C180.981778 62.0376167 180.425422 62.9291385 180.614133 63.8576795 181.877422 70.0981544 187.462489 74.2909623 194.511289 74.2909623 199.761956 74.2909623 203.761067 72.6763809 206.398133 69.4919571 208.578578 66.8589717 209.7304 63.2048577 209.7304 58.9245462L209.7304 32.824409C209.7304 31.8873782 208.975556 31.1245846 208.046667 31.1245846L208.046667 31.1245846zM250.710044 30.2708718C246.741244 30.2708718 243.510667 31.7878705 241.368356 34.6569103 241.288178 34.7640192 241.171822 34.8307526 241.041778 34.8203872 240.939111 34.8165372 240.858933 34.7706333 240.8032 34.6842551 239.009956 31.8792833 235.909422 30.2708718 232.296533 30.2708718 229.427733 30.2708718 226.667467 31.2912205 224.723644 33.0715987 224.571111 33.2103962 224.411733 33.1622218 224.351111 33.1351731 224.277778 33.1021026 224.1536 33.0179949 224.1536 32.824409 224.1536 31.8873782 223.398756 31.1245846 222.469867 31.1245846L219.063289 31.1245846C218.1344 31.1245846 217.379556 31.8873782 217.379556 32.824409L217.379556 60.0956372C217.379556 61.0334577 218.1344 61.7962513 219.063289 61.7962513L222.651733 61.7962513C223.580622 61.7962513 224.335467 61.0334577 224.335467 60.0956372L224.335467 43.4428077C224.335467 39.4003077 226.782844 36.6847744 230.426044 36.6847744 235.199556 36.6847744 235.912356 40.4611308 235.912356 42.7119987L235.912356 60.0956372C235.912356 61.0334577 236.668178 61.7962513 237.596089 61.7962513L241.246133 61.7954615C242.174044 61.7954615 242.929867 61.0326679 242.929867 60.0956372L242.929867 43.3825897C242.929867 39.4389064 245.409511 36.6847744 248.958844 36.6847744 253.734311 36.6847744 254.446133 40.4611308 254.446133 42.7119987L254.446133 60.0956372C254.446133 61.0334577 255.201956 61.7962513 256.130844 61.7962513L259.718311 61.7962513C260.646222 61.7962513 261.402044 61.0334577 261.402044 60.0956372L261.402044 42.1016256C261.402044 33.9288654 256.032089 30.2708718 250.710044 30.2708718M274.967733 42.7656026C274.8592 42.7656026 274.758489 42.7158487 274.689067 42.6290756 274.652889 42.5843564 274.596178 42.4894885 274.623556 42.3653013 275.244444 39.5075154 277.6752 36.6231744 281.7056 36.6231744 285.661689 36.6231744 288.354489 38.7702897 288.905956 42.3664859 288.926489 42.4991628 288.864889 42.5948205 288.826756 42.6399346 288.786667 42.6869244 288.699644 42.7656026 288.559822 42.7656026L274.967733 42.7656026zM281.644978 30.2099628C274.490578 30.2099628 267.0888 36.2540679 267.0888 46.3688077 267.0888 51.2514962 268.673778 55.4142346 271.672622 58.4085474 274.452444 61.1831141 278.251111 62.7108731 282.369511 62.7108731 288.496267 62.7108731 293.464356 59.4759846 295.659467 54.0584423 295.836444 53.6199372 295.828622 53.1221026 295.636 52.6921859 295.443378 52.2629603 295.094311 51.9413372 294.654311 51.7879295L291.663289 50.7443821C290.8312 50.4552372 289.915022 50.8639295 289.573778 51.6748974 288.284089 54.7417679 285.861156 56.2965756 282.369511 56.2965756 278.144533 56.2965756 274.9296 53.4221064 274.369333 49.14525 274.351733 49.0122769 274.414311 48.9181 274.452444 48.8733808 274.492533 48.8282667 274.578578 48.7523526 274.715467 48.7523526L294.552622 48.7523526C295.443378 48.7523526 296.182578 48.0512577 296.2344 47.1562808 296.251022 46.8704923 296.261778 46.5585436 296.261778 46.2465949 296.261778 36.3547603 290.661067 30.2099628 281.644978 30.2099628L281.644978 30.2099628zM317.602756 30.2708718C314.5648 30.2708718 311.903289 31.3151103 309.905689 33.2914436 309.770756 33.4240218 309.623111 33.3897667 309.547822 33.3592628 309.485244 33.3323128 309.338578 33.2474154 309.338578 33.0410949L309.338578 32.824409C309.338578 31.8873782 308.582756 31.1245846 307.653867 31.1245846L304.127022 31.1245846C303.198133 31.1245846 302.442311 31.8873782 302.442311 32.824409L302.442311 60.0956372C302.442311 61.0334577 303.198133 61.7962513 304.127022 61.7962513L307.775111 61.7962513C308.704 61.7962513 309.458844 61.0334577 309.458844 60.0956372L309.458844 44.1743077C309.458844 40.6127615 311.059467 36.806691 315.549422 36.806691 319.591556 36.806691 321.64 39.0598295 321.64 43.5045064L321.64 60.0956372C321.64 61.0334577 322.395822 61.7962513 323.323733 61.7962513L326.9728 61.7962513C327.900711 61.7962513 328.656533 61.0334577 328.656533 60.0956372L328.656533 42.5292718C328.656533 34.9680692 324.4208 30.2708718 317.602756 30.2708718M345.650311 37.6597128L349.901689 37.6597128C350.830578 37.6597128 351.5864 36.8973141 351.5864 35.9598885L351.5864 32.824409C351.5864 31.8873782 350.830578 31.1245846 349.901689 31.1245846L345.650311 31.1245846C345.4616 31.1245846 345.308089 30.9699923 345.308089 30.7794667L345.308089 23.5595321C345.308089 22.6225013 344.552267 21.8602013 343.624356 21.8602013L340.459289 21.8602013C339.5304 21.8602013 338.775556 22.6225013 338.775556 23.5595321L338.775556 27.2911692C338.775556 29.0399577 338.116533 31.1245846 334.977867 31.1245846L334.421511 31.1245846C333.4936 31.1245846 332.737778 31.8873782 332.737778 32.824409L332.737778 35.9598885C332.737778 36.8973141 333.4936 37.6597128 334.421511 37.6597128L337.949333 37.6597128C338.138044 37.6597128 338.291556 37.8143051 338.291556 38.0048308L338.291556 53.0731385C338.291556 58.6414231 341.648267 62.1005 347.051467 62.1005 348.557244 62.1005 349.727644 61.8841103 350.291822 61.7556782 351.053511 61.5806513 351.5864 60.9003859 351.5864 60.1010667L351.5864 57.1927372C351.5864 56.7125731 351.384 56.2529423 351.030044 55.932109 350.676089 55.6094 350.196978 55.4539192 349.722756 55.5029821 349.341422 55.5434564 348.971822 55.5649769 348.6824 55.5649769 346.222311 55.5649769 345.308089 54.65845 345.308089 52.2198205L345.308089 38.0048308C345.308089 37.8143051 345.4616 37.6597128 345.650311 37.6597128" mask="url(#picture-b)"/><path fill="#B8DFC8" d="M50.7718933,52.1496321 L3.91111111,52.1496321 C1.75121956,52.1496321 0,50.3815936 0,48.2009141 C0,46.0206295 1.75121956,44.2521962 3.91111111,44.2521962 L50.7718933,44.2521962 C52.9318044,44.2521962 54.6830044,46.0206295 54.6830044,48.2009141 C54.6830044,50.3815936 52.9318044,52.1496321 50.7718933,52.1496321" mask="url(#picture-b)"/><path fill="#FFF" d="M40.7248356,76.3385897 C36.9069067,76.3385897 33.1366933,75.7647917 29.5193067,74.6341651 C27.4560978,73.9882536 26.30144,71.7767445 26.9408089,69.6932528 C27.5797867,67.6101462 29.7748978,66.4443859 31.8339022,67.0895669 C34.7011378,67.9861233 37.69216,68.4411538 40.7248356,68.4411538 C53.9955289,68.4411538 65.5187378,59.8426231 69.3993422,47.0460128 C70.0313778,44.9598064 72.2161244,43.7847667 74.2840267,44.4257423 C76.3491911,45.0650397 77.5113778,47.2726692 76.8789511,49.3577897 C71.9854667,65.4958051 57.4562756,76.3385897 40.7248356,76.3385897" mask="url(#picture-b)"/><path fill="#B8DFC8" d="M77.53856,32.0878744 L30.6777778,32.0878744 C28.5178667,32.0878744 26.7666667,30.3202308 26.7666667,28.1391564 C26.7666667,25.9584769 28.5178667,24.1904385 30.6777778,24.1904385 L77.53856,24.1904385 C79.6984711,24.1904385 81.4496711,25.9584769 81.4496711,28.1391564 C81.4496711,30.3202308 79.6984711,32.0878744 77.53856,32.0878744" mask="url(#picture-b)"/><path fill="#FFF" d="M8.31225511,32.089059 C7.93260356,32.089059 7.54722222,32.0330859 7.165664,31.9155128 C5.10048978,31.2761167 3.93822489,29.0684872 4.57072978,26.9834654 C9.46458578,10.8442654 23.9937867,0.00187564103 40.7248356,0.00187564103 C44.5446222,0.00187564103 48.3152267,0.575229487 51.9310489,1.70821538 C53.9947467,2.35412692 55.1482311,4.56560641 54.5084711,6.64875256 C53.8691022,8.73219487 51.6767289,9.90338462 49.6145956,9.25085897 C46.7488267,8.35430256 43.7581956,7.89931154 40.7248356,7.89931154 C27.4545333,7.89931154 15.9309333,16.4973487 12.0503289,29.2952423 C11.5347467,30.9950667 9.98594667,32.089059 8.31225511,32.089059" mask="url(#picture-b)"/><path fill="#B8DFC8" d="M67.8501511 13.0923692C67.8501511 15.2726538 66.0993422 17.0406923 63.9394311 17.0406923 61.77952 17.0406923 60.0287111 15.2726538 60.0287111 13.0923692 60.0287111 10.9116897 61.77952 9.14404615 63.9394311 9.14404615 66.0993422 9.14404615 67.8501511 10.9116897 67.8501511 13.0923692M21.4201778 63.2542167C21.4201778 65.4348962 19.6693689 67.2025496 17.5094578 67.2025496 15.3495467 67.2025496 13.5987378 65.4348962 13.5987378 63.2542167 13.5987378 61.0735372 15.3495467 59.3058936 17.5094578 59.3058936 19.6693689 59.3058936 21.4201778 61.0735372 21.4201778 63.2542167" mask="url(#picture-b)"/></g></g></svg>