<svg height="360" viewBox="0 0 640 360" width="640" xmlns="http://www.w3.org/2000/svg" xmlns:xlink="http://www.w3.org/1999/xlink"><mask id="a" fill="#fff"><path d="m0 38.1841026v-38.15448722h351.5864v76.30897432h-175.7932-175.7932z" fill="none"/></mask><g fill="none" fill-rule="evenodd"><path d="m0 0h640v360h-640z" fill="#48b882"/><g transform="translate(144 142)"><g fill="#fff"><path d="m130.955733 36.4426192-6.399555-1.402091c-3.202222-.7003051-4.965156-2.694309-4.965156-5.6156692 0-3.7142628 3.266756-6.5153846 7.600267-6.5153846 5.997689 0 7.7704 4.4522782 8.171289 5.81735.133955.4553859.447822.8387077.861422 1.0519384.410667.2121449.877067.2433398 1.313156.0879577l3.375288-1.2012c.839912-.2980295 1.306312-1.2104795 1.062845-2.0769269-.869245-3.0891808-4.062667-10.2755513-14.905245-10.2755513-8.020711 0-14.796711 6.1995859-14.796711 13.5382782 0 6.3082744 4.101778 10.9757577 10.971645 12.4854513l6.101333 1.3419718c3.673511.7840179 5.866667 3.0424872 5.866667 6.0418346 0 3.8315397-3.120089 6.2111359-8.142934 6.2111359-5.907733 0-8.752088-3.9101192-9.445333-7.5695936-.090933-.4770051-.379378-.8927064-.791022-1.140291-.411645-.2464-.909333-.3046436-1.367911-.1573564l-3.705778 1.1946846c-.811556.2610102-1.305333 1.0823436-1.147911 1.9098961 1.148889 6.0634539 6.091555 12.5418193 16.518578 12.5418193 8.814666 0 15.4616-5.7938552 15.4616-13.4768757 0-6.4845846-4.240623-11.1463423-11.636534-12.7913782" mask="url(#a)"/><path d="m168.844622 42.366091c.020534.1330718-.041066.2287295-.0792.2738436-.040089.0469898-.127111.125668-.266933.125668h-13.591111c-.108534 0-.210222-.0497539-.278667-.136527-.036178-.0447192-.092889-.1395871-.065511-.2637743.620889-2.8577859 3.050667-5.7421269 7.081067-5.7421269 3.956089 0 6.647911 2.1471153 7.200355 5.7429166zm-7.26-12.1561282c-7.155378 0-14.556178 6.0441051-14.556178 16.1588449 0 4.8826885 1.584978 9.0454269 4.582845 12.0397397 2.779822 2.7745667 6.578489 4.3023257 10.697867 4.3023257 6.126755 0 11.094844-3.2348885 13.288977-8.6528257.177956-.4385051.169156-.9367346-.024444-1.3658615-.191645-.4292256-.540711-.7508487-.981689-.9042564l-2.989067-1.0435474c-.832089-.2891449-1.749244.1195474-2.089511.9305153-1.289689 3.0668705-3.7136 4.6216782-7.204266 4.6216782-4.225956 0-7.440889-2.8736794-8.000178-7.1513256-.0176-.1329731.044-.22715.083111-.2710795.039111-.0459038.125155-.1218179.262044-.1218179h19.838134c.890755 0 1.628977-.7010949 1.681777-1.5960718.016623-.2857885.0264-.5977372.0264-.9096859 0-9.8918346-5.600711-16.0366321-14.615822-16.0366321z" mask="url(#a)"/><path d="m195.356089 54.2237949c-4.761778 0-7.720533-3.3366667-7.720533-8.7083052 0-5.2902948 3.031111-8.7087987 7.720533-8.7087987 4.545689 0 7.600267 3.4998475 7.600267 8.7087987 0 5.2088526-3.054578 8.7083052-7.600267 8.7083052zm12.690578-23.0992103h-3.588445c-.927911 0-1.683733.7627936-1.683733 1.7441487 0 .2140205-.165245.3042488-.216089.3266577-.068444.0304052-.203378.0667334-.326578-.0478782-1.848978-1.7063397-4.445955-2.5712077-7.720533-2.5712077-8.119467 0-14.012533 6.2832-14.012533 14.9391846 0 8.6212359 5.893066 14.8785718 14.012533 14.8785718 3.0008 0 5.719022-.9956692 7.653067-2.8018128.128088-.1184615.265955-.0833179.337333-.0529128.049867.0228038.213155.1110577.213155.3243872v1.2439448c0 6.0244603-2.606755 8.8306365-8.203555 8.8306365-3.551289 0-6.335022-2.2195941-7.090845-5.6538929-.097777-.4419602-.359822-.818273-.7392-1.0597371-.381333-.2432411-.834044-.3196488-1.274044-.2181667l-3.526844.8213333c-.898578.2097757-1.454934 1.1012975-1.266223 2.0298385 1.263289 6.2404749 6.848356 10.4332828 13.897156 10.4332828 5.250667 0 9.249778-1.6145814 11.886844-4.7990052 2.180445-2.6329854 3.332267-6.2870994 3.332267-10.5674109v-26.1001372c0-.9370308-.754844-1.6998244-1.683733-1.6998244z" mask="url(#a)"/><path d="m250.710044 30.2708718c-3.9688 0-7.199377 1.5169987-9.341688 4.3860385-.080178.1071089-.196534.1738423-.326578.1634769-.102667-.00385-.182845-.0497539-.238578-.1361321-1.793244-2.8049718-4.893778-4.4133833-8.506667-4.4133833-2.8688 0-5.629066 1.0203487-7.572889 2.8007269-.152533.1387975-.311911.0906231-.372533.0635744-.073333-.0330705-.197511-.1171782-.197511-.3107641 0-.9370308-.754844-1.6998244-1.683733-1.6998244h-3.406578c-.928889 0-1.683733.7627936-1.683733 1.6998244v27.2712282c0 .9378205.754844 1.7006141 1.683733 1.7006141h3.588444c.928889 0 1.683734-.7627936 1.683734-1.7006141v-16.6528295c0-4.0425 2.447377-6.7580333 6.090577-6.7580333 4.773512 0 5.486312 3.7763564 5.486312 6.0272243v17.3836385c0 .9378205.755822 1.7006141 1.683733 1.7006141l3.650044-.0007898c.927911 0 1.683734-.7627936 1.683734-1.6998243v-16.7130475c0-3.9436833 2.479644-6.6978153 6.028977-6.6978153 4.775467 0 5.487289 3.7763564 5.487289 6.0272243v17.3836385c0 .9378205.755823 1.7006141 1.684711 1.7006141h3.587467c.927911 0 1.683733-.7627936 1.683733-1.7006141v-17.9940116c0-8.1727602-5.369955-11.8307538-10.692-11.8307538" mask="url(#a)"/><path d="m274.967733 42.7656026c-.108533 0-.209244-.0497539-.278666-.136527-.036178-.0447192-.092889-.1395871-.065511-.2637743.620888-2.8577859 3.051644-5.7421269 7.082044-5.7421269 3.956089 0 6.648889 2.1471153 7.200356 5.7433115.020533.1326769-.041067.2283346-.0792.2734487-.040089.0469898-.127112.125668-.266934.125668zm6.677245-12.5556398c-7.1544 0-14.556178 6.0441051-14.556178 16.1588449 0 4.8826885 1.584978 9.0454269 4.583822 12.0397397 2.779822 2.7745667 6.578489 4.3023257 10.696889 4.3023257 6.126756 0 11.094845-3.2348885 13.289956-8.6524308.176977-.4385051.169155-.9363397-.023467-1.3662564-.192622-.4292256-.541689-.7508487-.981689-.9042564l-2.991022-1.0435474c-.832089-.2891449-1.748267.1195474-2.089511.9305153-1.289689 3.0668705-3.712622 4.6216782-7.204267 4.6216782-4.224978 0-7.439911-2.8744692-8.000178-7.1513256-.0176-.1329731.044978-.22715.083111-.2718692.040089-.0451141.126134-.1210282.263023-.1210282h19.837155c.890756 0 1.629956-.7010949 1.681778-1.5960718.016622-.2857885.027378-.5977372.027378-.9096859 0-9.8918346-5.600711-16.0366321-14.6168-16.0366321z" mask="url(#a)"/><path d="m317.602756 30.2708718c-3.037956 0-5.699467 1.0442385-7.697067 3.0205718-.134933.1325782-.282578.0983231-.357867.0678192-.062578-.02695-.209244-.1118474-.209244-.3181679v-.2166859c0-.9370308-.755822-1.6998244-1.684711-1.6998244h-3.526845c-.928889 0-1.684711.7627936-1.684711 1.6998244v27.2712282c0 .9378205.755822 1.7006141 1.684711 1.7006141h3.648089c.928889 0 1.683733-.7627936 1.683733-1.7006141v-15.9213295c0-3.5615462 1.600623-7.3676167 6.090578-7.3676167 4.042134 0 6.090578 2.2531385 6.090578 6.6978154v16.5911308c0 .9378205.755822 1.7006141 1.683733 1.7006141h3.649067c.927911 0 1.683733-.7627936 1.683733-1.7006141v-17.5663654c0-7.5612026-4.235733-12.2584-11.053777-12.2584" mask="url(#a)"/><path d="m345.650311 37.6597128h4.251378c.928889 0 1.684711-.7623987 1.684711-1.6998243v-3.1354795c0-.9370308-.755822-1.6998244-1.684711-1.6998244h-4.251378c-.188711 0-.342222-.1545923-.342222-.3451179v-7.2199346c0-.9370308-.755822-1.6993308-1.683733-1.6993308h-3.165067c-.928889 0-1.683733.7623-1.683733 1.6993308v3.7316371c0 1.7487885-.659023 3.8334154-3.797689 3.8334154h-.556356c-.927911 0-1.683733.7627936-1.683733 1.6998244v3.1354795c0 .9374256.755822 1.6998243 1.683733 1.6998243h3.527822c.188711 0 .342223.1545923.342223.345118v15.0683077c0 5.5682846 3.356711 9.0273615 8.759911 9.0273615 1.505777 0 2.676177-.2163897 3.240355-.3448218.761689-.1750269 1.294578-.8552923 1.294578-1.6546115v-2.9083295c0-.4801641-.2024-.9397949-.556356-1.2606282-.353955-.322709-.833066-.4781898-1.307288-.4291269-.381334.0404743-.750934.0619948-1.040356.0619948-2.460089 0-3.374311-.9065269-3.374311-3.3451564v-14.2149897c0-.1905257.153511-.345118.342222-.345118" mask="url(#a)"/></g><path d="m50.7718933 52.1496321h-46.86078219c-2.15989155 0-3.91111111-1.7680385-3.91111111-3.948718 0-2.1802846 1.75121956-3.9487179 3.91111111-3.9487179h46.86078219c2.1599111 0 3.9111111 1.7684333 3.9111111 3.9487179 0 2.1806795-1.7512 3.948718-3.9111111 3.948718" fill="#b8dfc8" mask="url(#a)"/><path d="m40.7248356 76.3385897c-3.8179289 0-7.5881423-.573798-11.2055289-1.7044246-2.0632089-.6459115-3.2178667-2.8574206-2.5784978-4.9409123.6389778-2.0831066 2.8340889-3.2488669 4.8930933-2.6036859 2.8672356.8965564 5.8582578 1.3515869 8.8909334 1.3515869 13.2706933 0 24.7939022-8.5985307 28.6745066-21.395141.6320356-2.0862064 2.8167822-3.2612461 4.8846845-2.6202705 2.0651644.6392974 3.2273511 2.8469269 2.5949244 4.9320474-4.8934844 16.1380154-19.4226755 26.9808-36.1541155 26.9808" fill="#fff" mask="url(#a)"/><path d="m77.53856 32.0878744h-46.8607822c-2.1599111 0-3.9111111-1.7676436-3.9111111-3.948718 0-2.1806795 1.7512-3.9487179 3.9111111-3.9487179h46.8607822c2.1599111 0 3.9111111 1.7680384 3.9111111 3.9487179 0 2.1810744-1.7512 3.948718-3.9111111 3.948718" fill="#b8dfc8" mask="url(#a)"/><path d="m8.31225511 32.089059c-.37965155 0-.76503289-.0559731-1.14659111-.1735462-2.06517422-.6393961-3.22743911-2.8470256-2.59493422-4.9320474 4.893856-16.1392 19.42305692-26.98158976 36.15410582-26.98158976 3.8197866 0 7.5903911.57335385 11.2062133 1.70633974 2.0636978.64591154 3.2171822 2.85739103 2.5774222 4.94053718-.6393689 2.08344231-2.8317422 3.25463206-4.8938755 2.60210641-2.8657689-.89655641-5.8564-1.35154743-8.88976-1.35154743-13.2703023 0-24.7939023 8.59803716-28.6745067 21.39593076-.5155822 1.6998244-2.06438223 2.7938167-3.73807379 2.7938167" fill="#fff" mask="url(#a)"/><path d="m67.8501511 13.0923692c0 2.1802846-1.7508089 3.9483231-3.91072 3.9483231s-3.91072-1.7680385-3.91072-3.9483231c0-2.1806795 1.7508089-3.94832305 3.91072-3.94832305s3.91072 1.76764355 3.91072 3.94832305" fill="#b8dfc8" mask="url(#a)"/><path d="m21.4201778 63.2542167c0 2.1806795-1.7508089 3.9483329-3.91072 3.9483329s-3.91072-1.7676534-3.91072-3.9483329 1.7508089-3.9483231 3.91072-3.9483231 3.91072 1.7676436 3.91072 3.9483231" fill="#b8dfc8" mask="url(#a)"/></g></g></svg>