<?xml version="1.0" encoding="UTF-8"?>
<svg width="257px" height="257px" viewBox="0 0 257 257" version="1.1" xmlns="http://www.w3.org/2000/svg" xmlns:xlink="http://www.w3.org/1999/xlink">
    <!-- Generator: Sketch 50.2 (55047) - http://www.bohemiancoding.com/sketch -->
    <title>salesforce/logo</title>
    <desc>Created with Sketch.</desc>
    <defs>
        <circle id="path-1" cx="128.5" cy="128.5" r="125.5"></circle>
    </defs>
    <g id="salesforce/logo" stroke="none" stroke-width="1" fill="none" fill-rule="evenodd">
        <mask id="mask-2" fill="white">
            <use xlink:href="#path-1"></use>
        </mask>
        <use id="Mask" fill="#00A1DF" xlink:href="#path-1"></use>
        <g id="salesforce" mask="url(#mask-2)">
            <g transform="translate(38.000000, 65.000000)" id="Shape">
                <path d="M75.752586,13.9270014 C81.616626,7.83644429 89.780054,4.05910143 98.808892,4.05910143 C110.810882,4.05910143 121.282252,10.7305929 126.858732,20.6344157 C131.704482,18.4761414 137.068386,17.2756286 142.712024,17.2756286 C164.359104,17.2756286 181.909,34.9226414 181.909,56.6904414 C181.909,78.4607814 164.359104,96.1076129 142.712024,96.1076129 C140.070112,96.1076129 137.487896,95.8445414 134.99122,95.3410771 C130.080496,104.072871 120.722784,109.972384 109.982054,109.972384 C105.485926,109.972384 101.233314,108.937153 97.44644,107.096197 C92.46874,118.768949 80.870426,126.953554 67.353286,126.953554 C53.276678,126.953554 41.279966,118.07444 36.67482,105.621909 C34.662264,106.048266 32.577454,106.269971 30.438044,106.269971 C13.67821,106.269971 0.091,92.5860843 0.091,75.7032486 C0.091,64.3893629 6.195644,54.5113029 15.265796,49.2262886 C13.398476,44.94276 12.359802,40.2154571 12.359802,35.2454029 C12.35962,15.8296429 28.17178,0.0907142857 47.6749,0.0907142857 C59.125248,0.0907142857 69.301414,5.51778714 75.75295,13.9270014" fill="#FFFFFF" fill-rule="nonzero"></path>
                <path d="M26.425672,65.8785286 C26.311558,66.1753457 26.466986,66.2373943 26.503386,66.2891014 C26.845182,66.5369329 27.192256,66.7150957 27.541878,66.91376 C29.396094,67.8949257 31.146934,68.1815829 32.978218,68.1815829 C36.707762,68.1815829 39.023166,66.2040114 39.023166,63.0203029 L39.023166,62.9586171 C39.023166,60.01512 36.409646,58.9461429 33.957196,58.1743457 L33.638332,58.0709314 C31.789212,57.4722171 30.193618,56.9555086 30.193618,55.7421143 L30.193618,55.6775257 C30.193618,54.6397543 31.126186,53.8753957 32.571448,53.8753957 C34.177234,53.8753957 36.083502,54.4075257 37.311274,55.08371 C37.311274,55.08371 37.67127,55.3163014 37.80322,54.9675957 C37.87602,54.7818129 38.49755,53.11394 38.56216,52.9332371 C38.63223,52.7369314 38.507924,52.5921514 38.38107,52.5148629 C36.97967,51.6657771 35.042462,51.0848429 33.037914,51.0848429 L32.664814,51.0873829 C29.251222,51.0873829 26.868478,53.1426057 26.868478,56.0884614 L26.868478,56.1501471 C26.868478,59.2562043 29.497104,60.2631329 31.960292,60.9656243 L32.356506,61.0868186 C34.15139,61.6365471 35.697662,62.1091686 35.697662,63.36919 L35.697662,63.4308757 C35.697662,64.5825843 34.692658,65.4398343 33.071402,65.4398343 C32.442046,65.4398343 30.434768,65.4271343 28.266966,64.0609771 C28.00525,63.90894 27.852552,63.7979057 27.650532,63.6763486 C27.544244,63.60922 27.277432,63.4931057 27.160952,63.8443514 L26.425672,65.8788914 L26.425672,65.8785286 Z M81.025308,65.8785286 C80.911376,66.1753457 81.066804,66.2373943 81.103022,66.2891014 C81.445182,66.5369329 81.792256,66.7150957 82.141878,66.91376 C83.996458,67.8949257 85.747298,68.1815829 87.578218,68.1815829 C91.307944,68.1815829 93.623348,66.2040114 93.623348,63.0203029 L93.623348,62.9586171 C93.623348,60.01512 91.009828,58.9461429 88.557378,58.1743457 L88.238878,58.0709314 C86.389394,57.4722171 84.793982,56.9555086 84.793982,55.7421143 L84.793982,55.6775257 C84.793982,54.6397543 85.726368,53.8753957 87.17163,53.8753957 C88.777416,53.8753957 90.683684,54.4075257 91.911274,55.08371 C91.911274,55.08371 92.27127,55.3163014 92.403402,54.9675957 C92.476202,54.7818129 93.09755,53.11394 93.162342,52.9332371 C93.23223,52.7369314 93.107742,52.5921514 92.98107,52.5148629 C91.57967,51.6657771 89.642462,51.0848429 87.637914,51.0848429 L87.264814,51.0873829 C83.851222,51.0873829 81.468478,53.1426057 81.468478,56.0884614 L81.468478,56.1501471 C81.468478,59.2562043 84.097286,60.2631329 86.560474,60.9656243 L86.956688,61.0868186 C88.751572,61.6365471 90.300392,62.1091686 90.300392,63.36919 L90.300392,63.4308757 C90.300392,64.5825843 89.29284,65.4398343 87.671584,65.4398343 C87.04241,65.4398343 85.035132,65.4271343 82.86733,64.0609771 C82.605614,63.90894 82.450186,63.8029857 82.253444,63.6763486 C82.186104,63.6328057 81.870152,63.5112486 81.761316,63.8443514 L81.025672,65.8788914 L81.025308,65.8785286 Z M118.29909,59.6428286 C118.29909,61.4426 117.96239,62.8595571 117.299364,63.8615871 C116.644164,64.8530943 115.652264,65.3358757 114.269064,65.3358757 C112.883498,65.3358757 111.896694,64.8554529 111.251504,63.8614057 C110.599034,62.8622786 110.267612,61.4422371 110.267612,59.6426471 C110.267612,57.8455971 110.598852,56.4308171 111.251686,55.43931 C111.896694,54.4581443 112.883498,53.9806243 114.269246,53.9806243 C115.652082,53.9806243 116.644346,54.4581443 117.301912,55.43931 C117.962572,56.4308171 118.299272,57.8455971 118.299272,59.6426471 L118.29909,59.6428286 Z M121.412382,56.3069014 C121.106622,55.27675 120.630328,54.3677929 119.995694,53.6114171 C119.361242,52.85232 118.558258,52.2429014 117.605124,51.7989457 C116.655084,51.3573486 115.530688,51.13274 114.269428,51.13274 C113.005438,51.13274 111.881588,51.3573486 110.931002,51.7989457 C109.977686,52.2429014 109.174702,52.85232 108.537702,53.6114171 C107.905616,54.3705143 107.429322,55.27929 107.120832,56.3069014 C106.817802,57.3319729 106.665104,58.4522943 106.665104,59.6426471 C106.665104,60.8328186 106.817984,61.9558614 107.121014,62.9783929 C107.429322,64.0060043 107.90325,64.91478 108.540614,65.6738771 C109.174884,66.4329743 109.980234,67.0396714 110.931002,67.4709271 C111.883954,67.9020014 113.005256,68.12153 114.269246,68.12153 C115.530506,68.12153 116.65199,67.9020014 117.605306,67.4709271 C118.55571,67.0396714 119.361242,66.4331557 119.995694,65.6738771 C120.630328,64.91732 121.106804,64.0083629 121.412564,62.9783929 C121.718324,61.9533214 121.871204,60.8302786 121.871204,59.6426471 C121.871204,58.4550157 121.718324,57.3317914 121.412564,56.3069014 L121.412382,56.3069014 Z" fill="#00A1DF" fill-rule="nonzero"></path>
                <path d="M146.977376,64.8552714 C146.873636,64.5531929 146.581162,64.6665857 146.581162,64.6665857 C146.127982,64.83985 145.64641,64.99987 145.133534,65.07988 C144.613014,65.1600714 144.040624,65.2014371 143.426738,65.2014371 C141.919414,65.2014371 140.722764,64.7545786 139.865544,63.8715657 C139.005776,62.9885529 138.524204,61.5608914 138.5293,59.6297657 C138.534396,57.87136 138.959184,56.5494714 139.72322,55.5425429 C140.48216,54.5406943 141.637132,54.0268886 143.178308,54.0268886 C144.462864,54.0268886 145.441842,54.1742086 146.467594,54.4967886 C146.467594,54.4967886 146.713658,54.6027429 146.830138,54.2827029 C147.102046,53.5286857 147.304066,52.9891171 147.594174,52.1603514 C147.677166,51.9254014 147.475146,51.8247086 147.402528,51.7962243 C146.998488,51.6389257 146.045354,51.3832929 145.325362,51.2747986 C144.651962,51.1713843 143.864448,51.1173186 142.989028,51.1173186 C141.680994,51.1173186 140.515648,51.3393871 139.518288,51.7835243 C138.52384,52.22494 137.679542,52.8343586 137.011238,53.5934557 C136.343298,54.3525529 135.835518,55.2613286 135.496088,56.28894 C135.159388,57.3140114 134.988308,58.4395943 134.988308,59.6297657 C134.988308,62.2038743 135.685368,64.28486 137.06056,65.8081343 C138.4383,67.3368514 140.50764,68.1140914 143.206336,68.1140914 C144.801748,68.1140914 146.438656,67.7911486 147.614376,67.32905 C147.614376,67.32905 147.840056,67.2207371 147.741412,66.9598429 L146.977376,64.8556343 L146.977376,64.8552714 Z M152.424454,57.9188943 C152.571874,56.9197671 152.849242,56.08828 153.276578,55.4402171 C153.921222,54.4565114 154.905478,53.9169429 156.288678,53.9169429 C157.671514,53.9169429 158.585882,54.4594143 159.241082,55.4402171 C159.676062,56.08828 159.865342,56.9558714 159.940508,57.9188943 L152.424272,57.9188943 L152.424454,57.9188943 Z M162.906198,55.7217943 C162.641752,54.7275657 161.986552,53.7233586 161.556668,53.2638 C160.877808,52.5357271 160.214964,52.0270014 159.557034,51.7430657 C158.697266,51.37658 157.666418,51.1334657 156.537108,51.1334657 C155.221248,51.1334657 154.027328,51.3529943 153.058724,51.8076543 C152.087572,52.2619514 151.271484,52.8817114 150.631936,53.65369 C149.992024,54.4229471 149.51027,55.3391614 149.204692,56.3798357 C148.896566,57.4152486 148.741138,58.5435529 148.741138,59.7337243 C148.741138,60.9445786 148.901844,62.0728829 149.220344,63.0876129 C149.541574,64.1099629 150.05445,65.0111186 150.748598,65.7573343 C151.440198,66.5084486 152.331088,67.0971843 153.398154,67.5077571 C154.457394,67.9159714 155.74468,68.1275171 157.223794,68.1249771 C160.266834,68.1146357 161.870254,67.43827 162.530368,67.0741429 C162.646848,67.0095543 162.758414,66.89598 162.618456,66.5706786 L161.929404,64.6471729 C161.825664,64.3605157 161.53319,64.46647 161.53319,64.46647 C160.779346,64.7453257 159.707184,65.24625 157.207778,65.24117 C155.573782,65.2384486 154.361662,64.7582071 153.602722,64.0069114 C152.823034,63.2376543 152.442472,62.1066286 152.375132,60.5111457 L162.913842,60.5214871 C162.913842,60.5214871 163.190846,60.5160443 163.219602,60.24753 C163.229794,60.1341371 163.581782,58.0892557 162.906016,55.7217943 L162.906198,55.7217943 Z M68.024684,57.9188943 C68.174834,56.9197671 68.449472,56.08828 68.876808,55.4402171 C69.521634,54.4565114 70.505708,53.9169429 71.888908,53.9169429 C73.272108,53.9169429 74.186294,54.4594143 74.844042,55.4402171 C75.276838,56.08828 75.465936,56.9558714 75.541102,57.9188943 L68.02432,57.9188943 L68.024684,57.9188943 Z M78.503698,55.7217943 C78.239434,54.7275657 77.586782,53.7233586 77.156898,53.2638 C76.478038,52.5357271 75.815194,52.0270014 75.157264,51.7430657 C74.297496,51.37658 73.266648,51.1334657 72.137338,51.1334657 C70.824208,51.1334657 69.627558,51.3529943 68.658954,51.8076543 C67.687802,52.2619514 66.871714,52.8817114 66.232166,53.65369 C65.592436,54.4229471 65.110682,55.3391614 64.805286,56.3798357 C64.499526,57.4152486 64.34155,58.5435529 64.34155,59.7337243 C64.34155,60.9445786 64.502074,62.0728829 64.820574,63.0876129 C65.141804,64.1099629 65.65468,65.0111186 66.348646,65.7573343 C67.040246,66.5084486 67.931136,67.0971843 68.998202,67.5077571 C70.057442,67.9159714 71.34491,68.1275171 72.823842,68.1249771 C75.866882,68.1146357 77.470302,67.43827 78.130598,67.0741429 C78.247078,67.0095543 78.358462,66.89598 78.218686,66.5706786 L77.532546,64.6471729 C77.426076,64.3605157 77.13342,64.46647 77.13342,64.46647 C76.37994,64.7453257 75.310326,65.24625 72.805824,65.24117 C71.174012,65.2384486 69.961892,64.7582071 69.203134,64.0069114 C68.423446,63.2376543 68.042702,62.1066286 67.975362,60.5111457 L78.514254,60.5214871 C78.514254,60.5214871 78.79144,60.5160443 78.820014,60.24753 C78.830206,60.1341371 79.182558,58.0892557 78.50388,55.7217943 L78.503698,55.7217943 Z" fill="#00A1DF" fill-rule="evenodd"></path>
                <path d="M45.2452,64.7977586 C44.833516,64.4699171 44.77655,64.3871857 44.636592,64.1754586 C44.429476,63.8525157 44.323188,63.3931386 44.323188,62.8096643 C44.323188,61.8854671 44.628948,61.2218014 45.2634,60.7751243 C45.255756,60.7780271 46.16976,59.9877243 48.319726,60.01639 C49.829598,60.0368914 51.178946,60.25896 51.178946,60.25896 L51.178946,65.03543 L51.181676,65.03543 C51.181676,65.03543 49.84252,65.3220871 48.335196,65.4124386 C46.19069,65.5412529 45.237556,64.7955814 45.245382,64.79794 M49.438662,57.4163371 C49.011326,57.3854943 48.457136,57.3673514 47.79411,57.3673514 C46.890116,57.3673514 46.017244,57.4809257 45.19879,57.7004543 C44.37524,57.9199829 43.6345,58.2632457 42.997318,58.7175429 C42.357588,59.17438 41.842164,59.7578543 41.469246,60.4498229 C41.096146,61.1417914 40.90723,61.9574943 40.90723,62.8718943 C40.90723,63.8011714 41.067754,64.6092543 41.388984,65.27038 C41.710396,65.9336829 42.17395,66.4863143 42.76454,66.9123086 C43.349852,67.3383029 44.072392,67.6507229 44.911594,67.8394086 C45.737874,68.0277314 46.675174,68.1231629 47.700926,68.1231629 C48.781278,68.1231629 49.858718,68.0353514 50.902306,67.8571886 C51.936066,67.6817471 53.20497,67.4261143 53.55714,67.3461043 C53.90658,67.2631914 54.295332,67.1574186 54.295332,67.1574186 C54.556866,67.09283 54.536118,66.8139743 54.536118,66.8139743 L54.531022,57.2067871 C54.531022,55.1000386 53.966458,53.5383014 52.855348,52.5698357 C51.749516,51.6042729 50.120434,51.11623 48.014694,51.11623 C47.224814,51.11623 45.95318,51.2247243 45.191874,51.3769429 C45.191874,51.3769429 42.88921,51.8214429 41.941354,52.5598571 C41.941354,52.5598571 41.733874,52.6886714 41.847988,52.9778686 L42.593824,54.9763043 C42.68719,55.2342957 42.93835,55.1464843 42.93835,55.1464843 C42.93835,55.1464843 43.018794,55.1156414 43.111978,55.0612129 C45.140004,53.9613929 47.704202,53.9949571 47.704202,53.9949571 C48.843522,53.9949571 49.718942,54.2224686 50.309714,54.6742257 C50.884834,55.1132829 51.177308,55.7767671 51.177308,57.1761257 L51.177308,57.6200814 C50.270584,57.4912671 49.439208,57.4163371 49.439208,57.4163371" fill="#00A1DF" fill-rule="nonzero"></path>
                <path d="M134.437576,52.0028714 C134.51802,51.7655629 134.34967,51.6519886 134.2796,51.6260443 C134.100876,51.5563757 133.20489,51.3678714 132.51329,51.3239657 C131.189786,51.2441371 130.454324,51.4660243 129.796394,51.7603014 C129.143742,52.05476 128.418654,52.5295586 128.014614,53.0693086 L128.014614,51.7913257 C128.014614,51.6131629 127.887578,51.4711043 127.711402,51.4711043 L125.01034,51.4711043 C124.834346,51.4711043 124.70731,51.6129814 124.70731,51.7911443 L124.70731,67.4605857 C124.70731,67.6362086 124.852364,67.7808071 125.02854,67.7808071 L127.797306,67.7808071 C127.973482,67.7808071 128.115806,67.6362086 128.115806,67.4607671 L128.115806,59.6326686 C128.115806,58.5818343 128.23265,57.53354 128.46561,56.8749543 C128.693656,56.2245329 129.00433,55.7029257 129.387622,55.3286386 C129.773462,54.95671 130.211354,54.6961786 130.690742,54.5488586 C131.179958,54.39918 131.721226,54.3501943 132.104882,54.3501943 C132.656342,54.3501943 133.262402,54.4920714 133.262402,54.4920714 C133.464422,54.5151129 133.578354,54.3911971 133.645694,54.2079543 C133.826966,53.7277129 134.339842,52.28971 134.438122,52.0030529 L134.437576,52.0028714 Z M108.449068,44.74083 C108.112368,44.6374157 107.806608,44.5677471 107.408028,44.4929986 C107.003988,44.4204271 106.522052,44.3845043 105.975688,44.3845043 C104.06942,44.3845043 102.567192,44.9215329 101.513048,45.9798057 C100.464182,47.0333614 99.751834,48.6366457 99.394568,50.7459343 L99.264984,51.4560457 L96.871684,51.4560457 C96.871684,51.4560457 96.581758,51.4457043 96.519514,51.7608457 L96.128214,53.9476043 C96.100004,54.15407 96.19064,54.2857871 96.470374,54.2857871 L98.7987,54.2857871 L96.436704,67.4326457 C96.252884,68.4912814 96.040308,69.3612314 95.804618,70.0221757 C95.574024,70.67296 95.348708,71.1608214 95.068974,71.5171471 C94.799614,71.85787 94.545724,72.1109629 94.105466,72.2581014 C93.742922,72.3796586 93.32323,72.4362643 92.864954,72.4362643 C92.611064,72.4362643 92.271634,72.3948986 92.020474,72.3433729 C91.771862,72.2943871 91.63973,72.2399586 91.450814,72.16013 C91.450814,72.16013 91.178724,72.0567157 91.07007,72.32777 C90.98453,72.5527414 90.363,74.2539971 90.287834,74.4631843 C90.215034,74.67219 90.318774,74.8351129 90.450906,74.8840986 C90.761762,74.9924114 90.992356,75.06462 91.414414,75.1653129 C91.999726,75.30211 92.494584,75.3099114 92.958138,75.3099114 C93.926742,75.3099114 94.812718,75.1731143 95.54545,74.90968 C96.281094,74.6435243 96.92319,74.1814257 97.493214,73.5565857 C98.1071,72.88022 98.49294,72.17283 98.860762,71.2045457 C99.225854,70.2493243 99.539258,69.0618743 99.78787,67.6775743 L102.16297,54.2856057 L105.63371,54.2856057 C105.63371,54.2856057 105.926184,54.2959471 105.98588,53.9782657 L106.379728,51.7938657 C106.405572,51.58486 106.317484,51.4558643 106.035202,51.4558643 L102.665836,51.4558643 C102.684036,51.3809343 102.836916,50.1985643 103.222756,49.0856814 C103.388376,48.6132414 103.699232,48.2284314 103.960766,47.9651786 C104.219752,47.7070057 104.517686,47.5235814 104.844012,47.4178086 C105.178164,47.3093143 105.558908,47.2577886 105.976052,47.2577886 C106.291822,47.2577886 106.605226,47.2940743 106.840916,47.34306 C107.167242,47.4127286 107.294096,47.4488329 107.379636,47.4745957 C107.72398,47.57801 107.770936,47.4771357 107.838276,47.3120357 L108.643444,45.1069529 C108.726618,44.8692814 108.52205,44.76877 108.449432,44.7404671 L108.449068,44.74083 Z M61.369308,67.4614929 C61.369308,67.6371157 61.242454,67.7789929 61.066278,67.7789929 L58.271486,67.7789929 C58.095492,67.7789929 57.971186,67.6371157 57.971186,67.4614929 L57.971186,45.04055 C57.971186,44.8649271 58.095492,44.72305 58.271486,44.72305 L61.066096,44.72305 C61.24209,44.72305 61.368944,44.8649271 61.368944,45.04055 L61.368944,67.4614929 L61.369308,67.4614929 Z" fill="#00A1DF" fill-rule="evenodd"></path>
            </g>
        </g>
    </g>
</svg>