<svg height="257" viewBox="0 0 257 257" width="257" xmlns="http://www.w3.org/2000/svg"><g fill="none" fill-rule="evenodd"><circle cx="128.5" cy="128.5" fill="#242a33" r="125.5"/><g fill="#fff" fill-rule="nonzero" transform="translate(49 96)"><path d="m158.878845 6.26061266c-.100816-2.03374281-.308749-3.58295756-.44107-4.64126886-.151224-1.0583113-.226836-1.6193438-.226836-1.6193438s-.094515.5610325-.270943 1.60659307c-.088214.52278028-.18903 1.17944332-.31505 1.93173689-.151224.74591822-.308749 1.60659308-.466274 2.55652311-.365457 1.89986004-.882139 4.18224223-1.550045 6.69413773-.674207 2.5246463-1.58155 5.2724304-2.772439 8.0202146-1.197189 2.7541596-2.703128 5.5019437-4.61233 7.9628362-1.909202 2.467268-4.177561 4.660395-6.805077 6.4901259-2.621215 1.8361064-5.55748 3.3279429-8.701677 4.5711399-3.131596 1.2304463-6.471125 2.2377547-9.879964 3.0984295-3.402539.9180533-6.899592 1.6703467-10.377743 2.5246462-3.484451.8224226-6.962602 1.7596019-10.346238 2.8944178-3.3710331 1.1220648-6.6601537 2.4991446-9.6972345 4.3033742-3.0307798 1.8106048-5.8032185 4.0866118-7.9455576 6.8343958-2.1675431 2.7031567-3.5663647 5.8653397-4.3665913 8.6896285-.2709428.9690561-.4536718 1.8871093-.6048956 2.7924116-.1512241-.9053023-.333953-1.8233555-.6048958-2.7860362-.8002266-2.8242888-2.1990482-5.9928472-4.3728922-8.6832531-2.1360382-2.7414089-4.9084769-5.023791-7.9329556-6.834396-3.0307798-1.8042294-6.3262015-3.1813092-9.703536-4.3097495-3.3773346-1.1348158-6.8554851-2.0528689-10.3399366-2.8816669-3.4718496-.8670503-6.9752041-1.6257191-10.3777428-2.5437724-3.4151404-.8606748-6.742067-1.8743586-9.8736628-3.0984295-3.1441976-1.2623232-6.0867634-2.7350335-8.7016774-4.5775151-2.6212149-1.8361063-4.8958749-4.0292335-6.7987761-6.4965015-1.90920222-2.4545171-3.40883959-5.2086765-4.61233007-7.9564608-1.19718951-2.7477841-2.09193114-5.4891929-2.77243884-8.0138392-.66790573-2.5118955-1.19088851-4.79427769-1.55004536-6.69413773-.16382593-.95630541-.32135086-1.81698027-.4788758-2.56927384-.11971894-.75229358-.2268359-1.39620588-.30874886-1.91898616-.18272893-1.04556057-.27724389-1.60659307-.27724389-1.60659307s-.08191297.5610325-.2268359 1.6193438c-.13232095 1.06468668-.34025386 2.63302753-.44106982 4.64126886-.11341795 2.01461671-.19533092 4.48826004-.03780598 7.34442544.15752493 2.8689162.56708976 6.1203545 1.40512241 9.6140569.85693564 3.4745763 2.18014509 7.216918 4.19646424 10.7424972 2.01001815 3.5192039 4.65013607 6.8152698 7.74392577 9.4674236 1.5374433 1.3579536 3.1757027 2.556523 4.8706709 3.608459 1.6886673 1.0774373 3.4466455 2.0273673 5.229828 2.8179131 3.5537623 1.6703468 7.2272438 2.7987872 10.8503173 3.7805941 3.6356755.9116779 7.239846 1.6512205 10.7432004 2.2823821 1.7327744.3060179 3.4592477.618411 5.160517.9180533 1.6697643.3251438 3.3143245.6502877 4.9399818.9626808 3.2009068.6757891 6.2253855 1.4408334 8.9411153 2.4927693 2.7157299 1.0455606 5.1227109 2.3525113 7.07602 4.0101074 3.9885313 3.2386876 6.0111514 8.1030943 6.9878062 11.7179287.2457387.9244285.4536717 1.7468512.5985947 2.4736433.1764279.7267921.3087488 1.364329.3843609 1.8998601.1890298 1.0391852.2835449 1.606593.2835449 1.606593s.100816-.5674078.2961468-1.606593c.0693109-.5291557.201632-1.1539418.3717588-1.8871093.1575249-.7395429.3654579-1.5619656.6111968-2.4800187.5040798-1.8042296 1.2412965-3.9144767 2.3691751-5.9928472 1.1341794-2.071995 2.6212148-4.1057377 4.6186309-5.7250817 1.9470082-1.657596 4.3665911-2.9645466 7.07602-4.0037318 2.71573-1.0455606 5.7339076-1.810605 8.9411156-2.4927695 1.619356-.3123931 3.263916-.6375368 4.933681-.9563053 1.713871-.312393 3.434043-.6247861 5.160517-.930804 3.503354-.6247862 7.107525-1.3707045 10.7432-2.2887575 3.623074-.9818069 7.302856-2.1229981 10.850317-3.7869695 1.783183-.7969212 3.541161-1.746851 5.229828-2.8179131 1.694969-1.051936 3.333228-2.2632562 4.86437-3.6020836 3.09379-2.6649046 5.733908-5.9609705 7.737625-9.4801744 2.02262-3.5319544 3.34583-7.2679209 4.196464-10.7361218.844334-3.487327 1.247598-6.7387653 1.411424-9.6076815.157525-2.8561654.081913-5.32980873-.031505-7.34442544"/><path d="m131.754714 4.06700183c-.063789-1.31765791-.197747-2.33124093-.287052-3.01540946-.102063-.68416853-.146716-1.05159237-.146716-1.05159237s-.063789.36108895-.184989 1.04525748c-.051032.34208426-.1212.76018725-.204126 1.25430896-.102063.48778684-.204127 1.04525749-.312568 1.65974219-.229642 1.24163919-.580484 2.72400433-1.020631 4.35840694-.440147 1.64073749-1.033389 3.42717753-1.824378 5.21995243-.790989 1.7864401-1.773346 3.5792151-3.036376 5.1756083-1.243894 1.6027281-2.755704 3.0344141-4.484397 4.2253742-1.715935 1.1909601-3.648755 2.1665336-5.715532 2.9710652-2.066778.8108663-4.254755 1.4570255-6.512901 2.0208311-2.23263.5954799-4.535428 1.0832668-6.831847 1.6407374-2.2900403.538466-4.5800806 1.1466159-6.7999526 1.8751287-2.226251.7348476-4.3950913 1.6344025-6.3917004 2.806358-1.99023 1.1782901-3.8209865 2.6606554-5.2243539 4.4470954-1.4288829 1.7611005-2.3538296 3.813606-2.876903 5.6507251-.1786103.6271546-.2998103 1.2226346-.3954943 1.8117798-.1020631-.5828104-.2232631-1.1846252-.4018734-1.8054449-.5294522-1.8371191-1.4480199-3.8896246-2.876903-5.6507251-1.4033673-1.78644-3.227745-3.2688053-5.217975-4.4470954-2.002988-1.1656206-4.1718283-2.0651755-6.3980793-2.8000232-2.219872-.7348476-4.5099123-1.3366627-6.8063315-1.8751286-2.2836615-.5638055-4.5864597-1.0579273-6.8318475-1.6534072-2.2453875-.5638056-4.4333648-1.2226346-6.5001423-2.0208311-2.0667773-.8172014-4.0059759-1.7801051-5.7219112-2.983735-1.7286935-1.1846252-3.221366-2.6163112-4.4780177-4.2253742-1.2566517-1.5900583-2.2453877-3.3828333-3.0363765-5.1629385-.7909891-1.7927749-1.3842306-3.57921494-1.8243777-5.21995243-.4401471-1.63440261-.78461-3.11676775-1.0206307-4.35840694-.1084421-.62081959-.2105052-1.18462515-.3125682-1.66607707-.0829263-.49412172-.1530947-.91222471-.2105052-1.24797408-.114821-.68416853-.1786103-1.04525748-.1786103-1.04525748s-.0510316.36742384-.1467156 1.05159237c-.0893054.69050343-.2296419 1.71042132-.2934315 3.02174434-.0765472 1.31132303-.1275788 2.91405116-.0255158 4.77650994.1020631 1.85612385.3699787 3.97197845.9249468 6.25254015.5677259 2.2615571 1.4352619 4.6878214 2.762082 6.9873878 1.3204411 2.2932316 3.0618924 4.4344257 5.096775 6.1701867 1.0078729.8805502 2.0922931 1.6597421 3.2086081 2.3375758 1.109936.7095081 2.2709035 1.317658 3.4382499 1.8371191 2.341072 1.083267 4.7586912 1.8181147 7.1507946 2.4579388 2.3921033.5954802 4.7586909 1.076932 7.0678682 1.4823653 1.1418306.1963817 2.2772825.4054332 3.3935974.6018148 1.103557.2090515 2.1815982.418103 3.2596394.6144846 2.1050512.4497776 4.0952813.9438994 5.881385 1.6280679 1.7861039.6714986 3.3744606 1.5330442 4.663007 2.6099761 2.6217453 2.1095197 3.9485654 5.2706317 4.5992174 7.6335471.1658526.5954801.2998103 1.1276112.3954945 1.5963932.114821.4751171.1977473.8995549.2423998 1.2353043.1275789.6841686.1977473 1.0452575.1977473 1.0452575s.0637893-.3610889.1913682-1.0389226c.0446526-.3420843.1339579-.7538523.2423998-1.2353043.1020631-.4751169.2423998-1.019918.4018734-1.6027281.3317049-1.1719553.8165046-2.559297 1.556462-3.9086295.7463362-1.3493323 1.7286934-2.6733252 3.0491345-3.7185827 1.2821675-1.0769319 2.8705239-1.9321426 4.6566279-2.6099761 1.7861039-.6778337 3.7763339-1.1719554 5.8813849-1.621733 1.0652835-.2090514 2.1560827-.411768 3.2468818-.6144846 1.1226938-.2027166 2.2645247-.411768 3.4063557-.6144846 2.302798-.4054333 4.669385-.8868851 7.074247-1.4823653 2.385724-.6398241 4.803343-1.3810069 7.138036-2.4642737 1.180105-.5131262 2.315556-1.1402808 3.444629-1.8371191 1.116315-.6778337 2.187977-1.4633605 3.202229-2.3439107 2.022125-1.735761 3.769955-3.8706202 5.090396-6.1701866 1.333199-2.2868967 2.200736-4.713161 2.762083-6.9747181.554968-2.2805617.816504-4.3964163.924946-6.25887506.108442-1.85612387.051032-3.458852-.019137-4.77650991" opacity=".5"/></g></g></svg>