<svg height="360" viewBox="0 0 640 360" width="640" xmlns="http://www.w3.org/2000/svg"><g fill="none" fill-rule="evenodd"><path d="m1 1h640v360h-640z" fill="#242a33"/><g fill="#fff" fill-rule="nonzero" transform="translate(221 129)"><path d="m198.848365 7.86394029c-.126178-2.55457938-.386421-4.50054425-.55203-5.82988649-.189268-1.32934225-.283902-2.0340538-.283902-2.0340538s-.118292.70471155-.339105 2.01803763c-.110406.65666304-.236584 1.48149589-.394307 2.42645-.189268.93694605-.386422 2.01803765-.583576 3.21124244-.457397 2.38640953-1.104061 5.25330433-1.939993 8.40849013-.843819 3.171202-1.979425 6.622687-3.469908 10.074172-1.498369 3.4594932-3.38316 6.910978-5.772665 10.0020991-2.389505 3.0991292-5.22852 5.8539107-8.517046 8.1522313-3.28064 2.3063288-6.955588 4.180221-10.890779 5.7417976-3.919418 1.5455607-8.09908 2.8108383-12.365489 3.8919298-4.258523 1.1531645-8.635339 2.0981184-12.988496 3.171202-4.361043 1.033043-8.7142 2.2102316-12.949065 3.635671-4.219092 1.409423-8.335664 3.1391696-12.13679 5.405458-3.79324 2.2742962-7.263148 5.133183-9.94444 8.5846678-2.712837 3.3954286-4.463564 7.367439-5.465105 10.9150212-.3391047 1.2172289-.5678032 2.3703934-.7570708 3.5075414-.1892678-1.137148-.4179663-2.2903125-.7570708-3.4995333-1.0015415-3.5475822-2.7522679-7.5276007-5.4729909-10.907013-2.6734063-3.443477-6.1433138-6.3103716-9.9286677-8.5846681-3.7932401-2.2662882-7.9176987-3.9960348-12.1446771-5.4134659-4.2269786-1.4254394-8.5801354-2.5786036-12.9411785-3.6196547-4.3452709-1.0890999-8.7299724-2.0420619-12.9884957-3.1952264-4.2742953-1.0810915-8.4381845-2.3543772-12.3576031-3.8919298-3.9351908-1.585601-7.6180247-3.4354688-10.8907786-5.7498054-3.2806401-2.3063287-6.1275416-5.0611105-8.5091601-8.1602397-2.3895047-3.083113-4.26640931-6.542606-5.77266469-9.994091-1.49836925-3.451485-2.61820312-6.8949619-3.46990773-10.0661639-.83593232-3.1551858-1.4904831-6.0220806-1.93999387-8.40849013-.20504-1.20121289-.40219385-2.28230448-.5993477-3.22725859-.14983692-.94495414-.28390154-1.75377081-.38642154-2.41043385-.22869846-1.31332608-.34699077-2.01803763-.34699077-2.01803763s-.10252.70471155-.28390154 2.0340538c-.16560924 1.33735033-.42585231 3.30733945-.55203078 5.82988649-.14195077 2.53055511-.24447077 5.63769241-.04731692 9.22531491.19715385 3.6036386.70975385 7.6877624 1.75861233 12.0761934 1.07251693 4.3644068 2.72860925 9.065153 5.25217851 13.4936246 2.51568309 4.4204634 5.8199816 8.5606437 9.6920832 11.8920076 1.9242215 1.7057222 3.9746216 3.2112423 6.095997 4.5325765 2.1134892 1.3533664 4.313726 2.5465712 6.5455079 3.5395739 4.4477906 2.0981184 9.0454184 3.5155498 13.5799568 4.7487949 4.550311 1.1451564 9.0611909 2.0740941 13.4458925 2.8668946 2.1686924.3843884 4.3294986.7767846 6.4587602 1.1531645 2.0898308.4084125 4.1481167.8168249 6.1827445 1.2092211 4.0061664.8488571 7.7915202 1.8098272 11.1904524 3.1311614 3.3989325 1.3133261 6.4114433 2.9549837 8.8561509 5.0370861 4.9919354 4.0681076 7.5233908 10.178277 8.7457448 14.7188617.3075599 1.1611723.567803 2.1942156.7491846 3.1071373.2208123.9129218.3864214 1.7137302.4810555 2.3864092.2365844 1.305318.3548769 2.018038.3548769 2.018038s.1261785-.71272.3706492-2.018038c.0867476-.664671.2523566-1.4494631.4652826-2.3703929.197154-.928938.457397-1.9619813.764957-3.1151455.630893-2.2662884 1.553573-4.9169646 2.965194-7.5276008 1.419508-2.6026277 3.28064-5.1572071 5.780551-7.1912611 2.436822-2.0821022 5.465105-3.7237598 8.856151-5.0290777 3.398932-1.3133261 7.1764-2.2742966 11.190452-3.1311617 2.026742-.3923962 4.085028-.8008084 6.174859-1.2012127 2.145034-.3923962 4.297954-.7847924 6.45876-1.1691808 4.384702-.7847923 8.895582-1.7217384 13.445893-2.8749027 4.534538-1.2332451 9.140052-2.6666927 13.579956-4.756803 2.231782-1.0010108 4.432019-2.1942154 6.545508-3.5395739 2.121376-1.3213342 4.171776-2.8428705 6.088111-4.5245684 3.872102-3.3473801 7.1764-7.4875604 9.684197-11.9080239 2.531456-4.4364793 4.187548-9.1292177 5.252179-13.4856164 1.056744-4.3804229 1.561458-8.4645467 1.766498-12.0681853.197154-3.5876225.10252-6.6947598-.039431-9.22531491"/><path d="m164.900554 5.10855108c-.079837-1.65510689-.247495-2.92826605-.359266-3.78764847-.12774-.85938242-.183626-1.32090261-.183626-1.32090261s-.079837.45356295-.231527 1.31294537c-.06387.42969121-.151691.95486936-.255479 1.57553443-.127739.61270785-.255479 1.31294537-.391202 2.08479812-.287413 1.55961995-.726517 3.42161519-1.277393 5.47458428-.550876 2.0609264-1.293361 4.3048694-2.28334 6.5567696-.98998 2.243943-2.219471 4.4958433-3.800245 6.5010689-1.556823 2.0131829-3.448962 3.8115201-5.612547 5.3074822-2.147617 1.4959621-4.566681 2.7213776-7.153402 3.7319478-2.586721 1.0185272-5.325133 1.8301662-8.151366 2.538361-2.794298.7479809-5.676416 1.3606888-8.550551 2.0609263-2.866151.6763658-5.732302 1.4402614-8.510632 2.3553445-2.786315.9230404-5.500775 2.0529691-7.999676 3.5250594-2.490917 1.4800474-4.782241 3.3420428-6.538657 5.5859858-1.78835 2.212114-2.945988 4.7902612-3.600652 7.097862-.2235434.7877674-.375234 1.5357483-.4949895 2.2757722-.1277393-.7320667-.2794299-1.4880048-.5029735-2.2678149-.6626478-2.3076009-1.8123017-4.885748-3.6006523-7.0978621-1.7564157-2.243943-4.0397563-4.1059384-6.5306731-5.5859857-2.5068843-1.4641332-5.2213448-2.5940619-8.007659-3.5171022-2.7783303-.9230404-5.6444814-1.6789788-8.5186161-2.3553446-2.8581675-.7081947-5.7402861-1.3288598-8.5505513-2.0768407-2.8102649-.7081948-5.5486768-1.5357483-8.1353983-2.538361-2.5867212-1.0264847-5.0137685-2.2359857-7.1613857-3.7478623-2.1635849-1.4880048-4.0317724-3.286342-5.6045629-5.3074822-1.5727905-1.9972684-2.8102652-4.2491686-3.8002449-6.4851544-.98998-2.2519002-1.7324647-4.4958432-2.2833406-6.5567696-.5508759-2.05296909-.9819961-3.91496433-1.2773932-5.47458428-.1357231-.77980998-.2634624-1.48800476-.3912017-2.09275535-.1037883-.62066509-.1916091-1.14584323-.2634625-1.5675772-.1437067-.85938242-.2235436-1.31294537-.2235436-1.31294537s-.0638698.46152019-.1836253 1.32090261c-.1117721.86733967-.2874134 2.14845605-.3672507 3.7956057-.0958044 1.64714965-.1596741 3.66033255-.0319348 5.99976249.1277393 2.3314727.4630551 4.9891924 1.1576377 7.8538004.7105501 2.8407364 1.7963342 5.8883611 3.4569455 8.7768409 1.6526275 2.8805225 3.8321798 5.5700712 6.3789825 7.7503563 1.2614258 1.106057 2.6186562 2.084798 4.015805 2.9362233 1.3891653.8912114 2.8422001 1.655107 4.3032185 2.3076008 2.9300209 1.3606891 5.9558462 2.2837294 8.9497366 3.087411 2.9938904.7479812 5.9558459 1.3527316 8.8459484 1.8619954 1.4290835.2466746 2.8501836.5092636 4.2473325.7559382 1.3811814.262589 2.730428.525178 4.0796745.7718526 2.6346239.5649645 5.1255407 1.1856296 7.3609787 2.0450121 2.2354382.8434677 4.2233815 1.925653 5.8360905 3.2783846 3.2813038 2.6497625 4.9419152 6.6204276 5.7562532 9.5884798.2075766.7479812.3752343 1.4163897.49499 2.0052257.1437068.5967934.247495 1.1299287.3033809 1.5516627.1596742.8593825.247495 1.3129454.247495 1.3129454s.079837-.4535629.2395112-1.3049882c.0558859-.4296912.167658-.946912.3033813-1.5516627.127739-.5967932.30338-1.2811164.502973-2.0131829.415153-1.4720901 1.021915-3.2147267 1.948025-4.9096199.934094-1.694893 2.163585-3.3579573 3.816212-4.6709027 1.604726-1.3527315 3.592669-2.4269596 5.828107-3.2783846 2.235438-.8514252 4.726355-1.4720904 7.360979-2.0370549 1.333279-.262589 2.698493-.5172208 4.063707-.7718526 1.405132-.2546318 2.834216-.5172208 4.2633-.7718526 2.882118-.5092638 5.844074-1.1140142 8.853932-1.8619954 2.985907-.8036816 6.011732-1.7346794 8.933769-3.0953682 1.476986-.6445366 2.898086-1.4323039 4.311202-2.3076009 1.397149-.8514252 2.738412-1.8381234 4.007821-2.9441804 2.530836-2.1802851 4.718372-4.8618766 6.370999-7.7503564 1.668595-2.8725653 2.75438-5.92019 3.456946-8.7609264.694583-2.864608 1.021915-5.5223277 1.157637-7.8617577.135724-2.33147264.06387-4.34465554-.023951-5.99976242" opacity=".5"/></g></g></svg>