<?xml version="1.0" encoding="UTF-8"?>
<svg width="640px" height="360px" viewBox="0 0 640 360" version="1.1" xmlns="http://www.w3.org/2000/svg" xmlns:xlink="http://www.w3.org/1999/xlink">
    <!-- Generator: Sketch 50.2 (55047) - http://www.bohemiancoding.com/sketch -->
    <title>salesforce/picture</title>
    <desc>Created with Sketch.</desc>
    <defs></defs>
    <g id="salesforce/picture" stroke="none" stroke-width="1" fill="none" fill-rule="evenodd">
        <rect id="Rectangle" fill="#00A1DF" x="0" y="0" width="640" height="360"></rect>
        <g id="salesforce" transform="translate(207.000000, 103.000000)">
            <path d="M94.482621,17.4361671 C101.796561,9.81098143 111.978419,5.08186714 123.239662,5.08186714 C138.209177,5.08186714 151.269622,13.4343643 158.224902,25.8336386 C164.268777,23.1315471 170.958921,21.6285429 177.997964,21.6285429 C204.997344,21.6285429 226.8865,43.7220471 226.8865,70.9746471 C226.8865,98.2304271 204.997344,120.323704 177.997964,120.323704 C174.702832,120.323704 171.482156,119.994347 168.36817,119.364026 C162.243256,130.295957 150.571824,137.681961 137.175419,137.681961 C131.567611,137.681961 126.263529,136.385884 121.54034,134.081066 C115.33189,148.694983 100.865861,158.941851 84.006571,158.941851 C66.449483,158.941851 51.486551,147.82548 45.74277,132.235303 C43.232604,132.769089 40.632319,133.046657 37.963934,133.046657 C17.060185,133.046657 0.1135,115.914861 0.1135,94.7780829 C0.1135,80.6134543 7.727534,68.2464343 19.040306,61.6297629 C16.711286,56.26692 15.415797,50.3484857 15.415797,44.1261343 C15.41557,19.8182143 35.13733,0.113571429 59.46265,0.113571429 C73.744128,0.113571429 86.436379,6.90809571 94.483075,17.4361671" id="Shape" fill="#FFFFFF" fill-rule="nonzero"></path>
            <path d="M32.959492,82.4778429 C32.817163,82.8494486 33.011021,82.9271314 33.056421,82.9918671 C33.482727,83.3021443 33.915616,83.5251986 34.351683,83.77392 C36.664359,85.0023086 38.848099,85.3611943 41.132173,85.3611943 C45.783857,85.3611943 48.671751,82.8853371 48.671751,78.8994343 L48.671751,78.8222057 C48.671751,75.13704 45.412031,73.7987143 42.353206,72.8324486 L41.955502,72.7029771 C39.649182,71.9534057 37.659073,71.3065029 37.659073,69.7873714 L37.659073,69.7065086 C37.659073,68.4072514 38.822221,67.4502986 40.624828,67.4502986 C42.627649,67.4502986 45.005247,68.1165086 46.536589,68.96307 C46.536589,68.96307 46.985595,69.2542671 47.15017,68.8176986 C47.24097,68.5851043 48.016175,66.49698 48.09676,66.2707457 C48.184155,66.0249771 48.029114,65.8437171 47.870895,65.7469543 C46.122995,64.6839257 43.706807,63.9566143 41.206629,63.9566143 L40.741279,63.9597943 C36.483667,63.9597943 33.511783,66.5328686 33.511783,70.2209871 L33.511783,70.2982157 C33.511783,74.1869014 36.790344,75.4475443 39.862562,76.3270414 L40.356741,76.4787729 C42.595415,77.1670157 44.524007,77.7587229 44.524007,79.33623 L44.524007,79.4134586 C44.524007,80.8553614 43.270513,81.9286114 41.248397,81.9286114 C40.463431,81.9286114 37.959848,81.9127114 35.256051,80.2023257 C34.929625,80.01198 34.739172,79.8729686 34.487202,79.7207829 C34.354634,79.63674 34.021852,79.4913686 33.876572,79.9311171 L32.959492,82.4782971 L32.959492,82.4778429 Z M101.059038,82.4778429 C100.916936,82.8494486 101.110794,82.9271314 101.155967,82.9918671 C101.582727,83.3021443 102.015616,83.5251986 102.451683,83.77392 C104.764813,85.0023086 106.948553,85.3611943 109.232173,85.3611943 C113.884084,85.3611943 116.771978,82.8853371 116.771978,78.8994343 L116.771978,78.8222057 C116.771978,75.13704 113.512258,73.7987143 110.453433,72.8324486 L110.056183,72.7029771 C107.749409,71.9534057 105.759527,71.3065029 105.759527,69.7873714 L105.759527,69.7065086 C105.759527,68.4072514 106.922448,67.4502986 108.725055,67.4502986 C110.727876,67.4502986 113.105474,68.1165086 114.636589,68.96307 C114.636589,68.96307 115.085595,69.2542671 115.250397,68.8176986 C115.341197,68.5851043 116.116175,66.49698 116.196987,66.2707457 C116.284155,66.0249771 116.128887,65.8437171 115.970895,65.7469543 C114.222995,64.6839257 111.806807,63.9566143 109.306629,63.9566143 L108.841279,63.9597943 C104.583667,63.9597943 101.611783,66.5328686 101.611783,70.2209871 L101.611783,70.2982157 C101.611783,74.1869014 104.890571,75.4475443 107.962789,76.3270414 L108.456968,76.4787729 C110.695642,77.1670157 112.627412,77.7587229 112.627412,79.33623 L112.627412,79.4134586 C112.627412,80.8553614 111.37074,81.9286114 109.348624,81.9286114 C108.563885,81.9286114 106.060302,81.9127114 103.356505,80.2023257 C103.030079,80.01198 102.836221,79.8793286 102.590834,79.7207829 C102.506844,79.6662686 102.112772,79.5140829 101.977026,79.9311171 L101.059492,82.4782971 L101.059038,82.4778429 Z M147.548865,74.6709429 C147.548865,76.9242 147.128915,78.6981857 146.301954,79.9526957 C145.484754,81.1940314 144.247604,81.7984586 142.522404,81.7984586 C140.794253,81.7984586 139.563459,81.1969843 138.758744,79.9524686 C137.944949,78.7015929 137.531582,76.9237457 137.531582,74.6707157 C137.531582,72.4208657 137.944722,70.6496057 138.758971,69.40827 C139.563459,68.1798814 140.794253,67.5820414 142.522631,67.5820414 C144.247377,67.5820414 145.484981,68.1798814 146.305132,69.40827 C147.129142,70.6496057 147.549092,72.4208657 147.549092,74.6707157 L147.548865,74.6709429 Z M151.431927,70.4944671 C151.050567,69.20475 150.456508,68.0667643 149.664959,67.1198057 C148.873637,66.16944 147.872113,65.4064671 146.683314,64.8506486 C145.498374,64.2977829 144.095968,64.01658 142.522858,64.01658 C140.946343,64.01658 139.544618,64.2977829 138.358997,64.8506486 C137.169971,65.4064671 136.168447,66.16944 135.373947,67.1198057 C134.585576,68.0701714 133.991517,69.20793 133.606752,70.4944671 C133.228797,71.7778243 133.038344,73.1804314 133.038344,74.6707157 C133.038344,76.1607729 133.229024,77.5667871 133.606979,78.8469643 C133.991517,80.1335014 134.582625,81.27126 135.377579,82.2216257 C136.168674,83.1719914 137.173149,83.9315571 138.358997,84.4714757 C139.547569,85.0111671 140.946116,85.28601 142.522631,85.28601 C144.095741,85.28601 145.494515,85.0111671 146.683541,84.4714757 C147.868935,83.9315571 148.873637,83.1722186 149.664959,82.2216257 C150.456508,81.27444 151.050794,80.1364543 151.432154,78.8469643 C151.813514,77.5636071 152.004194,76.1575929 152.004194,74.6707157 C152.004194,73.1838386 151.813514,71.7775971 151.432154,70.4944671 L151.431927,70.4944671 Z" id="Shape" fill="#00A1DF" fill-rule="nonzero"></path>
            <path d="M183.317936,81.1967571 C183.188546,80.8185643 182.823757,80.9605286 182.823757,80.9605286 C182.258527,81.17745 181.657885,81.37779 181.018199,81.47796 C180.368979,81.5783571 179.655064,81.6301457 178.889393,81.6301457 C177.009379,81.6301457 175.516854,81.0706929 174.447684,79.9651886 C173.375336,78.8596843 172.774694,77.0722971 172.78105,74.6545886 C172.787406,72.45312 173.317224,70.7981571 174.27017,69.5375143 C175.21676,68.2832314 176.657302,67.6399629 178.579538,67.6399629 C180.181704,67.6399629 181.402737,67.8244029 182.682109,68.2282629 C182.682109,68.2282629 182.989013,68.3609143 183.134293,67.9602343 C183.473431,67.0162286 183.725401,66.3407057 184.087239,65.3031171 C184.190751,65.0089671 183.938781,64.8829029 183.848208,64.8472414 C183.344268,64.6503086 182.155469,64.3302643 181.257457,64.1944329 C180.417557,64.0649614 179.435328,63.9972729 178.343458,63.9972729 C176.712009,63.9972729 175.258528,64.2752957 174.014568,64.8313414 C172.77424,65.38398 171.721187,66.1469529 170.887643,67.0973186 C170.054553,68.0476843 169.421223,69.1854429 168.997868,70.47198 C168.577918,71.7553371 168.364538,73.1645314 168.364538,74.6545886 C168.364538,77.8772914 169.233948,80.48262 170.94916,82.3897114 C172.66755,84.3036171 175.24854,85.2766971 178.614496,85.2766971 C180.604378,85.2766971 182.646016,84.8723829 184.112436,84.29385 C184.112436,84.29385 184.393916,84.1582457 184.270882,83.8316143 L183.317936,81.1972114 L183.317936,81.1967571 Z M190.111819,72.5126314 C190.295689,71.2617557 190.641637,70.22076 191.174633,69.4094057 C191.978667,68.1778371 193.206283,67.5023143 194.931483,67.5023143 C196.656229,67.5023143 197.796677,68.1814714 198.613877,69.4094057 C199.156407,70.22076 199.392487,71.3069571 199.486238,72.5126314 L190.111592,72.5126314 L190.111819,72.5126314 Z M203.185203,69.7619314 C202.855372,68.5171886 202.038172,67.2599529 201.501998,66.6846 C200.655288,65.7730757 199.828554,65.1361671 199.007949,64.7806886 C197.935601,64.32186 196.649873,64.0174886 195.241338,64.0174886 C193.600128,64.0174886 192.111008,64.2923314 190.902914,64.8615514 C189.691642,65.4303171 188.673774,66.2062371 187.876096,67.17273 C187.077964,68.1358157 186.477095,69.2828871 186.095962,70.5857786 C185.711651,71.8820829 185.517793,73.2946843 185.517793,74.7847414 C185.517793,76.3006929 185.718234,77.7132943 186.115484,78.9837043 C186.516139,80.2636543 187.155825,81.3918729 188.021603,82.3261114 C188.884203,83.2664829 189.995368,84.0035614 191.326269,84.5175857 C192.647409,85.0286571 194.25298,85.2935057 196.097809,85.2903257 C199.893249,85.2773786 201.893119,84.43059 202.716448,83.9747143 C202.861728,83.8938514 203.000879,83.75166 202.826316,83.3443929 L201.966894,80.9362243 C201.837504,80.5773386 201.472715,80.70999 201.472715,80.70999 C200.532481,81.0591086 199.195224,81.68625 196.077833,81.67989 C194.039827,81.6764829 192.528007,81.0752357 191.581417,80.1346371 C190.608949,79.1715514 190.134292,77.7555429 190.050302,75.7580486 L203.194737,75.7709957 C203.194737,75.7709957 203.540231,75.7641814 203.576097,75.42801 C203.588809,75.2860457 204.027827,72.7259186 203.184976,69.7619314 L203.185203,69.7619314 Z M84.843974,72.5126314 C85.031249,71.2617557 85.373792,70.22076 85.906788,69.4094057 C86.711049,68.1778371 87.938438,67.5023143 89.663638,67.5023143 C91.388838,67.5023143 92.529059,68.1814714 93.349437,69.4094057 C93.889243,70.22076 94.125096,71.3069571 94.218847,72.5126314 L84.84352,72.5126314 L84.843974,72.5126314 Z M97.913953,69.7619314 C97.584349,68.5171886 96.770327,67.2599529 96.234153,66.6846 C95.387443,65.7730757 94.560709,65.1361671 93.740104,64.7806886 C92.667756,64.32186 91.382028,64.0174886 89.973493,64.0174886 C88.335688,64.0174886 86.843163,64.2923314 85.635069,64.8615514 C84.423797,65.4303171 83.405929,66.2062371 82.608251,67.17273 C81.810346,68.1358157 81.209477,69.2828871 80.828571,70.5857786 C80.447211,71.8820829 80.250175,73.2946843 80.250175,74.7847414 C80.250175,76.3006929 80.450389,77.7132943 80.847639,78.9837043 C81.248294,80.2636543 81.88798,81.3918729 82.753531,82.3261114 C83.616131,83.2664829 84.727296,84.0035614 86.058197,84.5175857 C87.379337,85.0286571 88.985135,85.2935057 90.829737,85.2903257 C94.625177,85.2773786 96.625047,84.43059 97.448603,83.9747143 C97.593883,83.8938514 97.732807,83.75166 97.558471,83.3443929 L96.702681,80.9362243 C96.569886,80.5773386 96.20487,80.70999 96.20487,80.70999 C95.26509,81.0591086 93.931011,81.68625 90.807264,81.67989 C88.771982,81.6764829 87.260162,81.0752357 86.313799,80.1346371 C85.341331,79.1715514 84.866447,77.7555429 84.782457,75.7580486 L97.927119,75.7709957 C97.927119,75.7709957 98.27284,75.7641814 98.308479,75.42801 C98.321191,75.2860457 98.760663,72.7259186 97.91418,69.7619314 L97.913953,69.7619314 Z" id="Shape" fill="#00A1DF"></path>
            <path d="M56.4322,81.1247529 C55.918726,80.7143057 55.847675,80.6107286 55.673112,80.3456529 C55.414786,79.9413386 55.282218,79.3662129 55.282218,78.6357214 C55.282218,77.4786557 55.663578,76.6477671 56.4549,76.0885414 C56.445366,76.0921757 57.58536,75.1027414 60.266911,75.13863 C62.150103,75.1642971 63.833081,75.44232 63.833081,75.44232 L63.833081,81.42231 L63.836486,81.42231 C63.836486,81.42231 62.16622,81.7811957 60.286206,81.8943129 C57.611465,82.0555843 56.422666,81.1220271 56.432427,81.12498 M61.662507,71.8834457 C61.129511,71.8448314 60.438296,71.8221171 59.611335,71.8221171 C58.483826,71.8221171 57.395134,71.9643086 56.374315,72.2391514 C55.34714,72.5139943 54.42325,72.9437486 53.628523,73.5125143 C52.830618,74.08446 52.187754,74.8149514 51.722631,75.6812743 C51.257281,76.5475971 51.021655,77.5688314 51.021655,78.7136314 C51.021655,79.8770571 51.221869,80.8887514 51.622524,81.71646 C52.023406,82.5468943 52.601575,83.2387714 53.33819,83.7721029 C54.068222,84.3054343 54.969412,84.6965743 56.016109,84.9328029 C57.046689,85.1685771 58.215739,85.2880543 59.495111,85.2880543 C60.842583,85.2880543 62.186423,85.1781171 63.488041,84.9550629 C64.777401,84.7354157 66.360045,84.4153714 66.79929,84.3152014 C67.23513,84.2113971 67.720002,84.0789729 67.720002,84.0789729 C68.046201,83.99811 68.020323,83.6489914 68.020323,83.6489914 L68.013967,71.6210957 C68.013967,68.9835129 67.309813,67.0282671 65.923978,65.8157786 C64.544726,64.6069243 62.512849,63.99591 59.886459,63.99591 C58.901279,63.99591 57.31523,64.1317414 56.365689,64.3223143 C56.365689,64.3223143 53.493685,64.8788143 52.311469,65.8032857 C52.311469,65.8032857 52.052689,65.9645571 52.195018,66.3266229 L53.125264,68.8286014 C53.241715,69.1515986 53.554975,69.0416614 53.554975,69.0416614 C53.554975,69.0416614 53.655309,69.0030471 53.771533,68.9349043 C56.300994,67.5579643 59.499197,67.5999857 59.499197,67.5999857 C60.920217,67.5999857 62.012087,67.8848229 62.748929,68.4504086 C63.466249,69.0000943 63.831038,69.8307557 63.831038,71.5827086 L63.831038,72.1385271 C62.700124,71.9772557 61.663188,71.8834457 61.663188,71.8834457" id="Shape" fill="#00A1DF" fill-rule="nonzero"></path>
            <path d="M167.677636,65.1059571 C167.77797,64.8088543 167.567995,64.6666629 167.4806,64.6341814 C167.257686,64.5469586 166.140165,64.3109571 165.277565,64.2559886 C163.626821,64.1560457 162.709514,64.4338414 161.888909,64.8022671 C161.074887,65.17092 160.170519,65.7653529 159.666579,66.4411029 L159.666579,64.8411086 C159.666579,64.6180543 159.508133,64.4402014 159.288397,64.4402014 L155.91949,64.4402014 C155.699981,64.4402014 155.541535,64.6178271 155.541535,64.8408814 L155.541535,84.4585286 C155.541535,84.6784029 155.722454,84.8594357 155.94219,84.8594357 L159.395541,84.8594357 C159.615277,84.8594357 159.792791,84.6784029 159.792791,84.4587557 L159.792791,74.6582229 C159.792791,73.3426114 159.938525,72.03018 160.229085,71.2056514 C160.513516,70.3913443 160.901005,69.7383086 161.379067,69.2697129 C161.860307,68.80407 162.406469,68.4778929 163.004387,68.2934529 C163.614563,68.10606 164.289661,68.0447314 164.768177,68.0447314 C165.455987,68.0447314 166.211897,68.2223571 166.211897,68.2223571 C166.463867,68.2512043 166.605969,68.0960657 166.689959,67.8666514 C166.916051,67.2654043 167.555737,65.46507 167.678317,65.1061843 L167.677636,65.1059571 Z M135.263398,56.01411 C134.843448,55.8846386 134.462088,55.7974157 133.964958,55.7038329 C133.461018,55.6129757 132.859922,55.5680014 132.178468,55.5680014 C129.80087,55.5680014 127.927212,56.2403443 126.612428,57.5652686 C125.304227,58.8842871 124.415749,60.8915486 123.970148,63.5323114 L123.808524,64.4213486 L120.823474,64.4213486 C120.823474,64.4213486 120.461863,64.4084014 120.384229,64.8029486 L119.896179,67.5407014 C119.860994,67.79919 119.97404,67.9640957 120.322939,67.9640957 L123.22695,67.9640957 L120.280944,84.4235486 C120.051674,85.7489271 119.786538,86.8380771 119.492573,87.6655586 C119.204964,88.48032 118.923938,89.0911071 118.575039,89.5372157 C118.239079,89.96379 117.922414,90.2806543 117.373301,90.4648671 C116.921117,90.6170529 116.397655,90.6879214 115.826069,90.6879214 C115.509404,90.6879214 115.086049,90.6361329 114.772789,90.5716243 C114.462707,90.5102957 114.297905,90.4421529 114.062279,90.34221 C114.062279,90.34221 113.722914,90.2127386 113.587395,90.55209 C113.480705,90.8337471 112.7055,92.9636657 112.611749,93.2255614 C112.520949,93.48723 112.650339,93.6912043 112.815141,93.7525329 C113.202857,93.8881371 113.490466,93.97854 114.016879,94.1046043 C114.746911,94.27587 115.364124,94.2856371 115.942293,94.2856371 C117.150387,94.2856371 118.255423,94.1143714 119.169325,93.78456 C120.086859,93.4513414 120.887715,92.8728086 121.598679,92.0905286 C122.36435,91.24374 122.84559,90.35811 123.304357,89.1458486 C123.759719,87.9499414 124.150613,86.4632914 124.460695,84.7301914 L127.423045,67.9638686 L131.751935,67.9638686 C131.751935,67.9638686 132.116724,67.9768157 132.19118,67.5790886 L132.682408,64.8442886 C132.714642,64.58262 132.604774,64.4211214 132.252697,64.4211214 L128.050246,64.4211214 C128.072946,64.3273114 128.263626,62.8470214 128.744866,61.4537271 C128.951436,60.8622471 129.339152,60.3804771 129.665351,60.0508929 C129.988372,59.7276686 130.359971,59.4980271 130.766982,59.3656029 C131.183754,59.2297714 131.658638,59.1652629 132.178922,59.1652629 C132.572767,59.1652629 132.963661,59.2106914 133.257626,59.27202 C133.664637,59.3592429 133.822856,59.4044443 133.929546,59.4366986 C134.35903,59.56617 134.417596,59.4398786 134.501586,59.2331786 L135.505834,56.4724843 C135.609573,56.1749271 135.354425,56.04909 135.263852,56.0136557 L135.263398,56.01411 Z M76.543038,84.4596643 C76.543038,84.6795386 76.384819,84.8571643 76.165083,84.8571643 L72.679271,84.8571643 C72.459762,84.8571643 72.304721,84.6795386 72.304721,84.4596643 L72.304721,56.38935 C72.304721,56.1694757 72.459762,55.99185 72.679271,55.99185 L76.164856,55.99185 C76.384365,55.99185 76.542584,56.1694757 76.542584,56.38935 L76.542584,84.4596643 L76.543038,84.4596643 Z" id="Shape" fill="#00A1DF"></path>
        </g>
    </g>
</svg>