<?xml version="1.0" encoding="UTF-8"?>
<svg width="257px" height="257px" viewBox="0 0 257 257" version="1.1" xmlns="http://www.w3.org/2000/svg" xmlns:xlink="http://www.w3.org/1999/xlink">
    <!-- Generator: Sketch 55.1 (78136) - https://sketchapp.com -->
    <title>front/logo</title>
    <desc>Created with Sketch.</desc>
    <defs>
        <circle id="path-1" cx="128.5" cy="128.5" r="125"></circle>
    </defs>
    <g id="front/logo" stroke="none" stroke-width="1" fill="none" fill-rule="evenodd">
        <g id="outline" transform="translate(0.500000, 0.500000)" fill="#FFFFFF">
            <circle id="Outline" cx="128" cy="128" r="125"></circle>
        </g>
        <mask id="mask-2" fill="white">
            <use xlink:href="#path-1"></use>
        </mask>
        <g id="Mask"></g>
        <g id="frontapp-icon" mask="url(#mask-2)" stroke-linecap="round" stroke-linejoin="round">
            <g transform="translate(17.000000, 54.000000)" id="fPpIFKpRUKj22hZ81us8xn.sym">
                <g>
                    <g id="juhn094obl8" fill="#DF696A">
                        <path d="M192.968373,0.833473622 C192.452528,0.302915122 191.744551,0.00360329368 191.005028,0.00347081965 L129.354898,0.00347081965 C128.751403,0.00347081965 128.071478,0.229206571 127.620523,0.684148892 L113.735149,10.5779455 C112.753847,11.478398 111.247702,11.478398 110.266399,10.5779455 L96.308195,0.680678073 C95.8572406,0.229206571 95.1773156,-9.9475983e-14 94.57382,-9.9475983e-14 L32.9201974,-9.9475983e-14 C32.1806745,-9.9475983e-14 31.4726972,0.299444303 30.9568519,0.830002802 C11.7883243,21.3146479 1.08440199,48.3097823 1,76.3791751 C0.775297075,137.040757 49.8234729,187.055003 110.415553,187.957893 C172.443701,188.791366 223.000774,138.784088 223.000774,76.8306201 C223.000774,47.4444089 211.605918,20.7009487 192.968373,0.833473622 Z M166.935388,29.7682398 C178.174104,42.686763 184.820283,59.5295115 184.820283,77.9696848 C184.820283,119.74659 149.730417,153.893918 107.474081,151.591492 C69.8207616,149.625949 40.8740386,118.350552 39.5628833,80.5742303 C38.8829583,61.1269628 45.2238435,43.1799108 56.9933309,29.7335051 C57.8989448,28.7000487 57.8316192,27.1361133 56.8406838,26.1843668 L35.1090201,4.84099856 L108.906655,57.7236785 C110.870001,59.3107174 113.589489,59.3107174 115.473018,57.7236785 L189.194329,4.84099856 L167.008218,26.2191015 C166.106309,27.2018734 166.026598,28.7125277 166.931894,29.7682398 L166.935388,29.7682398 Z" id="Shape"></path>
                    </g>
                </g>
            </g>
        </g>
    </g>
</svg>