<svg height="257" viewBox="0 0 257 257" width="257" xmlns="http://www.w3.org/2000/svg"><g fill="none" fill-rule="evenodd"><path d="m0 0h257v257h-257z" fill="#ff6b6b"/><path d="m177.147803 71h-38.316454c-.396857 0-.779642.1440856-1.077988.4042791l-8.674574 6.1229404c-.617803.5371736-1.539582.5371736-2.155978 0l-8.674574-6.1229404c-.298347-.2601935-.681131-.4042791-1.077989-.4042791h-38.3164534c-.4531494 0-.8894112.1846534-1.1990164.5133925-11.5102756 12.2025151-18.581939 28.5919075-18.6542456 46.6221965-.1472316 37.425896 30.3643573 68.334365 68.0123454 68.85755 38.559916.535774 69.987655-30.374093 69.987655-68.580569 0-18.140802-7.085737-34.6337123-18.655119-46.8991775-.309605-.3287391-.74446-.5133925-1.197609-.5133925zm-14.310603 18.2050997c7.006276 7.9316688 11.25908 18.3086793 11.25908 29.6747083 0 25.731193-21.758629 46.430812-48.053301 45.055394-23.446786-1.226158-42.2659361-20.225337-43.0790136-43.453995-.4199256-11.988175 3.8948806-22.9691977 11.2266692-31.2733174.5622494-.6374908.5213842-1.5986093-.0817305-2.1970416l-14.1083735-14.010848 46.4623744 33.004447c1.199184.954144 2.907069.954144 4.106252 0l46.431374-32.9737582-14.077373 13.9787642c-.601705.5984323-.646798 1.5595508-.085958 2.1956467z" fill="#fff"/></g></svg>