<svg height="360" viewBox="0 0 640 360" width="640" xmlns="http://www.w3.org/2000/svg"><g fill="none" fill-rule="evenodd"><path d="m0 0h640v360h-640z" fill="#ff6b6b"/><g fill="#fff" transform="translate(125 138)"><path d="m84.696.536h-27.227c-.282 0-.554.103-.766.289l-6.164 4.377c-.439.384-1.094.384-1.532 0l-6.164-4.377c-.212-.186-.484-.289-.766-.289h-27.227c-.322 0-.632.132-.852.367-8.179 8.723-13.204 20.439-13.25537978 33.328-.10462022 26.754 21.57637978 48.849 48.32837978 49.223 27.4.383 49.732-21.713 49.732-49.025 0-12.968-5.035-24.758-13.256-33.526-.22-.235-.529-.367-.851-.367zm-10.567 12.62c4.972 5.686 7.99 13.125 7.99 21.273 0 18.446-15.441 33.285-34.101 32.299-16.639-.879-29.994-14.499-30.571-31.151-.298-8.594 2.764-16.466 7.967-22.419.399-.457.37-1.146-.058-1.575l-10.012-10.044 32.972 23.66c.851.684 2.063.684 2.914 0l32.95-23.638-9.99 10.021c-.427.429-.459 1.118-.061 1.574z"/><path d="m133.363 67.901h12.568v-19.665h18.629v-11.015h-18.629v-11.977h21.734v-11.532h-34.302z"/><path d="m217.124 31.307c0-9.907-6.653-17.964-23.508-17.964-6.36 0-11.386.369-15.97.887v53.671h12.568v-17.743c1.774.074 2.809.148 4.657.148.741 0 1.406 0 2.145-.074l9.241 17.669h14.267l-12.714-20.922c5.84-3.475 9.314-9.241 9.314-15.672zm-22.918 8.797c-1.478 0-2.365-.073-3.992-.222v-14.933c1.774-.296 2.958-.37 4.879-.37 5.397 0 8.946 2.662 8.946 7.171 0 5.471-3.844 8.354-9.833 8.354z"/><path d="m252.608 12.825c-16.782 0-28.02 12.05-28.02 28.019 0 15.894 10.721 27.944 27.503 27.944 16.708 0 28.018-12.05 28.018-27.944 0-15.969-10.793-28.019-27.501-28.019zm-.295 44.8c-8.575 0-14.342-7.097-14.342-16.781 0-9.759 5.767-16.782 14.342-16.782s14.341 7.023 14.341 16.782c0 9.684-5.766 16.781-14.341 16.781z"/><path d="m324.019 41.804-32.233-29.127-1.701.295v54.929h12.568v-28.314l32.676 29.349 1.258-.222v-55.002h-12.568z"/><path d="m344.346 13.712v11.532h16.264v42.657h12.568v-42.657h16.264v-11.532z"/></g></g></svg>