<?xml version="1.0" encoding="UTF-8"?>
<svg width="640px" height="360px" viewBox="0 0 640 360" version="1.1" xmlns="http://www.w3.org/2000/svg" xmlns:xlink="http://www.w3.org/1999/xlink">
    <!-- Generator: Sketch 55.1 (78136) - https://sketchapp.com -->
    <title>front/picture</title>
    <desc>Created with Sketch.</desc>
    <g id="front/picture" stroke="none" stroke-width="1" fill="none" fill-rule="evenodd">
        <rect fill="#FFFFFF" x="0" y="0" width="640" height="360"></rect>
        <rect id="Rectangle" x="0" y="0" width="640" height="360"></rect>
        <g id="frontapp-ar21" transform="translate(68.000000, 115.000000)" fill="#DF696A" stroke-linecap="round" stroke-linejoin="round">
            <g id="Vg-SbsZ8bNwrHEwlQT64t3.sym-link" transform="translate(0.392523, 0.392857)">
                <g id="Vg-SbsZ8bNwrHEwlQT64t3.sym">
                    <g id="juhn090obk7">
                        <g id="Group">
                            <g id="juhn090ebk3">
                                <path d="M132.235189,0.56954651 C131.884138,0.206141555 131.400639,1.27897692e-13 130.895382,1.27897692e-13 L88.74877,1.27897692e-13 C88.3083495,-0.00259813483 87.8837,0.163495419 87.5620002,0.464245606 L78.0685714,7.22168645 C77.3985948,7.84381616 76.3650084,7.84381616 75.6951047,7.22168645 L66.1537788,0.464245606 C65.832079,0.163495419 65.4074295,-0.00259813483 64.967082,1.27897692e-13 L22.8203968,1.27897692e-13 C22.3150668,1.27897692e-13 21.831641,0.206141555 21.4805165,0.56954651 C8.37676362,14.5593411 1.05900661,32.9948493 1,52.1643238 C0.847411984,93.5894581 34.3714336,127.740323 75.800391,128.314622 C96.1120878,128.602812 115.691527,120.734819 130.15721,106.471293 C144.62304,92.2076941 152.767986,72.7393681 152.767986,52.4227564 C152.796959,33.1356765 145.451165,14.5674103 132.235189,0.521679144 L132.235189,0.56954651 Z M114.43481,20.3345334 C122.119681,29.1546159 126.660715,40.6642529 126.660715,53.2506683 C126.660715,81.7831238 102.673274,105.099095 73.7858612,103.500668 C48.0423594,102.160674 28.2322689,80.8020436 27.3613577,55.0022634 C26.8972075,41.7458509 31.1894096,29.465699 39.3239745,20.2819194 C39.9460539,19.564055 39.8982297,18.5255413 39.2186883,17.8555442 L24.3611386,3.259101 L74.8098828,39.3721261 C76.14969,40.4536876 78.0063635,40.4536876 79.2982735,39.3721261 L129.699121,3.259101 L114.530604,17.8555442 C113.897135,18.5326246 113.874354,19.5779661 114.477888,20.2819194 L114.43481,20.3345334 Z M220.816089,29.6188308 L220.816089,44.3396707 L193.077041,44.3396707 L193.077041,59.6156771 L216.858875,59.6156771 L216.858875,73.6569903 L193.077041,73.6569903 L193.077041,98.7628214 L177.037614,98.7628214 L177.037614,29.6140477 L220.816089,29.6188308 Z" id="Shape"></path>
                            </g>
                            <g id="juhn090ibk4" transform="translate(233.572952, 28.293186)">
                                <path d="M50.3770444,23.7467046 C50.3770444,11.1124219 41.8691589,0.813562666 20.3843458,0.813562666 C12.2593458,0.813562666 5.83776285,1.28256062 0,1.96216038 L0,70.4648525 L16.0394276,70.4648525 L16.0394276,47.8284443 L21.9969334,48.0007084 L24.7242991,47.9145764 L36.5099299,70.4648525 L54.7169977,70.4648525 L38.5100759,43.7462087 C45.9556075,39.3194449 50.3770444,31.9590067 50.3770444,23.7419216 L50.3770444,23.7467046 Z M21.1020736,34.9357289 C19.1880841,34.9357289 18.0874708,34.8495603 15.9964953,34.638995 L15.9964953,15.6205711 C18.2453271,15.2377052 19.8244743,15.1515732 22.2073598,15.1515732 C29.0978388,15.1515732 33.6101051,18.5015586 33.6101051,24.3018712 C33.6580023,31.279407 28.7581776,34.940512 21.1020736,34.940512 L21.1020736,34.9357289 Z M95.6387266,0.124433245 C74.2400701,0.124433245 59.8609813,15.4387044 59.8609813,35.9072064 C59.8609813,56.1986247 73.5604556,71.5607997 94.9592582,71.5607997 C116.271904,71.5607997 130.73715,56.2464921 130.73715,35.9072064 C130.73715,15.4817886 116.994451,0.124433245 95.6387266,0.124433245 Z M95.3037383,57.3137044 C84.370035,57.3137044 77.010514,48.2495749 77.010514,35.9119895 C77.010514,23.4452242 84.370035,14.5102746 95.3037383,14.5102746 C106.237588,14.5102746 113.596963,23.4883085 113.596963,35.9119895 C113.596963,48.2495749 106.237588,57.3137044 95.3037383,57.3137044 Z M186.808265,37.1467193 L145.671145,0 L143.503505,0.33499854 L143.503505,70.4552863 L159.53344,70.4552863 L159.53344,34.332695 L201.225613,71.7761481 L202.842874,71.5224985 L202.842874,1.31607873 L186.808265,1.31607873 L186.808265,37.1419362 L186.808265,37.1467193 Z M212.762266,1.32086182 L212.762266,16.0417017 L233.4816,16.0417017 L233.4816,70.4552863 L249.521028,70.4552863 L249.521028,16.0417017 L270.288113,16.0417017 L270.288113,1.32086182 L212.771904,1.32086182 L212.762266,1.32086182 Z" id="Shape"></path>
                            </g>
                        </g>
                    </g>
                </g>
            </g>
        </g>
    </g>
</svg>