<svg height="257" viewBox="0 0 257 257" width="257" xmlns="http://www.w3.org/2000/svg" xmlns:xlink="http://www.w3.org/1999/xlink"><defs><circle id="a" cx="128.5" cy="128.5" r="125.5"/><mask id="b" fill="#fff"><use fill="none" xlink:href="#a"/></mask></defs><g fill="none" fill-rule="evenodd"><use fill="#4a90e2" xlink:href="#a"/><g mask="url(#b)"><g transform="translate(52 51)"><path d="m72.1314807 60.2293552c-6.4113257 10.7931775-12.5538702 21.2454044-18.8242352 31.6186744-1.6102976 2.663003-2.4070843 4.8319268-1.1205186 8.2175054 3.5514945 9.351615-1.4585856 18.452003-10.8754815 20.922399-8.8805283 2.330427-17.5328913-3.514781-19.2949009-13.036273-1.5613196-8.4280577 4.9694643-16.6898271 14.2477887-18.0069727.7776734-.1112576 1.5708763-.1244171 2.8777499-.2225151 4.546582-7.634899 9.2042602-15.4552272 14.1139954-23.7014444-8.8769446-8.8395908-14.1605842-19.1733823-12.9910876-31.9775696.8266512-9.051339 4.380535-16.8728635 10.8766761-23.2839296 12.4415795-12.27661127 31.422305-14.26489113 46.0714735-4.84149735 14.0697955 9.05133905 20.5133755 26.68266785 15.0206835 41.77301815-4.141618-1.1245385-8.311907-2.2586476-12.8967153-3.5040143 1.7249773-8.3897753.4491631-15.9241836-5.2012134-22.3783171-3.7330711-4.2612833-8.523348-6.4948083-13.9706455-7.3178748-10.919681-1.6521146-21.6410613 5.3738587-24.8222353 16.1072203-3.6112237 12.1821021 1.8539925 22.133072 16.7886662 29.6315907z" fill="#fff"/><path d="m90.3182197 47.6666868c4.5235665 7.9880492 9.1165239 16.0970569 13.6688043 24.1318128 23.009053-7.125771 40.356769 5.6239699 46.580412 19.2743125 7.516945 16.4886749 2.378431 36.0180779-12.385073 46.1905649-15.153529 10.443147-34.317372 8.65871-47.7433075-4.755703 3.4216875-2.867075 6.8601244-5.747324 10.5342515-8.82398 13.260833 8.597632 24.858678 8.19284 33.469128-1.988031 7.342271-8.685057 7.18315-21.634799-.372079-30.1378195-8.719321-9.812007-20.398521-10.1114092-34.515973-.6922177-5.8563496-10.4000329-11.8143928-20.7174308-17.4853014-31.192913-1.9118379-3.5305501-4.0234737-5.5784607-8.3328856-6.3257685-7.1975076-1.2491057-11.8443027-7.4359516-12.1230626-14.3677101-.2739742-6.8551115 3.760267-13.0515382 10.0664609-15.4659171 6.2463742-2.3916244 13.5766815-.4610793 17.778418 4.8551051 3.4336514 4.3437263 4.5247629 9.2323646 2.7182076 14.5892677-.5024855 1.4934179-1.153324 2.9389315-1.8580002 4.7089969z" fill="#4b4b4b"/><path d="m101.69084 112.366238h-27.7535618c-2.660036 10.867492-8.4056658 19.641739-18.3061784 25.221345-7.6960032 4.336519-15.9913836 5.80703-24.8202097 4.391291-16.2551096-2.604055-29.54689835-17.138894-30.71688264-33.506215-1.3246236-18.540344 11.50564464-35.0207819 28.60707484-38.722659 1.1807731 4.2591234 2.3735337 8.5587304 3.5543068 12.8071375-15.6904963 7.9514749-21.1208537 17.9699995-16.7298163 30.4973235 3.8659829 11.024664 14.8465732 17.067452 26.7693844 14.730113 12.1757484-2.386157 18.3145696-12.43683 17.5653481-28.5672034 11.5428061 0 23.0952022-.1190697 34.639207.0583442 4.5073165.0702511 7.9873007-.3941207 11.3833717-4.3412815 5.590991-6.4952524 15.881098-5.9094294 21.902442.2250418 6.153206 6.2690199 5.858312 16.3566049-.653322 22.3612909-6.282671 5.793932-16.208358 5.48435-22.085851-.758474-1.208344-1.287144-2.160155-2.814808-3.355313-4.396054z" fill="#4a4a4a"/></g></g></g></svg>