<?xml version="1.0" encoding="UTF-8"?>
<svg width="257px" height="257px" viewBox="0 0 257 257" version="1.1" xmlns="http://www.w3.org/2000/svg" xmlns:xlink="http://www.w3.org/1999/xlink">
    <!-- Generator: Sketch 52.6 (67491) - http://www.bohemiancoding.com/sketch -->
    <title>incoming-webhooks/logo</title>
    <desc>Created with Sketch.</desc>
    <g id="incoming-webhooks/logo" stroke="none" stroke-width="1" fill="none" fill-rule="evenodd">
        <rect fill="#4A90E2" x="0" y="0" width="257" height="257"></rect>
        <path d="M124.131481,111.229355 C117.720155,122.022533 111.57761,132.47476 105.307246,142.84803 C103.696948,145.511033 102.900161,147.679956 104.186727,151.065535 C107.738221,160.41715 102.728141,169.517538 93.3112454,171.987934 C84.4307171,174.318361 75.7783541,168.473153 74.0163445,158.951661 C72.4550249,150.523603 78.9858088,142.261834 88.2641332,140.944688 C89.0418066,140.833431 89.8350095,140.820271 91.1418831,140.722173 C95.6884651,133.087274 100.346143,125.266946 105.255878,117.020729 C96.3789339,108.181138 91.0952943,97.8473465 92.2647909,85.0431592 C93.0914421,75.9918202 96.6453259,68.1702957 103.141467,61.7592296 C115.583046,49.4826183 134.563772,47.4943385 149.212941,56.9177323 C163.282736,65.9690713 169.726316,83.6004001 164.233624,98.6907504 C160.092006,97.5662119 155.921717,96.4321028 151.336909,95.1867361 C153.061886,86.7969608 151.786072,79.2625525 146.135695,72.808419 C142.402624,68.5471357 137.612347,66.3136107 132.16505,65.4905442 C121.245369,63.8384296 110.523988,70.8644029 107.342815,81.5977645 C103.731591,93.7798666 109.196807,103.730836 124.131481,111.229355 Z" id="Shape" fill="#FFFFFF"></path>
        <path d="M142.31822,98.6666868 C146.841786,106.654736 151.434744,114.763744 155.987024,122.7985 C178.996077,115.672729 196.343793,128.42247 202.567436,142.072812 C210.084381,158.561487 204.945867,178.09089 190.182363,188.263377 C175.028834,198.706524 155.864991,196.922087 142.439056,183.507674 C145.860743,180.640599 149.29918,177.76035 152.973307,174.683694 C166.23414,183.281326 177.831985,182.876534 186.442435,172.695663 C193.784706,164.010606 193.625585,151.060864 186.070356,142.557844 C177.351035,132.745836 165.671835,132.446434 151.554383,141.865626 C145.698033,131.465593 139.73999,121.148195 134.069082,110.672713 C132.157244,107.142163 130.045608,105.094252 125.736196,104.346944 C118.538688,103.097839 113.891893,96.9109927 113.613133,89.9792342 C113.339159,83.1241227 117.3734,76.927696 123.679594,74.5133171 C129.925968,72.1216927 137.256276,74.0522378 141.458012,79.3684222 C144.891664,83.7121485 145.982775,88.6007868 144.17622,93.9576899 C143.673734,95.4511078 143.022896,96.8966214 142.31822,98.6666868 Z" id="Shape" fill="#4B4B4B" style="mix-blend-mode: multiply;"></path>
        <path d="M153.69084,163.366238 L125.937278,163.366238 C123.277242,174.23373 117.531612,183.007977 107.6311,188.587583 C99.9350966,192.924102 91.6397162,194.394613 82.8108901,192.978874 C66.5557805,190.374819 53.2639918,175.83998 52.0940075,159.472659 C50.7693839,140.932315 63.5996521,124.451877 80.7010823,120.75 C81.8818554,125.009123 83.074616,129.30873 84.2553891,133.557137 C68.5648928,141.508612 63.1345354,151.527137 67.5255728,164.054461 C71.3915557,175.079125 82.372146,181.121913 94.2949572,178.784574 C106.470706,176.398417 112.609527,166.347744 111.860305,150.217371 C123.403111,150.217371 134.955507,150.098301 146.499512,150.275715 C151.006829,150.345966 154.486813,149.881594 157.882884,145.934433 C163.473875,139.439181 173.763982,140.025004 179.785326,146.159475 C185.938532,152.428495 185.643638,162.51608 179.132004,168.520766 C172.849333,174.314698 162.923646,174.005116 157.046153,167.762292 C155.837809,166.475148 154.885998,164.947484 153.69084,163.366238 Z" id="Shape" fill="#4A4A4A" style="mix-blend-mode: multiply;"></path>
    </g>
</svg>