<svg height="257" viewBox="0 0 257 257" width="257" xmlns="http://www.w3.org/2000/svg"><g fill="none" fill-rule="evenodd"><path d="m0 0h257v257h-257z" fill="#4a90e2"/><path d="m124.131481 111.229355c-6.411326 10.793178-12.553871 21.245405-18.824235 31.618675-1.610298 2.663003-2.407085 4.831926-1.120519 8.217505 3.551494 9.351615-1.458586 18.452003-10.8754816 20.922399-8.8805283 2.330427-17.5328913-3.514781-19.2949009-13.036273-1.5613196-8.428058 4.9694643-16.689827 14.2477887-18.006973.7776734-.111257 1.5708763-.124417 2.8777499-.222515 4.546582-7.634899 9.2042599-15.455227 14.1139949-23.701444-8.8769441-8.839591-14.1605837-19.1733825-12.9910871-31.9775698.8266512-9.051339 4.380535-16.8728635 10.8766761-23.2839296 12.441579-12.2766113 31.422305-14.2648911 46.071474-4.8414973 14.069795 9.051339 20.513375 26.6826678 15.020683 41.7730181-4.141618-1.1245385-8.311907-2.2586476-12.896715-3.5040143 1.724977-8.3897753.449163-15.9241836-5.201214-22.3783171-3.733071-4.2612833-8.523348-6.4948083-13.970645-7.3178748-10.919681-1.6521146-21.641062 5.3738587-24.822235 16.1072203-3.611224 12.1821021 1.853992 22.1330715 16.788666 29.6315905z" fill="#fff"/><path d="m142.31822 98.6666868c4.523566 7.9880492 9.116524 16.0970572 13.668804 24.1318132 23.009053-7.125771 40.356769 5.62397 46.580412 19.274312 7.516945 16.488675 2.378431 36.018078-12.385073 46.190565-15.153529 10.443147-34.317372 8.65871-47.743307-4.755703 3.421687-2.867075 6.860124-5.747324 10.534251-8.82398 13.260833 8.597632 24.858678 8.19284 33.469128-1.988031 7.342271-8.685057 7.18315-21.634799-.372079-30.137819-8.719321-9.812008-20.398521-10.11141-34.515973-.692218-5.85635-10.400033-11.814393-20.717431-17.485301-31.192913-1.911838-3.53055-4.023474-5.578461-8.332886-6.325769-7.197508-1.249105-11.844303-7.4359513-12.123063-14.3677098-.273974-6.8551115 3.760267-13.0515382 10.066461-15.4659171 6.246374-2.3916244 13.576682-.4610793 17.778418 4.8551051 3.433652 4.3437263 4.524763 9.2323646 2.718208 14.5892677-.502486 1.4934179-1.153324 2.9389315-1.858 4.7089969z" fill="#4b4b4b"/><path d="m153.69084 163.366238h-27.753562c-2.660036 10.867492-8.405666 19.641739-18.306178 25.221345-7.6960034 4.336519-15.9913838 5.80703-24.8202099 4.391291-16.2551096-2.604055-29.5468983-17.138894-30.7168826-33.506215-1.3246236-18.540344 11.5056446-35.020782 28.6070748-38.722659 1.1807731 4.259123 2.3735337 8.55873 3.5543068 12.807137-15.6904963 7.951475-21.1208537 17.97-16.7298163 30.497324 3.8659829 11.024664 14.8465732 17.067452 26.7693844 14.730113 12.1757488-2.386157 18.3145698-12.43683 17.5653478-28.567203 11.542806 0 23.095202-.11907 34.639207.058344 4.507317.070251 7.987301-.394121 11.383372-4.341282 5.590991-6.495252 15.881098-5.909429 21.902442.225042 6.153206 6.26902 5.858312 16.356605-.653322 22.361291-6.282671 5.793932-16.208358 5.48435-22.085851-.758474-1.208344-1.287144-2.160155-2.814808-3.355313-4.396054z" fill="#4a4a4a"/></g></svg>