<svg height="360" viewBox="0 0 640 360" width="640" xmlns="http://www.w3.org/2000/svg"><g fill="none" fill-rule="evenodd"><path d="m0 0h640v360h-640z" fill="#4a90e2"/><g transform="translate(134 125)"><path d="m54.5524465 46.2652594c-4.8416021 8.2112585-9.4802304 16.1631278-14.2153841 24.054928-1.2160387 2.0259656-1.8177433 3.6760444-.8461753 6.2517329 2.6819607 7.114543-1.1014712 14.0379572-8.2127717 15.9173907-6.7062549 1.7729474-13.2402077-2.6739833-14.5708138-9.9177658-1.1790523-6.4119171 3.7527604-12.6973251 10.7594166-13.6993862.5872709-.0846428 1.1862692-.0946543 2.173173-.1692855 3.4334149-5.8084961 6.9507256-11.7580634 10.6583807-18.0316396-6.7035487-6.7250042-10.6935629-14.5867699-9.8104012-24.3279691.6242572-6.8860986 3.3080222-12.836576 8.2136738-17.71400165 9.3954325-9.33982864 23.7289925-10.85247678 34.7915166-3.68332552 10.6250028 6.88609857 15.4909618 20.29970157 11.343079 31.78017307-3.127601-.855529-6.2768525-1.7183391-9.7391348-2.665792 1.3026409-6.3827927.3391918-12.1148372-3.9277689-17.0250278-2.8190808-3.2419089-6.4365253-4.9411352-10.550128-5.5673096-8.2461496-1.2568996-16.3425497 4.0883366-18.7448576 12.2540882-2.727066 9.2679277 1.4000683 16.8384495 12.6781957 22.5431899z" fill="#fff"/><path d="m68.7765924 36.7797206c3.4108623 6.0706156 6.8740467 12.2331551 10.3065595 18.339266 17.3492998-5.4153168 30.4298351 4.2740046 35.1225891 14.6477492 5.667931 12.5307699 1.793387 27.3723783-9.3386 35.1030842-11.4260723 7.936397-25.8760039 6.580292-35.9994359-3.614155 2.5800228-2.1788687 5.172675-4.3677488 7.9430421-6.7058915 9.9989413 6.5338755 18.7439555 6.2262495 25.2364118-1.5108278 5.536223-6.6003155 5.416243-16.4416298-.280555-22.9036043-6.5745478-7.4567547-15.3809052-7.684289-26.0257543-.5260594-4.4158082-7.903632-8.9082954-15.7444646-13.1842771-23.7054353-1.4415652-2.6830846-3.033782-4.2394193-6.2831673-4.807345-5.4270689-.9492732-8.930848-5.6510423-9.1410387-10.9189168-.2065822-5.2096257 2.8353187-9.9186759 7.5903187-11.7535127 4.7098947-1.8175441 10.2370973-.3504028 13.405293 3.6896965 2.5890438 3.3010679 3.4117644 7.0162482 2.0495845 11.0872922-.3788844 1.1349412-.86963 2.2334769-1.4009704 3.5786597z" fill="#4b4b4b"/><path d="m76.6970213 86.800298h-20.8855548c-2.0017729 8.3068229-6.3255663 15.013624-13.7760586 19.278528-5.7915196 3.31472-12.0340921 4.438739-18.6781017 3.356586-12.2325554-1.99047-22.23510519-13.1005159-23.11556051-25.6112628-.99682697-14.1717474 8.65841202-26.7689573 21.52785421-29.5985741.8885742 3.255561 1.7861696 6.5420667 2.6747438 9.7894365-11.8076635 6.0778966-15.89420306 13.7357916-12.5897893 23.3113458 2.9092914 8.4269609 11.172581 13.0459076 20.1449259 11.2593081 9.1626892-1.8239151 13.7823733-9.5063837 13.2185571-21.8360133 8.6863773 0 17.3799714-.0910137 26.0672508.0445967 3.3919181.0536981 6.0107314-.3012554 8.5663973-3.3183605 4.2074217-4.9647987 11.9510984-4.5170112 16.4823761.172016 4.6305094 4.7918727 4.4085914 12.5025556-.4916477 17.0923779-4.7279368 4.4287279-12.1973733 4.1920922-16.6203983-.5797575-.9093227-.9838584-1.6255948-2.1515645-2.5249943-3.3602268z" fill="#4a4a4a"/></g><path d="m283.777162 189.619052h7.203022l4.137648 19.766676 4.236452-19.766676h7.403061l-7.876027 27.447353h-7.302637l-4.263179-19.994143-4.31177 19.994143h-7.377146l-7.626586-27.447353h7.626586l4.237263 19.6914zm42.749215.556393c1.895106.857499 3.459783 2.210843 4.694842 4.060032 1.112767 1.630722 1.834365 3.522458 2.164794 5.675207.19032 1.260885.268878 3.076526.233244 5.446923h-19.78685c.110953 2.753327 1.057696 4.684338 2.841849 5.791396 1.084422.688945 2.389939 1.0326 3.916552 1.0326 1.618129 0 2.931745-.41975 3.944088-1.25843.552335-.454115 1.039069-1.082512 1.461823-1.889281h7.252425c-.19113 1.628267-1.069034 3.282718-2.633711 4.960079-2.434482 2.669868-5.840004 4.004393-10.220614 4.004393-3.615279 0-6.805374-1.125878-9.568665-3.376815-2.764101-2.251754-4.145747-5.914947-4.145747-10.989578 0-4.754705 1.247207-8.400715 3.742429-10.937212 2.494413-2.537315 5.732291-3.805564 9.715253-3.805564 2.363213-.000818 4.493182.42875 6.388288 1.28625zm-10.626361 6.19969c-1.004244 1.044873-1.635946 2.46122-1.893486 4.248223h12.238011c-.12958-1.905646-.759662-3.351449-1.891866-4.33741-1.132205-.986779-2.537337-1.480169-4.212967-1.480169-1.823027.000818-3.236257.522846-4.239692 1.569356zm43.925964-3.457819c2.032784 2.602774 3.048366 5.95995 3.048366 10.073167 0 4.26377-1.001814 7.797683-3.007063 10.600921-2.004439 2.804057-4.800935 4.205676-8.391108 4.205676-2.2555 0-4.066379-.453296-5.436686-1.35989-.818783-.536755-1.703975-1.476895-2.654768-2.819602v3.449636h-7.003793v-37.067224h7.103408v13.194694c.903009-1.275612 1.898345-2.2493 2.985196-2.921062 1.28851-.838681 2.926886-1.25843 4.915937-1.25843 3.593413 0 6.408536 1.300159 8.440511 3.902114zm-5.937189 16.720426c1.022061-1.493261 1.533902-3.457819 1.533902-5.892038 0-1.947375-.251871-3.559278-.754803-4.834072-.954842-2.417855-2.713889-3.626373-5.277141-3.626373-2.597267 0-4.38142 1.183153-5.352459 3.550278-.502932 1.259248-.754803 2.887515-.754803 4.885621 0 2.349941.519939 4.297317 1.559008 5.842125 1.038259 1.544809 2.620753 2.316395 4.749103 2.316395 1.843274-.000818 3.275132-.747039 4.297193-2.241936zm32.072643-19.867319c1.363828.588304 2.484694 1.486715 3.360978 2.69687.745084 1.025235 1.199424 2.079927 1.365448 3.163257s.248632 2.851514.248632 5.304552v16.130485h-7.252425v-16.713061c0-1.479351-.248631-2.673141-.743465-3.579734-.64223-1.277249-1.86352-1.916283-3.660632-1.916283-1.86514 0-3.278371.634124-4.243741 1.903191-.96456 1.269067-1.447245 3.079799-1.447245 5.433013v14.873692h-7.103408v-36.991128h7.103408v13.094052c1.02692-1.593902 2.213386-2.706687 3.560207-3.335902 1.349251-.630034 2.768151-.944232 4.258319-.944232 1.670771-.000818 3.188475.293743 4.553924.881228zm32.702724 23.937987c-2.292754 2.859696-5.774403 4.289135-10.443329 4.289135-4.669735 0-8.149765-1.429439-10.444139-4.289135-2.291944-2.859695-3.438726-6.301968-3.438726-10.328452 0-3.957754 1.146782-7.387753 3.438726-10.289996 2.293564-2.901426 5.774404-4.352138 10.444139-4.352138 4.668926 0 8.149765 1.450712 10.443329 4.352138 2.293565 2.902243 3.439537 6.332242 3.439537 10.289996 0 4.026484-1.145972 7.468757-3.439537 10.328452zm-5.682078-3.965936c1.112768-1.491623 1.669961-3.612462 1.669961-6.361698 0-2.748417-.557193-4.865165-1.669961-6.348607-1.113577-1.482623-2.708219-2.225572-4.784737-2.225572-2.077328 0-3.67683.74213-4.798506 2.225572-1.121675 1.483442-1.682108 3.599371-1.682108 6.348607s.560433 4.870075 1.682108 6.361698c1.121676 1.491624 2.720368 2.237027 4.798506 2.237027 2.076518 0 3.67116-.745403 4.784737-2.237027zm35.472495 3.965936c-2.291944 2.859696-5.773594 4.289135-10.443329 4.289135s-8.148955-1.429439-10.44171-4.289135c-2.293564-2.859695-3.440346-6.301968-3.440346-10.328452 0-3.957754 1.146782-7.387753 3.440346-10.289996 2.291945-2.901426 5.771975-4.352138 10.44171-4.352138s8.150575 1.450712 10.443329 4.352138c2.293564 2.902243 3.440346 6.332242 3.440346 10.289996 0 4.026484-1.146782 7.468757-3.440346 10.328452zm-5.681268-3.965936c1.111957-1.491623 1.669961-3.612462 1.669961-6.361698 0-2.748417-.558004-4.865165-1.669961-6.348607-1.113577-1.482623-2.70822-2.225572-4.784738-2.225572-2.077327 0-3.677639.74213-4.799315 2.225572s-1.681299 3.599371-1.681299 6.348607.559623 4.870075 1.681299 6.361698c1.121676 1.491624 2.721178 2.237027 4.799315 2.237027 2.076518 0 3.671161-.745403 4.784738-2.237027zm12.641328-29.667197h6.978687v20.023599l8.95883-10.352999h8.833299l-9.737929 10.224538 10.114521 17.096809h-8.644599l-6.581848-11.726799-2.942274 3.089617v8.637182h-6.978687zm31.939823 28.22794c.150637 1.276431.476207 2.183024.976709 2.719779.885192.956505 2.520329 1.435167 4.907838 1.435167 1.402703 0 2.51709-.209466 3.343971-.630033.826882-.41975 1.239918-1.048965 1.239918-1.888463 0-.805952-.332049-1.417984-.998575-1.838552-.665717-.419749-3.143122-1.141423-7.431407-2.165023-3.087241-.771586-5.261753-1.737909-6.525967-2.895698-1.261784-1.142241-1.893486-2.786055-1.893486-4.935532 0-2.534861.987236-4.712975 2.96009-6.534344 1.973664-1.821369 4.749103-2.732053 8.329558-2.732053 3.396613 0 6.164763.684036 8.305261 2.052108 2.139688 1.36889 3.367457 3.731924 3.684118 7.089101h-7.103408c-.100424-.923776-.357964-1.653633-.774239-2.191207-.783959-.972869-2.117012-1.460531-3.99997-1.460531-1.548479 0-2.652338.243831-3.310766.730675-.657618.487662-.987237 1.057965-.987237 1.712544 0 .823135.349866 1.418802 1.049597 1.787822.699732.38702 3.171468 1.049782 7.417639 1.989923 2.828081.671762 4.949142 1.687179 6.361563 3.047069 1.396223 1.377073 2.094335 3.096981 2.094335 5.162181 0 2.719779-1.004244 4.940442-3.010303 6.661169-2.006868 1.720727-5.107877 2.580681-9.302216 2.580681-4.278566 0-7.438696-.910684-9.477149-2.732053-2.040074-1.822187-3.059706-4.141854-3.059706-6.963094h7.203832z" fill="#4b4b4b"/><text fill="#fff" font-family="Helvetica-Bold, Helvetica" font-size="36" font-weight="bold" opacity=".6"><tspan x="268" y="170">Incoming</tspan></text></g></svg>