<svg height="257" viewBox="0 0 257 257" width="257" xmlns="http://www.w3.org/2000/svg" xmlns:xlink="http://www.w3.org/1999/xlink"><defs><circle id="a" cx="128.5" cy="128.5" r="125.5"/><mask id="b" fill="#fff"><use fill="none" xlink:href="#a"/></mask></defs><g fill="none" fill-rule="evenodd"><use fill="#208dec" xlink:href="#a"/><g fill="#fff" fill-rule="nonzero" mask="url(#b)"><path d="m131.733531 83.569125c-.030061 2.776902-2.289701 5.0122129-5.066765 5.0122129-2.777065 0-5.036705-2.2353109-5.066766-5.0122129v-45.569125c.030061-2.776902 2.289701-5.0122129 5.066766-5.0122129 2.777064 0 5.036704 2.2353109 5.066765 5.0122129zm-1.768187 31.713969c-.783157.670344-19.552188 16.420156-53.965344 16.420156-34.4125625 0-53.181-15.750406-53.9641563-16.42075-2.1241822-1.821468-2.3700491-5.019865-.5492187-7.144594 1.8167141-2.121112 5.0075885-2.371325 7.1327187-.559312.2974688.249375 17.0578438 13.990531 47.38125 13.990531 30.7040003 0 47.2049063-13.840312 47.3681873-13.979844 2.120281-1.821031 5.32475-1.576406 7.144594.549219 1.821459 2.124303 1.576105 5.322941-.548031 7.144594zm-109.6988752-77.283094c.0300609-2.776902 2.2897008-5.0122129 5.0667656-5.0122129 2.7770647 0 5.0367046 2.2353109 5.0667656 5.0122129v45.569125c-.030061 2.776902-2.2897009 5.0122129-5.0667656 5.0122129-2.7770648 0-5.0367047-2.2353109-5.0667656-5.0122129zm25.334125-10.1335312c.0423765-2.7678915 2.2982529-4.9894946 5.0664687-4.9894946s5.0240922 2.2216031 5.0664688 4.9894946v67.6880937c-.0423766 2.7678914-2.298253 4.9894945-5.0664688 4.9894945s-5.0240922-2.2216031-5.0664687-4.9894945v-67.6875zm25.3329375-2.5638125c-.0001576-1.3437594.533579-2.6325271 1.4837604-3.5827084.9501813-.9501813 2.238949-1.4839179 3.5827083-1.4837604 1.3438622-.000315 2.6327824.533352 3.5830922 1.4835504s1.4841278 2.2390561 1.4839703 3.5829184v73.4664687c-.030061 2.776902-2.2897009 5.012213-5.0667656 5.012213-2.7770648 0-5.0367047-2.235311-5.0667656-5.012213zm25.3335312 2.5638125c.0423766-2.7678915 2.2982529-4.9894946 5.0664685-4.9894946 2.768216 0 5.024092 2.2216031 5.066469 4.9894946v67.6880937c-.042377 2.7678914-2.298253 4.9894945-5.066469 4.9894945-2.7682156 0-5.0240919-2.2216031-5.0664685-4.9894945v-67.6875zm36.7329375-27.8664688h-114c-10.49334375 0-19 8.50665625-19 19v114c0 10.49275 8.50665625 19 19 19h114c10.493344 0 19-8.50725 19-19v-114c0-10.49334375-8.506656-19-19-19z" transform="translate(53 53)"/></g></g></svg>