<svg height="257" viewBox="0 0 257 257" width="257" xmlns="http://www.w3.org/2000/svg"><g fill="none" fill-rule="evenodd"><circle cx="125.5" cy="125.5" fill="#337ab7" r="125.5" transform="translate(3 3)"/><path d="m207.635041 95.4872391c-6.824921-1.9670697-13.893589 2.2129535-15.599819 9.0976979-.487494 1.721186-.487494 3.688255-.243747 5.409441l-36.562076 27.293092c-.243747 0-.487494-.245883-.974988-.245883-2.681219-.737651-5.606185-.491768-8.043657.491767l-32.174627-21.88365c.243748-5.901209-3.41246-11.556535-9.506139-13.031837-6.824921-1.96707-13.8935889 2.212953-15.5998191 9.097697-.4874944 1.475303-.4874944 3.196489-.2437472 4.671791l-29.7371548 23.113069c-.7312415-.245884-1.2187358-.491768-1.9499773-.737651-6.8249208-1.96707-13.8935888 2.212953-15.599819 9.097697-1.7062301 6.884744 2.1937246 14.015372 9.0186454 15.736558 6.8249207 1.721186 13.8935887-2.212954 15.5998189-9.097698.2437471-1.229418.4874943-2.458837.2437471-3.934139l30.2246491-23.604837c.4874944.245884.7312416.491768 1.2187359.491768 2.924966.737651 5.849932.491767 8.531151-.737651l31.687132 21.637767c-.487494 6.147092 3.41246 12.048302 9.50614 13.523604 6.824921 1.96707 13.893588-2.212954 15.599819-9.097698.487494-1.721186.487494-3.442372.243747-5.163558l36.805823-27.538975c.243747 0 .487494.245883.731241.245883 6.824921 1.96707 13.893589-2.212953 15.599819-9.097697 2.193724-6.63886-1.949977-13.7694881-8.774898-15.7365579z" fill="#fff"/></g></svg>