<svg height="360" viewBox="0 0 640 360" width="640" xmlns="http://www.w3.org/2000/svg"><g fill="none" fill-rule="evenodd"><path d="m0 0h640v360h-640z" fill="#337ab7"/><g transform="translate(167 156)"><path d="m40.9873351 4.8c-1.5390501-2.5220339-4.5361478-4.5559322-9.8013193-4.5559322h-14.9044855c-2.2680738 0-3.807124 1.05762712-4.5361477 1.62711864-1.7010554 1.38305085-2.18707125 3.09152542-2.59208445 4.47457627l-8.10026385 27.33559319c-.64802111 2.1152543-.08100264 3.2542373.48601583 3.8237288.24300792.2440678 1.13403694 1.0576272 3.96912929 1.0576272h15.47150398c5.9941952 0 9.9633245-2.6847458 12.0693931-4.7186441 4.2931399-4.1491525 6.4802111-10.7389831 7.6952507-14.8881356 1.2960422-4.5559322 2.7540897-10.08813559.2430079-14.1559322zm-7.5332454 13.5864407c-1.8630607 6.5084746-3.7261214 9.3559322-5.1031662 10.820339-2.4300792 2.6847457-5.2651715 3.579661-9.2343008 3.579661h-8.2622691c-.6480211 0-1.37704489 0-1.70105545-.5694915-.40501319-.5694916-.08100264-1.301695.08100264-2.1152543l6.39920841-21.88474575c.243008-.81355932.8100264-1.54576271 1.2960423-1.95254237.5670184-.40677966 1.3770448-.40677966 1.782058-.40677966h7.4522427c2.5920845 0 5.83219.48813559 7.3712401 2.76610169 1.7820581 2.68474579.8910291 6.50847459-.0810026 9.76271189zm32.0770449-8.86779663h-16.362533l-1.4580475 4.88135593h14.1754617c.9720317 0 2.1870713.1627119 2.7540897 1.220339.4860159.8949152.243008 1.8711864 0 2.7661017l-.5670184 2.0338983h-12.4744064c-1.5390501 0-3.4831134.0813559-5.7511873 1.7084746-2.7540897 1.9525423-3.7261214 4.4745762-4.5361478 7.0779661-.6480211 2.1152542-1.5390501 5.8576271.1620053 7.8915254 1.2150396 1.3830508 3.2401056 1.3830508 4.7791557 1.3830508h13.7704485c1.3770449 0 2.9970977-.0813559 4.2931399-1.138983 1.3770448-1.0576271 1.9440633-2.6847458 2.2680739-3.7423729l4.3741424-15.0508475c.9720317-3.2542372.7290238-5.6135593-.1620052-6.8338983-.8100264-1.3016949-2.7540897-2.19661013-5.2651715-2.19661013zm-4.7791557 22.53559323c-.1620053.4067796-.2430079.8135593-.8100264 1.220339-.5670185.3254237-1.1340369.3254237-1.5390501.3254237h-8.9102903c-.8100263 0-1.5390501-.4067797-1.782058-.8949153-.4860158-.8135593-.1620053-2.359322.0810026-3.2542372.5670185-2.1152543 1.2960422-2.8474577 1.6200528-3.0915255.9720317-.8949152 2.1870712-.9762712 2.5920844-.9762712h10.6113457zm20.4936675.3254237c-1.3770448-1.5457627-.4050132-4.2305085.1620053-6.2644068l3.4021108-11.6338983h8.0192612l1.4580475-4.8813559h-8.0192612l2.7540897-9.27457627h-6.3992084l-2.7540897 9.27457627h-3.9691293l-1.4580475 4.8813559h3.9691293l-4.2931399 14.5627119c-1.0530343 3.6610169-.6480211 5.7762712.7290238 7.3220339 1.3770448 1.4644068 3.2401055 2.1152542 7.1282322 2.1152542h3.9691293l1.4580475-4.8813559h-1.5390502c-1.2150395 0-3.5641161-.0813559-4.6171504-1.220339zm33.1300796-22.86101693h-16.3625334l-1.4580475 4.88135593h14.1754619c.972032 0 2.187071.1627119 2.75409 1.220339.486015.8949152.243007 1.8711864 0 2.7661017l-.567019 2.0338983h-12.555409c-1.53905 0-3.4831133.0813559-5.7511872 1.7084746-2.7540897 1.9525423-3.7261214 4.4745762-4.5361478 7.0779661-.6480211 2.1152542-1.5390501 5.8576271.1620053 7.8915254 1.2150396 1.3830508 3.2401056 1.3830508 4.7791557 1.3830508h13.770449c1.377044 0 2.997097-.0813559 4.293139-1.138983 1.377045-1.0576271 1.944064-2.6847458 2.268074-3.7423729l4.374143-15.0508475c.972031-3.2542372.729023-5.6135593-.162006-6.8338983-.810026-1.3016949-2.754089-2.19661013-5.184168-2.19661013zm-4.860159 22.53559323c-.162005.4067796-.243008.8135593-.810026 1.220339-.567019.3254237-1.134037.3254237-1.53905.3254237h-8.9102905c-.8100264 0-1.5390501-.4067797-1.782058-.8949153-.4860159-.8135593-.1620053-2.359322.0810026-3.2542372.5670185-2.1152543 1.2960422-2.8474577 1.6200528-3.0915255.9720317-.8949152 2.1870711-.9762712 2.5920841-.9762712h10.611346zm194.32533-19.7694915c-2.268074-.6508475-4.61715.7322034-5.184169 3.0101695-.162005.5694915-.162005 1.2203389-.081002 1.7898305l-12.150396 9.0305084c-.081003 0-.162005-.0813559-.324011-.0813559-.891029-.2440678-1.86306-.1627119-2.673087.1627119l-10.692348-7.240678c.081003-1.9525424-1.134037-3.8237288-3.159103-4.3118644-2.268074-.6508475-4.61715.7322034-5.184169 3.0101695-.162005.4881356-.162005 1.0576271-.081003 1.5457627l-9.882321 7.6474576c-.243008-.0813559-.405014-.1627118-.648022-.2440678-2.268073-.6508474-4.61715.7322034-5.184168 3.0101695-.567019 2.2779661.729023 4.6372882 2.997097 5.2067797s4.617151-.7322034 5.184169-3.0101695c.081003-.4067797.162005-.8135593.081003-1.3016949l10.044327-7.8101695c.162005.0813559.243008.1627118.405013.1627118.972032.2440678 1.944063.1627119 2.835092-.2440677l10.530343 7.159322c-.162005 2.0338983 1.134037 3.9864407 3.159103 4.4745763 2.268074.6508474 4.617151-.7322034 5.184169-3.0101695.162006-.5694916.162006-1.1389831.081003-1.7084746l12.231398-9.1118644c.081003 0 .162006.0813559.243008.0813559 2.268074.6508475 4.617151-.7322034 5.184169-3.0101695.729024-2.1966101-.648021-4.5559322-2.916095-5.2067796z" fill="#fff"/><g fill="#4eb6d9" fill-rule="nonzero" transform="translate(118.263852 8.949153)"><path d="m115.023747 29.6135593 1.458047-4.8813559h-14.094459c-2.349076 0-4.9411609-.3254237-4.7791556-3.4169492 0-.8949152.4050132-2.7661017.8100264-3.9864406h16.6055412c1.134037 0 2.268074-.2440678 3.402111-1.0576272 1.53905-1.2203389 2.187071-2.9288135 2.673087-4.3932203 1.053034-3.66101695 1.458047-7.24067796-1.296043-9.43728813-2.187071-1.70847458-5.589182-1.87118644-8.991293-1.87118644-2.754089 0-7.614248 0-11.5833768 2.76610169-3.9691293 2.7661017-5.4271768 6.75254238-6.9662269 12.12203388-1.134037 3.8237288-2.1060686 7.8101695-1.0530343 10.5762712 1.3770448 3.4169492 4.7791556 3.661017 7.7762533 3.661017h16.0385227zm-15.309499-17.3288135c.648021-1.9525424 1.053034-3.49830512 2.75409-4.9627119 2.349076-1.95254237 4.941161-1.95254237 6.642216-1.95254237 1.782058 0 3.807124.08135593 5.022164 1.30169491.729023.73220339 1.215039 2.11525424.729023 3.90508476-.243007.7322034-.648021 1.7084746-1.944063 1.7084746z"/><path d="m.08100264 29.6135593h6.39920844l6.56121372-22.5355932c.0810026-.40677966.2430079-.81355932.6480211-1.22033898.4050132-.32542373.8100264-.32542373 1.2150396-.32542373h6.4802111c2.3490765 0 3.4831134.56949153 4.0501319 1.78983051.6480211 1.38305085.2430079 3.2542373-.3240106 5.1254237l-5.0221635 17.1661017h6.3992084l5.5891821-19.118644c1.1340369-3.98644072.4860158-6.18305089-.6480212-7.56610174-1.7010554-2.11525424-4.3741424-2.35932203-7.3712401-2.35932203h-10.2063324c-1.2150396 0-3.1591029-.08135594-4.77915569 1.30169491-1.13403693.89491525-1.62005277 2.2779661-1.86306068 3.09152542z"/><path d="m67.8802111.73220339h-6.4802111l-16.2815303 22.12881351-2.7540898-22.29152537h-6.5612137l4.3741425 28.88135597-7.2092348 9.4372881h6.4802111z"/><path d="m87.8068602 24.6508475h-16.4435357c-.2430079 0-.4860158.0813559-.4050132-.2440678.0810027-.2440678.3240106-.4067797.6480212-.7322034l19.5216358-15.45762715c1.0530343-.81355932 2.1870713-1.70847457 2.8350924-3.90508474.6480211-2.2779661-.4860158-3.66101695-2.6730871-3.66101695h-20.4126649l-1.4580475 4.88135593h15.7145119c.4050132 0 .4860158.2440678.4050132.40677966 0 .08135593-.1620053.2440678-.6480211.65084746l-19.1976254 14.88813559c-1.2960422.9762712-2.5110818 1.9525424-3.1591029 4.1491525-1.0530343 3.7423729 1.9440634 3.9050848 2.916095 3.9050848h20.8176781z"/></g></g></g></svg>